<svg width="37" height="36" viewBox="0 0 37 36" fill="none" xmlns="http://www.w3.org/2000/svg">
<path id="Vector" d="M36.4037 10.2544L34.3186 6.01393C33.7799 4.91823 32.7932 4.06879 31.609 3.68473L21.9013 0.535425C19.7001 -0.178475 17.2761 -0.178475 15.075 0.535425L5.36725 3.68473C4.18077 4.06879 3.19398 4.91823 2.6553 6.01619L0.672429 10.0782C-0.0636037 11.2665 -0.202916 12.6921 0.291642 13.9911C0.767625 15.2517 1.77764 16.2254 3.07092 16.6863L3.06395 26.159C3.06163 29.3964 5.17917 32.2588 8.33459 33.2822L15.0634 35.4646C16.1639 35.8215 17.3202 36 18.4765 36C19.6328 36 20.7891 35.8215 21.8897 35.4646L28.6254 33.28C31.7762 32.2588 33.8937 29.401 33.896 26.1703L33.903 16.6886C35.2079 16.2435 36.2272 15.2698 36.7078 14.0024C37.1954 12.7147 37.0584 11.3027 36.4037 10.2544ZM16.0478 3.38425C17.6197 2.87367 19.3519 2.87367 20.9238 3.38425L27.4738 5.50788L18.4974 8.43353L9.50249 5.50788L16.0478 3.38425ZM3.38205 11.4992L5.42761 7.32653C5.50191 7.36493 16.3079 10.887 16.3079 10.887L13.8096 15.7736C13.4404 16.37 12.6765 16.6456 12.0008 16.4242L4.16684 13.8849C3.70943 13.7358 3.34954 13.3969 3.18237 12.9564C3.01519 12.5158 3.06163 12.0324 3.38205 11.5015V11.4992ZM9.30513 30.4356C7.41281 29.8211 6.14043 28.1042 6.14275 26.1636L6.14972 17.6916L11.0256 19.2731C13.0967 19.944 15.3304 19.142 16.5122 17.2172L16.9418 16.3813L16.9348 32.8552C16.6306 32.7942 16.3311 32.7197 16.0386 32.6225L9.30746 30.4402L9.30513 30.4356ZM27.6479 30.4334L20.9098 32.618C20.6173 32.7129 20.3178 32.7897 20.0136 32.8507L20.0206 16.3565L20.5128 17.3166C21.3696 18.7083 22.8741 19.5058 24.4623 19.5058C24.9545 19.5058 25.4537 19.4289 25.9413 19.2708L30.8149 17.6916L30.808 26.1681C30.808 28.1065 29.5356 29.8211 27.6432 30.4356H27.6456L27.6479 30.4334ZM33.8148 12.9654C33.6522 13.3924 33.304 13.7222 32.8605 13.8646L24.9685 16.4242C24.2928 16.6456 23.5289 16.3723 23.2178 15.8775L20.666 10.8915C20.666 10.8915 31.4674 7.36493 31.5417 7.32653L33.6894 11.6777C33.9309 12.0685 33.9773 12.5384 33.8148 12.9654Z" fill="#005DA5"/>
</svg>
