<svg width="28" height="37" viewBox="0 0 28 37" fill="none" xmlns="http://www.w3.org/2000/svg">
<g id="Group 369">
<path id="Vector" d="M13.6944 18.6782C18.736 18.6782 22.8242 14.6624 22.8242 9.71022C22.8242 4.75799 18.736 0.742188 13.6944 0.742188C8.65291 0.742188 4.5647 4.75799 4.5647 9.71022C4.56928 14.6602 8.6552 18.6737 13.6944 18.6782ZM13.6944 3.72928C17.0562 3.72928 19.7809 6.40573 19.7809 9.70797C19.7809 13.0102 17.0562 15.6866 13.6944 15.6866C10.3327 15.6866 7.60794 13.0102 7.60794 9.70797C7.60794 6.40573 10.3327 3.72928 13.6944 3.72928Z" fill="#005DA5"/>
<path id="Vector_2" d="M13.6946 21.667C6.13461 21.676 0.0068748 27.693 0 35.119C0 35.9452 0.680605 36.6137 1.52162 36.6137C2.36264 36.6137 3.04324 35.9452 3.04324 35.119C3.04324 29.3407 7.81207 24.6563 13.6946 24.6563C19.5771 24.6563 24.346 29.3407 24.346 35.119C24.346 35.9452 25.0266 36.6137 25.8676 36.6137C26.7086 36.6137 27.3892 35.9452 27.3892 35.119C27.38 27.693 21.2546 21.6737 13.6946 21.667Z" fill="#005DA5"/>
</g>
</svg>
