<svg width="37" height="36" viewBox="0 0 37 36" fill="none" xmlns="http://www.w3.org/2000/svg">
<g id="Group 368">
<path id="Vector" d="M35.1829 13.523L23.6424 2.18461C20.668 -0.728202 15.8556 -0.728202 12.8811 2.18461L1.3383 13.523C0.478953 14.3603 -0.00228345 15.5038 8.1469e-06 16.6924V31.3667C8.1469e-06 33.8428 2.04412 35.8507 4.56488 35.8507H31.9564C34.4771 35.8507 36.5212 33.8428 36.5212 31.3667V16.6924C36.5258 15.5016 36.0423 14.3603 35.1829 13.523ZM22.8266 32.8614H13.6969V26.9818C13.6969 24.5056 15.741 22.4977 18.2618 22.4977C20.7825 22.4977 22.8266 24.5056 22.8266 26.9818V32.8614ZM33.478 31.3667C33.478 32.1928 32.7974 32.8614 31.9564 32.8614H25.8699V26.9818C25.8699 22.8534 22.4646 19.5084 18.2618 19.5084C14.059 19.5084 10.6537 22.8534 10.6537 26.9818V32.8614H4.56717C3.72615 32.8614 3.04554 32.1928 3.04554 31.3667V16.6924C3.04554 16.2962 3.20825 15.9158 3.49241 15.6367L15.0352 4.30281C16.8204 2.55602 19.7078 2.55602 21.4929 4.30281L33.0357 15.6412C33.3199 15.9203 33.478 16.2985 33.4826 16.6924V31.3667H33.478Z" fill="#005DA5"/>
</g>
</svg>
