<svg width="37" height="36" viewBox="0 0 37 36" fill="none" xmlns="http://www.w3.org/2000/svg">
<g id="Group 373">
<path id="Vector" d="M21.4356 29.0212C22.0314 29.6065 22.8129 29.8969 23.5943 29.8969C24.3758 29.8969 25.1411 29.611 25.7232 29.037L29.9741 24.9896C30.5768 24.4156 30.5929 23.4679 30.0062 22.8759C29.4196 22.2839 28.4571 22.2682 27.8544 22.8444L23.5714 26.8918L21.0231 24.4652C24.6118 22.2096 27.0592 18.5855 27.3571 14.4279C27.639 10.5224 26.1884 6.70017 23.3812 3.94268C20.574 1.18294 16.6783 -0.246453 12.7069 0.0349239C5.81837 0.514389 0 6.86226 0 13.8967V21.4263C0 24.4471 2.50014 26.9052 5.57088 26.9052H12.3838C14.4165 26.9052 16.362 26.5406 18.138 25.8811L21.4333 29.0189L21.4356 29.0212ZM5.57088 23.9181C4.17759 23.9181 3.04325 22.8017 3.04325 21.4285V13.8989C3.04325 8.37494 7.56457 3.39344 12.9178 3.01977C13.1721 3.00176 13.4242 2.99276 13.6763 2.99276C16.5041 2.99276 19.2219 4.08675 21.2271 6.05863C23.4133 8.20385 24.5385 11.1774 24.3208 14.2208C23.9358 19.5692 18.5803 23.9204 12.3838 23.9204H5.57317L5.57088 23.9181ZM18.1884 9.66701C18.5299 11.5669 17.6087 13.4667 15.8968 14.3941C15.2162 14.761 15.2162 14.8691 15.2162 14.9479C15.2162 15.774 14.5356 16.4425 13.6946 16.4425C12.8536 16.4425 12.173 15.774 12.173 14.9479C12.173 12.9917 13.7519 12.1386 14.4256 11.774C14.8656 11.5353 15.3308 10.9749 15.1887 10.1825C15.0833 9.59499 14.5769 9.09751 13.9811 8.99621C13.509 8.90842 13.0644 9.02771 12.7161 9.31809C12.3701 9.60172 12.1707 10.0204 12.1707 10.4639C12.1707 11.29 11.4901 11.9585 10.6491 11.9585C9.80805 11.9585 9.12745 11.29 9.12745 10.4639C9.12745 9.13578 9.72326 7.88196 10.7591 7.02658C11.7949 6.17119 13.1607 5.80876 14.5081 6.04962C16.3483 6.36476 17.863 7.85269 18.1861 9.66476L18.1884 9.66701ZM15.5989 19.8078C15.5989 20.8388 14.7464 21.6761 13.6969 21.6761C12.6473 21.6761 11.7949 20.8388 11.7949 19.8078C11.7949 18.7769 12.6473 17.9395 13.6969 17.9395C14.7464 17.9395 15.5989 18.7769 15.5989 19.8078ZM36.5212 23.9181V31.3915C36.5212 33.8676 34.4771 35.8755 31.9564 35.8755H24.3483C19.8521 35.8755 15.9266 33.4624 13.8183 29.8901C14.9894 29.8811 16.1283 29.755 17.2305 29.5187C18.9057 31.5671 21.4723 32.8839 24.3483 32.8839H31.9564C32.7974 32.8839 33.478 32.2154 33.478 31.3893V23.9159C33.478 21.0887 32.1374 18.5698 30.052 16.9243C30.2904 15.8415 30.421 14.7228 30.4302 13.5725C34.0646 15.6434 36.5235 19.4994 36.5235 23.9159L36.5212 23.9181Z" fill="#005DA5"/>
</g>
</svg>
