<svg width="37" height="33" viewBox="0 0 37 33" fill="none" xmlns="http://www.w3.org/2000/svg">
<path id="Vector" d="M34.003 6.37227L22.6352 1.10792C20.1328 -0.345243 17.0198 -0.370061 14.4918 1.04023L2.99628 6.37227C2.95217 6.39258 2.90806 6.41514 2.86628 6.43996C0.138649 7.95631 -0.808477 11.3342 0.751495 13.9856C1.28077 14.8837 2.05844 15.6215 2.99628 16.1112L6.16729 17.5802V24.9227C6.16729 28.2059 8.36797 31.1054 11.5924 32.0825C13.8372 32.7143 16.1632 33.0234 18.5008 32.9986C20.8361 33.0234 23.1645 32.7165 25.4093 32.0892C28.6337 31.1144 30.832 28.2126 30.8344 24.9295V17.5779L33.9172 16.1451V28.5037C33.9172 29.3318 34.6066 30.002 35.4586 30.002C36.3105 30.002 37 29.3318 37 28.5037V10.5242C37.0092 8.76413 35.5816 7.13947 34.0054 6.37453L34.003 6.37227ZM27.7492 24.9295C27.7492 26.8926 26.44 28.6301 24.5132 29.219C22.5586 29.7628 20.5344 30.0246 18.5008 30.002C16.4696 30.0268 14.443 29.7628 12.4884 29.219C10.5617 28.6301 9.25009 26.8926 9.25241 24.9295V19.0085L14.3664 21.3755C15.6269 22.1044 17.0685 22.4857 18.5356 22.4835C19.9331 22.4925 21.3051 22.1337 22.5075 21.4432L27.7492 19.0085V24.9295ZM32.6822 13.4057L21.0567 18.8009C19.4363 19.7193 17.426 19.6922 15.8312 18.7332L4.45643 13.4734C3.18895 12.8077 2.71539 11.2711 3.39788 10.039C3.63002 9.62158 3.9759 9.27635 4.39839 9.04168L15.9519 3.67805C17.5746 2.76192 19.5826 2.78899 21.1774 3.74574L32.5452 9.01008C33.3809 9.46138 33.9032 10.3143 33.9148 11.2417C33.9148 12.1217 33.4506 12.9409 32.6822 13.408V13.4057Z" fill="#005DA5"/>
</svg>
