<svg width="42" height="30" viewBox="0 0 42 30" fill="none" xmlns="http://www.w3.org/2000/svg">
<g id="Group 334">
<path id="Vector" d="M6.87695 30C5.00312 30 3.41037 29.3254 2.07995 27.9763C0.749532 26.6271 0.0562149 25.0156 0 23.1043C0 22.8232 0 22.5422 0.0562149 22.2611C0.11243 21.98 0.131168 21.6989 0.206121 21.4179L4.10369 5.6777C4.53467 3.99126 5.4341 2.62336 6.78326 1.57402C8.13242 0.524672 9.65022 0 11.3741 0H29.644C31.3679 0 32.8857 0.524672 34.2349 1.57402C35.584 2.62336 36.4647 3.99126 36.9144 5.6777L40.8495 21.4179C40.9057 21.6989 40.9619 21.98 41.0181 22.2798C41.0743 22.5796 41.0931 22.8607 41.0931 23.1418C41.0931 25.0531 40.4185 26.6646 39.0506 27.995C37.6827 29.3254 36.0525 29.9813 34.1599 29.9813C32.8482 29.9813 31.6302 29.644 30.5059 28.9507C29.3816 28.2573 28.5384 27.3204 27.9763 26.1399L26.6646 23.4229C26.5147 23.1043 26.2711 22.8794 25.9525 22.7108C25.634 22.5422 25.3154 22.4672 24.9594 22.4672H16.0587C15.7214 22.4672 15.3841 22.5422 15.0656 22.7108C14.747 22.8794 14.5222 23.1043 14.3535 23.4229L13.0418 26.1399C12.4797 27.3204 11.6365 28.2573 10.5122 28.9507C9.38788 29.644 8.16989 29.9813 6.85821 29.9813L6.87695 30ZM7.00812 26.2523C7.60775 26.2523 8.13242 26.1024 8.61961 25.7839C9.10681 25.4653 9.46284 25.0531 9.72517 24.5097L11.0369 21.8301C11.5053 20.8557 12.1986 20.1062 13.0981 19.5628C13.9975 19.0194 14.9906 18.7383 16.0587 18.7383H24.9594C26.0275 18.7383 27.0019 19.0194 27.92 19.5815C28.8382 20.1437 29.5315 20.8932 30.0375 21.8301L31.3492 24.5097C31.5928 25.0344 31.9675 25.4653 32.4547 25.7839C32.9419 26.1024 33.4853 26.2523 34.0662 26.2523C34.9469 26.2523 35.6964 25.9713 36.3148 25.3904C36.9332 24.8095 37.2705 24.0787 37.3079 23.2167C37.3079 23.2542 37.2705 22.9544 37.2142 22.3173L33.2792 6.61462C33.0543 5.77139 32.6234 5.07808 31.9675 4.5534C31.3117 4.02873 30.5434 3.74766 29.6627 3.74766H11.3741C10.4934 3.74766 9.72517 4.00999 9.05059 4.5534C8.37601 5.09681 7.94503 5.77139 7.75765 6.61462L3.82261 22.3173C3.7664 22.5047 3.72892 22.7858 3.72892 23.1605C3.72892 24.0412 4.04747 24.772 4.68457 25.3716C5.32167 25.9713 6.08994 26.2711 7.00812 26.2711V26.2523ZM23.3104 13.1355C23.8351 13.1355 24.2848 12.9482 24.6409 12.5921C24.9969 12.2361 25.1843 11.7864 25.1843 11.2617C25.1843 10.737 24.9969 10.2873 24.6409 9.93129C24.2848 9.57527 23.8351 9.38788 23.3104 9.38788C22.7858 9.38788 22.336 9.57527 21.98 9.93129C21.624 10.2873 21.4366 10.737 21.4366 11.2617C21.4366 11.7864 21.624 12.2361 21.98 12.5921C22.336 12.9482 22.7858 13.1355 23.3104 13.1355ZM27.0581 9.38788C27.5828 9.38788 28.0325 9.2005 28.3885 8.84447C28.7445 8.48845 28.9319 8.03873 28.9319 7.51405C28.9319 6.98938 28.7445 6.53966 28.3885 6.18364C28.0325 5.82761 27.5828 5.64022 27.0581 5.64022C26.5334 5.64022 26.0837 5.82761 25.7277 6.18364C25.3716 6.53966 25.1843 6.98938 25.1843 7.51405C25.1843 8.03873 25.3716 8.48845 25.7277 8.84447C26.0837 9.2005 26.5334 9.38788 27.0581 9.38788ZM27.0581 16.8832C27.5828 16.8832 28.0325 16.6958 28.3885 16.3398C28.7445 15.9838 28.9319 15.534 28.9319 15.0094C28.9319 14.4847 28.7445 14.035 28.3885 13.679C28.0325 13.3229 27.5828 13.1355 27.0581 13.1355C26.5334 13.1355 26.0837 13.3229 25.7277 13.679C25.3716 14.035 25.1843 14.4847 25.1843 15.0094C25.1843 15.534 25.3716 15.9838 25.7277 16.3398C26.0837 16.6958 26.5334 16.8832 27.0581 16.8832ZM30.8057 13.1355C31.3304 13.1355 31.7801 12.9482 32.1362 12.5921C32.4922 12.2361 32.6796 11.7864 32.6796 11.2617C32.6796 10.737 32.4922 10.2873 32.1362 9.93129C31.7801 9.57527 31.3304 9.38788 30.8057 9.38788C30.2811 9.38788 29.8314 9.57527 29.4753 9.93129C29.1193 10.2873 28.9319 10.737 28.9319 11.2617C28.9319 11.7864 29.1193 12.2361 29.4753 12.5921C29.8314 12.9482 30.2811 13.1355 30.8057 13.1355ZM13.9413 15.9463C14.3535 15.9463 14.6908 15.8151 14.9532 15.5528C15.2155 15.2904 15.3467 14.9532 15.3467 14.5409V12.6671H17.2205C17.6327 12.6671 17.97 12.5359 18.2324 12.2736C18.4947 12.0112 18.6259 11.674 18.6259 11.2617C18.6259 10.8495 18.4947 10.5122 18.2324 10.2498C17.97 9.98751 17.6327 9.85634 17.2205 9.85634H15.3467V7.98251C15.3467 7.57027 15.2155 7.23298 14.9532 6.97064C14.6908 6.70831 14.3535 6.57714 13.9413 6.57714C13.529 6.57714 13.1918 6.70831 12.9294 6.97064C12.6671 7.23298 12.5359 7.57027 12.5359 7.98251V9.85634H10.6621C10.2498 9.85634 9.91255 9.98751 9.65022 10.2498C9.38788 10.5122 9.25671 10.8495 9.25671 11.2617C9.25671 11.674 9.38788 12.0112 9.65022 12.2736C9.91255 12.5359 10.2498 12.6671 10.6621 12.6671H12.5359V14.5409C12.5359 14.9532 12.6671 15.2904 12.9294 15.5528C13.1918 15.8151 13.529 15.9463 13.9413 15.9463Z" fill="#005DA5"/>
</g>
</svg>
