<svg width="37" height="37" viewBox="0 0 37 37" fill="none" xmlns="http://www.w3.org/2000/svg">
<g id="Group 372">
<path id="Vector" d="M36.2325 28.0019V36.1595H0V23.5539C0 21.5077 1.69349 19.8465 3.77427 19.8465H9.81263C10.0716 19.8465 10.3237 19.8712 10.5666 19.9207V17.6225C10.5666 15.5763 12.2601 13.915 14.3408 13.915H21.8894C23.9701 13.915 25.6636 15.5785 25.6636 17.6225V24.371C25.9088 24.3215 26.1609 24.2967 26.4176 24.2967H32.4559C34.5367 24.2967 36.2302 25.9602 36.2302 28.0041L36.2325 28.0019ZM13.5869 33.1927H22.6456V17.6202C22.6456 17.2128 22.3064 16.8796 21.8917 16.8796H14.3431C13.9261 16.8796 13.5892 17.2128 13.5892 17.6202V33.1927H13.5869ZM3.01804 33.1927H10.5666V23.5539C10.5666 23.1464 10.2274 22.8133 9.81263 22.8133H3.77427C3.35719 22.8133 3.02033 23.1464 3.02033 23.5539V33.1927H3.01804ZM33.2145 28.0019C33.2145 27.5944 32.8753 27.2613 32.4605 27.2613H26.4221C26.0051 27.2613 25.6682 27.5944 25.6682 28.0019V33.1927H33.2167V28.0019H33.2145Z" fill="#005DA5"/>
<path id="Vector_2" d="M12.1386 4.23866C12.283 3.84923 12.6611 3.59037 13.0828 3.59037H16.1031L17.171 0.6438C17.3176 0.256626 17.6935 0 18.1151 0C18.5368 0 18.9126 0.256626 19.0593 0.6438L20.1271 3.59037H23.1475C23.5691 3.59037 23.9472 3.84924 24.0916 4.24091C24.236 4.63034 24.1168 5.06928 23.7937 5.33715L21.4127 7.24377L22.3981 10.1903C22.5333 10.5888 22.3981 11.0277 22.0567 11.2843C21.7175 11.5409 21.25 11.5589 20.8925 11.3293L18.1197 9.55555L15.395 11.3474C15.2254 11.4577 15.0306 11.5139 14.8358 11.5139C14.6227 11.5139 14.4096 11.4464 14.2308 11.3158C13.8871 11.0637 13.7473 10.627 13.8757 10.2264L14.8221 7.24377L12.4297 5.33041C12.1088 5.06254 11.9897 4.62358 12.1363 4.23641L12.1386 4.23866Z" fill="#005DA5"/>
</g>
</svg>
