<svg width="36" height="36" viewBox="0 0 36 36" fill="none" xmlns="http://www.w3.org/2000/svg">
<path id="Vector" d="M29.9997 10.4996H27.3925C29.1095 8.98576 30.065 6.78784 29.9997 4.49991C29.9997 3.67165 29.3282 3.00018 28.4999 3.00018C27.6716 3.00018 27.0002 3.67165 27.0002 4.49991C27.0002 8.43312 23.4438 9.79504 20.739 10.2612C21.7374 8.49148 22.3378 6.52558 22.5003 4.49991C22.5003 2.01441 20.4859 0 18.0004 0C15.5149 0 13.5004 2.01441 13.5004 4.49991C13.6622 6.52558 14.2633 8.49148 15.2617 10.2612C12.5576 9.79504 9.00053 8.43241 9.00053 4.49991C9.00053 3.67165 8.32906 3.00018 7.50079 3.00018C6.67253 3.00018 6.00105 3.67165 6.00105 4.49991C5.93567 6.78784 6.89119 8.98647 8.60819 10.4996H6.00105C2.68659 10.4996 0 13.1861 0 16.4999V17.9996C0 19.6562 1.34294 20.9998 3.00018 20.9998V28.4999C3.0051 32.6398 6.36034 35.9951 10.5003 36H25.4997C29.6397 35.9951 32.9949 32.6398 32.9998 28.4999V20.9998C34.6564 20.9998 36 19.6569 36 17.9996V16.4999C36 13.1861 33.3134 10.5003 30.0004 10.5003L29.9997 10.4996ZM17.9996 3.00018C18.8279 3.00018 19.4994 3.67165 19.4994 4.49991C19.318 6.09387 18.8075 7.63298 17.9996 9.01951C17.1918 7.63368 16.6806 6.09457 16.4999 4.49991C16.4999 3.67165 17.1714 3.00018 17.9996 3.00018ZM3.00018 16.4999C3.00018 14.8434 4.34312 13.4997 6.00035 13.4997H16.4999V17.9996H3.00018V16.4999ZM5.99965 28.4992V20.9991H16.4992V32.9991H10.4996C8.01406 32.9991 5.99965 30.9847 5.99965 28.4992ZM29.9997 28.4992C29.9997 30.9847 27.9852 32.9991 25.4997 32.9991H19.5001V20.9991H29.9997V28.4992ZM19.4994 17.9996V13.4997H29.9989C31.6555 13.4997 32.9991 14.8427 32.9991 16.4999V17.9996H19.4994Z" fill="#005DA5"/>
</svg>
