<svg width="129" height="159" viewBox="0 0 129 159" fill="none" xmlns="http://www.w3.org/2000/svg">
<path id="Vector" d="M128.719 132.42C127.23 133.859 125.692 135.297 124.107 136.639C121.225 139.132 118.151 141.433 114.932 143.542C100.521 152.987 83.2755 158.5 64.7812 158.5C46.287 158.5 28.9935 152.987 14.6304 143.542C11.4119 141.433 8.38558 139.132 5.45532 136.639C3.8701 135.297 2.3329 133.859 0.84375 132.42C4.49457 122.065 12.8531 113.724 23.7095 110.32L51.0426 101.691V97.1846C47.632 95.1711 44.5576 92.87 42.0116 91.1442C37.304 87.9802 34.1816 83.0423 33.2208 77.4334L31.7797 68.7563C27.2162 68.7563 23.5173 65.0649 23.5173 60.5106V41.2867C23.5173 29.925 28.1289 19.6179 35.5746 12.1872C43.0684 4.75652 53.3484 0.154297 64.7332 0.154297C87.5028 0.154297 105.949 18.6112 105.949 41.2867V60.5106C105.949 65.0649 102.25 68.7563 97.6867 68.7563L96.2456 77.4334C95.3329 82.9944 92.1624 87.9802 87.4548 91.1442C84.9088 92.8221 81.8825 95.1711 78.4718 97.1846V101.691L105.757 110.32C116.661 113.772 125.02 122.065 128.671 132.42H128.719Z" fill="#959595"/>
</svg>
