<svg width="19" height="15" viewBox="0 0 19 15" fill="none" xmlns="http://www.w3.org/2000/svg">
<g id="Layer_1" clip-path="url(#clip0_2025_670)">
<path id="Vector" d="M1.81 15C1.3 15 0.88 14.82 0.53 14.47C0.18 14.12 0 13.69 0 13.19V1.81C0 1.3 0.18 0.88 0.53 0.53C0.88 0.18 1.31 0 1.81 0H17.19C17.7 0 18.12 0.18 18.47 0.53C18.82 0.88 19 1.31 19 1.81V13.19C19 13.7 18.82 14.12 18.47 14.47C18.12 14.82 17.69 15 17.19 15H1.81ZM9.5 8.06L1.5 2.94V13.19C1.5 13.28 1.53 13.35 1.59 13.41C1.65 13.47 1.72 13.5 1.81 13.5H17.19C17.28 13.5 17.35 13.47 17.41 13.41C17.47 13.35 17.5 13.28 17.5 13.19V2.94L9.5 8.06ZM9.5 6.5L17.35 1.5H1.65L9.5 6.5ZM1.5 2.94V1.5V13.19C1.5 13.28 1.53 13.35 1.59 13.41C1.65 13.47 1.72 13.5 1.81 13.5H1.5V2.94Z" fill="#908D8D"/>
</g>
<defs>
<clipPath id="clip0_2025_670">
<rect width="19" height="15" fill="white"/>
</clipPath>
</defs>
</svg>
