<svg width="13" height="21" viewBox="0 0 13 21" fill="none" xmlns="http://www.w3.org/2000/svg">
<g id="Layer_1" clip-path="url(#clip0_2025_839)">
<path id="Vector" d="M12.47 0.53C12.12 0.18 11.69 0 11.19 0H1.81C1.3 0 0.88 0.18 0.53 0.53C0.18 0.88 0 1.31 0 1.81V19.19C0 19.7 0.17 20.12 0.53 20.47C0.89 20.82 1.31 20.99 1.81 20.99H11.19C11.7 20.99 12.12 20.81 12.47 20.46C12.82 20.11 12.99 19.68 12.99 19.18V1.81C12.99 1.3 12.82 0.88 12.47 0.53ZM11.5 19.2C11.5 19.37 11.37 19.5 11.2 19.5H1.8C1.63 19.5 1.5 19.37 1.5 19.2V1.8C1.5 1.63 1.63 1.5 1.8 1.5H11.2C11.37 1.5 11.5 1.63 11.5 1.8V19.2Z" fill="#908D8D"/>
<path id="Vector_2" d="M6.50011 18.8796C6.74011 18.8796 6.95011 18.7896 7.13011 18.6196C7.30011 18.4496 7.39011 18.2396 7.39011 17.9896C7.39011 17.7396 7.30011 17.5396 7.13011 17.3596C6.96011 17.1896 6.75011 17.0996 6.50011 17.0996C6.25011 17.0996 6.05011 17.1896 5.87011 17.3596C5.70011 17.5296 5.61011 17.7396 5.61011 17.9896C5.61011 18.2396 5.70011 18.4396 5.87011 18.6196C6.04011 18.7896 6.25011 18.8796 6.50011 18.8796Z" fill="#908D8D"/>
<path id="Vector_3" d="M8.93992 2.20996H4.05992C3.84453 2.20996 3.66992 2.38457 3.66992 2.59996V2.60996C3.66992 2.82535 3.84453 2.99996 4.05992 2.99996H8.93992C9.15531 2.99996 9.32992 2.82535 9.32992 2.60996V2.59996C9.32992 2.38457 9.15531 2.20996 8.93992 2.20996Z" fill="#908D8D"/>
</g>
<defs>
<clipPath id="clip0_2025_839">
<rect width="13" height="21" fill="white"/>
</clipPath>
</defs>
</svg>
