<svg width="65" height="65" viewBox="0 0 65 65" fill="none" xmlns="http://www.w3.org/2000/svg">
<g id="Layer_3" clip-path="url(#clip0_1406_1563)">
<path id="Vector" d="M32.5231 65.0461C50.4851 65.0461 65.0461 50.4851 65.0461 32.5231C65.0461 14.5611 50.4851 0 32.5231 0C14.5611 0 0 14.5611 0 32.5231C0 50.4851 14.5611 65.0461 32.5231 65.0461Z" fill="white"/>
<path id="Vector_2" fill-rule="evenodd" clip-rule="evenodd" d="M16.4695 46.1322H48.6696C49.8229 46.1322 50.8378 45.1173 50.8378 43.964V25.5112C50.8378 24.3579 49.9613 23.343 48.808 23.343H46.2246L45.671 20.1599C45.5326 19.4217 44.7945 18.8682 44.1025 18.8682H33.1231C32.2466 18.8682 31.693 19.4217 31.3701 20.1599L30.8165 23.343H25.6036L25.1884 22.4665C25.1884 21.4516 23.4354 21.1748 22.4205 21.1748C20.9904 21.1748 19.2374 20.898 18.0841 21.4516C17.0692 22.0051 17.5305 22.4665 17.0692 23.343H16.2388C15.0855 23.4814 14.209 24.3579 14.209 25.5112V43.964C14.209 45.1173 15.2239 46.1322 16.5156 46.1322H16.4695Z" fill="#595959"/>
<path id="Vector_3" fill-rule="evenodd" clip-rule="evenodd" d="M38.8436 26.249C34.2765 26.249 30.5859 29.9396 30.5859 34.5067C30.5859 39.0737 34.2765 42.7643 38.8436 42.7643C43.4106 42.7643 47.1012 39.0737 47.1012 34.5067C47.1012 29.9396 43.4106 26.249 38.8436 26.249ZM38.8436 40.227C35.6605 40.227 33.0771 37.6436 33.0771 34.4605C33.0771 31.2774 35.6605 28.694 38.8436 28.694C42.0267 28.694 44.6101 31.2774 44.6101 34.4605C44.6101 37.6436 42.0267 40.227 38.8436 40.227Z" fill="white"/>
<path id="Vector_4" d="M24.1731 24.8193H22.8353C21.8416 24.8193 21.0361 25.6248 21.0361 26.6185C21.0361 27.6121 21.8416 28.4176 22.8353 28.4176H24.1731C25.1668 28.4176 25.9723 27.6121 25.9723 26.6185C25.9723 25.6248 25.1668 24.8193 24.1731 24.8193Z" fill="white"/>
</g>
<defs>
<clipPath id="clip0_1406_1563">
<rect width="65" height="65" fill="white"/>
</clipPath>
</defs>
</svg>
