<svg width="41" height="39" viewBox="0 0 41 39" fill="none" xmlns="http://www.w3.org/2000/svg">
<g id="Layer_3" clip-path="url(#clip0_1339_114)">
<g id="ySCImy">
<path id="Vector" d="M41.0002 19.1825C40.8886 19.3625 40.7999 19.5628 40.6625 19.7196C40.1873 20.2712 39.38 20.306 38.839 19.7893C38.5098 19.4757 38.2121 19.1273 37.9001 18.7963C37.8658 18.8079 37.8314 18.8225 37.7942 18.8341V19.2492C37.7942 24.5536 37.7942 29.8608 37.7942 35.1651C37.7942 36.8723 36.8324 38.2716 35.2838 38.7884C34.8859 38.922 34.4479 38.9917 34.03 38.9917C25.0101 39.0033 15.9903 39.0033 6.97049 38.9975C4.80069 38.9975 3.20626 37.3658 3.2034 35.168C3.19767 29.8753 3.2034 24.5855 3.2034 19.2928C3.2034 19.1476 3.2034 19.0025 3.2034 18.8544C3.17477 18.8341 3.14615 18.8137 3.11752 18.7934C2.83699 19.0896 2.56219 19.3915 2.27594 19.6789C1.68626 20.2712 0.921962 20.3089 0.389531 19.7805C-0.154349 19.2405 -0.125724 18.445 0.472544 17.8382C5.74532 12.4904 11.0124 7.13378 16.2966 1.79461C18.6639 -0.597703 22.328 -0.5948 24.7067 1.79461C27.7496 4.85469 30.7667 7.93509 33.7981 11.0068C35.9593 13.1988 38.1234 15.3849 40.276 17.5856C40.5508 17.8673 40.7626 18.2157 41.0031 18.5321V19.1825H41.0002ZM26.9051 36.4019C29.2639 36.4019 31.5596 36.4019 33.8554 36.4019C34.8258 36.4019 35.2351 35.9838 35.2351 34.9909C35.2351 28.833 35.2351 22.6751 35.2408 16.5172C35.2408 16.2559 35.1721 16.0672 34.9861 15.8785C30.9986 11.8458 27.0196 7.80444 23.035 3.76886C21.4978 2.21269 19.4998 2.21269 17.9655 3.76886C13.9837 7.80734 10.0019 11.8458 6.0144 15.8785C5.82834 16.0672 5.75677 16.253 5.75677 16.5143C5.7625 22.6867 5.7625 28.8563 5.7625 35.0287C5.7625 35.9693 6.18043 36.399 7.0993 36.399C9.30058 36.399 11.5019 36.399 13.7032 36.399H14.0867C14.0867 36.2132 14.0867 36.068 14.0867 35.9229C14.0867 32.7147 14.0839 29.5066 14.0867 26.3013C14.0896 23.8626 15.8243 22.1119 18.2288 22.1061C19.6973 22.1032 21.1658 22.1061 22.6314 22.1061C25.2019 22.1061 26.8965 23.819 26.8965 26.4233C26.8965 29.5908 26.8965 32.7583 26.8965 35.9229V36.4019H26.9051ZM16.6544 36.3729H24.326C24.3317 36.2916 24.3403 36.2393 24.3403 36.1871C24.3403 32.8599 24.346 29.5298 24.3403 26.2026C24.3403 25.3171 23.722 24.7103 22.8403 24.7074C21.3203 24.7016 19.8003 24.7074 18.2775 24.7074C17.2212 24.7074 16.6544 25.2852 16.6544 26.3652C16.6544 28.9085 16.6544 31.4518 16.6544 33.9951C16.6544 34.779 16.6544 35.5629 16.6544 36.3729Z" fill="white"/>
</g>
</g>
<defs>
<clipPath id="clip0_1339_114">
<rect width="41" height="39" fill="white"/>
</clipPath>
</defs>
</svg>
