<svg width="44" height="31" viewBox="0 0 44 31" fill="none" xmlns="http://www.w3.org/2000/svg">
<g id="Layer_3" clip-path="url(#clip0_1339_71)">
<g id="Hu3KfP">
<path id="Vector" d="M22.1144 0.00566895C24.1774 0.00566895 26.2404 0.00281312 28.3005 0.00566895C35.6526 0.0170923 41.7403 5.48886 42.5505 12.717C42.9266 16.084 43.4561 19.4367 43.9277 22.7952C44.4081 26.2193 42.4608 29.3836 39.1507 30.5316C35.4298 31.8253 31.7378 30.3603 29.9613 26.8819C29.1511 25.2969 28.3439 23.7119 27.554 22.1183C27.418 21.8442 27.2762 21.7128 26.9377 21.7157C23.6479 21.7328 20.3581 21.7299 17.0683 21.7157C16.7645 21.7157 16.6111 21.807 16.478 22.0812C15.636 23.7747 14.8085 25.4796 13.9058 27.1446C12.5372 29.6777 10.3556 31.0114 7.45349 30.9685C4.50222 30.9257 2.20196 29.6434 0.778409 27.0218C-0.0519979 25.4911 -0.118546 23.8375 0.121606 22.1612C0.630845 18.58 1.08222 14.9902 1.69272 11.4261C2.6678 5.75159 7.67918 1.00806 13.4371 0.202721C14.2935 0.0827763 15.1615 0.0285156 16.0266 0.0170923C18.0549 -0.00861018 20.0861 0.00852478 22.1144 0.00852478V0.00566895ZM36.6161 27.9499C36.8273 27.9214 37.1543 27.8957 37.4726 27.83C39.5732 27.3988 41.1269 25.4168 40.8376 23.4606C40.2821 19.7252 39.7323 15.984 39.0929 12.2629C38.1496 6.78255 33.6735 3.11281 28.0401 3.10995C23.9633 3.10995 19.8893 3.1071 15.8125 3.11281C15.3062 3.11281 14.797 3.14422 14.2964 3.19848C9.52517 3.70396 5.37314 7.69355 4.72501 12.3857C4.27653 15.6328 3.8107 18.877 3.37379 22.1269C3.25227 23.0322 3.0208 23.9318 3.29278 24.8628C3.7673 26.4877 5.25161 27.7472 6.97319 27.9328C8.90019 28.1413 10.3324 27.3902 11.1976 25.6938C12.2218 23.6919 13.2403 21.6871 14.2443 19.6737C14.6089 18.9398 15.1557 18.6114 15.9977 18.6142C20.008 18.6342 24.0182 18.6342 28.0285 18.6142C28.9197 18.6114 29.5041 18.9598 29.8947 19.7509C30.8843 21.7528 31.8999 23.7404 32.9183 25.7281C33.659 27.1703 34.8685 27.8957 36.619 27.9499H36.6161Z" fill="white"/>
<path id="Vector_2" d="M12.5778 12.4168C12.0397 12.4168 11.5651 12.4196 11.0935 12.4168C10.0519 12.4082 9.4298 11.817 9.43559 10.8518C9.44137 9.90935 10.0577 9.32676 11.0733 9.31534C11.5593 9.30962 12.0454 9.31534 12.5778 9.31534C12.5778 8.77273 12.572 8.27581 12.5778 7.7789C12.5952 6.81934 13.197 6.21962 14.1345 6.21391C15.0777 6.2082 15.694 6.80506 15.7143 7.75605C15.7258 8.25582 15.7143 8.75274 15.7143 9.31534C15.9834 9.31534 16.2235 9.31534 16.4608 9.31534C18.2142 9.31534 18.8623 9.738 18.8565 10.8803C18.8507 12.0112 18.2084 12.4196 16.4347 12.4196C16.209 12.4196 15.9834 12.4196 15.7143 12.4196C15.7143 12.9308 15.7172 13.3963 15.7143 13.859C15.7056 14.9013 15.1269 15.5153 14.1547 15.521C13.1768 15.5268 12.5836 14.9099 12.5749 13.8789C12.572 13.4134 12.5749 12.9479 12.5749 12.4168H12.5778Z" fill="white"/>
<path id="Vector_3" d="M29.8571 6.21095C30.7946 6.20809 31.4311 6.83066 31.434 7.75309C31.434 8.67838 30.8062 9.30666 29.8716 9.31238C28.9341 9.31523 28.2976 8.69266 28.2947 7.76737C28.2918 6.83923 28.9197 6.2138 29.8571 6.21095Z" fill="white"/>
<path id="Vector_4" d="M28.2917 10.8548C28.2975 11.78 27.6668 12.4112 26.7322 12.4169C25.7947 12.4226 25.1553 11.8 25.1524 10.8776C25.1466 9.94946 25.7745 9.32118 26.7119 9.31547C27.6523 9.30976 28.2888 9.93233 28.2946 10.8548H28.2917Z" fill="white"/>
<path id="Vector_5" d="M33.0253 9.31544C33.9599 9.32401 34.5849 9.958 34.5762 10.8833C34.5675 11.8057 33.9252 12.4226 32.9877 12.414C32.0532 12.4054 31.4282 11.7715 31.4369 10.8433C31.4455 9.92088 32.085 9.30402 33.0253 9.31259V9.31544Z" fill="white"/>
<path id="Vector_6" d="M29.8716 12.417C30.8061 12.4199 31.4369 13.0481 31.434 13.9763C31.4311 14.8987 30.7917 15.5241 29.8542 15.5184C28.9196 15.5156 28.2889 14.8844 28.2918 13.9591C28.2947 13.0339 28.9312 12.4141 29.8687 12.417H29.8716Z" fill="white"/>
</g>
</g>
<defs>
<clipPath id="clip0_1339_71">
<rect width="44" height="31" fill="white"/>
</clipPath>
</defs>
</svg>
