<svg width="43" height="43" viewBox="0 0 43 43" fill="none" xmlns="http://www.w3.org/2000/svg">
<g id="Layer_3" clip-path="url(#clip0_1339_62)">
<g id="_0eARn2">
<path id="Vector" d="M43 43.0001H0V18.0407H5.04981V14.6104H10.9686C9.66511 9.2344 10.9965 4.77846 15.7427 1.78466C19.592 -0.64484 23.706 -0.592024 27.4996 1.93199C32.0536 4.9647 33.3265 9.35393 32.023 14.6188H37.9753V18.049H43V43.0001ZM18.0406 10.1823H24.9622V12.6952H22.7813V20.5563C23.3857 20.5563 23.9678 20.5647 24.5527 20.548C24.6446 20.5452 24.7783 20.4424 24.8201 20.3534C25.3465 19.197 26.1738 18.2908 27.1264 17.4653C29.9813 14.9857 30.8197 10.8606 29.1875 7.4637C27.5525 4.0585 23.8285 2.07098 20.1463 2.74368C16.6535 3.38024 14.2776 5.42892 13.3306 8.83968C12.3836 12.2449 13.3473 15.2081 16.0073 17.5737C16.8958 18.3631 17.6618 19.2332 18.1687 20.3145C18.2161 20.4173 18.3554 20.5424 18.4528 20.5452C19.035 20.5675 19.6199 20.5563 20.2187 20.5563V12.6785H18.0434V10.1795L18.0406 10.1823ZM7.59004 17.1206V35.4614H8.07747C10.9603 35.4614 13.8431 35.453 16.7232 35.4669C17.8902 35.4725 19.074 35.314 20.2076 35.8283V28.3174H16.3165C16.3165 26.6718 16.3137 25.0679 16.3165 23.464C16.3193 21.9156 15.6759 20.687 14.5534 19.6362C13.793 18.9246 13.1273 18.1129 12.4115 17.3513C12.3168 17.2512 12.1775 17.1317 12.0549 17.1289C10.5731 17.115 9.09412 17.1178 7.58725 17.1178L7.59004 17.1206ZM35.4127 35.4614V17.1206C33.9031 17.1206 32.4213 17.115 30.9395 17.1317C30.8114 17.1317 30.6665 17.279 30.5607 17.3902C29.8839 18.1129 29.2711 18.9024 28.5358 19.5556C27.3102 20.6481 26.664 21.9518 26.6807 23.5946C26.6947 25.0178 26.6835 26.4411 26.6807 27.8643C26.6807 28.0144 26.6807 28.1617 26.6807 28.3508H22.7785V35.8339C23.8285 35.3474 24.9148 35.4669 25.9844 35.4642C28.9647 35.4586 31.945 35.4642 34.9253 35.4642H35.41L35.4127 35.4614ZM40.4514 40.4705V20.573H37.9585V37.9743H37.421C33.2235 37.9743 29.026 38.0048 24.8285 37.9548C23.5751 37.9409 22.4721 38.7748 22.8119 40.4705H40.4486H40.4514ZM2.53744 40.4594H20.2104C20.4583 38.7609 19.4946 37.9326 18.0072 37.9548C13.8515 38.0132 9.69575 37.9743 5.54282 37.9743H5.01639V20.5758H2.53744V40.4594ZM18.8651 23.0943V25.8045H24.1349V23.0943H18.8651Z" fill="white"/>
<path id="Vector_2" d="M4.37308 0.114258C4.02491 0.895368 3.68788 1.65146 3.35086 2.41033C4.90786 3.09971 6.3813 3.75018 7.8826 4.41732C8.23077 3.63621 8.56222 2.89401 8.90482 2.12402C7.38402 1.44854 5.89944 0.792518 4.37308 0.114258ZM35.126 4.42843C36.6635 3.7474 38.1508 3.08859 39.6605 2.41867C39.3067 1.632 38.9753 0.884249 38.6327 0.125377C37.098 0.806416 35.6078 1.468 34.101 2.13514C34.4463 2.90791 34.7722 3.64176 35.1232 4.42843H35.126ZM2.86621 8.56749V11.0248H7.61799V8.56749H2.86621ZM35.3794 8.56193V11.0192H40.1423V8.56193H35.3794Z" fill="white"/>
<path id="Vector_3" d="M4.37295 0.114108C5.89931 0.789588 7.38389 1.44839 8.90747 2.12109C8.56488 2.89108 8.23342 3.63605 7.88526 4.41439C6.38396 3.75002 4.91052 3.09678 3.35352 2.4074C3.69054 1.64853 4.02757 0.889659 4.37573 0.111328L4.37295 0.114108Z" fill="white"/>
<path id="Vector_4" d="M35.126 4.42806C34.775 3.64139 34.4464 2.90753 34.1038 2.13476C35.6106 1.46762 37.1008 0.806039 38.6355 0.125C38.9753 0.886652 39.3095 1.63163 39.6633 2.4183C38.1536 3.08822 36.6663 3.74702 35.1288 4.42806H35.126Z" fill="white"/>
<path id="Vector_5" d="M2.86621 8.56738H7.61799V11.0247H2.86621V8.56738Z" fill="white"/>
<path id="Vector_6" d="M35.3794 8.56152H40.1423V11.0188H35.3794V8.56152Z" fill="white"/>
</g>
</g>
<defs>
<clipPath id="clip0_1339_62">
<rect width="43" height="43" fill="white"/>
</clipPath>
</defs>
</svg>
