<svg width="44" height="44" viewBox="0 0 44 44" fill="none" xmlns="http://www.w3.org/2000/svg">
<g id="Group 196">
<g id="pHI1zz">
<path id="Vector" d="M0.0028655 30.0563C0.0028655 29.2225 0.501463 28.0275 0.873979 27.5032C1.8024 26.2022 3.12913 25.589 4.71662 25.5718C6.52475 25.5546 8.33288 25.5317 10.1382 25.5861C10.866 25.6062 11.591 25.8211 12.3818 25.9586C12.3818 25.7753 12.3704 25.5088 12.3818 25.2451C12.4965 22.7722 14.5109 20.7721 16.9896 20.7463C20.2878 20.7148 23.586 20.7148 26.887 20.7463C29.3915 20.7692 31.4231 22.7636 31.5177 25.2623C31.5635 26.5088 31.5349 27.7582 31.5377 29.0047C31.5377 29.1594 31.5377 29.3142 31.5377 29.4431C32.2025 29.3084 32.8358 29.0849 33.4748 29.0706C35.5523 29.0276 37.6355 28.9846 39.7101 29.0878C42.0226 29.2024 43.9368 31.234 43.9711 33.5494C44.0199 36.6183 43.9912 39.6873 43.9826 42.7562C43.9826 43.5356 43.4897 43.9769 42.6989 43.9769C28.9015 43.9769 15.1041 43.9741 1.30667 43.9884C0.699183 43.9884 0 43.8623 0 42.8164C0 38.1399 0 34.7385 0 30.062L0.0028655 30.0563ZM28.933 41.4581C28.9416 41.3235 28.953 41.2232 28.953 41.1258C28.953 35.965 28.9588 30.8013 28.953 25.6406C28.953 24.1935 28.0533 23.3195 26.6062 23.3167C23.5516 23.3138 20.4969 23.3167 17.4423 23.3167C15.7975 23.3167 14.9522 24.1591 14.9522 25.8039C14.9522 30.8644 14.9522 35.9277 14.9522 40.9882C14.9522 41.1401 14.9665 41.292 14.9723 41.461H28.9301L28.933 41.4581ZM12.3446 41.4581C12.3532 41.3292 12.3675 41.2318 12.3675 41.1344C12.3675 37.5955 12.3761 34.0537 12.3675 30.5148C12.3618 29.0305 11.4563 28.1536 9.96049 28.1479C8.2985 28.1422 6.63651 28.1479 4.97165 28.1479C3.36983 28.1479 2.50158 29.019 2.50158 30.6208C2.50158 34.0738 2.50158 37.5295 2.50158 40.9825V41.4581H12.3475H12.3446ZM31.5377 41.4467H41.4065V40.951C41.4065 38.6729 41.4065 36.3919 41.4065 34.1139C41.4065 32.4748 40.5555 31.6123 38.925 31.6094C37.2917 31.6066 35.6555 31.6066 34.0221 31.6094C32.3945 31.6123 31.5377 32.4748 31.5377 34.111C31.5377 36.4034 31.5377 38.6987 31.5377 40.9911C31.5377 41.1315 31.5377 41.2719 31.5377 41.4467Z" fill="white"/>
<path id="Vector_2" d="M15.7404 16.2646C15.9094 15.2703 16.024 14.0754 16.3335 12.9349C16.6287 11.8489 16.4138 11.0924 15.5226 10.3875C14.683 9.72553 13.9695 8.90313 13.1958 8.15524C12.7746 7.74834 12.5425 7.28412 12.7373 6.6881C12.9322 6.09494 13.3992 5.8571 13.9752 5.774C15.408 5.56769 16.8378 5.35278 18.2706 5.16079C18.5342 5.1264 18.6689 5.02324 18.7807 4.78827C19.4025 3.49879 20.0472 2.22078 20.6719 0.93417C20.9412 0.395455 21.3109 0.00288143 21.947 1.5931e-05C22.5832 -0.00284957 22.9614 0.381128 23.2251 0.925573C23.8526 2.21218 24.4973 3.4902 25.1163 4.78254C25.2366 5.03184 25.3828 5.135 25.6607 5.16938C27.082 5.35564 28.4976 5.57055 29.916 5.77687C30.492 5.85997 30.9648 6.08921 31.1625 6.6795C31.3688 7.28986 31.1224 7.7598 30.6868 8.17816C29.6667 9.1639 28.658 10.164 27.6293 11.144C27.403 11.3589 27.3428 11.5595 27.4001 11.8603C27.6551 13.2558 27.8958 14.6513 28.1337 16.0497C28.2913 16.9781 27.8872 17.6716 27.082 17.7461C26.7639 17.7747 26.3972 17.6687 26.1049 17.5226C24.8756 16.9065 23.6549 16.2732 22.4542 15.6027C22.076 15.3906 21.798 15.4164 21.437 15.617C20.1934 16.299 18.9383 16.9581 17.6746 17.5971C16.7175 18.0813 15.7289 17.4767 15.7432 16.2675L15.7404 16.2646ZM25.1478 14.1098C25.1306 13.9235 25.1249 13.7974 25.1048 13.6771C24.9787 12.9435 24.8613 12.2071 24.718 11.4764C24.5919 10.8288 24.7581 10.3044 25.2596 9.85448C25.7925 9.37594 26.2911 8.85729 26.8041 8.35582C26.9072 8.25266 27.0075 8.14664 27.1623 7.9919C26.5032 7.89734 25.9358 7.80565 25.3684 7.73401C24.186 7.58691 23.3311 6.97943 22.8038 5.91155C22.5345 5.3671 22.2622 4.82552 21.9556 4.20657C21.5717 4.98599 21.1877 5.65938 20.9011 6.37003C20.5573 7.22108 19.9612 7.59933 19.0643 7.66237C18.3136 7.71395 17.5714 7.87155 16.8722 7.97471C17.4453 8.58506 17.9812 9.22407 18.5915 9.77998C19.1675 10.3072 19.328 10.8889 19.1675 11.634C18.9984 12.4277 18.8867 13.2358 18.7377 14.1212C19.583 13.6799 20.3624 13.2931 21.1218 12.869C21.6891 12.5538 22.2193 12.5481 22.7895 12.8633C23.5517 13.2874 24.3311 13.6771 25.1564 14.1069L25.1478 14.1098Z" fill="white"/>
</g>
</g>
</svg>
