<svg width="37" height="37" viewBox="0 0 37 37" fill="none" xmlns="http://www.w3.org/2000/svg">
<g id="_0kQRUm">
<path id="Vector" d="M33.7786 36.6388C33.747 32.9681 32.6066 29.6785 30.2626 26.856C27.6607 23.7211 24.331 21.8098 20.262 21.3227C15.5597 20.7582 11.4219 22.0735 7.91165 25.257C5.03182 27.8704 3.40135 31.1399 2.95433 34.9998C2.89129 35.5442 2.89416 36.0944 2.8655 36.6417H0C0 36.2835 0 35.9253 0 35.5671C0.0945616 34.8622 0.163334 34.1516 0.28655 33.4524C0.962809 29.5983 2.71936 26.3058 5.4989 23.5635C7.37581 21.7124 9.55645 20.3341 12.0351 19.4286C12.1096 19.4 12.1813 19.3627 12.2873 19.314C9.30429 17.0674 7.69674 14.1303 7.74546 10.3937C7.78271 7.52245 8.863 5.04378 10.9176 3.03793C15.2473 -1.18868 21.8839 -0.876345 25.8755 3.17548C30.3256 7.68864 29.9159 15.4713 24.4313 19.271C32.0621 22.5434 36.3518 28.1799 36.6441 36.6388H33.7814H33.7786ZM18.2876 18.3168C22.52 18.3454 26.0016 14.8983 26.0474 10.6401C26.0933 6.40203 22.6203 2.89179 18.3507 2.86314C14.1183 2.83448 10.6367 6.28168 10.5909 10.5398C10.5451 14.7779 14.018 18.2881 18.2876 18.3168Z" fill="white"/>
</g>
</svg>
