<svg width="36" height="47" viewBox="0 0 36 47" fill="none" xmlns="http://www.w3.org/2000/svg">
<g id="Layer_3" clip-path="url(#clip0_1339_122)">
<g id="J6U9LX">
<path id="Vector" d="M18.4654 0C19.7044 0.374057 20.6558 1.20592 21.6328 1.97915C22.5898 2.73564 23.6437 3.10412 24.877 3.03991C25.703 2.99525 26.5319 2.99804 27.3579 3.02037C28.7279 3.05945 29.6081 3.68474 30.0695 4.95486C30.3572 5.74485 30.6021 6.55158 30.8329 7.35832C31.1376 8.42187 31.7386 9.25094 32.6843 9.85668C33.3878 10.3089 34.0799 10.7835 34.7493 11.2831C35.8886 12.1345 36.2276 13.1367 35.826 14.4794C35.5839 15.2833 35.299 16.0789 35.0056 16.8661C34.6183 17.9017 34.6268 18.9178 34.9971 19.959C35.3361 20.9081 35.6608 21.8656 35.9171 22.837C36.1735 23.8001 35.8288 24.6375 35.074 25.2656C34.4246 25.8099 33.7296 26.3152 33.0033 26.7563C31.8098 27.482 31.0636 28.4758 30.7246 29.8129C30.5195 30.6252 30.1834 31.4041 29.9442 32.208C29.8901 32.3894 29.9442 32.6267 30.0154 32.8137C31.1917 35.7895 32.3823 38.7596 33.5672 41.7353C33.9717 42.7514 33.5388 43.3432 32.4365 43.2315C30.9639 43.0836 29.4913 42.9077 28.0244 42.7095C27.5316 42.6425 27.1984 42.729 26.8651 43.1366C25.928 44.2811 24.9368 45.3837 23.9627 46.5003C23.299 47.2596 22.4986 47.134 22.1255 46.2016C20.9577 43.2873 19.787 40.373 18.6534 37.4476C18.454 36.9367 18.2176 36.6688 17.591 36.8809C17.3061 37.59 16.9985 38.3548 16.6909 39.1225C15.7538 41.4701 14.8196 43.8177 13.8796 46.1626C13.4837 47.1535 12.7061 47.2819 11.9997 46.4724C11.0256 45.3558 10.0401 44.2504 9.09442 43.1115C8.7868 42.743 8.48203 42.6481 8.01491 42.7095C6.51669 42.9133 5.01277 43.0864 3.50885 43.2427C2.48061 43.3488 2.02488 42.7374 2.4037 41.7883C3.59146 38.7987 4.78206 35.8118 5.9812 32.8277C6.09798 32.5402 6.08659 32.3029 5.97551 32.0042C5.67073 31.1891 5.40584 30.3545 5.16943 29.517C4.85896 28.42 4.23518 27.5742 3.2582 26.9517C2.56606 26.5106 1.89101 26.0388 1.23304 25.5531C0.125043 24.7352 -0.24524 23.6577 0.170616 22.3513C0.421269 21.5641 0.683315 20.7797 0.976692 20.0093C1.37261 18.9597 1.36976 17.9296 0.990934 16.8744C0.65768 15.956 0.344364 15.0265 0.0908628 14.083C-0.216757 12.9413 0.267459 12.0396 1.17038 11.3501C1.85967 10.8253 2.57745 10.334 3.30662 9.86506C4.25227 9.25652 4.83902 8.42187 5.16373 7.36669C5.45711 6.40363 5.77043 5.44058 6.1578 4.51102C6.59074 3.47538 7.50221 3.06224 8.59312 3.02595C9.49604 2.99804 10.4047 3.00921 11.3076 3.03991C12.4042 3.0762 13.3641 2.76077 14.21 2.08523C14.4521 1.89262 14.7085 1.71675 14.9506 1.52414C15.7367 0.896062 16.5485 0.312645 17.5283 0L18.4654 0ZM10.379 4.86553C9.86062 4.86553 9.26817 4.86274 8.67572 4.86553C8.22284 4.86833 7.89528 5.0721 7.74717 5.4992C7.53639 6.10495 7.29998 6.70791 7.15471 7.3304C6.70183 9.25373 5.61377 10.7025 3.89623 11.727C3.33795 12.0592 2.81956 12.4555 2.29832 12.8436C1.95652 13.0948 1.8141 13.4326 1.96221 13.8541C2.17869 14.4738 2.34959 15.113 2.60309 15.7188C3.36359 17.5388 3.3522 19.3421 2.58885 21.1594C2.34104 21.7511 2.17299 22.3736 1.96221 22.9794C1.8141 23.4009 1.95652 23.7387 2.29547 23.9899C2.83095 24.3863 3.36074 24.7938 3.93326 25.1316C5.62801 26.1365 6.68189 27.5714 7.14332 29.4556C7.30283 30.106 7.54778 30.7369 7.76995 31.3733C7.89813 31.7418 8.17726 31.9484 8.57888 31.954C9.3109 31.9596 10.0458 31.9847 10.7749 31.9428C12.6947 31.8284 14.3695 32.3783 15.8193 33.6177C16.1953 33.9387 16.6026 34.2234 17.0042 34.5165C17.8103 35.1027 18.172 35.1055 18.9696 34.5305C19.3456 34.2597 19.7329 33.9945 20.0833 33.6931C21.5986 32.3727 23.356 31.7949 25.3812 31.9456C26.0477 31.9958 26.7199 31.9651 27.3921 31.9623C27.8136 31.9623 28.107 31.7502 28.2409 31.3622C28.4602 30.7257 28.6966 30.0921 28.859 29.4444C29.3261 27.5825 30.3714 26.1533 32.0462 25.1539C32.6159 24.8134 33.1514 24.4086 33.6869 24.015C34.0429 23.7554 34.191 23.4065 34.0344 22.9654C33.815 22.3457 33.6356 21.7121 33.385 21.1035C32.6444 19.3142 32.6387 17.5388 33.3793 15.7467C33.6299 15.1409 33.8094 14.5045 34.0287 13.8848C34.1825 13.4465 34.0458 13.0948 33.684 12.8324C33.1087 12.4137 32.5333 11.9894 31.9295 11.6153C30.3942 10.6662 29.3831 9.35422 28.9273 7.62351C28.745 6.92843 28.5058 6.2501 28.2808 5.56619C28.1241 5.08606 27.7737 4.85437 27.2582 4.85995C26.5547 4.86833 25.854 4.85995 25.1504 4.88787C23.6978 4.9437 22.3164 4.73433 21.103 3.88573C20.5561 3.5033 20.0291 3.09574 19.4965 2.69656C18.0382 1.6023 17.9584 1.61068 16.483 2.70494C15.7253 3.26602 14.9677 3.84106 14.1474 4.30166C13.008 4.9437 11.7263 4.93532 10.379 4.86274V4.86553ZM12.595 44.2895C13.6802 41.5678 14.737 38.9299 15.7737 36.2808C15.8193 36.1663 15.731 35.9318 15.6256 35.8425C15.2126 35.4936 14.7512 35.2005 14.3382 34.8515C13.3755 34.028 12.2504 33.7545 11 33.7908C9.9005 33.8215 8.7982 33.7963 7.62469 33.7963C6.66765 36.1942 5.67643 38.6842 4.65388 41.2468C6.00114 41.0877 7.2544 40.9593 8.50197 40.7862C9.12576 40.6996 9.60712 40.8085 10.0258 41.3221C10.8319 42.3103 11.6949 43.2566 12.595 44.2895ZM23.3987 44.2867C24.1763 43.3934 24.9511 42.5923 25.6176 41.7185C26.2015 40.9537 26.8509 40.5377 27.8421 40.8392C28.0187 40.8923 28.2124 40.8867 28.3975 40.9062C29.3546 41.0151 30.3116 41.124 31.3399 41.2412C30.3145 38.6786 29.3204 36.1858 28.3206 33.6903C28.0842 33.7321 27.9019 33.7908 27.7196 33.7935C26.7085 33.8019 25.6916 33.7545 24.6833 33.8159C24.0254 33.855 23.3019 33.9052 22.7436 34.1983C21.8578 34.6589 21.0802 35.3205 20.2741 35.9179C20.1972 35.9737 20.183 36.1942 20.2257 36.3059C21.2653 38.9382 22.3164 41.5678 23.3987 44.2867Z" fill="white"/>
<path id="Vector_2" d="M30.3289 18.4158C30.3204 25.0762 24.7718 30.5028 17.9843 30.4945C11.1796 30.4861 5.60546 25.012 5.66527 18.399C5.72509 11.6939 11.2508 6.30357 18.0299 6.33707C24.8203 6.37057 30.3403 11.7916 30.3289 18.4158ZM17.9928 8.18781C12.2478 8.1934 7.58504 12.7686 7.5708 18.4102C7.55941 24.0545 12.262 28.6605 18.0213 28.6409C23.7749 28.6214 28.4462 24.0266 28.4206 18.4074C28.3949 12.7602 23.7237 8.18223 17.99 8.18781H17.9928Z" fill="white"/>
<path id="Vector_3" d="M13.2134 23.8695C13.3985 22.7892 13.5837 21.6419 13.8059 20.5001C13.86 20.2154 13.7831 20.0507 13.5837 19.8665C12.8146 19.1519 12.0627 18.4149 11.2965 17.6947C10.9461 17.3653 10.7126 16.9996 10.892 16.5167C11.0658 16.0533 11.4788 15.9333 11.9373 15.8747C13.0197 15.7323 14.0992 15.5844 15.1759 15.4057C15.3326 15.3806 15.5148 15.2103 15.5946 15.0596C16.0874 14.1244 16.563 13.1781 17.0302 12.229C17.2324 11.8159 17.5001 11.4865 18.0014 11.4893C18.5027 11.4893 18.7676 11.8159 18.9699 12.2318C19.4341 13.1809 19.907 14.13 20.4111 15.0624C20.4994 15.2271 20.7301 15.3862 20.9181 15.4197C21.9948 15.5983 23.0772 15.7379 24.1567 15.8942C24.5811 15.9556 24.9485 16.1036 25.1052 16.5335C25.2647 16.9773 25.0909 17.3318 24.7605 17.6445C23.9601 18.3982 23.1626 19.1491 22.385 19.9223C22.2625 20.0451 22.1828 20.2936 22.2084 20.4666C22.3651 21.5107 22.5588 22.5463 22.741 23.5847C22.818 24.0258 22.8237 24.4473 22.4135 24.7516C22.0062 25.053 21.6017 24.9525 21.1887 24.7348C20.2545 24.2435 19.306 23.7801 18.3774 23.2777C18.0926 23.1241 17.8818 23.1381 17.6027 23.2832C16.6171 23.8108 15.6259 24.3245 14.6205 24.8158C13.897 25.1703 13.1935 24.7153 13.2106 23.8695H13.2134ZM15.4152 22.3174C15.925 22.0578 16.3836 21.8847 16.7681 21.6139C17.6169 21.0166 18.4116 21.0361 19.2547 21.6223C19.6335 21.8875 20.0836 22.0522 20.582 22.3034C20.4994 21.8261 20.4254 21.452 20.3712 21.078C20.112 19.3668 19.8756 19.685 21.2571 18.3814C21.5504 18.1051 21.8381 17.8231 22.1885 17.4881C21.3909 17.3737 20.7159 17.2537 20.038 17.1839C19.5139 17.1308 19.1806 16.8908 18.9642 16.4302C18.6736 15.8133 18.3518 15.2075 18.0014 14.5096C17.6425 15.2187 17.3178 15.8356 17.0159 16.4637C16.8108 16.8908 16.4975 17.1197 16.0162 17.1755C15.3126 17.2565 14.6148 17.3765 13.9312 17.477C14.4467 18.0157 14.9395 18.5405 15.4465 19.0514C15.7513 19.3584 15.8823 19.6934 15.794 20.1289C15.6544 20.8267 15.5519 21.5302 15.4209 22.3174H15.4152Z" fill="white"/>
</g>
</g>
<defs>
<clipPath id="clip0_1339_122">
<rect width="36" height="47" fill="white"/>
</clipPath>
</defs>
</svg>
