<svg width="48" height="48" viewBox="0 0 48 48" fill="none" xmlns="http://www.w3.org/2000/svg">
<g id="Layer_3" clip-path="url(#clip0_1339_118)">
<g id="WU1dcb">
<path id="Vector" d="M4.17966 29.5412C3.34939 29.2085 2.53329 28.8845 1.72001 28.5577C0.104807 27.9126 -0.4676 26.2434 0.41368 24.7305C1.65484 22.6043 2.913 20.4897 4.14849 18.3606C4.37802 17.9672 4.67556 17.756 5.11195 17.6605C8.0505 17.0212 10.989 16.3617 13.9248 15.705C14.0239 15.6819 14.1174 15.65 14.2705 15.6067C12.9811 12.5982 12.8905 9.58387 14.1713 6.57248C15.0752 4.44629 16.5147 2.78004 18.453 1.58532C22.3805 -0.835942 27.331 -0.451201 30.8363 2.5168C34.2339 5.38933 35.9482 10.5211 33.7238 15.6153C34.1432 15.7166 34.5512 15.8178 34.9621 15.9104C37.6145 16.5005 40.264 17.0964 42.9191 17.6721C43.3414 17.7647 43.6219 17.9758 43.8401 18.349C45.0784 20.4752 46.3366 22.5927 47.5749 24.7189C48.4619 26.2434 47.9093 27.8894 46.2912 28.5548C45.4808 28.8903 44.6619 29.2085 43.8203 29.547C43.8203 29.7437 43.8203 29.9346 43.8203 30.1284C43.8203 32.8506 43.8203 35.5727 43.8203 38.2977C43.8203 39.5936 43.2819 40.4239 42.1059 40.8983C36.2401 43.2501 30.3744 45.5991 24.4973 47.922C24.1969 48.0406 23.7718 48.0232 23.4686 47.9017C17.6256 45.5875 11.791 43.2501 5.95639 40.9156C4.71807 40.421 4.1825 39.6168 4.17966 38.2572C4.17966 35.5524 4.17966 32.8477 4.17966 30.1429C4.17966 29.952 4.17966 29.7582 4.17966 29.5441V29.5412ZM14.9165 10.9377C14.908 16.0579 18.9829 20.2351 23.99 20.238C28.9802 20.2409 33.0664 16.0984 33.0862 11.0129C33.106 5.88979 29.0425 1.70103 24.0382 1.68657C19.0197 1.6721 14.925 5.82325 14.9165 10.9377ZM24.8515 45.952C24.9535 45.926 25.0045 45.9202 25.0498 45.8999C30.5189 43.7159 35.9851 41.5289 41.4541 39.3506C41.984 39.1395 42.1795 38.7894 42.1739 38.2225C42.1569 36.0268 42.1682 33.8312 42.1682 31.6356C42.1682 31.1843 42.1682 30.733 42.1682 30.2094C41.933 30.2991 41.7602 30.3657 41.5901 30.4351C37.9913 31.8699 34.3954 33.3076 30.7966 34.7424C29.3401 35.3239 28.2094 34.9334 27.4075 33.5737C26.8124 32.5671 26.223 31.5575 25.6308 30.5508C25.3984 30.1545 25.1604 29.7582 24.8515 29.2404V45.9462V45.952ZM23.1513 29.4024C23.1229 29.3966 23.0918 29.3879 23.0634 29.3821C22.2502 30.7649 21.4369 32.1476 20.6208 33.5304C19.782 34.9536 18.6769 35.3326 17.158 34.728C14.3753 33.6171 11.5955 32.5034 8.81276 31.3926C7.8408 31.005 6.87168 30.6173 5.85438 30.2123C5.84304 30.4322 5.82888 30.5826 5.82888 30.7359C5.82888 33.2295 5.82888 35.7231 5.82888 38.2167C5.82888 38.937 5.95639 39.1105 6.63081 39.3825C11.0429 41.1442 15.4549 42.9088 19.867 44.6705C20.9495 45.1015 22.0348 45.5296 23.1456 45.9693V29.4024H23.1513ZM22.7914 26.5616C16.937 24.2214 11.1562 21.9129 5.35565 19.5958C4.1995 21.56 3.06602 23.4837 1.93538 25.4103C1.43381 26.2637 1.58683 26.6976 2.49645 27.0621C4.76907 27.9675 7.03886 28.873 9.30866 29.7784C12.1395 30.9095 14.9676 32.0435 17.7984 33.1745C18.4247 33.4262 18.776 33.3655 19.0622 32.8853C20.3034 30.8025 21.5276 28.7081 22.7886 26.5616H22.7914ZM25.2142 26.5645C26.4695 28.7052 27.6767 30.7677 28.8952 32.8245C29.1984 33.3365 29.5384 33.432 30.1307 33.1977C35.2965 31.138 40.4595 29.0755 45.6225 27.0071C46.3763 26.7063 46.5321 26.2261 46.1241 25.5202C45.5913 24.6003 45.0472 23.6833 44.5088 22.7663C43.8911 21.7162 43.2705 20.6661 42.6443 19.6016C36.8267 21.9274 31.0431 24.2358 25.2142 26.5674V26.5645ZM7.90881 18.78C8.08733 18.8668 8.17234 18.916 8.26302 18.9536C13.3297 20.9757 18.3992 22.9919 23.463 25.0256C23.8427 25.1789 24.1544 25.1905 24.5369 25.0342C28.3341 23.5011 32.1426 21.9852 35.9454 20.4665C37.2999 19.9256 38.6544 19.3846 40.0656 18.8176C39.9353 18.7627 39.8758 18.7251 39.8106 18.7106C37.5805 18.2131 35.3503 17.7097 33.1146 17.2324C32.9757 17.2035 32.7348 17.3423 32.6357 17.4754C28.1357 23.4172 19.85 23.4201 15.3841 17.4667C15.2141 17.2411 15.0752 17.1659 14.789 17.2353C13.7207 17.4928 12.6411 17.7126 11.5699 17.9527C10.3826 18.216 9.19531 18.4879 7.91164 18.7771L7.90881 18.78Z" fill="white"/>
<path id="Vector_2" d="M23.3184 5.676C23.429 4.66063 23.6755 4.3106 24.2422 4.33953C24.7806 4.36557 24.9818 4.70113 25.0527 5.60657C25.7101 5.94792 26.3562 6.22852 26.9342 6.61615C27.1638 6.76947 27.3593 7.15132 27.3735 7.4406C27.399 8.06255 26.7189 8.38365 26.1833 8.06544C25.8348 7.85716 25.472 7.67491 25.0555 7.44638V10.128C26.5942 10.4693 27.7305 11.2301 27.6143 13.0844C27.5123 14.716 26.4213 15.4218 25.064 15.8528C24.9336 17.2876 24.7891 17.5769 24.1884 17.5654C23.82 17.5596 23.4856 17.412 23.4034 17.0157C23.3326 16.6773 23.3553 16.3215 23.3354 15.9685C22.848 15.8268 22.3521 15.74 21.9073 15.5404C21.4907 15.3524 21.1025 15.0747 20.7398 14.7854C20.3119 14.4411 20.2779 13.9436 20.5981 13.5357C20.8956 13.1596 21.264 13.1452 21.7372 13.4489C22.2218 13.7584 22.7262 14.0333 23.3524 14.4006C23.3524 13.3506 23.3609 12.5001 23.3411 11.6496C23.3411 11.5628 23.1853 11.4471 23.0776 11.4037C22.8565 11.314 22.6128 11.2764 22.389 11.1896C21.1478 10.7094 20.4847 9.74904 20.5272 8.51961C20.5726 7.24967 21.2952 6.30373 22.542 5.89585C22.7999 5.81196 23.0662 5.75121 23.3156 5.68178L23.3184 5.676ZM23.3326 7.39142C22.559 7.56499 22.1878 7.94973 22.1906 8.51961C22.1935 9.11841 22.5845 9.51473 23.3326 9.65358V7.39142ZM25.047 14.0477C25.6987 13.7903 25.9849 13.4171 25.9396 12.9398C25.8914 12.4393 25.5712 12.0922 25.047 11.9736V14.0477Z" fill="white"/>
</g>
</g>
<defs>
<clipPath id="clip0_1339_118">
<rect width="48" height="48" fill="white"/>
</clipPath>
</defs>
</svg>
