<svg width="36" height="32" viewBox="0 0 36 32" fill="none" xmlns="http://www.w3.org/2000/svg">
<g id="Layer_3" clip-path="url(#clip0_1339_48)">
<g id="v0ySHe">
<path id="Vector" d="M0 11.8798C0.11775 11.1853 0.206781 10.482 0.358995 9.79321C1.43024 4.96296 5.63191 0.980688 10.4769 0.184812C15.7958 -0.689205 20.7183 1.55661 23.5673 6.16112C23.6793 6.34344 23.8057 6.41001 24.0153 6.42159C29.831 6.70231 34.8455 11.1911 35.8076 16.9474C36.2843 19.8039 35.8736 22.5127 34.587 25.0943C34.5152 25.239 34.4893 25.4329 34.5123 25.5921C34.7363 27.0246 34.9805 28.4543 35.216 29.8869C35.3596 30.7638 34.7564 31.3455 33.8776 31.195C32.4474 30.949 31.0143 30.7059 29.584 30.4744C29.4577 30.4541 29.3026 30.4889 29.1877 30.5496C23.1882 33.684 15.9049 31.5857 12.4212 25.8091C12.3523 25.6934 12.1742 25.5863 12.0421 25.5805C10.2156 25.4792 8.49525 24.9959 6.86111 24.1682C6.68305 24.0785 6.43032 24.0756 6.22353 24.1103C4.83638 24.3273 3.45209 24.5733 2.06494 24.7933C1.22345 24.9264 0.657678 24.3331 0.798405 23.4823C1.03678 22.0381 1.28089 20.5969 1.51065 19.1527C1.53363 19.0138 1.50778 18.8459 1.4446 18.7215C0.677782 17.2194 0.203909 15.6393 0.0574392 13.9607C0.0516953 13.8797 0.0201037 13.8015 0 13.7234C0 13.1098 0 12.4963 0 11.8798ZM3.10459 22.4375C3.22521 22.4317 3.30562 22.4375 3.38317 22.423C4.37686 22.2581 5.37343 22.1047 6.36139 21.9166C6.8008 21.8326 7.1799 21.8992 7.57048 22.1192C9.68137 23.3028 11.9473 23.7109 14.3225 23.3376C20.0951 22.4288 24.044 17.0111 23.1911 11.22C22.3726 5.65754 17.3696 1.64633 11.8066 2.16727C7.9582 2.52613 5.07475 4.47675 3.29988 7.92073C1.59394 11.2316 1.7002 14.6003 3.41189 17.8996C3.65026 18.3568 3.7278 18.7852 3.63303 19.2858C3.44061 20.3161 3.28265 21.3551 3.10172 22.4375H3.10459ZM24.3226 18.1253C24.4547 18.1253 24.584 18.1253 24.7132 18.1253C26.0487 18.1253 27.3841 18.1253 28.7196 18.1253C29.2566 18.1253 29.6587 18.406 29.8081 18.8604C30.0378 19.5666 29.5324 20.2438 28.7569 20.2467C26.9648 20.2554 25.1698 20.2525 23.3777 20.2467C23.1336 20.2467 22.9872 20.3248 22.8206 20.51C22.1974 21.2133 21.5426 21.8847 20.8935 22.5648C20.8361 22.6256 20.7442 22.6546 20.6666 22.7009C20.6896 22.7327 20.7126 22.7645 20.7384 22.7964C20.8648 22.7964 20.9911 22.7964 21.1175 22.7964C23.6362 22.7964 26.1549 22.7964 28.6765 22.7964C29.2624 22.7964 29.6731 23.0713 29.8138 23.5546C30.0292 24.2781 29.5065 24.9206 28.6937 24.9206C25.4255 24.9206 22.1543 24.9293 18.886 24.9148C18.3432 24.9148 17.8004 24.828 17.2576 24.7817C17.2116 24.7788 17.1628 24.7817 17.1197 24.7933C16.3386 25.0219 15.5574 25.2506 14.7619 25.485C14.7935 25.5342 14.8365 25.6036 14.8854 25.6644C16.9245 28.2691 19.5868 29.6872 22.8752 29.858C24.8625 29.9621 26.7322 29.4904 28.4697 28.5093C28.823 28.3096 29.1705 28.2257 29.5754 28.3096C30.2417 28.4456 30.9138 28.544 31.5829 28.654C32.0137 28.7235 32.4445 28.7871 32.904 28.8595C32.7231 27.7626 32.5651 26.7265 32.3727 25.6934C32.2808 25.1927 32.3354 24.7586 32.591 24.3071C33.3836 22.9006 33.8001 21.3696 33.8834 19.7547C34.1189 15.1212 31.3704 10.8611 27.0682 9.21728C26.333 8.93655 25.5547 8.77448 24.7965 8.55743C24.7764 8.59216 24.7592 8.62399 24.7391 8.65872C25.256 10.2042 25.4714 11.793 25.3939 13.4542C25.5633 13.4542 25.6868 13.4542 25.8132 13.4542C26.7982 13.4542 27.7805 13.4456 28.7655 13.4571C29.36 13.4629 29.7822 13.8449 29.854 14.4064C29.9172 14.8868 29.6042 15.3817 29.1245 15.5235C28.9608 15.5727 28.777 15.5756 28.6047 15.5756C27.5392 15.5814 26.4708 15.5756 25.4053 15.5843C25.2933 15.5843 25.1095 15.6566 25.0808 15.7377C24.8166 16.5162 24.5782 17.3005 24.3226 18.1195V18.1253Z" fill="white"/>
<path id="Vector_2" d="M13.7682 13.0465C13.7682 13.7787 13.7797 14.4878 13.7653 15.1939C13.7452 16.0853 12.8807 16.6033 12.1656 16.1605C11.844 15.9609 11.663 15.6657 11.663 15.2807C11.6601 14.2186 11.6515 13.1536 11.663 12.0915C11.6688 11.5532 12.0306 11.1653 12.5648 11.0756C12.7601 11.0438 12.964 11.0409 13.1536 10.9888C13.9462 10.7631 14.4144 9.98166 14.2736 9.14526C14.1444 8.37833 13.4293 7.80819 12.628 7.84003C11.8325 7.87186 11.1719 8.52303 11.1116 9.33338C11.103 9.46072 11.0972 9.59385 11.0628 9.7183C10.9249 10.2277 10.4424 10.5663 9.95707 10.5084C9.39991 10.4418 9.00933 9.99613 9.00071 9.4231C8.98061 7.69243 10.3132 6.07752 12.0077 5.78233C13.9347 5.44661 15.7268 6.55505 16.261 8.41306C16.7952 10.2711 15.8676 12.1725 14.0582 12.9307C13.9721 12.9655 13.883 13.0002 13.7653 13.0465H13.7682Z" fill="white"/>
<path id="Vector_3" d="M11.6601 18.7561C11.6601 18.2091 12.1426 17.7461 12.7112 17.7461C13.2885 17.7461 13.7681 18.2439 13.7624 18.8459C13.7595 19.3755 13.2454 19.8646 12.6997 19.8675C12.1311 19.8675 11.6572 19.3639 11.6572 18.759L11.6601 18.7561Z" fill="white"/>
</g>
</g>
<defs>
<clipPath id="clip0_1339_48">
<rect width="36" height="32" fill="white"/>
</clipPath>
</defs>
</svg>
