<svg width="23" height="10" viewBox="0 0 23 10" fill="none" xmlns="http://www.w3.org/2000/svg">
<path id="Vector" fill-rule="evenodd" clip-rule="evenodd" d="M0.434462 5.89911L4.88614 9.64911C5.166 9.87681 5.54084 10.0028 5.92991 9.99995C6.31898 9.9971 6.69116 9.86564 6.96628 9.63388C7.24141 9.40212 7.39747 9.08861 7.40085 8.76086C7.40423 8.43311 7.25466 8.11736 6.98436 7.88161L5.06569 6.26536L21.5161 6.26536C21.9097 6.26536 22.2871 6.13366 22.5654 5.89924C22.8437 5.66482 23 5.34688 23 5.01536C23 4.68384 22.8437 4.3659 22.5654 4.13148C22.2871 3.89706 21.9097 3.76536 21.5161 3.76536L5.06569 3.76536L6.98436 2.14911C7.12609 2.0338 7.23913 1.89587 7.3169 1.74337C7.39467 1.59086 7.43561 1.42684 7.43732 1.26086C7.43903 1.09489 7.40149 0.930289 7.32687 0.776669C7.25226 0.623048 7.14208 0.483484 7.00275 0.366118C6.86343 0.248752 6.69775 0.155936 6.51538 0.0930849C6.33302 0.030234 6.13762 -0.00139464 5.94059 4.82496e-05C5.74356 0.00149019 5.54884 0.0359731 5.3678 0.101484C5.18676 0.166996 5.02302 0.262224 4.88614 0.381611L0.434462 4.13161C0.156275 4.36602 -1.39065e-06 4.6839 -1.42287e-06 5.01536C-1.45508e-06 5.34681 0.156275 5.6647 0.434462 5.89911Z" fill="#908D8D"/>
</svg>
