<svg width="25" height="36" viewBox="0 0 25 36" fill="none" xmlns="http://www.w3.org/2000/svg">
<g id="Wf7YXN">
<path id="Vector" d="M3.57262 35.08C2.94216 34.8481 2.25165 34.6987 1.69924 34.3741C0.498365 33.663 0 32.6118 0 31.3649C0.0120088 28.4639 0 25.568 0 22.667C0 16.3652 0 10.0633 0 3.76152C0 2.5197 0.486356 1.48915 1.65121 0.721387C2.41377 0.216416 3.28441 0 4.25111 0C8.45419 0.00515276 12.6573 0 16.8604 0C18.0072 0 19.148 0 20.2949 0C22.7086 0 24.4739 1.47884 24.54 3.55541C24.552 3.86457 24.54 4.17374 24.54 4.47775C24.54 13.4281 24.54 22.3784 24.54 31.3236C24.54 32.5809 24.0596 33.6475 22.8407 34.3689C22.2883 34.6935 21.5978 34.8481 20.9674 35.0748H3.57262V35.08ZM2.0535 17.5091C2.0535 22.1105 2.0535 26.7119 2.0535 31.3133C2.0535 32.6324 2.84608 33.3229 4.37721 33.3281C9.64907 33.3281 14.9149 33.3281 20.1868 33.3281C21.6939 33.3281 22.4925 32.6324 22.4925 31.3339C22.4925 22.1414 22.4925 12.954 22.4925 3.76152C22.4925 2.46302 21.6939 1.7674 20.1868 1.7674C14.9029 1.7674 9.61905 1.7674 4.34118 1.7674C4.089 1.7674 3.83081 1.77255 3.59063 1.82923C2.61191 2.04565 2.0535 2.72066 2.0535 3.67392C2.0535 8.28564 2.0535 12.8974 2.0535 17.5091Z" fill="white"/>
<path id="Vector_2" d="M12.2842 32.1472C11.1614 32.1523 10.2547 31.3897 10.2307 30.421C10.2127 29.4574 11.1494 28.6433 12.2782 28.6485C13.389 28.6485 14.3077 29.442 14.3137 30.4004C14.3137 31.3588 13.4071 32.142 12.2902 32.1472H12.2842Z" fill="white"/>
<path id="Vector_3" d="M13.9483 2.93161C14.6148 2.93161 15.2753 2.92646 15.9418 2.93161C16.5843 2.94191 17.0466 3.31291 17.0466 3.80242C17.0466 4.29709 16.5843 4.66809 15.9418 4.66809C14.6268 4.67324 13.3119 4.67324 11.9969 4.66809C11.3784 4.66809 10.9281 4.29709 10.9221 3.81273C10.9101 3.31291 11.3604 2.93676 12.0029 2.92646C12.6514 2.91615 13.3059 2.92646 13.9543 2.92646L13.9483 2.93161Z" fill="white"/>
<path id="Vector_4" d="M8.52661 2.9375C9.07301 2.9375 9.54735 3.34457 9.54735 3.80316C9.54735 4.26176 9.067 4.66883 8.52661 4.66883C7.98621 4.66883 7.50586 4.26176 7.50586 3.80316C7.50586 3.34457 7.98621 2.9375 8.53261 2.9375H8.52661Z" fill="white"/>
</g>
</svg>
