<svg width="23" height="12" viewBox="0 0 23 12" fill="none" xmlns="http://www.w3.org/2000/svg">
<path id="Vector" fill-rule="evenodd" clip-rule="evenodd" d="M22.5655 4.92107L18.1139 0.421068C17.834 0.147831 17.4592 -0.00336092 17.0701 5.67037e-05C16.681 0.00347433 16.3088 0.161228 16.0337 0.43934C15.7586 0.717452 15.6025 1.09367 15.5991 1.48697C15.5958 1.88026 15.7453 2.25916 16.0156 2.54207L17.9343 4.48157L1.48389 4.48157C1.09034 4.48157 0.712906 4.6396 0.434622 4.92091C0.156338 5.20221 0 5.58374 0 5.98157C0 6.37939 0.156338 6.76092 0.434622 7.04223C0.712906 7.32353 1.09034 7.48157 1.48389 7.48157L17.9343 7.48157L16.0156 9.42107C15.8739 9.55944 15.7609 9.72495 15.6831 9.90796C15.6053 10.091 15.5644 10.2878 15.5627 10.487C15.561 10.6861 15.5985 10.8837 15.6731 11.068C15.7477 11.2523 15.8579 11.4198 15.9972 11.5607C16.1366 11.7015 16.3023 11.8129 16.4846 11.8883C16.667 11.9637 16.8624 12.0017 17.0594 11.9999C17.2564 11.9982 17.4512 11.9568 17.6322 11.8782C17.8132 11.7996 17.977 11.6853 18.1139 11.5421L22.5655 7.04207C22.8437 6.76078 23 6.37931 23 5.98157C23 5.58382 22.8437 5.20236 22.5655 4.92107Z" fill="white"/>
</svg>
