<svg width="28" height="28" viewBox="0 0 28 28" fill="none" xmlns="http://www.w3.org/2000/svg">
<g id="Line" clip-path="url(#clip0_306_1957)">
<path id="Vector" fill-rule="evenodd" clip-rule="evenodd" d="M5.73062 0H22.2693C25.4211 0 27.9999 2.5788 27.9999 5.73062V22.2693C27.9999 25.4211 25.4211 27.9999 22.2693 27.9999H5.73062C2.5788 28 0 25.4212 0 22.2693V5.73062C0 2.5788 2.5788 0 5.73062 0Z" fill="#3ACE01"/>
<path id="Vector_2" fill-rule="evenodd" clip-rule="evenodd" d="M13.9727 4.63818C19.6461 4.63818 24.2452 8.321 24.2452 12.864C24.2452 14.4508 23.6837 15.9324 22.7116 17.189C22.6635 17.2605 22.6007 17.3395 22.5214 17.4268L22.5154 17.4334C22.1834 17.8306 21.8094 18.2036 21.3983 18.5479C18.5575 21.1736 13.8817 24.2997 13.2646 23.8174C12.7281 23.3982 14.1482 21.3477 12.5098 21.0064C12.3956 20.9933 12.2816 20.9792 12.1685 20.9632L12.1664 20.963V20.9629C7.3544 20.2793 3.7002 16.9134 3.7002 12.864C3.70005 8.321 8.29929 4.63818 13.9727 4.63818Z" fill="white"/>
<path id="Vector_3" fill-rule="evenodd" clip-rule="evenodd" d="M8.01279 15.4878H10.0846C10.3793 15.4878 10.6203 15.2467 10.6203 14.952V14.9073C10.6203 14.6126 10.3793 14.3715 10.0846 14.3715H8.59323V10.9784C8.59323 10.6837 8.35219 10.4426 8.05749 10.4426H8.01279C7.71809 10.4426 7.47705 10.6837 7.47705 10.9784V14.9519C7.47705 15.2467 7.71809 15.4878 8.01279 15.4878ZM20.8508 12.9971V12.9524C20.8508 12.6577 20.6097 12.4167 20.315 12.4167H18.8237V11.5684H20.315C20.6097 11.5684 20.8508 11.3273 20.8508 11.0326V10.9879C20.8508 10.6932 20.6097 10.4522 20.315 10.4522H18.2432C17.9485 10.4522 17.7074 10.6932 17.7074 10.9879V14.9614C17.7074 15.2562 17.9485 15.4973 18.2432 15.4973H20.315C20.6097 15.4973 20.8508 15.2562 20.8508 14.9614V14.9168C20.8508 14.6221 20.6097 14.381 20.315 14.381H18.8237V13.5327H20.315C20.6097 13.5329 20.8508 13.2917 20.8508 12.9971ZM16.8665 15.328L16.8666 15.3278C16.9658 15.2279 17.0214 15.0928 17.0215 14.952V10.9785C17.0215 10.6838 16.7805 10.4428 16.4857 10.4428H16.441C16.1463 10.4428 15.9053 10.6838 15.9053 10.9785V13.311L13.9688 10.7137C13.8763 10.5522 13.7021 10.4428 13.5036 10.4428H13.4589C13.1642 10.4428 12.9231 10.6838 12.9231 10.9785V14.952C12.9231 15.2467 13.1642 15.4879 13.4589 15.4879H13.5036C13.7983 15.4879 14.0394 15.2467 14.0394 14.952V12.5759L15.9898 15.2398C16.0018 15.2585 16.0149 15.2765 16.0291 15.2935L16.0291 15.2937C16.0827 15.3667 16.156 15.4168 16.2377 15.4475C16.3005 15.4734 16.3691 15.4878 16.4409 15.4878H16.4856C16.5729 15.4878 16.6589 15.4663 16.7359 15.4252C16.7895 15.3997 16.8347 15.3668 16.8665 15.328ZM11.5885 15.4878H11.6332C11.9279 15.4878 12.1689 15.2467 12.1689 14.952V10.9784C12.1689 10.6837 11.9279 10.4427 11.6332 10.4427H11.5885C11.2938 10.4427 11.0527 10.6837 11.0527 10.9784V14.952C11.0527 15.2467 11.2938 15.4878 11.5885 15.4878Z" fill="#3ACE01"/>
</g>
<defs>
<clipPath id="clip0_306_1957">
<rect width="28" height="28" fill="white"/>
</clipPath>
</defs>
</svg>
