<svg width="132" height="73" viewBox="0 0 132 73" fill="none" xmlns="http://www.w3.org/2000/svg">
<g id="Layer_1" clip-path="url(#clip0_306_1871)">
<g id="Group">
<path id="Vector" d="M88.1684 28.6715H81.7603V58.1695H88.1684V28.6715Z" fill="white"/>
<path id="Vector_2" d="M67.3921 35.1086H70.2601V58.1695H76.6794V35.1086H79.5474V28.6715H67.3921V35.1086Z" fill="white"/>
</g>
<g id="Clip path group">
<mask id="mask0_306_1871" style="mask-type:luminance" maskUnits="userSpaceOnUse" x="0" y="12" width="61" height="61">
<g id="clippath">
<path id="Vector_3" d="M22.2157 50.698C15.7515 44.2104 14.9505 34.1922 19.8126 26.8276C27.1506 21.9534 37.1325 22.7517 43.6023 29.2394C50.0665 35.727 50.8675 45.7508 46.0053 53.1098C42.8517 55.2068 39.2163 56.2581 35.5809 56.2581C30.7468 56.2581 25.9071 54.4028 22.2213 50.7037M0 42.6531C0 59.4119 13.5333 73 30.237 73C45.7029 73 58.4631 61.3402 60.2556 46.3017C60.2556 46.3017 60.4965 44.2554 60.4965 42.6531C60.4965 41.0509 60.2556 39.0102 60.2556 39.0102C58.4631 23.966 45.7029 12.3063 30.237 12.3063C13.5333 12.3063 0 25.8943 0 42.6531Z" fill="white"/>
</g>
</mask>
<g mask="url(#mask0_306_1871)">
<g id="Group_2">
<path id="Vector_4" d="M60.4965 12.3063H0V73H60.4965V12.3063Z" fill="url(#paint0_radial_306_1871)"/>
</g>
</g>
</g>
<g id="Clip path group_2">
<mask id="mask1_306_1871" style="mask-type:luminance" maskUnits="userSpaceOnUse" x="19" y="18" width="36" height="36">
<g id="clippath-1">
<path id="Vector_5" d="M22.2156 23.8761C21.2969 24.7924 20.4959 25.7819 19.8125 26.8275C27.1505 21.9534 37.1324 22.7517 43.6022 29.2393C50.0664 35.727 50.8674 45.7508 46.0052 53.1098C47.0471 52.4239 48.033 51.62 48.9517 50.698C56.3289 43.2884 56.3289 31.2801 48.9517 23.8761C45.2602 20.1713 40.4261 18.3217 35.592 18.3217C30.7579 18.3217 25.9182 20.1713 22.2268 23.8761" fill="white"/>
</g>
</mask>
<g mask="url(#mask1_306_1871)">
<g id="Group_3">
<path id="Vector_6" d="M38.0665 0.000642729L2.47803 35.7184L38.0665 71.4361L73.655 35.7184L38.0665 0.000642729Z" fill="url(#paint1_linear_306_1871)"/>
</g>
</g>
</g>
<g id="Group_4">
<path id="Vector_7" d="M125.581 49.1857C125.581 50.5912 124.443 51.7324 123.043 51.7324C121.643 51.7324 120.506 50.5912 120.506 49.1857V37.6553C120.506 36.2498 121.643 35.1086 123.043 35.1086C124.443 35.1086 125.581 36.2498 125.581 37.6553V49.1857ZM123.043 28.6659C118.102 28.6659 114.092 32.6855 114.092 37.6496V49.1801C114.092 54.1442 118.102 58.1638 123.043 58.1638C127.984 58.1638 131.994 54.1442 132 49.1801V37.6496C132 32.6855 127.989 28.6659 123.043 28.6659Z" fill="white"/>
<path id="Vector_8" d="M99.1863 28.6659C98.2117 28.6659 97.2314 28.8289 96.2679 29.1606C93.9433 29.9646 92.1396 31.6567 91.1425 33.7143C90.5544 34.923 90.2351 36.2667 90.2351 37.6497C90.2351 38.6166 90.3975 39.6117 90.7224 40.573L93.3888 48.3481C93.4896 48.6292 93.5288 48.9046 93.5288 49.1745C93.5288 49.5624 93.4448 49.9447 93.2711 50.2932C92.9742 50.8835 92.4925 51.3502 91.8147 51.5863C91.5346 51.6818 91.2602 51.7268 90.9857 51.7268C90.8737 51.7268 90.7448 51.7156 90.616 51.6931L90.2295 51.6369V58.1358L90.5544 58.147C90.6944 58.1526 90.8345 58.1582 90.9857 58.1582H90.9913C91.9604 58.1582 92.9406 58.0008 93.8985 57.6691C96.2287 56.8652 98.0324 55.173 99.0295 53.1154C99.6176 51.9067 99.9313 50.5575 99.9313 49.1745C99.9313 48.2019 99.7745 47.2125 99.444 46.2511L96.7777 38.4761C96.6825 38.1894 96.6376 37.9195 96.6376 37.644C96.6376 37.2505 96.7273 36.8738 96.8953 36.5253C97.1922 35.9237 97.6739 35.4684 98.3461 35.2323C98.6318 35.1367 98.9007 35.0917 99.1751 35.0917C99.2984 35.0917 99.416 35.1029 99.5392 35.1254L99.9257 35.1929V28.6884L99.6121 28.6715C99.4664 28.6659 99.3208 28.6547 99.1751 28.6547" fill="white"/>
<path id="Vector_9" d="M110.815 28.6659H110.77C108.317 28.6659 106.059 29.6778 104.452 31.2969C102.839 32.916 101.836 35.176 101.836 37.6497V49.1801C101.836 51.6537 102.844 53.9137 104.452 55.5328C106.048 57.1351 108.272 58.1414 110.698 58.1639H110.787C111.297 58.1639 111.795 58.1189 112.277 58.0402L112.557 57.9896V51.0859L112.053 51.3839C111.678 51.6031 111.252 51.7212 110.782 51.7268C110.07 51.7268 109.46 51.4457 108.989 50.9847C108.524 50.5125 108.25 49.8941 108.25 49.1801V37.6497C108.25 36.9301 108.524 36.3173 108.989 35.845C109.46 35.3728 110.076 35.1029 110.787 35.0973C111.258 35.0973 111.683 35.221 112.059 35.4403L112.563 35.7326V28.8346L112.283 28.7896C111.807 28.7109 111.319 28.6603 110.826 28.6603" fill="white"/>
</g>
</g>
<defs>
<radialGradient id="paint0_radial_306_1871" cx="0" cy="0" r="1" gradientUnits="userSpaceOnUse" gradientTransform="translate(49.8533 22.6663) scale(58.8549 59.7391)">
<stop stop-color="#37A6DE"/>
<stop offset="0.21" stop-color="#36A2DA"/>
<stop offset="0.4" stop-color="#3496D0"/>
<stop offset="0.59" stop-color="#3084BF"/>
<stop offset="0.77" stop-color="#2B69A7"/>
<stop offset="0.96" stop-color="#254788"/>
<stop offset="1" stop-color="#243E80"/>
</radialGradient>
<linearGradient id="paint1_linear_306_1871" x1="51.1259" y1="27.3593" x2="35.1295" y2="43.2978" gradientUnits="userSpaceOnUse">
<stop stop-color="#87181A"/>
<stop offset="0.02" stop-color="#8D181A"/>
<stop offset="0.1" stop-color="#AC1A1E"/>
<stop offset="0.18" stop-color="#C31C22"/>
<stop offset="0.28" stop-color="#D41D24"/>
<stop offset="0.38" stop-color="#DE1E25"/>
<stop offset="0.5" stop-color="#E21F26"/>
<stop offset="1" stop-color="#E21F26"/>
</linearGradient>
<clipPath id="clip0_306_1871">
<rect width="132" height="73" fill="white"/>
</clipPath>
</defs>
</svg>
