<svg width="93" height="51" viewBox="0 0 93 51" fill="none" xmlns="http://www.w3.org/2000/svg">
<g id="Layer_1" clip-path="url(#clip0_306_2133)">
<g id="Group">
<path id="Vector" d="M62.1183 20.0308H57.6035V40.6389H62.1183V20.0308Z" fill="#2C67AE"/>
<path id="Vector_2" d="M47.4805 24.5279H49.5011V40.6389H54.0238V24.5279H56.0444V20.0308H47.4805V24.5279Z" fill="#2C67AE"/>
</g>
<g id="Clip path group">
<mask id="mask0_306_2133" style="mask-type:luminance" maskUnits="userSpaceOnUse" x="0" y="8" width="43" height="43">
<g id="clippath">
<path id="Vector_3" d="M15.6519 35.4192C11.0976 30.8867 10.5333 23.8877 13.9589 18.7425C19.1288 15.3373 26.1616 15.895 30.7198 20.4275C35.2741 24.96 35.8384 31.9629 32.4129 37.1041C30.191 38.5691 27.6297 39.3036 25.0684 39.3036C21.6625 39.3036 18.2527 38.0075 15.6559 35.4231M0 29.7988C0 41.507 9.53482 51 21.3034 51C32.1997 51 41.1899 42.8541 42.4528 32.3478C42.4528 32.3478 42.6225 30.9181 42.6225 29.7988C42.6225 28.6794 42.4528 27.2537 42.4528 27.2537C41.1899 16.7434 32.1997 8.59753 21.3034 8.59753C9.53482 8.59753 0 18.0906 0 29.7988Z" fill="white"/>
</g>
</mask>
<g mask="url(#mask0_306_2133)">
<g id="Group_2">
<path id="Vector_4" d="M42.6225 8.59753H0V51H42.6225V8.59753Z" fill="url(#paint0_radial_306_2133)"/>
</g>
</g>
</g>
<g id="Clip path group_2">
<mask id="mask1_306_2133" style="mask-type:luminance" maskUnits="userSpaceOnUse" x="13" y="12" width="26" height="26">
<g id="clippath-1">
<path id="Vector_5" d="M15.652 16.6805C15.0048 17.3207 14.4405 18.012 13.959 18.7425C19.1289 15.3373 26.1617 15.895 30.7199 20.4275C35.2742 24.9599 35.8386 31.9629 32.413 37.1041C33.147 36.6249 33.8416 36.0633 34.4888 35.4191C39.6864 30.2426 39.6864 21.8532 34.4888 16.6805C31.8881 14.0922 28.4822 12.8 25.0764 12.8C21.6705 12.8 18.2607 14.0922 15.6599 16.6805" fill="white"/>
</g>
</mask>
<g mask="url(#mask1_306_2133)">
<g id="Group_3">
<path id="Vector_6" d="M26.8198 0.000367517L1.74609 24.9539L26.8198 49.9073L51.8935 24.9539L26.8198 0.000367517Z" fill="url(#paint1_linear_306_2133)"/>
</g>
</g>
</g>
<g id="Group_4">
<path id="Vector_7" d="M88.4772 34.3626C88.4772 35.3445 87.676 36.1418 86.6894 36.1418C85.7027 36.1418 84.9016 35.3445 84.9016 34.3626V26.3071C84.9016 25.3252 85.7027 24.5279 86.6894 24.5279C87.676 24.5279 88.4772 25.3252 88.4772 26.3071V34.3626ZM86.6894 20.0269C83.2085 20.0269 80.3828 22.8351 80.3828 26.3032V34.3587C80.3828 37.8268 83.2085 40.635 86.6894 40.635C90.1702 40.635 92.9959 37.8268 92.9999 34.3587V26.3032C92.9999 22.8351 90.1742 20.0269 86.6894 20.0269Z" fill="#2C67AE"/>
<path id="Vector_8" d="M69.8813 20.0269C69.1946 20.0269 68.504 20.1408 67.8252 20.3725C66.1874 20.9342 64.9166 22.1164 64.2141 23.5539C63.7997 24.3983 63.5747 25.337 63.5747 26.3032C63.5747 26.9788 63.6892 27.674 63.9181 28.3456L65.7966 33.7775C65.8677 33.9738 65.8953 34.1663 65.8953 34.3548C65.8953 34.6258 65.8361 34.8929 65.7138 35.1364C65.5046 35.5488 65.1652 35.8748 64.6877 36.0398C64.4903 36.1065 64.297 36.1379 64.1036 36.1379C64.0246 36.1379 63.9339 36.1301 63.8431 36.1144L63.5708 36.0751V40.6154L63.7997 40.6233C63.8984 40.6272 63.997 40.6311 64.1036 40.6311H64.1075C64.7903 40.6311 65.4809 40.5212 66.1558 40.2894C67.7975 39.7278 69.0683 38.5456 69.7708 37.1081C70.1852 36.2636 70.4062 35.321 70.4062 34.3548C70.4062 33.6753 70.2957 32.9841 70.0628 32.3125L68.1843 26.8806C68.1172 26.6803 68.0856 26.4917 68.0856 26.2993C68.0856 26.0244 68.1488 25.7612 68.2672 25.5177C68.4763 25.0974 68.8157 24.7793 69.2893 24.6143C69.4906 24.5476 69.68 24.5162 69.8734 24.5162C69.9602 24.5162 70.0431 24.524 70.1299 24.5397L70.4022 24.5869V20.0426L70.1812 20.0308C70.0786 20.0269 69.976 20.019 69.8734 20.019" fill="#2C67AE"/>
<path id="Vector_9" d="M78.0743 20.0269H78.0428C76.3142 20.0269 74.7237 20.7338 73.5911 21.865C72.4545 22.9961 71.748 24.575 71.748 26.3032V34.3587C71.748 36.0869 72.4584 37.6658 73.5911 38.7969C74.7158 39.9163 76.2826 40.6193 77.9915 40.635H78.0546C78.4137 40.635 78.765 40.6036 79.1044 40.5486L79.3017 40.5133V35.6902L78.9465 35.8983C78.6821 36.0515 78.3822 36.134 78.0507 36.1379C77.5494 36.1379 77.1193 35.9415 76.7878 35.6195C76.4602 35.2896 76.2668 34.8575 76.2668 34.3587V26.3032C76.2668 25.8005 76.4602 25.3724 76.7878 25.0424C77.1193 24.7125 77.5534 24.524 78.0546 24.5201C78.3861 24.5201 78.686 24.6065 78.9505 24.7596L79.3057 24.9639V20.1447L79.1083 20.1133C78.7729 20.0583 78.4295 20.0229 78.0822 20.0229" fill="#2C67AE"/>
</g>
</g>
<defs>
<radialGradient id="paint0_radial_306_2133" cx="0" cy="0" r="1" gradientUnits="userSpaceOnUse" gradientTransform="translate(35.1239 15.8353) scale(41.466 41.7356)">
<stop stop-color="#37A6DE"/>
<stop offset="0.21" stop-color="#36A2DA"/>
<stop offset="0.4" stop-color="#3496D0"/>
<stop offset="0.59" stop-color="#3084BF"/>
<stop offset="0.77" stop-color="#2B69A7"/>
<stop offset="0.96" stop-color="#254788"/>
<stop offset="1" stop-color="#243E80"/>
</radialGradient>
<linearGradient id="paint1_linear_306_2133" x1="36.0208" y1="19.1139" x2="24.8452" y2="30.3433" gradientUnits="userSpaceOnUse">
<stop stop-color="#87181A"/>
<stop offset="0.02" stop-color="#8D181A"/>
<stop offset="0.1" stop-color="#AC1A1E"/>
<stop offset="0.18" stop-color="#C31C22"/>
<stop offset="0.28" stop-color="#D41D24"/>
<stop offset="0.38" stop-color="#DE1E25"/>
<stop offset="0.5" stop-color="#E21F26"/>
<stop offset="1" stop-color="#E21F26"/>
</linearGradient>
<clipPath id="clip0_306_2133">
<rect width="93" height="51" fill="white"/>
</clipPath>
</defs>
</svg>
