<svg width="151" height="69" viewBox="0 0 151 69" fill="none" xmlns="http://www.w3.org/2000/svg">
<g id="Layer_1" clip-path="url(#clip0_2177_516)">
<path id="Vector" d="M21.6773 28.743C21.3631 28.743 21.0548 28.5948 20.8651 28.3161C20.5627 27.8714 20.6813 27.2608 21.126 26.9643C27.7781 22.4702 35.5568 20.0928 43.62 20.0928C46.3117 20.0928 49.0094 20.3596 51.6299 20.8872C52.1576 20.994 52.5015 21.5098 52.3947 22.0374C52.288 22.5651 51.7722 22.909 51.2445 22.8023C48.7544 22.2983 46.1872 22.0434 43.626 22.0434C35.954 22.0434 28.5548 24.3023 22.2228 28.5829C22.0568 28.6955 21.8671 28.7489 21.6773 28.7489V28.743Z" fill="#0055B8"/>
<path id="Vector_2" d="M19.2645 39.0891C18.9207 39.0891 18.5827 38.9053 18.4049 38.5792C18.1499 38.1049 18.3219 37.512 18.7962 37.2571C24.642 34.0792 31.2764 32.4014 37.976 32.4014C38.8238 32.4014 39.6835 32.431 40.5195 32.4784C41.059 32.514 41.4681 32.9765 41.4325 33.516C41.3969 34.0555 40.9404 34.4705 40.395 34.429C39.5946 34.3816 38.7823 34.352 37.9701 34.352C31.5966 34.352 25.2883 35.9468 19.7211 38.9705C19.5728 39.0535 19.4128 39.0891 19.2586 39.0891H19.2645Z" fill="#0055B8"/>
<path id="Vector_3" d="M18.4284 52.1564C18.3632 52.1564 18.298 52.1504 18.2268 52.1386C17.6991 52.0318 17.3612 51.516 17.4679 50.9824C19.6616 40.3639 24.63 30.4212 31.8335 22.2394C32.1893 21.8362 32.8059 21.7947 33.209 22.1504C33.6122 22.5062 33.6537 23.1228 33.298 23.5259C26.3197 31.4587 21.5114 41.0872 19.3829 51.3797C19.2881 51.8421 18.879 52.1564 18.4284 52.1564Z" fill="#0055B8"/>
<path id="Vector_4" d="M33.4284 46.9682C33.2921 46.9682 33.1616 46.9385 33.0312 46.8852C32.5747 46.6777 32.3434 46.1619 32.5035 45.6876C33.2861 43.3397 34.1102 39.5097 33.4818 38.3417C33.2268 37.8674 33.4047 37.2745 33.879 37.0196C34.3533 36.7646 34.9462 36.9425 35.2011 37.4168C35.6221 38.2053 35.7525 39.3793 35.5747 40.9682C37.5312 38.4484 39.4166 36.9484 41.2071 36.4919C42.4818 36.1658 43.7031 36.3555 44.8296 37.0492C45.2861 37.3338 45.4344 37.9326 45.1498 38.3891C44.8652 38.8457 44.2664 38.9879 43.8098 38.7093C43.1399 38.3002 42.4462 38.1876 41.6932 38.3832C40.217 38.7627 37.7268 40.4702 34.2822 46.482C34.1043 46.7962 33.7723 46.9741 33.4343 46.9741L33.4284 46.9682Z" fill="#0055B8"/>
<path id="Vector_5" d="M48.387 45.285C46.7032 45.285 45.9977 44.4075 45.7012 43.7376C45.636 43.5894 45.5886 43.4352 45.5471 43.2751C44.7586 43.5834 43.8989 43.8739 42.974 44.1407C42.4582 44.289 41.9127 43.9925 41.7645 43.4767C41.6163 42.9609 41.9127 42.4154 42.4285 42.2672C43.6024 41.9293 44.6756 41.538 45.6538 41.123C46.3001 38.7277 48.4878 35.9648 51.1024 34.6842C52.555 33.9728 53.5925 33.8779 54.2625 34.3937C54.719 34.7435 54.9147 35.3127 54.7961 35.9589C54.5827 37.1091 53.2961 38.6625 51.3692 40.115C50.4443 40.8087 49.1341 41.6565 47.391 42.4807C47.391 42.6585 47.4265 42.8186 47.4858 42.955C47.7348 43.5182 49.0155 43.4471 50.7467 42.7771C51.9147 42.3206 52.97 41.87 53.9068 41.4253C53.9957 40.9747 54.1439 40.4886 54.3514 39.9846C55.4186 37.3285 57.8258 34.4767 60.1795 34.4233C62.2783 34.3759 62.7289 35.4787 62.8238 35.9589C63.1914 37.7909 60.4641 40.3226 55.7625 42.6882C55.7862 42.8897 55.8455 43.0202 55.9107 43.0913C56.1301 43.3107 56.9008 43.3641 58.3593 42.783C64.0688 40.5241 66.0491 37.4648 66.0669 37.4352C66.3514 36.9787 66.9562 36.8423 67.4068 37.1269C67.8633 37.4115 68.0056 38.0044 67.721 38.4609C67.6321 38.6091 65.4443 42.0775 59.0708 44.5973C56.9661 45.4273 55.4364 45.3858 54.5174 44.4668C54.2625 44.2119 54.0728 43.8977 53.9542 43.5478C53.1597 43.9036 52.3178 44.2534 51.4404 44.5973C50.1597 45.0953 49.1578 45.2909 48.3633 45.2909L48.387 45.285ZM60.3277 36.3739C60.3277 36.3739 60.2684 36.3739 60.2329 36.3739C59.1123 36.3977 57.4048 38.123 56.4265 40.1269C59.4443 38.4016 60.7131 36.9905 60.891 36.4332C60.7842 36.4036 60.6005 36.3739 60.3218 36.3739H60.3277ZM52.638 36.1546C52.4601 36.2198 52.2348 36.3087 51.9621 36.4451C50.4799 37.1684 49.2289 38.4609 48.4167 39.7356C50.7111 38.3779 52.1044 36.9846 52.638 36.1605V36.1546Z" fill="#0055B8"/>
<path id="Vector_6" d="M77.4977 50.1287C77.2131 50.1287 76.9286 50.0042 76.7388 49.767C74.391 46.8619 73.6084 44.0635 74.1894 40.3935C73.057 42.0358 71.9305 43.5299 70.8455 44.7749C68.5807 47.3777 66.6242 48.516 65.0175 48.1662C64.0274 47.9469 63.2922 47.182 62.9483 46.0141C62.3554 43.9745 63.0135 40.5951 65.1479 38.4726C66.227 37.3994 69.9088 33.9903 71.9187 35.2947C72.8673 35.9113 72.9977 37.1563 72.2922 39.0002C72.1025 39.5042 71.5392 39.7591 71.0353 39.5635C70.5313 39.3737 70.2764 38.8105 70.472 38.3065C70.7685 37.5299 70.7981 37.1267 70.7863 36.9488C70.2882 36.9903 68.7467 37.6425 66.5234 39.854C64.976 41.3895 64.395 43.9982 64.8218 45.4627C64.9167 45.7828 65.0946 46.1801 65.4384 46.2571C66.055 46.3935 67.4187 45.7354 69.3752 43.4884C71.64 40.8856 74.1479 37.0733 76.478 33.1603C78.2151 29.1228 80.9661 24.0299 85.0155 17.2769C85.2823 16.8322 85.8574 16.6722 86.3139 16.9212C86.7704 17.1702 86.9542 17.7334 86.7289 18.2018C86.4859 18.6998 82.6558 26.6267 78.1084 34.2394C74.9068 41.7631 75.559 45.2018 78.2507 48.5338C78.5886 48.9548 78.5234 49.5654 78.1025 49.9034C77.9246 50.0516 77.7052 50.1227 77.4918 50.1227L77.4977 50.1287Z" fill="#0055B8"/>
<path id="Vector_7" d="M97.4956 44.4667C97.377 44.4667 97.2466 44.443 97.1043 44.3837C96.2564 44.0399 96.4402 43.3699 96.8078 42.0418C97.0035 41.3422 97.294 40.281 97.626 38.9292C97.8987 37.8086 98.1596 36.8185 98.3908 35.947C98.5865 35.2059 98.7821 34.4588 98.9244 33.8482C98.8592 33.9074 98.788 33.9667 98.711 34.032C98.3019 34.3818 97.6853 34.3403 97.3355 33.9312C96.9798 33.5221 97.0272 32.9055 97.4363 32.5557C98.5628 31.5774 99.5707 30.8126 100.466 31.3699C101.456 31.9865 101.136 33.2019 100.282 36.445C100.247 36.5873 100.205 36.7355 100.169 36.8837C102.671 32.8818 104.61 31.3284 106.229 32.0221C108.031 32.7928 108.031 35.9766 107.474 37.8857C107.023 39.4154 106.81 40.3877 106.709 41.0043C107.148 40.5478 107.812 39.7652 108.778 38.4489C111.648 34.53 113.367 33.1782 114.719 33.7948C115.887 34.3284 116.1 36.024 115.389 39.1367C115.164 40.115 115.128 40.5893 115.134 40.8146C115.667 40.7731 116.907 40.3403 118.104 39.9193C121.152 38.858 125.758 37.2513 132.701 36.2671C133.235 36.1901 133.727 36.5636 133.804 37.0972C133.881 37.6308 133.507 38.1229 132.974 38.1999C126.221 39.1604 121.721 40.7256 118.745 41.7632C116.053 42.6999 114.707 43.1742 113.77 42.3323C112.994 41.6387 113.077 40.4766 113.48 38.698C113.847 37.0794 113.871 36.1604 113.818 35.7276C113.379 36.0003 112.353 36.86 110.349 39.5991C107.835 43.032 106.614 44.0043 105.494 43.4529C104.385 42.9074 104.409 41.36 105.594 37.3343C106.116 35.5735 105.707 33.9727 105.452 33.8126C105.452 33.8126 104.142 33.8126 100.94 39.3857C100.134 40.7849 99.5529 41.8403 99.1319 42.611C98.8711 43.0853 98.6813 43.4351 98.545 43.6604C98.4027 43.9035 98.0707 44.4727 97.4956 44.4727V44.4667Z" fill="#0055B8"/>
<path id="Vector_8" d="M85.5786 48.4155C81.4995 48.4155 78.1853 45.1012 78.1853 41.0222C78.1853 36.9431 81.4995 33.6289 85.5786 33.6289C89.6576 33.6289 92.9719 36.9431 92.9719 41.0222C92.9719 45.1012 89.6576 48.4155 85.5786 48.4155ZM85.5786 34.7435C82.1161 34.7435 79.2999 37.5597 79.2999 41.0222C79.2999 44.4846 82.1161 47.3008 85.5786 47.3008C89.041 47.3008 91.8572 44.4846 91.8572 41.0222C91.8572 37.5597 89.041 34.7435 85.5786 34.7435Z" fill="#E1251B"/>
<path id="Vector_9" d="M87.476 46.5774C83.308 46.5774 79.9226 43.1861 79.9226 39.0241C79.9226 34.862 83.3139 31.4707 87.476 31.4707C91.638 31.4707 95.0293 34.862 95.0293 39.0241C95.0293 43.1861 91.638 46.5774 87.476 46.5774ZM87.476 32.8581C84.0787 32.8581 81.3159 35.6209 81.3159 39.0181C81.3159 42.4154 84.0787 45.1782 87.476 45.1782C90.8732 45.1782 93.636 42.4154 93.636 39.0181C93.636 35.6209 90.8732 32.8581 87.476 32.8581Z" fill="#0055B8"/>
<path id="Vector_10" d="M96.5647 50.1399L96.5232 50.5728H96.043V46.0312H96.5825V47.7032C96.8256 47.4245 97.1457 47.2763 97.543 47.2763C98.373 47.2763 98.8414 47.8929 98.8414 48.9186C98.8414 49.9443 98.3197 50.6439 97.5015 50.6439C97.0924 50.6439 96.7781 50.4779 96.5588 50.1399H96.5647ZM98.3019 48.9305C98.3019 48.0945 97.9995 47.6795 97.4007 47.6795C97.0331 47.6795 96.7604 47.8336 96.5766 48.1538V49.6834C96.7366 50.0629 96.9916 50.2348 97.371 50.2348C97.9758 50.2348 98.2959 49.7961 98.2959 48.9245L98.3019 48.9305Z" fill="#6D6E71"/>
<path id="Vector_11" d="M100.466 50.5434L99.2388 47.3418H99.7724L100.703 49.9801L101.664 47.3418H102.197L100.448 51.8892H99.9502L100.472 50.5493L100.466 50.5434Z" fill="#6D6E71"/>
<path id="Vector_12" d="M105.517 46.4878H104.219V46.0254H107.403V46.4878H106.104V50.5728H105.523V46.4878H105.517Z" fill="#6D6E71"/>
<path id="Vector_13" d="M108.073 46.0254H108.654V50.5669H108.073V46.0254Z" fill="#6D6E71"/>
<path id="Vector_14" d="M109.537 50.2229L109.751 49.8197C110.077 50.0569 110.444 50.1754 110.889 50.1754C111.529 50.1754 111.861 49.9324 111.861 49.4047C111.861 48.877 111.547 48.7525 110.853 48.4442C110.177 48.1418 109.608 47.8632 109.608 47.1162C109.608 46.3691 110.148 45.9541 111.025 45.9541C111.517 45.9541 111.944 46.0964 112.294 46.3691L112.063 46.7486C111.766 46.5292 111.423 46.4284 111.037 46.4284C110.456 46.4284 110.183 46.6596 110.183 47.0984C110.183 47.6083 110.563 47.7209 111.286 48.0648C111.885 48.3494 112.43 48.6043 112.43 49.3869C112.43 50.1695 111.844 50.6438 110.883 50.6438C110.338 50.6438 109.875 50.5075 109.531 50.2229H109.537Z" fill="#6D6E71"/>
<path id="Vector_15" d="M113.023 48.3147C113.023 46.9036 113.794 45.9609 115.039 45.9609C115.496 45.9609 115.934 46.0854 116.225 46.287L115.999 46.6902C115.756 46.5183 115.401 46.4234 115.086 46.4234C114.173 46.4234 113.598 47.1882 113.598 48.3088C113.598 49.4293 114.156 50.1704 115.104 50.1704C115.448 50.1704 115.816 50.0696 116.077 49.8858L116.278 50.3009C115.976 50.5202 115.507 50.6447 115.045 50.6447C113.782 50.6447 113.023 49.7317 113.023 48.3147Z" fill="#6D6E71"/>
<path id="Vector_16" d="M116.687 48.3028C116.687 46.8503 117.399 45.9609 118.549 45.9609C119.699 45.9609 120.411 46.8503 120.411 48.3028C120.411 49.7554 119.699 50.6447 118.549 50.6447C117.399 50.6447 116.687 49.7554 116.687 48.3028ZM119.83 48.3028C119.83 47.1408 119.349 46.4293 118.549 46.4293C117.749 46.4293 117.268 47.1408 117.268 48.3028C117.268 49.4649 117.749 50.1764 118.549 50.1764C119.349 50.1764 119.83 49.4649 119.83 48.3028Z" fill="#6D6E71"/>
</g>
<defs>
<clipPath id="clip0_2177_516">
<rect width="149.686" height="69" fill="white" transform="translate(0.78418)"/>
</clipPath>
</defs>
</svg>
