<svg width="91" height="89" viewBox="0 0 91 89" fill="none" xmlns="http://www.w3.org/2000/svg">
<g id="Layer_1" clip-path="url(#clip0_3392_3409)">
<g id="_9lAuUM">
<path id="Vector" d="M90.4384 80.8988C90.309 81.3972 90.1815 81.8974 90.0486 82.3958C89.1448 85.7917 86.1063 88.3166 82.5549 88.3929C77.1693 88.5092 71.7802 88.5027 66.393 88.5312C65.3254 88.5362 64.7643 88.0411 64.7875 87.211C64.8108 86.4019 65.3278 86.0054 66.3829 86.0056C71.3011 86.0033 76.2192 86.0326 81.1356 85.9828C82.1447 85.9726 83.1946 85.8043 84.1489 85.4834C86.3585 84.7397 87.8161 82.6322 87.8166 80.3242C87.8292 64.8513 87.8329 49.3783 87.8278 33.907C87.8283 31.7079 85.8955 29.9207 83.7019 30.122L83.7017 31.2295C83.698 46.5849 83.6907 61.9421 83.6941 77.2975C83.6937 78.8455 83.2349 80.1617 81.9423 81.1126C81.0445 81.7741 80 81.8879 78.9271 81.8877C68.5031 81.8851 58.0773 81.8826 47.6533 81.8801C46.8424 81.8799 46.4369 82.294 46.4367 83.1224C46.4365 83.7946 46.4789 84.4686 46.4256 85.1355C46.3688 85.8358 46.6343 86.0219 47.3265 86.0168C51.3311 85.988 55.3357 86.003 59.3404 86.0039C59.5758 86.004 59.8857 85.9216 60.0326 86.0374C60.4167 86.3412 60.8822 86.68 61.0326 87.1048C61.2343 87.677 60.8854 88.1912 60.2745 88.3963C59.9488 88.5051 59.5858 88.5471 59.2388 88.547C43.6311 88.538 28.0252 88.529 12.4174 88.4989C10.5957 88.495 8.73503 88.584 6.95941 88.2624C2.60622 87.4751 0.0204704 84.2117 0.01092 79.7625C-0.00348746 73.4284 0.0104317 67.0924 0.0119577 60.7583C0.0140749 51.9705 0.0108804 43.1844 0.0200791 34.3966C0.022625 31.1777 1.76528 28.6929 4.65654 27.7933C5.29216 27.5951 5.96492 27.518 6.64655 27.3813C6.65718 27.3638 6.70676 27.3164 6.70854 27.2672C6.7764 24.861 8.07618 23.5309 10.3548 22.8523C13.6303 21.879 16.9481 21.2146 20.3597 21.0013C21.1511 20.9523 21.9425 20.8683 22.7356 20.8439C23.4509 20.8213 23.9146 21.1759 24.0047 21.8973C24.0984 22.652 23.7548 23.1767 22.9917 23.2783C21.9171 23.422 20.8301 23.4866 19.7466 23.5689C16.6607 23.7998 13.6545 24.4256 10.7207 25.3902C9.50257 25.7919 9.31838 26.0919 9.31807 27.3767C9.3143 42.9953 9.31054 58.614 9.30678 74.2327C9.30671 74.4924 9.30665 74.7522 9.30658 75.0576C20.8557 71.5414 32.3525 71.739 43.9708 74.9554C43.9709 74.5552 43.9709 74.2129 43.971 73.8725C43.9748 58.2538 43.9715 42.6351 44.0036 27.0165C44.0038 26.167 43.733 25.772 42.9435 25.5051C40.15 24.5637 37.275 24.0435 34.3504 23.7549C32.8014 23.6018 31.2452 23.5137 29.6944 23.3712C28.5809 23.2691 27.9844 22.7091 28.128 21.9C28.2503 21.2156 28.6877 20.7997 29.4171 20.8402C34.5847 21.1311 39.7241 21.5781 44.6134 23.4643C44.9161 23.5819 45.3144 23.6575 45.6084 23.5646C47.0566 23.1086 48.4855 22.5894 49.8293 22.1246C50.0669 20.4749 50.1452 18.7707 50.5758 17.1614C51.7489 12.7651 55.7808 9.48231 60.3291 8.92177C63.006 8.59246 65.6226 8.71068 68.1186 9.74855C73.0557 11.7997 75.4006 15.6018 75.4613 20.8338C75.4699 21.5534 75.7319 21.7746 76.371 21.9116C77.4579 22.1436 78.5325 22.4334 79.5964 22.7549C82.7404 23.6999 83.236 24.2669 83.7681 27.4087C84.3912 27.5211 85.0427 27.5634 85.6446 27.7584C88.1354 28.5663 89.7 30.234 90.2535 32.8001C90.2871 32.9599 90.3844 33.1056 90.4517 33.2583L90.4402 80.9041L90.4384 80.8988ZM81.1099 75.0696C81.11 74.7203 81.11 74.4307 81.1101 74.1412C81.1139 58.5857 81.1176 43.0302 81.1213 27.4747C81.1214 27.329 81.1161 27.1834 81.1215 27.0377C81.1446 26.3076 80.8243 25.7775 80.1233 25.5649C78.6398 25.117 77.1475 24.6972 75.6463 24.3142C75.4392 24.2615 74.9948 24.4229 74.9434 24.5755C74.1054 27.1536 72.1911 29.0171 70.6451 31.1351C69.8499 32.2231 69.3114 33.5059 68.7428 34.7396C68.5374 35.1871 68.5284 35.6663 69.1798 36.0297C71.0508 37.0745 71.847 39.0965 71.3101 41.113C70.8104 42.9908 68.9884 44.3963 66.9188 44.4186C64.1817 44.4477 61.443 44.4383 58.706 44.4201C56.493 44.4055 54.7388 43.0484 54.1781 40.9597C53.6652 39.057 54.5261 37.0389 56.3906 35.981C56.8916 35.6968 56.9395 35.4213 56.8316 34.9316C56.4443 33.1641 55.4037 31.772 54.3223 30.3765C53.2339 28.9704 52.2269 27.5011 51.2181 26.0353C50.9314 25.6176 50.7687 25.1156 50.5227 24.5942C49.425 24.9309 48.3963 25.2589 47.3606 25.5588C46.6701 25.7587 46.431 26.1448 46.4326 26.8907C46.4536 42.5918 46.4427 58.2948 46.4424 73.9959C46.4424 74.3031 46.4724 74.6102 46.49 74.9419C58.0673 71.7434 69.5377 71.5584 81.1117 75.0696L81.1099 75.0696ZM6.73266 30.0614C4.38868 30.0099 2.60371 31.733 2.60318 33.9497C2.59415 49.3911 2.58866 64.8307 2.59202 80.2721C2.59145 82.624 4.05859 84.7497 6.31034 85.4857C7.2946 85.8071 8.37627 85.9618 9.41548 85.9656C20.5742 86.0034 31.733 85.9955 42.8917 86C43.2068 86 43.522 86.0001 43.9663 86.0002C43.9666 84.9472 43.9668 83.9941 43.967 83.0394C43.9672 82.2648 43.5637 81.8768 42.7564 81.8754C32.3341 81.8729 21.9101 81.8704 11.4878 81.8679C10.3495 81.8676 9.25717 81.7252 8.32967 80.9896C7.13135 80.038 6.71561 78.762 6.71597 77.2842C6.72675 61.9305 6.72691 46.5786 6.73061 31.225L6.73089 30.0596L6.73266 30.0614ZM61.5018 35.3399C61.5025 32.3773 61.4961 29.5199 61.511 26.6626C61.5129 26.1958 61.3075 26.0448 60.872 26.057C60.3427 26.0709 59.8116 26.069 59.2822 26.0496C58.4236 26.0178 57.9793 25.6052 57.9653 24.8558C57.9496 24.0642 58.4011 23.6168 59.3147 23.6117C61.5808 23.5947 63.8486 23.5953 66.1147 23.6151C66.9503 23.6224 67.4371 24.0963 67.4458 24.8142C67.4562 25.518 66.9462 26.0111 66.146 26.0495C65.7353 26.0687 65.3192 26.0896 64.9103 26.0527C64.28 25.9946 64.0233 26.1876 64.032 26.8703C64.0667 29.4679 64.0431 32.0655 64.0478 34.663C64.0477 34.8842 64.099 35.1053 64.1273 35.33L66.0429 35.3304C66.3515 32.826 67.5718 30.8009 69.1249 28.9286C69.9094 27.9827 70.708 27.0404 71.3917 26.0244C74.1491 21.9216 73.2529 16.1647 69.3995 13.3047C66.6559 11.2664 63.4976 10.8882 60.2488 11.5263C54.5001 12.6552 51.8894 17.3162 52.7344 22.708C53.0402 24.658 54.1746 26.1712 55.3409 27.6861C56.4258 29.094 57.5285 30.5089 58.4274 32.0343C59.0044 33.0138 59.2254 34.1985 59.6234 35.3412L61.5 35.3416L61.5018 35.3399ZM9.23688 77.7622C9.54995 78.9557 10.1589 79.3402 11.1078 79.3387C21.7584 79.3343 32.4109 79.3316 43.0615 79.3587C43.8316 79.3589 44.0034 79.0921 43.9841 78.3989C43.9683 77.8214 43.6266 77.6757 43.1965 77.5141C39.9357 76.29 36.5332 75.7398 33.0845 75.3968C27.0264 74.7916 20.9947 74.8726 15.0247 76.1471C13.0931 76.5591 11.211 77.2045 9.23511 77.7639L9.23688 77.7622ZM81.1375 77.9199C80.7357 77.7583 80.417 77.6231 80.0913 77.5019C75.9578 75.96 71.64 75.3148 67.2637 75.1189C62.2057 74.8948 57.153 75.1042 52.1815 76.1526C50.4128 76.526 48.6901 77.117 46.9514 77.6221C46.2149 77.836 46.4254 78.4609 46.4873 78.9383C46.5085 79.1015 46.9404 79.328 47.183 79.3281C57.9221 79.35 68.6613 79.3491 79.4022 79.3534C80.3246 79.3536 80.8717 78.9009 81.1375 77.9217L81.1375 77.9199ZM62.7528 37.943C61.3985 37.9427 60.0442 37.9371 58.6898 37.942C57.4435 37.9487 56.5775 38.7752 56.595 39.923C56.6106 41.027 57.4744 41.8521 58.6588 41.8576C61.3675 41.8688 64.0779 41.8677 66.7866 41.8596C68.0454 41.8564 68.9166 41.051 68.9239 39.9102C68.9313 38.7659 68.064 37.9495 66.8159 37.9422C65.4615 37.9349 64.1072 37.9416 62.7528 37.9412L62.7528 37.943Z" fill="#005DA5"/>
<path id="Vector_2" d="M38.2399 45.935C37.808 45.8138 37.6026 45.7822 37.4203 45.7014C33.7135 44.0366 29.7638 43.8339 25.7928 43.8417C22.2202 43.8478 18.7236 44.3244 15.4002 45.7452C14.6707 46.0574 13.9768 45.7273 13.7061 45.0849C13.4212 44.4109 13.7188 43.7721 14.5244 43.4107C17.0085 42.2951 19.6377 41.6744 22.3376 41.5364C25.0587 41.3984 27.7975 41.4078 30.5203 41.5366C33.0413 41.6548 35.5162 42.1714 37.8688 43.1338C38.2175 43.276 38.653 43.4235 38.8353 43.7044C39.0742 44.073 39.2901 44.633 39.1714 45.005C39.0456 45.4016 38.5197 45.6753 38.2399 45.9385L38.2399 45.935Z" fill="#005DA5"/>
<path id="Vector_3" d="M38.2406 65.3709C37.8175 65.2515 37.6139 65.2198 37.4298 65.139C33.5778 63.4286 29.4848 63.2293 25.3633 63.2792C21.9376 63.3205 18.5897 63.8129 15.408 65.1688C14.682 65.4776 13.9899 65.1685 13.7085 64.5296C13.4148 63.8573 13.7035 63.2062 14.5038 62.8466C16.9596 61.7433 19.5587 61.1138 22.2303 60.9793C25.0399 60.8378 27.8672 60.8438 30.6768 60.9813C33.1659 61.103 35.6142 61.6249 37.9332 62.5925C38.2802 62.7365 38.7174 62.8981 38.8838 63.1825C39.1032 63.5599 39.2659 64.1198 39.1419 64.5024C39.0214 64.8779 38.5115 65.1288 38.2406 65.3727L38.2406 65.3709Z" fill="#005DA5"/>
<path id="Vector_4" d="M27.4872 50.787C30.4277 51.2722 33.2355 51.6905 36.0219 52.223C36.8964 52.39 37.7373 52.8096 38.548 53.2065C39.3127 53.5823 39.5162 54.2264 39.1602 54.874C38.8042 55.5215 38.25 55.7969 37.5401 55.4598C34.5574 54.0462 31.3407 53.7085 28.1168 53.562C23.7759 53.3644 19.4915 53.739 15.4192 55.4457C14.6932 55.7509 14.0241 55.4769 13.725 54.8363C13.426 54.1903 13.6492 53.4708 14.4106 53.1901C15.8607 52.6552 17.3231 52.043 18.8351 51.8012C21.7227 51.3368 24.6492 51.1075 27.4872 50.787Z" fill="#005DA5"/>
<path id="Vector_5" d="M13.629 34.5508C13.8132 34.3683 14.1001 33.891 14.5179 33.6998C16.7471 32.6841 19.1125 32.0652 21.5468 31.8955C24.1511 31.7153 26.7748 31.6405 29.3843 31.7236C32.1426 31.8121 34.8706 32.255 37.4676 33.2595C37.8765 33.4176 38.2907 33.5862 38.6571 33.8197C39.2767 34.213 39.5315 34.7852 39.1471 35.4644C38.7876 36.1014 38.2511 36.3066 37.5111 36.0256C30.6692 33.4281 23.7523 33.4984 16.7889 35.4906C16.256 35.6431 15.7567 35.908 15.2273 36.0764C14.4129 36.3377 13.6039 35.7127 13.6272 34.5491L13.629 34.5508Z" fill="#005DA5"/>
<path id="Vector_6" d="M64.0501 3.0658C64.05 3.64674 64.1012 4.23295 64.0373 4.80686C63.9539 5.5668 63.3253 6.12126 62.6844 6.01404C61.9303 5.88749 61.5002 5.43984 61.5092 4.63425C61.5201 3.56013 61.5204 2.48425 61.51 1.41012C61.5013 0.606283 61.937 0.157082 62.6859 0.0273847C63.3197 -0.0830341 63.9569 0.478752 64.0381 1.23698C64.1017 1.84075 64.0502 2.45502 64.0519 3.06404L64.0501 3.0658Z" fill="#005DA5"/>
<path id="Vector_7" d="M78.0551 5.32089C77.777 5.77189 77.6194 6.15271 77.3555 6.43521C76.656 7.18272 75.9212 7.90038 75.1792 8.60751C74.5329 9.22164 73.7344 9.24777 73.2282 8.71234C72.6972 8.15058 72.7293 7.517 73.365 6.8625C74.1424 6.06587 74.9003 5.24115 75.7609 4.54283C76.0831 4.2814 76.7187 4.18326 77.1224 4.30622C77.4817 4.41512 77.7153 4.92942 78.0551 5.3244L78.0551 5.32089Z" fill="#005DA5"/>
<path id="Vector_8" d="M52.7326 7.98973C52.5237 8.27225 52.343 8.77242 52.0207 8.88642C51.6135 9.032 50.9425 9.03885 50.6469 8.79482C49.6823 7.99777 48.7583 7.11825 47.9867 6.14222C47.73 5.81571 47.8046 5.00663 48.0366 4.58195C48.3483 4.00986 49.1132 3.96616 49.584 4.37171C50.5982 5.24599 51.5168 6.22907 52.4496 7.19285C52.5929 7.34031 52.6035 7.61411 52.7309 7.99149L52.7326 7.98973Z" fill="#005DA5"/>
<path id="Vector_9" d="M62.3921 51.0008C67.2925 51.0318 71.6688 51.3207 75.8093 53.0856C76.3846 53.3314 76.9227 53.7142 76.7668 54.3723C76.664 54.804 76.2567 55.2304 75.8725 55.5023C75.6653 55.6497 75.1873 55.5461 74.8864 55.4231C70.4272 53.6073 65.78 53.3148 61.0424 53.6682C58.2221 53.8781 55.4496 54.2671 52.8504 55.474C52.1421 55.802 51.5863 55.5088 51.2501 54.847C50.8909 54.1344 51.1654 53.4956 51.8294 53.25C53.4406 52.6554 55.0695 52.0415 56.7461 51.7067C58.7521 51.3053 60.8164 51.1864 62.3921 51.0008Z" fill="#005DA5"/>
<path id="Vector_10" d="M64.0433 60.6157C67.839 60.757 71.5496 61.1738 75.1095 62.5226C75.3821 62.6262 75.6547 62.7351 75.9185 62.8633C76.7062 63.2426 77 63.8885 76.6988 64.5501C76.3888 65.2293 75.7479 65.4187 74.9124 65.1587C73.4076 64.688 71.9136 64.1523 70.3734 63.8343C66.9567 63.1279 63.4956 63.1236 60.0291 63.4738C57.5718 63.7224 55.1569 64.1079 52.8941 65.1763C52.2407 65.485 51.6194 65.2777 51.2548 64.5949C50.9168 63.963 51.0976 63.2136 51.8731 62.9312C53.5693 62.3138 55.2867 61.6701 57.0536 61.3564C59.3535 60.948 61.7116 60.8485 64.0433 60.6157Z" fill="#005DA5"/>
</g>
</g>
<defs>
<clipPath id="clip0_3392_3409">
<rect width="90.4366" height="88.5327" fill="white" transform="translate(0.0213013)"/>
</clipPath>
</defs>
</svg>
