<svg width="97" height="67" viewBox="0 0 97 67" fill="none" xmlns="http://www.w3.org/2000/svg">
<g id="Layer_1" clip-path="url(#clip0_3392_3402)">
<path id="Vector" d="M48.0292 49.1149C42.6265 49.1136 37.2238 49.1264 31.8211 49.0949C31.0761 49.0907 30.5794 49.3221 30.0907 49.8756C26.0719 54.4222 22.0006 58.9225 17.9959 63.4812C15.5079 66.3151 12.4026 67.2222 8.8676 66.2833C7.09104 65.8118 5.34081 64.9598 3.79656 63.9489C1.35402 62.3519 0.0442752 60.0446 0.0127097 56.9826C-0.0564078 50.5669 0.795089 44.2621 2.0221 37.9936C3.67564 29.5329 5.86013 21.2133 9.33866 13.3027C10.6295 10.3699 12.3119 7.59428 13.9742 4.84278C14.6548 3.71359 15.6868 2.76567 16.6722 1.858C18.0515 0.590086 19.7213 -0.0375974 21.6352 0.00715186C24.1226 0.0641178 26.6099 0.0325075 29.0952 0.121682C31.5119 0.208828 33.3509 1.28628 34.5173 3.46875C35.1469 4.64858 35.6533 6.18268 36.6748 6.78082C37.6579 7.3568 39.2287 6.94852 40.543 6.94884C46.5494 6.95632 52.5578 6.9316 58.5642 6.97935C59.4424 6.9856 59.9149 6.69985 60.2866 5.95308C60.7431 5.03522 61.3187 4.17577 61.8136 3.27603C62.9002 1.30145 64.6146 0.257065 66.8173 0.160967C69.6196 0.0388432 72.43 0.0375072 75.2363 0.054288C77.1583 0.0648166 78.6925 1.02543 80.0429 2.29803C82.7537 4.85733 84.4933 8.07065 86.037 11.3886C89.5199 18.8782 91.755 26.7741 93.5115 34.8108C94.9414 41.3597 96.03 47.9629 96.1455 54.6867C96.1674 55.9268 96.1812 57.1749 96.0457 58.4029C95.9587 59.192 95.698 60.0052 95.3345 60.7137C93.2115 64.8481 87.0672 67.516 82.5592 66.3312C80.8473 65.8819 79.4807 64.9354 78.3201 63.6286C74.2429 59.0378 70.1476 54.465 66.0845 49.8621C65.592 49.3044 65.0853 49.0949 64.3464 49.0987C58.9073 49.1256 53.4703 49.1122 48.0313 49.1109L48.0292 49.1149ZM93.537 54.7686C93.3572 46.9094 92.0064 39.211 90.1588 31.589C88.4122 24.3837 86.2899 17.2951 82.8411 10.6953C81.7353 8.5793 80.2841 6.62424 78.8491 4.69937C77.9974 3.55774 76.8024 2.60727 75.2902 2.58074C72.4516 2.52972 69.6089 2.60352 66.7702 2.70148C65.5649 2.74347 64.6724 3.37738 64.0341 4.45826C62.5577 6.96219 61.1317 9.43393 60.7413 12.4253C60.444 14.7 58.984 15.9196 56.6783 16.0841C54.2374 16.2587 51.7803 16.2561 49.3313 16.2575C46.1696 16.2587 43.0019 16.3083 39.8504 16.1103C37.0239 15.9304 35.7785 14.688 35.3269 11.9139C34.9902 9.85441 34.3749 7.93779 33.1842 6.21027C32.8431 5.71497 32.5505 5.18344 32.2841 4.64386C31.6565 3.37748 30.629 2.71089 29.238 2.66426C27.003 2.58923 24.7559 2.67324 22.529 2.49757C20.0963 2.30775 18.3799 3.38434 16.9097 5.13136C14.5993 7.87666 13.0117 11.0389 11.6178 14.3038C8.04226 22.6854 5.78296 31.4479 4.16767 40.3856C3.20334 45.7262 2.56608 51.0969 2.53246 56.5424C2.51777 58.8816 3.51877 60.5386 5.27695 61.8677C5.92492 62.357 6.61125 62.8282 7.34606 63.1606C10.7335 64.6954 13.8124 64.6035 16.5165 61.4094C20.4809 56.7259 24.6632 52.2256 28.7224 47.6206C29.3343 46.9262 29.9764 46.6063 30.9193 46.6085C42.3627 46.6375 53.8081 46.6382 65.2515 46.6168C66.1883 46.617 66.8383 46.9131 67.4559 47.6138C71.6522 52.3818 75.8928 57.1096 80.0952 61.8736C81.2537 63.1864 82.6284 64.1088 84.3929 64.1333C88.0836 64.1805 90.9569 62.5728 93.017 59.5436C93.3018 59.1249 93.4775 58.5673 93.512 58.06C93.587 56.9669 93.5347 55.8657 93.535 54.7686L93.537 54.7686ZM37.4655 9.52687C37.3215 12.3754 38.2781 13.819 41.2965 13.7654C45.8714 13.6819 50.4484 13.7494 55.0233 13.7405C55.5523 13.7406 56.1176 13.7609 56.6002 13.5879C57.0928 13.4108 57.7067 13.103 57.9087 12.6803C58.3652 11.7262 58.5996 10.6673 58.9613 9.53205L37.4635 9.52687L37.4655 9.52687Z" fill="#005DA5"/>
<path id="Vector_2" d="M20.6342 23.9307C20.6344 23.1657 20.6224 22.5034 20.6347 21.8431C20.6899 19.0711 22.6588 17.0202 25.2552 17.0208C27.8617 17.0215 29.7792 19.0451 29.829 21.8614C29.8409 22.5217 29.8287 23.184 29.8285 23.9349C30.7209 23.9351 31.4618 23.9212 32.2007 23.9375C34.7446 23.9945 36.7348 25.9779 36.7605 28.4681C36.7861 30.9281 34.799 32.983 32.2712 33.087C31.498 33.1191 30.7227 33.0907 29.8202 33.0905C29.82 33.9299 29.8441 34.6647 29.8156 35.3995C29.7161 38.0185 27.8178 39.9305 25.3062 39.9561C22.7845 39.9816 20.8165 38.1311 20.6455 35.5322C20.5952 34.7631 20.6378 33.9881 20.638 33.0903C19.8022 33.0901 19.0673 33.108 18.3324 33.0857C15.7159 33.0106 13.7418 31.0131 13.7505 28.4686C13.7592 25.9361 15.7645 23.9698 18.3911 23.9281C19.0937 23.9162 19.7963 23.9285 20.6302 23.9287L20.6342 23.9307ZM23.1576 33.6324C23.1574 34.1276 23.1472 34.6249 23.1572 35.1201C23.1912 36.5594 23.9743 37.4273 25.2362 37.4316C26.5041 37.438 27.2876 36.5987 27.3324 35.1352C27.3629 34.1085 27.3208 33.0798 27.3493 32.0531C27.3758 31.0003 27.7978 30.5857 28.8538 30.5638C29.9198 30.5419 30.9858 30.5764 32.0518 30.5525C33.35 30.5226 34.1961 29.7297 34.2267 28.558C34.2593 27.3442 33.3994 26.4984 32.0568 26.4639C31.0271 26.4375 29.9954 26.4755 28.9658 26.4491C27.7706 26.4186 27.3689 26.0159 27.349 24.8422C27.3291 23.7793 27.3818 22.7144 27.3255 21.6535C27.2592 20.3691 26.3994 19.5314 25.2506 19.5292C24.0755 19.5289 23.2031 20.4386 23.1665 21.7531C23.138 22.7798 23.17 23.8085 23.1556 24.8352C23.1392 25.9967 22.7272 26.4174 21.5381 26.4453C20.4377 26.4732 19.3334 26.4246 18.2351 26.4706C17.0721 26.5187 16.3128 27.3217 16.2863 28.437C16.2598 29.6005 17.0288 30.4563 18.222 30.5391C18.8236 30.5795 19.4293 30.5535 20.033 30.5536C22.1165 30.5541 23.1581 31.579 23.1576 33.6284L23.1576 33.6324Z" fill="#005DA5"/>
<path id="Vector_3" d="M72.457 22.0387C72.4422 25.0483 69.9724 27.5016 66.9621 27.4949C63.9479 27.4881 61.4914 25.0295 61.4861 22.0199C61.4807 18.95 63.9566 16.4966 67.0334 16.5235C70.0558 16.5504 72.4699 19.005 72.455 22.0387L72.457 22.0387ZM67.0328 19.058C65.349 19.0314 64.0425 20.2812 64.0158 21.9481C63.9892 23.5968 65.279 24.9499 66.9123 24.9906C68.5375 25.0312 69.8905 23.717 69.9252 22.0683C69.96 20.3894 68.7065 19.0846 67.0328 19.058Z" fill="#005DA5"/>
<path id="Vector_4" d="M77.8696 23.0404C80.9041 23.0311 83.3505 25.4434 83.378 28.4731C83.4055 31.4947 80.9802 33.9622 77.9578 33.9877C74.8688 34.0131 72.3922 31.5726 72.3969 28.5087C72.4017 25.487 74.8392 23.0518 77.8696 23.0424L77.8696 23.0404ZM77.8958 31.4592C79.5514 31.4576 80.8882 30.1373 80.8846 28.5087C80.8809 26.8902 79.5185 25.533 77.8912 25.5306C76.2538 25.5282 74.9392 26.8545 74.9388 28.5133C74.9384 30.1983 76.206 31.4628 77.8958 31.4612L77.8958 31.4592Z" fill="#005DA5"/>
<path id="Vector_5" d="M72.4539 35.009C72.4592 38.0186 70.0117 40.4921 67.0034 40.5195C64.0134 40.547 61.5105 38.0783 61.485 35.0788C61.4594 32.0149 63.9413 29.5072 66.9879 29.518C69.9921 29.5287 72.4506 31.9974 72.4539 35.011L72.4539 35.009ZM66.9253 37.9931C68.5728 38.0196 69.8995 36.7195 69.9221 35.0587C69.9427 33.3878 68.6711 32.071 67.0115 32.0484C65.3479 32.0259 64.0373 33.3039 64.0147 34.9727C63.9921 36.6376 65.2738 37.9685 66.9253 37.9931Z" fill="#005DA5"/>
</g>
<defs>
<clipPath id="clip0_3392_3402">
<rect width="96.1484" height="66.6375" fill="white" transform="translate(0.0224609)"/>
</clipPath>
</defs>
</svg>
