<svg width="125" height="101" viewBox="0 0 125 101" fill="none" xmlns="http://www.w3.org/2000/svg">
<g id="_Layer_" clip-path="url(#clip0_2304_1809)">
<path id="Vector" d="M53.8068 92.7061H23.6564C23.6564 92.7061 22.1885 96.088 21.6155 100.771H54.0906L53.8068 92.7061Z" fill="white"/>
<path id="Vector_2" d="M54.0907 101C53.9707 101 53.867 100.902 53.8615 100.783L53.5887 92.935H23.8094C23.5365 93.6157 22.3414 96.7308 21.8448 100.799C21.8284 100.924 21.7138 101.011 21.5883 101C21.4628 100.984 21.3755 100.87 21.3864 100.744C21.954 96.0827 23.4274 92.6518 23.4437 92.6137C23.4819 92.532 23.5638 92.4775 23.6511 92.4775H53.8015C53.927 92.4775 54.0252 92.5756 54.0307 92.6954L54.3145 100.761C54.3145 100.886 54.2217 100.995 54.0962 100.995C54.0962 100.995 54.0962 100.995 54.0907 100.995V101Z" fill="black"/>
<path id="Vector_3" d="M75.8372 65.9989L61.4414 63.6462C60.6283 62.7749 59.7606 61.9471 58.8329 61.1847C56.1262 58.9627 52.7974 57.6339 49.4031 56.8661C45.1629 55.9021 40.7099 55.6462 36.377 55.9403C32.1969 56.2235 27.471 56.9968 24.0167 59.5455C18.3359 63.7388 15.209 70.7749 13.3699 77.3482C11.2417 84.9561 11.8911 96.7411 26.2596 97.7921C31.0891 98.1461 35.7767 95.8262 39.8805 92.5913H53.7742C61.6597 98.8323 70.2764 99.4531 75.5261 93.7513C82.2547 86.4428 75.8372 66.0043 75.8372 66.0043V65.9989Z" fill="#132D95"/>
<path id="Vector_4" d="M49.4031 56.8661C45.1629 55.9021 40.71 55.6462 36.377 55.9403C33.8122 56.1145 31.04 56.474 28.4861 57.3126C31.6676 59.7633 37.392 63.1615 41.8068 62.8729C46.3144 62.5788 48.2844 59.1915 49.6923 56.9314C49.5941 56.9096 49.5013 56.8824 49.4031 56.8606V56.8661Z" fill="white"/>
<path id="Vector_5" d="M27.2363 98.0541C26.9034 98.0541 26.576 98.0432 26.2431 98.016C20.917 97.6293 17.0315 95.7505 14.6959 92.4339C10.9633 87.1351 12.3712 80.0717 13.1515 77.2834C15.4872 68.9185 19.0998 62.8898 23.8802 59.3609C27.6292 56.5943 32.8025 55.9517 36.3605 55.7121C40.9554 55.4017 45.3593 55.7121 49.4521 56.6434C53.3048 57.5202 56.5081 58.9905 58.9747 61.011C59.8533 61.7298 60.721 62.5467 61.5504 63.4344L75.8698 65.7762C75.9571 65.7925 76.0226 65.8524 76.0499 65.9341C76.3119 66.7728 82.4292 86.585 75.6897 93.9043C70.4237 99.6225 61.796 99.1978 53.6922 92.8151H39.9568C35.5311 96.2951 31.2527 98.0541 27.2308 98.0541H27.2363ZM39.7712 56.0498C38.658 56.0498 37.5338 56.0879 36.3933 56.1641C32.8898 56.4037 27.8038 57.03 24.153 59.7257C19.4545 63.1948 15.9019 69.1417 13.5936 77.4032C12.0056 83.0833 12.5622 88.6 15.0724 92.1671C17.3262 95.3638 21.0971 97.1773 26.2813 97.5585C30.4887 97.8635 35.0181 96.1317 39.7439 92.4067C39.7821 92.374 39.8367 92.3577 39.8858 92.3577H53.7795C53.8287 92.3577 53.8832 92.374 53.9214 92.4067C61.8397 98.6695 70.2545 99.1379 75.3623 93.5939C81.6434 86.7702 76.1973 67.9818 75.6625 66.2009L61.4031 63.8701C61.354 63.8646 61.3049 63.8374 61.2721 63.7993C60.4372 62.9062 59.5695 62.0838 58.6855 61.3595C56.2734 59.3827 53.1356 57.9449 49.3539 57.0845C46.3197 56.3928 43.1109 56.0498 39.7712 56.0498Z" fill="black"/>
<path id="Vector_6" d="M53.7795 92.8145C53.654 92.8145 53.5503 92.711 53.5503 92.5858V81.3127C53.5503 81.1875 53.654 81.084 53.7795 81.084C53.905 81.084 54.0087 81.1875 54.0087 81.3127V92.5858C54.0087 92.711 53.905 92.8145 53.7795 92.8145Z" fill="white"/>
<path id="Vector_7" d="M59.073 89.776C59.0239 89.776 58.9802 89.7597 58.9366 89.7324C58.8329 89.6562 58.8165 89.5146 58.8875 89.4111C60.0007 87.9135 60.0444 85.6915 59.6023 79.7718C59.1767 74.0155 61.938 69.0053 61.9653 68.9562C62.0253 68.8473 62.1672 68.8092 62.2763 68.8691C62.3855 68.929 62.4237 69.0706 62.3636 69.1795C62.3363 69.2285 59.6351 74.1244 60.0553 79.7392C60.4755 85.343 60.5246 87.9788 59.2531 89.6834C59.2094 89.7433 59.1385 89.776 59.0675 89.776H59.073Z" fill="white"/>
<path id="Vector_8" d="M80.4483 3.99217C75.0131 4.85807 69.7361 6.85128 65.0157 9.98813C64.0552 10.6253 63.1057 11.2516 62.1998 11.9759C50.2925 21.4627 47.7331 38.0564 54.3744 51.4425C56.3171 55.3526 59.0456 58.8925 62.4727 61.6154C64.0935 62.9007 65.8015 63.9408 67.7497 64.6597C71.4878 66.0321 75.5097 65.6509 78.9476 63.6141C81.185 62.2907 82.9968 60.3629 85.0596 58.7836C88.4866 56.1586 92.7213 56.0497 96.8196 56.7522C101.076 57.482 105.076 58.4677 109.365 57.3785C113.207 56.4037 116.743 54.2417 119.385 51.2954C125.546 44.4063 126.462 34.5329 122.959 26.1462C117.207 12.3952 102.151 3.95405 87.5971 3.53471C86.7458 3.51293 85.9 3.51293 85.0487 3.54561C83.5043 3.60551 81.9709 3.758 80.4429 4.00306L80.4483 3.99217Z" fill="#02AFED"/>
<path id="Vector_9" d="M79.1823 57.1825C76.7921 57.4167 70.2217 58.2826 67.5259 58.7019C64.8301 59.1212 63.1712 59.5896 62.6855 64.1587C62.5054 65.8469 62.2435 68.2431 61.9815 70.5903C61.5177 74.7619 64.8192 78.3943 69.0212 78.3399C72.8248 78.2909 75.8862 75.2194 75.9244 71.4236L75.9844 64.932C75.9844 64.932 78.5984 65.0464 80.4647 64.932C82.3801 64.8122 83.6134 64.1043 83.8535 63.1784C84.0664 62.3452 83.7935 61.3268 82.7403 60.6298C83.3733 60.3084 83.9299 59.8347 83.9954 59.1648C84.1591 57.531 82.6475 56.8448 79.1823 57.1825Z" fill="white"/>
<path id="Vector_10" d="M68.9285 78.5681C66.893 78.5681 64.9502 77.7077 63.5805 76.2046C62.189 74.6743 61.5232 72.6212 61.7524 70.5681C62.0143 68.2209 62.2763 65.8247 62.4564 64.1364C62.9475 59.5128 64.6828 58.9138 67.4878 58.4781C70.1345 58.0642 76.7375 57.1929 79.155 56.9587C81.5234 56.7245 83.0241 56.9642 83.739 57.6885C84.1155 58.0642 84.2738 58.5707 84.2138 59.1915C84.1537 59.7634 83.799 60.2589 83.1496 60.6619C84.1046 61.4516 84.2574 62.4918 84.0664 63.2433C83.7881 64.3107 82.4129 65.0513 80.4702 65.1712C78.9422 65.2637 76.8903 65.2038 76.2028 65.1821L76.1482 71.434C76.1154 75.3223 72.9176 78.5245 69.0212 78.5736C68.9885 78.5736 68.9612 78.5736 68.9285 78.5736V78.5681ZM80.7485 57.329C80.2847 57.329 79.7717 57.3563 79.2041 57.4107C76.7921 57.6449 70.2054 58.5162 67.5642 58.9247C64.9066 59.3386 63.3786 59.7851 62.9148 64.18C62.7347 65.8682 62.4727 68.2644 62.2108 70.6171C61.998 72.5395 62.6201 74.4673 63.9243 75.8996C65.2286 77.3319 67.0731 78.1379 69.0212 78.1161C72.6666 78.0671 75.6625 75.0664 75.6952 71.4285L75.7553 64.937C75.7553 64.8771 75.7826 64.8172 75.8262 64.7736C75.8699 64.73 75.9299 64.7083 75.9954 64.7137C76.0227 64.7137 78.6202 64.8281 80.4538 64.7137C82.1892 64.6048 83.4116 64.0003 83.6353 63.1289C83.859 62.2576 83.477 61.3971 82.6148 60.8253C82.5493 60.7817 82.5057 60.7055 82.5111 60.6238C82.5111 60.5421 82.5657 60.4713 82.6367 60.4332C83.3352 60.0738 83.7172 59.6436 83.7717 59.148C83.8208 58.6633 83.7062 58.293 83.4279 58.0152C82.975 57.5632 82.08 57.3345 80.754 57.3345L80.7485 57.329Z" fill="black"/>
<path id="Vector_11" d="M93.0542 24.9092V34.5485C93.9655 33.0672 95.6027 32.0815 97.4744 32.0815C100.334 32.0815 102.653 34.396 102.653 37.2496C102.653 40.1033 100.334 42.4178 97.4744 42.4178C95.6027 42.4178 93.9655 41.4321 93.0542 39.9508V49.5901H117.786V24.9092H93.0542Z" fill="white"/>
<path id="Vector_12" d="M117.786 49.8141H93.0541C92.9286 49.8141 92.825 49.7107 92.825 49.5854V39.9461C92.825 39.8427 92.8904 39.7555 92.9941 39.7283C93.0923 39.7011 93.196 39.7392 93.2506 39.8263C94.1619 41.3022 95.739 42.1844 97.4744 42.1844C100.203 42.1844 102.424 39.9679 102.424 37.245C102.424 34.522 100.203 32.3055 97.4744 32.3055C95.739 32.3055 94.1619 33.1878 93.2506 34.6636C93.196 34.7507 93.0923 34.7889 92.9941 34.7616C92.8959 34.7344 92.825 34.6418 92.825 34.5438V24.9045C92.825 24.7793 92.9286 24.6758 93.0541 24.6758H117.786C117.911 24.6758 118.015 24.7793 118.015 24.9045V49.5854C118.015 49.7107 117.911 49.8141 117.786 49.8141ZM93.2833 49.3567H117.556V25.1332H93.2833V33.8249C94.3038 32.5724 95.8263 31.8426 97.4744 31.8426C100.459 31.8426 102.882 34.266 102.882 37.2395C102.882 40.213 100.454 42.6364 97.4744 42.6364C95.8263 42.6364 94.3038 41.9067 93.2833 40.6541V49.3458V49.3567Z" fill="black"/>
<path id="Vector_13" d="M118 25V0L93 0V25H118Z" fill="#C3E8F8"/>
<path id="Vector_14" d="M97.6055 7.39534C95.6409 7.39534 93.9329 8.48453 93.0543 10.0911V0.228516H68.3228V24.9094H77.9818C76.4975 25.8189 75.5097 27.4527 75.5097 29.3206C75.5097 32.1743 77.829 34.4888 80.6885 34.4888C83.548 34.4888 85.8673 32.1743 85.8673 29.3206C85.8673 27.4527 84.8796 25.8189 83.3952 24.9094H93.0543V15.0414C93.9329 16.648 95.6409 17.7371 97.6055 17.7371C100.465 17.7371 102.784 15.4226 102.784 12.569C102.784 9.7153 100.465 7.40079 97.6055 7.40079V7.39534Z" fill="white"/>
<path id="Vector_15" d="M80.6884 34.7123C77.7033 34.7123 75.2804 32.2888 75.2804 29.3154C75.2804 27.6707 76.0116 26.1513 77.2668 25.1329H68.3281C68.2026 25.1329 68.0989 25.0294 68.0989 24.9042V0.228729C68.0989 0.103472 68.2026 0 68.3281 0H93.0596C93.1851 0 93.2888 0.103472 93.2888 0.228729V9.32341C94.3038 7.97827 95.8973 7.17227 97.6108 7.17227C100.596 7.17227 103.019 9.59571 103.019 12.5692C103.019 15.5426 100.59 17.9661 97.6108 17.9661C95.8973 17.9661 94.3038 17.1601 93.2888 15.8149V24.9096C93.2888 25.0349 93.1851 25.1384 93.0596 25.1384H84.1209C85.376 26.1567 86.1073 27.6762 86.1073 29.3208C86.1073 32.2997 83.6789 34.7177 80.6993 34.7177L80.6884 34.7123ZM68.5518 24.6809H77.9817C78.0853 24.6809 78.1727 24.7463 78.1999 24.8497C78.2272 24.9478 78.189 25.0512 78.1017 25.1057C76.6228 26.0151 75.7388 27.589 75.7388 29.3208C75.7388 32.0438 77.9598 34.2603 80.6884 34.2603C83.4169 34.2603 85.6379 32.0438 85.6379 29.3208C85.6379 27.589 84.7539 26.0151 83.275 25.1057C83.1877 25.0512 83.1441 24.9478 83.1768 24.8497C83.2041 24.7517 83.2969 24.6809 83.3951 24.6809H92.8249V15.0416C92.8249 14.9382 92.8959 14.8456 92.9996 14.8183C93.1032 14.7911 93.2069 14.8401 93.256 14.9327C94.1237 16.5229 95.7936 17.5141 97.6053 17.5141C100.334 17.5141 102.555 15.2976 102.555 12.5746C102.555 9.85167 100.334 7.63518 97.6053 7.63518C95.7936 7.63518 94.1237 8.62089 93.256 10.2165C93.2069 10.3091 93.0978 10.3527 92.9996 10.3309C92.8959 10.3037 92.8249 10.2165 92.8249 10.1076V0.457457H68.5518V24.6809Z" fill="black"/>
<path id="Vector_16" d="M105.42 34.4838C108.28 34.4838 110.599 32.1699 110.599 29.3156C110.599 26.4613 108.28 24.1475 105.42 24.1475C102.56 24.1475 100.241 26.4613 100.241 29.3156C100.241 32.1699 102.56 34.4838 105.42 34.4838Z" fill="#C3E8F8"/>
<path id="Vector_17" d="M47.3565 41.6392C46.6798 38.7366 42.5052 38.3227 42.5052 38.3227C42.4561 38.3063 41.9376 35.6052 41.8721 35.371C41.25 33.1599 40.2459 30.9925 38.5979 29.3478C36.7807 27.5343 34.2868 27.2729 31.9075 26.7011C30.8325 26.4451 29.6155 26.2436 29.0589 25.1871C28.5132 24.1578 28.6496 22.8018 28.3822 21.6908C27.8201 19.3219 26.6141 17.0346 24.7969 15.3899C22.0684 12.912 18.2266 11.7194 14.5649 11.9263C9.51708 12.2149 4.12003 15.4389 2.64661 20.4764C1.44605 24.5881 3.13775 28.4819 6.00272 31.4445C6.69031 32.1525 7.43793 32.8005 8.24558 33.3669C9.05869 33.9387 10.1392 34.2981 10.6412 35.2185C11.3125 36.4547 10.865 37.9959 10.9196 39.3247C11.0451 42.5106 13.3534 44.5092 16.1638 45.5875C17.5881 46.1376 19.0834 46.4807 20.5786 46.7747C22.3085 47.1124 24.3222 47.1832 25.9484 47.8421C26.183 47.9347 26.4068 48.06 26.5923 48.2288C27.2199 48.8006 27.1708 49.6556 27.3945 50.4017C27.6619 51.284 28.153 52.0954 28.8243 52.7326C31.2472 55.0362 34.7725 55.7605 37.9867 54.8238C39.7221 54.3173 41.4137 53.3316 42.7016 52.0137C44.246 50.4398 46.0632 45.7945 46.0632 45.7945C47.2037 44.7815 47.7058 43.1532 47.3511 41.6392H47.3565Z" fill="black"/>
<path id="Vector_18" d="M18.5542 46.3773C18.5542 46.3773 18.5269 46.3773 18.5106 46.3773C17.1572 46.1105 15.5692 45.7619 14.0576 45.1792C10.696 43.8885 8.78057 41.5904 8.66597 38.7149C8.6496 38.2956 8.68234 37.849 8.70963 37.4242C8.77511 36.4821 8.84606 35.5073 8.41494 34.7122C8.09298 34.1186 7.49815 33.7755 6.86513 33.416C6.60319 33.269 6.33579 33.1111 6.08477 32.9368C5.27712 32.3704 4.51313 31.7115 3.80916 30.9872C0.50217 27.5617 -0.709303 23.5862 0.398486 19.7904C1.96467 14.4316 7.6837 11.3546 12.5187 11.0769C16.4478 10.8536 20.6934 12.2586 23.3346 14.6494C23.4274 14.7365 23.4328 14.8781 23.351 14.9707C23.2637 15.0633 23.1218 15.0687 23.029 14.9871C20.4751 12.6725 16.3605 11.3165 12.546 11.5289C7.86924 11.7957 2.34121 14.7638 0.835053 19.9156C-0.223622 23.548 0.944194 27.3656 4.13659 30.6604C4.81873 31.3684 5.56635 32.0055 6.34671 32.5556C6.57591 32.719 6.82693 32.8606 7.08887 33.013C7.74918 33.3888 8.42586 33.7809 8.81331 34.4889C9.30991 35.4038 9.23897 36.444 9.16257 37.4515C9.12982 37.8871 9.10254 38.2956 9.11891 38.6931C9.25534 42.135 11.9675 43.8885 14.2158 44.749C15.6947 45.3154 17.2554 45.6585 18.5924 45.9253C18.7179 45.9471 18.7998 46.0669 18.7725 46.1922C18.7507 46.3011 18.6579 46.3773 18.5488 46.3773H18.5542Z" fill="black"/>
<path id="Vector_19" d="M45.6757 44.2428C46.4779 47.9841 44.0931 51.671 40.3387 52.4716C36.5897 53.2721 32.8952 50.8868 32.093 47.1455C31.2908 43.4041 33.6756 39.7172 37.43 38.9167C41.1791 38.1161 44.8735 40.496 45.6757 44.2428Z" fill="black"/>
<path id="Vector_20" d="M35.9731 57.2693L37.5393 49.5416L37.0427 47.3577C40.2515 46.6988 40.6826 43.2788 40.7863 41.4326C40.8136 40.9207 41.2993 40.5612 41.7959 40.6756C42.8382 40.9207 44.3661 41.389 44.7536 42.4074C46.5599 47.1835 49.1138 51.7199 43.8914 53.2883L43.0019 57.6396L35.9731 57.2693Z" fill="white"/>
<path id="Vector_21" d="M43.291 56.4412C43.291 56.4412 43.2583 56.4412 43.2474 56.4412C43.1218 56.414 43.0454 56.2942 43.0673 56.1744L43.6621 53.2499C43.6785 53.1682 43.7385 53.1029 43.8204 53.0756C45.1737 52.6672 46.0359 52.0518 46.4507 51.1805C47.2911 49.4378 46.2597 46.8455 45.1628 44.0953C44.95 43.5671 44.7371 43.0334 44.5352 42.4942C44.1478 41.4704 42.336 41.0456 41.7412 40.904C41.572 40.8659 41.3919 40.904 41.2501 41.0075C41.1082 41.111 41.0209 41.2743 41.01 41.454C40.939 42.7611 40.7207 46.6767 37.3155 47.5371L37.763 49.4977C37.7684 49.5303 37.7684 49.563 37.763 49.5957L36.4751 55.9511C36.4478 56.0763 36.3278 56.1526 36.2077 56.1308C36.0822 56.1036 36.0058 55.9838 36.0276 55.8639L37.3046 49.5521L36.8189 47.4173C36.808 47.3574 36.8189 47.2921 36.8517 47.2431C36.8844 47.194 36.939 47.1559 36.999 47.145C39.2091 46.693 40.3715 44.8251 40.557 41.4323C40.5734 41.1218 40.7262 40.8332 40.9772 40.6481C41.2282 40.4629 41.5448 40.3975 41.8503 40.4683C42.9854 40.7352 44.5407 41.2253 44.9663 42.3417C45.1683 42.8754 45.3811 43.4091 45.5939 43.9374C46.729 46.7802 47.7986 49.4704 46.8709 51.3928C46.407 52.3513 45.4957 53.0375 44.0878 53.4841L43.5202 56.2724C43.4984 56.3813 43.4002 56.4576 43.2965 56.4576L43.291 56.4412Z" fill="black"/>
<path id="Vector_22" d="M42.0414 53.7074C41.4793 53.7074 41.1137 53.653 41.0864 53.653C40.9609 53.6366 40.8736 53.5168 40.8954 53.3916C40.9118 53.2663 41.0319 53.1792 41.1574 53.201C41.1683 53.201 42.3907 53.3752 43.8477 53.0648C43.9732 53.0376 44.0933 53.1193 44.1206 53.2391C44.1479 53.3643 44.066 53.4842 43.9459 53.5114C43.2202 53.6693 42.5544 53.7074 42.0469 53.7074H42.0414Z" fill="black"/>
<path id="Vector_23" d="M43.3892 55.7769C43.3892 55.7769 43.0891 56.1091 42.0577 55.6734C41.0263 55.2377 41.1191 53.4242 41.1191 53.4242L43.8913 53.2881L43.3947 55.7769H43.3892Z" fill="black"/>
<path id="Vector_24" d="M35.5257 48.2838C35.7658 49.3948 36.8627 50.1028 37.9759 49.8631C39.0892 49.6235 39.7986 48.5289 39.5585 47.4179C39.3184 46.307 38.2215 45.599 37.1083 45.8386C35.995 46.0782 35.2856 47.1729 35.5257 48.2838Z" fill="white"/>
<path id="Vector_25" d="M37.9867 48.3654C37.9322 48.3654 37.8776 48.3436 37.8339 48.3055L36.8735 47.4341C36.7807 47.347 36.7753 47.2054 36.8571 47.1128C36.9444 47.0203 37.0863 47.0148 37.1791 47.0965L38.1395 47.9678C38.2323 48.055 38.2378 48.1966 38.1559 48.2892C38.1122 48.3382 38.0468 48.3654 37.9867 48.3654Z" fill="black"/>
<path id="Vector_26" d="M40.5243 44.6187C40.426 44.6187 40.3333 44.5533 40.306 44.4553C40.2732 44.3355 40.3387 44.2048 40.4642 44.1721L45.392 42.7398C45.512 42.7017 45.6375 42.7725 45.6757 42.8977C45.7085 43.0176 45.643 43.1428 45.5175 43.1809L40.5897 44.6132C40.5897 44.6132 40.5461 44.6241 40.5243 44.6241V44.6187Z" fill="#FF636B"/>
<path id="Vector_27" d="M41.1464 48.9479C40.0877 48.9479 39.1109 48.2563 38.7999 47.1944C38.4233 45.9037 39.1655 44.5476 40.4588 44.1719C41.0864 43.9867 41.7467 44.063 42.3142 44.3734C42.8872 44.6838 43.3019 45.2012 43.482 45.8274C43.6621 46.4537 43.5912 47.1127 43.2801 47.679C42.9691 48.2509 42.4506 48.6648 41.8231 48.8445C41.5939 48.9098 41.3647 48.9425 41.1409 48.9425L41.1464 48.9479ZM39.2364 47.0637C39.542 48.1093 40.6444 48.7138 41.6976 48.4088C42.2051 48.2618 42.6253 47.9241 42.8818 47.4612C43.1382 46.9983 43.1928 46.4646 43.0455 45.9527C42.8981 45.4462 42.5598 45.0269 42.0959 44.7709C41.6321 44.515 41.0973 44.4605 40.5843 44.6076C39.5366 44.9125 38.9308 46.0126 39.2364 47.0637Z" fill="#FF636B"/>
<path id="Vector_28" d="M46.0687 47.5154C45.6649 47.5154 45.261 47.4119 44.8954 47.2159C44.3224 46.9055 43.9077 46.3881 43.7276 45.7618C43.351 44.4711 44.0932 43.1151 45.3865 42.7393C46.6799 42.3636 48.0387 43.1042 48.4152 44.3949C48.7918 45.6856 48.0496 47.0416 46.7563 47.4174C46.5325 47.4827 46.2979 47.5154 46.0687 47.5154ZM44.1642 45.6311C44.3115 46.1376 44.6498 46.5569 45.1137 46.8129C45.5775 47.0689 46.1123 47.1233 46.6253 46.9763C47.6731 46.6713 48.2788 45.5712 47.9732 44.5202C47.6676 43.4745 46.5653 42.87 45.5121 43.175C44.4643 43.48 43.8586 44.5801 44.1642 45.6311Z" fill="#FF636B"/>
<path id="Vector_29" d="M44.9227 48.0816C44.8408 48.0816 44.7644 48.038 44.7208 47.9618L43.1873 45.1735C43.1273 45.0646 43.1655 44.923 43.2801 44.8631C43.3893 44.8032 43.5311 44.8413 43.5912 44.9557L45.1246 47.744C45.1846 47.8529 45.1464 47.9945 45.0318 48.0544C44.9991 48.0762 44.9609 48.0816 44.9227 48.0816Z" fill="black"/>
<path id="Vector_30" d="M40.89 46.2253C40.9282 46.4758 41.1629 46.6501 41.4139 46.612C41.6649 46.5738 41.8395 46.3397 41.8013 46.0892C41.7631 45.8386 41.5285 45.6644 41.2775 45.7025C41.0264 45.7406 40.8518 45.9748 40.89 46.2253Z" fill="black"/>
<path id="Vector_31" d="M44.4642 45.1413C44.5024 45.3918 44.7371 45.5661 44.9881 45.528C45.2391 45.4899 45.4138 45.2557 45.3756 45.0052C45.3374 44.7547 45.1027 44.5804 44.8517 44.6185C44.6007 44.6566 44.426 44.8908 44.4642 45.1413Z" fill="black"/>
<path id="Vector_32" d="M85.4251 43.2621C83.7171 43.2621 82.2 44.0899 81.2559 45.3642V36.0898H71.5969C73.0812 36.9993 74.0689 38.6331 74.0689 40.501C74.0689 43.3547 71.7497 45.6692 68.8902 45.6692C66.0307 45.6692 63.7114 43.3547 63.7114 40.501C63.7114 38.6331 64.6991 36.9993 66.1835 36.0898H56.5244V60.7707H81.2559V51.4963C82.2 52.7707 83.7171 53.5985 85.4251 53.5985C88.2846 53.5985 90.6039 51.284 90.6039 48.4303C90.6039 45.5766 88.2846 43.2621 85.4251 43.2621Z" fill="#FF636B"/>
<path id="Vector_33" d="M81.2505 60.9997H56.519C56.3935 60.9997 56.2898 60.8962 56.2898 60.771V36.0901C56.2898 35.9648 56.3935 35.8613 56.519 35.8613H66.178C66.2817 35.8613 66.369 35.9267 66.3963 36.0302C66.4236 36.1282 66.3854 36.2316 66.2981 36.2861C64.8192 37.1956 63.9352 38.7695 63.9352 40.5013C63.9352 43.2242 66.1562 45.4407 68.8847 45.4407C71.6133 45.4407 73.8343 43.2242 73.8343 40.5013C73.8343 38.7695 72.9503 37.1956 71.466 36.2861C71.3786 36.2316 71.335 36.1282 71.3677 36.0302C71.395 35.9321 71.4878 35.8613 71.586 35.8613H81.245C81.3706 35.8613 81.4742 35.9648 81.4742 36.0901V44.7327C82.4893 43.6544 83.9245 43.0282 85.4143 43.0282C88.3993 43.0282 90.8222 45.4516 90.8222 48.4251C90.8222 51.3985 88.3938 53.822 85.4143 53.822C83.919 53.822 82.4893 53.1957 81.4742 52.1174V60.7601C81.4742 60.8853 81.3706 60.9888 81.245 60.9888L81.2505 60.9997ZM56.7536 60.5422H81.0268V51.4966C81.0268 51.3985 81.0922 51.3114 81.185 51.2787C81.2778 51.246 81.3815 51.2787 81.4415 51.3604C82.3747 52.6184 83.8644 53.37 85.4252 53.37C88.1537 53.37 90.3747 51.1535 90.3747 48.4305C90.3747 45.7075 88.1537 43.4911 85.4252 43.4911C83.859 43.4911 82.3692 44.2426 81.4415 45.5006C81.3815 45.5823 81.2832 45.615 81.185 45.5823C81.0922 45.5496 81.0268 45.4625 81.0268 45.3645V36.3188H72.3118C73.5669 37.3372 74.2982 38.8566 74.2982 40.5013C74.2982 43.4802 71.8698 45.8982 68.8902 45.8982C65.9106 45.8982 63.4822 43.4747 63.4822 40.5013C63.4822 38.8566 64.2135 37.3372 65.4686 36.3188H56.7591V60.5422H56.7536Z" fill="black"/>
<path id="Vector_34" d="M45.3865 49.1714C45.3374 49.1714 45.2883 49.155 45.2446 49.1223C45.1464 49.0461 45.13 48.8991 45.2064 48.801L45.8449 48.0059C45.9213 47.9079 46.0686 47.8916 46.1669 47.9678C46.2651 48.044 46.2815 48.1911 46.2051 48.2891L45.5666 49.0842C45.5229 49.1387 45.4575 49.1714 45.3865 49.1714Z" fill="black"/>
<path id="Vector_35" d="M20.0712 79.3632C20.0385 79.3632 20.0057 79.3578 19.9784 79.3414C19.8638 79.2924 19.8093 79.1563 19.8638 79.0419C19.8857 78.9874 22.3141 73.7212 28.9881 71.2488C30.8326 70.568 32.5898 70.0452 34.2924 69.5442C38.8327 68.2045 42.7509 67.0445 46.6472 63.4176C46.74 63.3304 46.8819 63.3359 46.9692 63.4284C47.0565 63.521 47.051 63.6626 46.9583 63.7498C42.9855 67.4475 38.8272 68.6783 34.4233 69.9799C32.7262 70.4809 30.9745 70.9983 29.1463 71.679C22.6633 74.0807 20.3004 79.1835 20.2786 79.2325C20.2404 79.3196 20.1585 79.3687 20.0712 79.3687V79.3632Z" fill="white"/>
<path id="Vector_36" d="M39.8803 92.8151C39.8148 92.8151 39.7493 92.7879 39.7057 92.7335C39.6238 92.6354 39.6402 92.4938 39.733 92.4121C39.8367 92.325 50.2488 83.6442 55.9896 75.154C56.0606 75.0506 56.2025 75.0233 56.3061 75.0941C56.4098 75.1649 56.4371 75.3065 56.3662 75.41C50.5871 83.9601 40.1259 92.679 40.0222 92.7661C39.9785 92.8043 39.9294 92.8206 39.8749 92.8206L39.8803 92.8151Z" fill="white"/>
<path id="Vector_37" d="M82.7349 60.8582L81.2451 60.8038C81.1196 60.8038 81.0214 60.6949 81.0268 60.5696C81.0268 60.4444 81.136 60.3463 81.2615 60.3518L82.7458 60.4062C82.8713 60.4062 82.9696 60.5152 82.9641 60.6404C82.9641 60.7657 82.8604 60.8582 82.7349 60.8582Z" fill="black"/>
<path id="Vector_38" d="M70.4291 61.3374C70.3582 61.3374 70.2872 61.3047 70.2436 61.2394C70.1726 61.1359 70.1944 60.9943 70.2927 60.9235C70.3527 60.8799 71.777 59.8942 75.8698 60.5423C75.9953 60.5641 76.0772 60.6784 76.0608 60.8037C76.039 60.9289 75.9244 61.0106 75.7989 60.9943C71.9243 60.3789 70.571 61.2884 70.5601 61.2938C70.5219 61.321 70.4728 61.3374 70.4291 61.3374Z" fill="black"/>
<path id="Vector_39" d="M53.7795 81.4221C53.654 81.4221 53.5503 81.3186 53.5503 81.1933C53.5503 81.0681 53.654 80.9646 53.7795 80.9646C56.5735 80.9646 58.8491 78.6937 58.8491 75.9054C58.8491 75.0613 58.6363 74.228 58.2379 73.4928C58.1779 73.3839 58.2216 73.2423 58.3307 73.1824C58.4398 73.1225 58.5817 73.1606 58.6418 73.275C59.0783 74.0755 59.3075 74.985 59.3075 75.9054C59.3075 78.9442 56.83 81.4166 53.7849 81.4166L53.7795 81.4221Z" fill="white"/>
<path id="Vector_40" d="M65.3487 67.0061C67.9353 66.3853 72.2355 63.9237 71.2041 61.9578C70.5111 60.629 69.1959 60.6943 67.8971 61.1137C69.698 60.2314 71.0404 59.0497 70.1946 57.3723C69.6107 56.2123 68.23 56.4193 67.2969 56.5663C67.919 55.7658 68.23 54.9271 67.4715 54.1048C66.3091 52.8468 64.421 53.6582 62.6038 54.5894C61.4905 55.1613 59.5915 56.2777 58.4782 56.9421C58.8711 54.2572 57.9871 51.7739 56.6883 51.5724C54.8656 51.2892 53.8342 52.4546 53.3758 55.4662C52.972 58.1456 52.0716 59.5234 52.0716 59.5234L46.811 63.5807C43.5367 66.1021 42.9255 70.7965 45.4412 74.0695C48.0333 77.4405 52.912 77.9906 56.1917 75.2785C58.129 73.6774 59.7824 72.2941 59.7824 72.2941C67.7825 71.4391 70.4347 71.0688 70.522 68.8741C70.6038 66.723 65.3596 67.0061 65.3596 67.0061H65.3487Z" fill="white"/>
<path id="Vector_41" d="M51.4112 77.2287C51.1165 77.2287 50.8219 77.2123 50.5217 77.1797C48.4153 76.9401 46.5435 75.8835 45.2502 74.2062C42.6635 70.8406 43.2965 65.9883 46.6581 63.3961L51.886 59.3661C52.017 59.1482 52.7755 57.8085 53.1357 55.4341C53.4249 53.5117 53.9378 52.3354 54.751 51.7418C55.2803 51.3551 55.9188 51.2244 56.7046 51.3497C58.0798 51.5621 58.9857 53.9202 58.7401 56.5124C60.4209 55.5158 61.7087 54.7861 62.4836 54.3939C64.3882 53.4191 66.3473 52.5805 67.6242 53.9528C68.4264 54.8187 68.1154 55.7064 67.777 56.2619C68.6829 56.153 69.8343 56.1693 70.3855 57.2694C70.6911 57.8739 70.7511 58.4566 70.5656 59.0121C70.3746 59.5839 69.9217 60.1176 69.1904 60.6241C70.2163 60.5751 70.9421 60.9835 71.3951 61.8549C71.6406 62.3232 71.6406 62.8351 71.3951 63.3743C70.7675 64.7575 68.6065 66.07 66.762 66.7889C67.9462 66.8542 69.5451 67.0775 70.2927 67.8127C70.5983 68.1122 70.7457 68.4716 70.7293 68.8855C70.6365 71.2491 68.0444 71.6412 59.8588 72.518C59.5586 72.7685 58.0579 74.0265 56.3226 75.4588C54.9201 76.6187 53.2011 77.2341 51.4058 77.2341L51.4112 77.2287ZM56.1698 51.7581C55.7223 51.7581 55.3458 51.8725 55.0293 52.1067C54.3308 52.6186 53.8614 53.7295 53.5941 55.4995C53.1848 58.2006 52.2898 59.5894 52.2571 59.6438C52.2407 59.6656 52.2243 59.6819 52.208 59.6983L46.9473 63.7555C43.7822 66.1953 43.1874 70.7589 45.6212 73.9285C46.8382 75.5078 48.5954 76.5044 50.5817 76.7277C52.5681 76.9509 54.5054 76.3737 56.0443 75.1048C57.9815 73.5037 59.635 72.1204 59.635 72.1204C59.6678 72.0932 59.7114 72.0714 59.7551 72.066C67.6952 71.2164 70.2109 70.8515 70.2873 68.8638C70.2982 68.586 70.2 68.3464 69.9871 68.134C68.8903 67.0557 65.3977 67.23 65.365 67.23C65.2504 67.23 65.1412 67.1537 65.1249 67.0339C65.1085 66.9196 65.1849 66.8052 65.2995 66.778C67.1986 66.326 70.2818 64.7357 70.9912 63.1728C71.1768 62.7589 71.1822 62.394 71.0022 62.0564C70.4783 61.0598 69.5124 60.8256 67.968 61.3212C67.8534 61.3593 67.7279 61.2994 67.6842 61.1905C67.6406 61.0815 67.6842 60.9508 67.7934 60.9018C69.1304 60.2429 69.8998 59.5785 70.1399 58.8596C70.2873 58.4185 70.2382 57.9665 69.9871 57.4654C69.5069 56.5179 68.41 56.6104 67.3295 56.7847C67.2368 56.801 67.144 56.7575 67.0949 56.6758C67.0458 56.5941 67.0512 56.4906 67.1113 56.4198C67.8098 55.5213 67.8698 54.8732 67.2968 54.2524C66.2381 53.1142 64.4482 53.8929 62.7019 54.7861C61.8779 55.2108 60.4536 56.0168 58.5873 57.1278C58.5109 57.1714 58.4181 57.1714 58.3417 57.1224C58.2708 57.0733 58.2271 56.9862 58.2435 56.8991C58.6309 54.2197 57.7032 51.9542 56.6446 51.7854C56.4809 51.7581 56.3226 51.7472 56.1753 51.7472L56.1698 51.7581Z" fill="black"/>
<path id="Vector_42" d="M56.5245 58.429C56.4481 58.429 56.3771 58.3908 56.3335 58.3255C56.2625 58.222 56.2953 58.0804 56.399 58.0096L58.3472 56.7516C58.4508 56.6808 58.5927 56.7135 58.6637 56.817C58.7346 56.9204 58.7019 57.062 58.5982 57.1328L56.65 58.3908C56.6118 58.4181 56.5681 58.429 56.5245 58.429Z" fill="black"/>
<path id="Vector_43" d="M58.4672 61.8495C58.3853 61.8495 58.3089 61.806 58.2707 61.7352C58.2052 61.6262 58.2434 61.4847 58.358 61.4247L67.1821 56.3709C67.2913 56.3056 67.4332 56.3437 67.4932 56.4526C67.5587 56.5615 67.5205 56.7031 67.4113 56.763L58.5872 61.8169C58.549 61.8386 58.5108 61.8495 58.4726 61.8495H58.4672Z" fill="black"/>
<path id="Vector_44" d="M60.8848 65.1656C60.8029 65.1656 60.7265 65.122 60.6829 65.0458C60.6229 64.9369 60.6611 64.7953 60.7702 64.7354C63.8862 63.0036 67.6461 60.9287 67.848 60.8851C67.9736 60.8579 68.0936 60.9396 68.1154 61.0648C68.1373 61.1846 68.0663 61.299 67.9517 61.3262C67.6461 61.4461 63.6243 63.6625 60.9885 65.1275C60.9557 65.1493 60.9175 65.1547 60.8793 65.1547L60.8848 65.1656Z" fill="black"/>
<path id="Vector_45" d="M63.2202 68.2759C63.1384 68.2759 63.0565 68.2269 63.0129 68.1507C62.9583 68.0363 63.0019 67.9002 63.1165 67.8457L65.2448 66.8055C65.3594 66.7511 65.4958 66.7946 65.5504 66.909C65.605 67.0234 65.5613 67.1595 65.4467 67.214L63.3185 68.2542C63.2857 68.2705 63.253 68.2759 63.2202 68.2759Z" fill="black"/>
<path id="Vector_46" d="M100.116 65.46C100.116 62.1217 97.4035 59.415 94.0583 59.415C90.7132 59.415 88.001 62.1217 88.001 65.46C88.001 68.7984 90.7132 71.505 94.0583 71.505C97.4035 71.505 100.116 68.7984 100.116 65.46Z" fill="#02AFED"/>
<path id="Vector_47" d="M48.0814 23.7664C50.9359 22.0255 51.8358 18.3049 50.0913 15.4562C48.3469 12.6075 44.6186 11.7094 41.7641 13.4504C38.9095 15.1913 38.0096 18.9119 39.7541 21.7606C41.4986 24.6093 45.2268 25.5073 48.0814 23.7664Z" fill="#02AFED"/>
<path id="Vector_48" d="M115.657 47.7768C115.597 47.7768 115.543 47.755 115.494 47.7115L112.318 44.5419C112.23 44.4548 112.23 44.3078 112.318 44.2206C112.405 44.1335 112.552 44.1335 112.64 44.2206L115.816 47.3901C115.903 47.4773 115.903 47.6243 115.816 47.7115C115.772 47.755 115.712 47.7768 115.652 47.7768H115.657Z" fill="black"/>
<path id="Vector_49" d="M112.481 47.7768C112.421 47.7768 112.367 47.755 112.318 47.7115C112.23 47.6243 112.23 47.4773 112.318 47.3901L115.494 44.2206C115.581 44.1335 115.728 44.1335 115.816 44.2206C115.903 44.3078 115.903 44.4548 115.816 44.5419L112.64 47.7115C112.596 47.755 112.536 47.7768 112.476 47.7768H112.481Z" fill="black"/>
<path id="Vector_50" d="M60.8847 27.976C59.1875 27.976 57.8069 26.5982 57.8069 24.9045C57.8069 23.2108 59.1875 21.833 60.8847 21.833C62.5818 21.833 63.9625 23.2108 63.9625 24.9045C63.9625 26.5982 62.5818 27.976 60.8847 27.976ZM60.8847 22.2959C59.4386 22.2959 58.2653 23.4668 58.2653 24.91C58.2653 26.3531 59.4386 27.524 60.8847 27.524C62.3308 27.524 63.5041 26.3531 63.5041 24.91C63.5041 23.4668 62.3308 22.2959 60.8847 22.2959Z" fill="black"/>
</g>
<defs>
<clipPath id="clip0_2304_1809">
<rect width="125" height="101" fill="white"/>
</clipPath>
</defs>
</svg>
