<svg width="124" height="84" viewBox="0 0 124 84" fill="none" xmlns="http://www.w3.org/2000/svg">
<g id="_Layer_" clip-path="url(#clip0_2304_1917)">
<path id="Vector" d="M38.7105 70.6697C55.9668 70.6697 69.9557 56.7478 69.9557 39.5741C69.9557 22.4005 55.9668 8.47852 38.7105 8.47852C21.4543 8.47852 7.46533 22.4005 7.46533 39.5741C7.46533 56.7478 21.4543 70.6697 38.7105 70.6697Z" fill="#02AFED"/>
<path id="Vector_2" d="M65.7523 74.0604C65.7523 77.4795 62.9669 80.2516 59.5313 80.2516C56.0957 80.2516 53.3103 77.4795 53.3103 74.0604C53.3103 70.6413 56.0957 67.8691 59.5313 67.8691C62.9669 67.8691 65.7523 70.6413 65.7523 74.0604Z" fill="#02AFED"/>
<path id="Vector_3" d="M75.5096 21.5241C78.9454 21.5241 81.7306 18.7522 81.7306 15.3328C81.7306 11.9135 78.9454 9.1416 75.5096 9.1416C72.0738 9.1416 69.2886 11.9135 69.2886 15.3328C69.2886 18.7522 72.0738 21.5241 75.5096 21.5241Z" fill="#02AFED"/>
<path id="Vector_4" d="M91.2135 45.7757C89.9749 40.2761 87.3352 32.3335 82.3864 32.2944C82.3864 32.2944 77.3143 17.1231 72.5392 14.9478C67.7698 12.7725 56.7289 15.6339 49.953 17.7869C43.1771 19.9399 41.8153 24.9263 43.0314 28.3454C44.2532 31.7646 48.72 32.4618 52.8057 31.2737C56.8914 30.0801 63.4599 28.6578 63.4599 28.6578L64.8386 35.9646C62.7593 36.3215 59.4415 37.0466 58.0123 38.2235C56.118 39.7853 55.7033 45.9486 58.1412 49.7749C56.1124 47.5271 50.8609 45.4857 46.0635 46.908C41.2212 48.3414 40.2236 55.1797 44.7856 58.8498C49.3477 62.5199 56.146 63.8976 57.62 66.2179C59.094 68.5438 63.3142 76.8434 73.0212 80.1566C82.7338 83.4697 93.3824 80.8984 93.3824 80.8984C93.3824 80.8984 100.607 83.0626 103.078 83.5088C114.035 85.5 123.77 75.9064 123.77 64.8235C123.77 54.594 115.543 46.2498 105.264 46.0546L91.2191 45.7869L91.2135 45.7757Z" fill="white"/>
<path id="Vector_5" d="M105.993 83.9998C105.012 83.9998 104.02 83.9105 103.028 83.732C100.663 83.3026 94.1166 81.356 93.3712 81.1329C92.4689 81.3392 82.2182 83.5313 72.9428 80.3687C64.0372 77.3289 59.7273 70.1671 57.889 67.105C57.7097 66.8038 57.5527 66.5416 57.4182 66.3297C56.7177 65.2253 54.6384 64.2994 52.2285 63.2285C49.74 62.1241 46.9266 60.8691 44.6287 59.0173C42.2972 57.1376 41.1875 54.2428 41.7424 51.4595C42.2132 49.1058 43.7993 47.3153 45.9906 46.6683C50.0931 45.4524 54.6776 46.685 57.2837 48.6707C55.5519 44.8054 56.0115 39.5512 57.8554 38.0285C59.2285 36.8962 62.2101 36.1767 64.5584 35.7583L63.2694 28.9201C62.0588 29.1878 56.4599 30.4317 52.8674 31.4803C48.9554 32.6181 44.1411 32.144 42.8073 28.407C42.1459 26.5552 42.286 24.4635 43.1828 22.6564C43.9898 21.0388 45.8001 18.8412 49.8746 17.5472C56.2469 15.5225 67.6801 12.4659 72.6345 14.7193C77.2358 16.8165 81.9716 30.348 82.5545 32.0492C87.3576 32.25 90.0085 39.4285 91.404 45.5305L105.27 45.7926C110.302 45.8874 115.016 47.9121 118.541 51.4874C122.066 55.0627 124.006 59.7926 124.006 64.8014C124.006 70.5743 121.343 76.2301 116.893 79.9281C113.682 82.5942 109.899 83.9886 106.004 83.9886L105.993 83.9998ZM93.3824 80.6587C93.3824 80.6587 93.4273 80.6588 93.4497 80.6699C93.5226 80.6922 100.691 82.834 103.117 83.2747C107.887 84.1392 112.673 82.834 116.585 79.5822C120.934 75.9735 123.529 70.4516 123.529 64.8181C123.529 54.7894 115.33 46.4731 105.253 46.2779L91.2079 46.0101C91.1014 46.0101 91.0061 45.9321 90.9837 45.8261C89.8684 40.8731 87.2735 32.5623 82.3808 32.5233C82.2799 32.5233 82.1902 32.4564 82.1622 32.3615C82.1118 32.2109 77.0677 17.2571 72.444 15.1488C67.6353 12.9568 56.3366 15.991 50.0259 17.9934C46.9266 18.9807 44.7072 20.6595 43.6087 22.8627C42.768 24.5528 42.6391 26.5217 43.2556 28.2508C44.4886 31.7034 49.0395 32.1105 52.7441 31.0285C56.7905 29.8516 63.3534 28.4237 63.4151 28.4125C63.4767 28.4014 63.544 28.4125 63.5944 28.446C63.6449 28.4795 63.6841 28.5352 63.6953 28.5966L65.074 35.9034C65.0852 35.9647 65.074 36.0261 65.0348 36.0819C65.0012 36.1321 64.9451 36.1655 64.8835 36.1767C62.9835 36.5002 59.576 37.2253 58.1636 38.3854C56.443 39.8022 55.8882 45.7759 58.3374 49.6301C58.4046 49.7305 58.3766 49.8699 58.2813 49.9424C58.1861 50.0149 58.0459 50.0038 57.9675 49.9145C56.0844 47.8285 50.9282 45.6978 46.1307 47.1145C44.1075 47.7113 42.6447 49.3679 42.2132 51.5488C41.692 54.1591 42.7344 56.8811 44.9314 58.6492C47.1788 60.4564 49.9642 61.7002 52.4246 62.7934C54.9018 63.8978 57.0371 64.846 57.8162 66.0731C57.9507 66.285 58.1132 66.5528 58.2925 66.854C60.1084 69.8715 64.351 76.9329 73.0941 79.9113C82.6218 83.1631 93.2199 80.6755 93.3264 80.6476C93.3432 80.6476 93.3656 80.642 93.3824 80.642V80.6587Z" fill="black"/>
<path id="Vector_6" d="M105.258 46.0441L104.513 46.0273C110.185 49.4465 113.968 55.6489 113.968 62.7158C113.968 72.3373 106.906 80.8767 97.9446 82.2098C99.8893 82.7508 101.957 83.2975 103.067 83.5038C114.024 85.4951 123.759 75.9014 123.759 64.8186C123.759 54.5891 115.532 46.2449 105.253 46.0497L105.258 46.0441Z" fill="black"/>
<path id="Vector_7" d="M64.8331 36.1876C64.7266 36.1876 64.6257 36.1095 64.6033 36.0035C64.5753 35.8752 64.6594 35.7525 64.7827 35.7246L82.3304 32.0601C82.4537 32.0322 82.5826 32.1158 82.6106 32.2386C82.6387 32.3668 82.5546 32.4895 82.4313 32.5174L64.8835 36.182C64.8835 36.182 64.8499 36.182 64.8331 36.182V36.1876Z" fill="black"/>
<path id="Vector_8" d="M75.3919 68.1032C71.7714 68.1032 68.9411 67.1327 66.9571 65.214C64.3846 62.7207 64.0932 59.4522 64.0596 58.6211C57.1772 57.1152 57.8498 50.1765 57.9002 49.7526C57.9002 49.4012 57.917 44.649 62.3614 42.4347C66.8562 40.198 77.3031 38.5749 77.7458 38.508C77.8747 38.4913 77.9924 38.5749 78.0148 38.7032C78.0372 38.8315 77.9476 38.9486 77.8187 38.9709C77.7122 38.9877 67.0019 40.6498 62.5744 42.853C58.2533 45.0004 58.371 49.708 58.371 49.7582C58.371 49.7693 58.371 49.7861 58.371 49.7972C58.3318 50.0817 57.5135 56.8307 64.3398 58.2028C64.4519 58.2251 64.5304 58.3199 64.5304 58.4371C64.5304 58.4761 64.5304 62.2132 67.2934 64.8905C69.3222 66.8538 72.3038 67.7741 76.1765 67.6291C76.3167 67.6291 76.4175 67.7239 76.4231 67.8522C76.4231 67.9805 76.3279 68.092 76.199 68.092C75.9299 68.1032 75.6609 68.1088 75.3975 68.1088L75.3919 68.1032Z" fill="black"/>
<path id="Vector_9" d="M64.2949 58.6662C64.1492 58.6606 64.054 58.5491 64.0596 58.4208C64.0764 58.1642 64.4463 52.1682 67.9995 50.7515C71.4407 49.3849 83.709 47.628 84.2302 47.5499C84.3535 47.5331 84.4768 47.6224 84.4936 47.7507C84.5105 47.879 84.4208 47.9961 84.2919 48.0128C84.163 48.0295 71.564 49.8367 68.1733 51.1809C64.8946 52.4861 64.5303 58.3817 64.5247 58.4375C64.5191 58.5602 64.4126 58.6606 64.2893 58.6606L64.2949 58.6662Z" fill="black"/>
<path id="Vector_10" d="M84.2583 78.7406C84.2583 78.7406 84.2246 78.7406 84.2078 78.7406C76.8435 77.1286 76.199 70.5414 75.8571 67.0051C75.7898 66.2967 75.7282 65.6832 75.6329 65.2481C75.0781 62.7772 69.9835 62.2975 69.9331 62.292C69.8042 62.2808 69.7089 62.1693 69.7201 62.041C69.7313 61.9127 69.849 61.8179 69.9723 61.829C70.1965 61.8513 75.4592 62.3477 76.0925 65.1477C76.1934 65.6051 76.255 66.2354 76.3279 66.9605C76.6866 70.6195 77.2806 76.7382 84.3143 78.2832C84.4432 78.3111 84.5217 78.4338 84.4936 78.5621C84.4712 78.6736 84.3704 78.7461 84.2639 78.7461L84.2583 78.7406Z" fill="black"/>
<path id="Vector_11" d="M93.377 54.6447C93.2705 54.6447 93.1752 54.5722 93.1472 54.4662L90.9782 45.8264C90.9446 45.7037 91.0231 45.5754 91.152 45.5419C91.2753 45.5085 91.4042 45.5866 91.4378 45.7148L93.6068 54.3547C93.6404 54.4774 93.5619 54.6057 93.433 54.6391C93.4162 54.6391 93.3938 54.6447 93.377 54.6447Z" fill="black"/>
<path id="Vector_12" d="M29.8441 21.2451L27.1987 24.0674L23.3652 23.4985L25.2484 26.873L23.5222 30.3256L27.3276 29.5893L30.0963 32.2889L30.567 28.4626L34.0026 26.6778L30.4886 25.0491L29.8441 21.2451Z" fill="white"/>
<path id="Vector_13" d="M26.6888 48.4307L26.672 51.8665L23.8137 53.802L27.0924 54.8785L28.0563 58.1805L30.102 55.4083L33.5544 55.5199L31.5424 52.7255L32.7081 49.4904L29.4182 50.5335L26.6888 48.4307Z" fill="#FF636B"/>
<path id="Vector_14" d="M31.1107 47.7287C31.0042 47.7287 30.909 47.6562 30.8809 47.5502C30.7408 46.9422 30.5951 46.3175 30.6175 45.6649C30.6456 44.9064 30.9202 44.2593 31.3853 43.8354C31.8113 43.4506 32.4222 43.2442 33.2292 43.2052C33.2292 43.1884 33.2292 43.1773 33.2348 43.1605C33.3525 42.4745 33.6832 41.7884 34.2549 41.0578C34.6304 40.5725 35.0059 40.2044 35.4038 39.9311C36.2108 39.3677 37.2869 39.0665 38.6936 39.0107C38.8282 39.0107 38.9346 39.1056 38.9402 39.2338C38.9402 39.3621 38.845 39.4737 38.7161 39.4793C37.4046 39.5295 36.407 39.8083 35.6728 40.3159C35.3141 40.5669 34.9722 40.9016 34.6248 41.3478C34.1147 42.0004 33.8121 42.6083 33.7056 43.1996C34.2773 43.2163 35.0395 43.3167 35.5495 43.8466C35.8522 44.1645 35.9867 44.6554 35.8914 45.1072C35.8129 45.4641 35.5887 45.7374 35.2805 45.8601C34.7425 46.0721 34.182 45.7709 33.8682 45.453C33.431 45.0068 33.19 44.3653 33.19 43.6793C32.5231 43.7183 32.0355 43.8856 31.6992 44.1868C31.3349 44.5159 31.1107 45.0625 31.0827 45.6817C31.0603 46.2673 31.2004 46.8641 31.3349 47.4442C31.3629 47.5725 31.2845 47.6952 31.1612 47.7231C31.1444 47.7231 31.1275 47.7287 31.1051 47.7287H31.1107ZM33.6664 43.6625C33.6664 44.2315 33.8625 44.7613 34.21 45.1183C34.4398 45.3526 34.8097 45.5366 35.1124 45.4139C35.3309 45.3303 35.4094 45.1183 35.4318 44.9956C35.4991 44.7 35.4094 44.3653 35.2132 44.1589C34.8994 43.8354 34.4062 43.6737 33.6664 43.657V43.6625Z" fill="black"/>
<path id="Vector_15" d="M36.9 32.6404C36.8608 32.6404 36.8216 32.6293 36.788 32.6125L33.8904 31.0508C33.7783 30.9894 33.7335 30.85 33.7951 30.7328C33.8568 30.6213 33.9969 30.5767 34.1146 30.638L37.0121 32.1998C37.1242 32.2611 37.1691 32.4006 37.1074 32.5177C37.0626 32.5958 36.9841 32.6404 36.9 32.6404Z" fill="black"/>
<path id="Vector_16" d="M89.3081 23.2368C89.2128 23.2368 89.1232 23.181 89.0895 23.0862L81.5122 3.47502L63.0117 7.30131C62.8884 7.3292 62.7595 7.24554 62.7315 7.11725C62.7035 6.98896 62.7875 6.86625 62.9108 6.83837L81.6075 2.96745C81.7196 2.94514 81.8317 3.00649 81.8765 3.11247L89.5211 22.9133C89.5659 23.036 89.5099 23.1698 89.3866 23.2145C89.3586 23.2256 89.3305 23.2312 89.3025 23.2312L89.3081 23.2368Z" fill="black"/>
<path id="Vector_17" d="M86.5618 21.8365C87.2119 20.3249 88.9661 19.6277 90.485 20.2747C92.0038 20.9218 92.7043 22.6676 92.0542 24.1791C91.4041 25.6907 89.6499 26.3879 88.1311 25.7409C86.6122 25.0939 85.9117 23.348 86.5618 21.8365Z" fill="#FF636B"/>
<path id="Vector_18" d="M78.9173 2.03571C79.5674 0.524157 81.3216 -0.173054 82.8404 0.473958C84.3592 1.12097 85.0598 2.86679 84.4097 4.37834C83.7596 5.88989 82.0054 6.5871 80.4865 5.94009C78.9677 5.29308 78.2671 3.54726 78.9173 2.03571Z" fill="white"/>
<path id="Vector_19" d="M60.2205 5.9068C60.8706 4.39525 62.6248 3.69804 64.1436 4.34505C65.6625 4.99206 66.363 6.73788 65.7129 8.24943C65.0628 9.76099 63.3086 10.4582 61.7897 9.81119C60.2709 9.16418 59.5704 7.41836 60.2205 5.9068Z" fill="white"/>
<path id="Vector_20" d="M89.308 26.2148C88.8765 26.2148 88.4505 26.1256 88.0414 25.9527C86.4105 25.2555 85.6483 23.3702 86.3488 21.7415C87.0494 20.1184 88.9437 19.3599 90.5802 20.0571C91.3705 20.3917 91.9814 21.0164 92.3008 21.814C92.6203 22.6116 92.6091 23.4818 92.2728 24.2682C91.9365 25.0547 91.3088 25.6626 90.5074 25.9806C90.1207 26.1367 89.7115 26.2148 89.308 26.2148ZM86.7804 21.9256C86.1863 23.3144 86.8308 24.9264 88.2263 25.5232C88.9045 25.8132 89.6499 25.8188 90.3336 25.5455C91.0174 25.2722 91.5498 24.7535 91.8413 24.0786C92.1327 23.4037 92.1383 22.6618 91.8637 21.9814C91.5891 21.3009 91.0678 20.771 90.3897 20.481C88.9942 19.8897 87.3745 20.5312 86.7804 21.92V21.9256Z" fill="black"/>
<path id="Vector_21" d="M81.6578 6.41433C81.2375 6.41433 80.8059 6.33067 80.3968 6.15776C79.6065 5.8231 78.9957 5.1984 78.6762 4.40079C78.3567 3.60318 78.3679 2.73306 78.7042 1.9466C79.4048 0.323495 81.2991 -0.435071 82.9356 0.262141C83.7259 0.596802 84.3368 1.2215 84.6562 2.01911C84.9757 2.81672 84.9645 3.68684 84.6282 4.4733C84.107 5.68923 82.9132 6.41991 81.6634 6.41991L81.6578 6.41433ZM81.6634 0.468515C80.5929 0.468515 79.5785 1.09322 79.1302 2.13067C78.8387 2.80557 78.8331 3.5474 79.1077 4.22788C79.3824 4.90836 79.9036 5.43824 80.5817 5.72828C81.9773 6.31951 83.597 5.67808 84.191 4.28923C84.4825 3.61433 84.4881 2.8725 84.2135 2.19202C83.9388 1.51154 83.4176 0.981662 82.7395 0.691623C82.3864 0.541025 82.0221 0.468515 81.6634 0.468515Z" fill="black"/>
<path id="Vector_22" d="M62.9667 10.2793C62.5352 10.2793 62.1092 10.19 61.7001 10.0171C60.0692 9.31992 59.307 7.43466 60.0075 5.80598C60.7081 4.18287 62.6024 3.4243 64.2389 4.12152C65.0292 4.45618 65.6401 5.08088 65.9595 5.87849C66.279 6.6761 66.2678 7.54622 65.9315 8.33267C65.5952 9.11912 64.9675 9.72709 64.1661 10.045C63.7794 10.2012 63.3702 10.2793 62.9667 10.2793ZM60.4391 5.99562C59.845 7.38446 60.4895 8.99642 61.885 9.58765C62.5632 9.87769 63.3086 9.88327 63.9923 9.60996C64.6761 9.33665 65.2085 8.81793 65.5 8.14303C65.7914 7.46813 65.797 6.7263 65.5224 6.04582C65.2478 5.36534 64.7265 4.83546 64.0484 4.54542C62.6529 3.95418 61.0332 4.59562 60.4391 5.98446V5.99562Z" fill="black"/>
<path id="Vector_23" d="M47.5879 45.3744L47.7449 37.7441L49.6952 37.7832L49.5383 45.4135L53.0972 47.0031C53.4615 47.1649 53.3382 47.7115 52.9403 47.7003L44.1019 47.5163C43.704 47.5107 43.6031 46.9585 43.973 46.8079L47.5935 45.3688L47.5879 45.3744Z" fill="#FF636B"/>
<path id="Vector_24" d="M52.9516 47.9398L44.0964 47.7558C43.7994 47.7502 43.5696 47.5494 43.5135 47.2649C43.4631 46.9749 43.6088 46.7072 43.8834 46.6012L47.3582 45.2179L47.5152 37.7382C47.5152 37.61 47.6104 37.4984 47.7562 37.5096L49.7065 37.5486C49.7682 37.5486 49.8298 37.5765 49.8691 37.6211C49.9139 37.6657 49.9363 37.7271 49.9363 37.7884L49.7794 45.2681L53.1925 46.7908C53.4616 46.9135 53.5961 47.1813 53.5344 47.4713C53.4728 47.7502 53.2374 47.9398 52.9459 47.9398H52.9516ZM47.9803 37.9837L47.829 45.3797C47.829 45.4745 47.7674 45.5582 47.6833 45.5916L44.0628 47.0307C43.9731 47.0641 43.9731 47.1422 43.9787 47.1757C43.9843 47.2092 44.0067 47.2817 44.1076 47.2817L52.9459 47.4657C53.0356 47.4657 53.0692 47.3932 53.0805 47.3653C53.0861 47.3319 53.0973 47.2538 53.0076 47.2147L49.4487 45.6251C49.3647 45.5861 49.3086 45.5024 49.3086 45.4076L49.4599 38.0116L47.9803 37.9837Z" fill="black"/>
<path id="Vector_25" d="M54.6722 30.12L54.5937 33.9351C54.5264 37.1144 51.8867 39.6411 48.6921 39.5742C45.4976 39.5073 42.9587 36.8802 43.026 33.7009L43.1044 29.8857L54.6722 30.1256V30.12Z" fill="#FF636B"/>
<path id="Vector_26" d="M48.8097 39.8083C48.7704 39.8083 48.7256 39.8083 48.6808 39.8083C47.0723 39.7749 45.5759 39.1223 44.4606 37.9677C43.3453 36.8131 42.7512 35.296 42.7848 33.6952L42.8633 29.8801C42.8633 29.8187 42.8913 29.7573 42.9361 29.7183C42.981 29.6737 43.0426 29.6514 43.1043 29.6514L54.672 29.8912C54.7336 29.8912 54.7953 29.9191 54.8345 29.9637C54.8794 30.0083 54.9018 30.0697 54.9018 30.131L54.8233 33.9462C54.7561 37.2091 52.0659 39.8139 48.8041 39.8139L48.8097 39.8083ZM43.3284 30.1199L43.2556 33.7008C43.2276 35.1733 43.7712 36.5733 44.8024 37.6386C45.8281 38.704 47.2124 39.3063 48.692 39.3342C51.7408 39.3956 54.2909 36.9693 54.3581 33.9239L54.431 30.343L43.334 30.1143L43.3284 30.1199Z" fill="black"/>
<path id="Vector_27" d="M55.3784 36.1323C55.0813 36.1323 54.7899 35.9984 54.6105 35.7586C54.3471 35.4072 54.4088 34.8606 54.745 34.5427C55.0309 34.2694 55.4288 34.2638 55.7483 34.2638C55.8491 34.2638 55.95 34.2638 56.0397 34.2526C56.3423 34.2192 56.645 34.102 56.8972 33.9068C57.4016 33.5275 57.6594 32.9084 57.5697 32.3004C57.4744 31.6757 57.0261 31.1235 56.4432 30.9227C55.7763 30.6941 55.2438 30.7777 54.8179 31.1737C54.7226 31.263 54.5713 31.2574 54.4872 31.1626C54.3976 31.0678 54.4032 30.9227 54.4984 30.8335C55.0589 30.3092 55.7651 30.1921 56.6001 30.4821C57.3511 30.7443 57.9172 31.4303 58.0349 32.2335C58.1526 33.0088 57.8219 33.7952 57.183 34.2805C56.8579 34.5259 56.4768 34.6821 56.0901 34.7211C55.9836 34.7323 55.8659 34.7323 55.7539 34.7323C55.4848 34.7323 55.227 34.7323 55.0757 34.8829C54.9244 35.0279 54.8571 35.3012 54.9916 35.4853C55.1262 35.6638 55.4064 35.7251 55.6025 35.6192C55.7202 35.5578 55.8603 35.6024 55.922 35.714C55.9836 35.8255 55.9388 35.9705 55.8267 36.0319C55.6922 36.1044 55.5409 36.1379 55.3896 36.1379L55.3784 36.1323Z" fill="black"/>
<path id="Vector_28" d="M42.2021 35.8646C42.0396 35.8646 41.877 35.8256 41.7313 35.7419C41.6192 35.675 41.58 35.5356 41.6472 35.424C41.7145 35.3124 41.8602 35.2734 41.9667 35.3403C42.1629 35.4519 42.4431 35.4017 42.5832 35.2288C42.7289 35.0503 42.6673 34.7714 42.5272 34.6264C42.3814 34.4758 42.1292 34.4646 41.8546 34.4479C41.7369 34.4423 41.6248 34.4368 41.5183 34.42C41.1316 34.3642 40.7561 34.1969 40.4423 33.9348C39.8258 33.4216 39.5287 32.6296 39.6801 31.8543C39.8314 31.0567 40.4255 30.3929 41.1877 30.1587C42.0396 29.9021 42.7177 30.0415 43.2501 30.5826C43.3398 30.6718 43.3398 30.8224 43.2501 30.9117C43.1549 31.0009 43.0091 31.0009 42.9195 30.9117C42.5103 30.4989 42.0059 30.4041 41.3278 30.6105C40.7393 30.7889 40.2629 31.3244 40.1452 31.9435C40.0275 32.5459 40.2629 33.1706 40.7505 33.5722C40.9971 33.7786 41.2942 33.9124 41.5968 33.9571C41.6865 33.9682 41.7874 33.9738 41.8882 33.9794C42.2077 33.9961 42.6 34.0128 42.8746 34.2973C43.1941 34.632 43.2333 35.1842 42.9587 35.5188C42.7794 35.7419 42.4935 35.8646 42.2133 35.8646H42.2021Z" fill="black"/>
<path id="Vector_29" d="M48.8267 37.0466C48.6866 37.041 48.5857 36.9294 48.5913 36.8011L48.7875 32.8298L47.5769 33.8003C47.476 33.8784 47.3303 33.8673 47.2462 33.7669C47.1621 33.6665 47.179 33.5215 47.2798 33.4378L48.8995 32.1438C48.9724 32.088 49.0733 32.0768 49.1517 32.1159C49.2358 32.1549 49.2863 32.2442 49.2806 32.3334L49.0565 36.829C49.0509 36.9517 48.9444 37.0521 48.8211 37.0521L48.8267 37.0466Z" fill="white"/>
<path id="Vector_30" d="M13.2297 48.4512C18.1569 46.5611 20.6115 41.0536 18.7123 36.15C16.813 31.2464 11.2791 28.8036 6.35188 30.6937C1.42469 32.5839 -1.02992 38.0914 0.869347 42.995C2.76861 47.8986 8.30255 50.3414 13.2297 48.4512Z" fill="white"/>
<path id="Vector_31" d="M9.80779 49.3177C6.65805 49.3177 3.56436 47.8117 1.67003 45.0229C-1.35081 40.5663 -0.162649 34.4977 4.31536 31.4914C8.79337 28.485 14.8911 29.6675 17.9119 34.124C20.9328 38.5806 19.7446 44.6491 15.2666 47.6555C13.5908 48.7766 11.6909 49.3177 9.80779 49.3177ZM9.77977 30.2977C7.98632 30.2977 6.17606 30.8109 4.57878 31.8818C0.313736 34.7432 -0.812773 40.5217 2.06235 44.7663C4.93746 49.0109 10.7437 50.132 15.0032 47.2707C19.2682 44.4093 20.3947 38.6308 17.5196 34.3918C15.7206 31.7368 12.7726 30.3033 9.77417 30.3033L9.77977 30.2977Z" fill="black"/>
<path id="Vector_32" d="M3.32354 40.8511C4.43324 42.134 6.34438 42.7252 7.95848 43.2495C8.61421 43.4615 11.2764 44.1475 12.5598 44.4766C12.9241 44.5714 13.3108 44.3093 13.3556 43.9356C13.5238 42.6248 13.8656 39.9085 13.9105 39.2224C14.0226 37.5379 14.1739 35.5523 13.3837 34.0519C12.6943 32.7467 11.1923 32.1053 9.66786 32.7188C8.4797 33.1985 7.66144 34.4479 7.8632 36.2774C7.88562 36.4949 7.63902 36.6622 7.44287 36.5563C5.83997 35.6806 4.33236 35.9985 3.44684 36.9188C2.30913 38.1013 2.34836 39.73 3.31794 40.8511H3.32354Z" fill="#FF636B"/>
<path id="Vector_33" d="M43.3845 13.7828C42.2356 17.029 38.6599 18.7302 35.3981 17.5868C32.1362 16.4433 30.4269 12.8848 31.5758 9.63856C32.7247 6.39235 36.3004 4.69115 39.5622 5.83458C42.8241 6.978 44.5334 10.5366 43.3845 13.7828Z" fill="black"/>
<path id="Vector_34" d="M34.2772 8.82435C34.0306 9.90642 34.4622 11.1391 34.8209 12.1877C34.9666 12.6116 35.6391 14.2737 35.9698 15.0769C36.0651 15.3056 36.3509 15.406 36.5639 15.2833C37.3205 14.8594 38.8897 13.9781 39.2708 13.7327C40.2068 13.1303 41.3165 12.4387 41.7985 11.4403C42.2188 10.5702 41.9722 9.53271 41.0531 8.97494C40.3357 8.53988 39.3549 8.60124 38.4694 9.42116C38.3629 9.51598 38.178 9.45463 38.1612 9.30961C37.9986 8.12714 37.242 7.46339 36.4125 7.36299C35.3421 7.22913 34.5014 7.88729 34.2828 8.82992L34.2772 8.82435Z" fill="#FF636B"/>
<path id="Vector_35" d="M41.0949 74.3201C43.7432 71.6845 43.7432 67.4112 41.0949 64.7756C38.4466 62.1399 34.1528 62.1399 31.5045 64.7756C28.8561 67.4112 28.8561 71.6845 31.5045 74.3201C34.1528 76.9558 38.4466 76.9558 41.0949 74.3201Z" fill="white"/>
<path id="Vector_36" d="M36.3005 76.531C32.4334 76.531 29.2837 73.3963 29.2837 69.5477C29.2837 65.6991 32.4334 62.5645 36.3005 62.5645C40.1677 62.5645 43.3174 65.6991 43.3174 69.5477C43.3174 73.3963 40.1677 76.531 36.3005 76.531ZM36.3005 63.033C32.6912 63.033 29.7545 65.9557 29.7545 69.5477C29.7545 73.1398 32.6912 76.0625 36.3005 76.0625C39.9099 76.0625 42.8466 73.1398 42.8466 69.5477C42.8466 65.9557 39.9099 63.033 36.3005 63.033Z" fill="black"/>
<path id="Vector_37" d="M35.0786 71.6509C35.017 71.6509 34.9609 71.6286 34.9161 71.584L32.7023 69.4422C32.607 69.3529 32.607 69.2023 32.7023 69.1131C32.792 69.0183 32.9433 69.0183 33.033 69.1131L35.0898 71.0987L39.5454 66.8708C39.6407 66.7816 39.7864 66.7872 39.8761 66.8764C39.9658 66.9712 39.9602 67.1163 39.8705 67.2055L35.2524 71.584C35.2075 71.6286 35.1459 71.6509 35.0898 71.6509H35.0786Z" fill="black"/>
<path id="Vector_38" d="M4.38832 25.5293C4.28744 25.5293 4.19216 25.4623 4.16414 25.3564C3.18335 21.9149 4.80306 17.9882 7.93038 16.2257C7.97521 15.3611 8.26665 14.4353 8.8215 13.3643C10.4636 10.1962 13.3219 7.64163 16.6622 6.35318C20.0025 5.06474 23.8472 5.03685 27.2043 6.27509C27.3276 6.31972 27.3893 6.45358 27.3444 6.57629C27.2996 6.699 27.1651 6.76035 27.0418 6.71573C23.7856 5.51653 20.0698 5.54442 16.8304 6.79382C13.5965 8.04322 10.8279 10.5141 9.23623 13.5874C8.77106 14.4855 8.50204 15.2663 8.41797 15.9859C9.14095 15.6568 10.0657 15.4058 10.9904 15.6289C12.0217 15.8743 13.0305 16.8727 12.8624 18.0552C12.7839 18.6074 12.4476 19.0926 11.9096 19.4161C11.2987 19.7843 10.5309 19.8679 9.90317 19.6448C8.81589 19.2544 8.02566 18.1054 7.93598 16.7779C5.18416 18.4735 3.72699 22.138 4.6125 25.2448C4.64613 25.3675 4.57327 25.4958 4.44997 25.5349C4.42755 25.5404 4.40514 25.546 4.38832 25.546V25.5293ZM8.40116 16.5102C8.40116 16.5827 8.40116 16.6552 8.41237 16.7221C8.47402 17.6815 9.01205 18.8193 10.0713 19.193C10.5701 19.3715 11.1866 19.299 11.6742 19.0034C12.0889 18.7524 12.3467 18.3898 12.4084 17.9771C12.5317 17.0847 11.7246 16.2703 10.8896 16.0695C9.99284 15.8576 9.07931 16.1643 8.40116 16.5046V16.5102Z" fill="#FF636B"/>
<path id="Vector_39" d="M27.0753 40.3713C27.0137 40.3713 26.9576 40.349 26.9072 40.3043L23.6454 37.0581C23.5557 36.9689 23.5557 36.8183 23.6454 36.729C23.7351 36.6398 23.8864 36.6398 23.976 36.729L27.2379 39.9753C27.3275 40.0645 27.3275 40.2151 27.2379 40.3043C27.193 40.349 27.1314 40.3713 27.0697 40.3713H27.0753Z" fill="black"/>
<path id="Vector_40" d="M23.8135 40.3713C23.7519 40.3713 23.6958 40.349 23.6454 40.3043C23.5557 40.2151 23.5557 40.0645 23.6454 39.9753L26.9072 36.729C26.9969 36.6398 27.1482 36.6398 27.2379 36.729C27.3275 36.8183 27.3275 36.9689 27.2379 37.0581L23.976 40.3043C23.9312 40.349 23.8696 40.3713 23.8079 40.3713H23.8135Z" fill="black"/>
</g>
<defs>
<clipPath id="clip0_2304_1917">
<rect width="124" height="84" fill="white"/>
</clipPath>
</defs>
</svg>
