<svg width="112" height="102" viewBox="0 0 112 102" fill="none" xmlns="http://www.w3.org/2000/svg">
<g id="_Layer_" clip-path="url(#clip0_2304_1959)">
<path id="Vector" d="M63.4793 7.8173C63.4793 4.63758 60.9201 2.05957 57.7637 2.05957C54.6072 2.05957 52.0481 4.63758 52.0481 7.8173C52.0481 10.997 54.6072 13.575 57.7637 13.575C60.9201 13.575 63.4793 10.997 63.4793 7.8173Z" fill="#02AFED"/>
<path id="Vector_2" d="M93.6173 65.8922C101.712 59.04 107.221 49.5319 106.403 38.3173C105.79 29.9245 99.1321 22.2735 92.2013 18.1238C91.8769 17.9319 91.5525 17.7451 91.223 17.5636C86.2746 14.8455 80.3788 12.9366 74.6786 13.1597C68.9733 13.3827 63.7572 16.2668 58.0364 16.4328C52.4908 16.5936 47.6608 13.0404 42.1924 12.5165C36.8166 12.0029 31.2916 12.9833 26.4513 15.4005C16.1169 20.5669 10.1387 32.6218 12.0027 44.0647C13.3312 52.2033 19.3197 58.4953 25.4369 63.4957C31.8734 68.7555 39.0565 73.7715 47.1562 75.9812C55.8223 78.3465 65.1011 78.4036 73.793 76.1212C80.8113 74.2798 87.8657 70.7525 93.6173 65.887V65.8922Z" fill="white"/>
<path id="Vector_3" d="M68.2011 37.7005C68.2217 37.5708 68.232 37.4411 68.232 37.301C68.232 35.8642 67.0734 34.6971 65.6471 34.6971C65.508 34.6971 65.369 34.7127 65.2351 34.7334C65.3021 32.9853 65.2145 29.4166 63.6595 26.6622C62.3619 24.3747 59.9675 22.7822 57.1664 22.7822C55.5907 22.7822 54.1592 23.3321 52.9286 24.1257C49.1748 26.5481 48.9637 31.9375 49.1594 34.7749C48.0472 34.8268 47.1563 35.7501 47.1563 36.8861C47.1563 37.1195 47.1975 37.3477 47.2645 37.5604C45.4623 37.8405 44.0823 39.407 44.0823 41.3055C44.0823 43.3959 45.7661 45.0921 47.8412 45.0921C48.3407 45.0921 48.8195 44.9936 49.2521 44.812L65.7037 44.838C66.126 44.9988 66.5791 45.0921 67.058 45.0921C69.1331 45.0921 70.8169 43.3959 70.8169 41.3055C70.8169 39.6145 69.7201 38.188 68.2011 37.7005Z" fill="black"/>
<path id="Vector_4" d="M49.5816 32.5808C49.6434 33.5975 50.5136 34.3652 51.5177 34.303C52.5218 34.2407 53.289 33.3641 53.2273 32.3526C53.1655 31.3411 52.2953 30.5682 51.2912 30.6305C50.2819 30.6927 49.5198 31.5693 49.5816 32.5808Z" fill="white"/>
<path id="Vector_5" d="M49.5816 32.5808C49.6434 33.5975 50.5136 34.3652 51.5177 34.303C52.5218 34.2407 53.289 33.3641 53.2273 32.3526C53.1655 31.3411 52.2953 30.5682 51.2912 30.6305C50.2819 30.6927 49.5198 31.5693 49.5816 32.5808Z" fill="white"/>
<path id="Vector_6" d="M51.7596 32.9902C51.6978 32.9902 51.636 32.9643 51.5897 32.9124L50.8637 32.015C50.7864 31.9217 50.8019 31.7868 50.8946 31.709C50.9872 31.6312 51.1211 31.6468 51.1984 31.7401L51.9244 32.6375C52.0016 32.7309 51.9862 32.8657 51.8935 32.9435C51.8523 32.9747 51.806 32.9902 51.7596 32.9902Z" fill="black"/>
<path id="Vector_7" d="M65.3019 32.5808C65.2402 33.5975 64.3699 34.3652 63.3658 34.303C62.3618 34.2407 61.5945 33.3641 61.6563 32.3526C61.7181 31.3411 62.5883 30.5682 63.5924 30.6305C64.6017 30.6927 65.3637 31.5693 65.3019 32.5808Z" fill="white"/>
<path id="Vector_8" d="M63.4845 34.5259C63.4433 34.5259 63.3969 34.5259 63.3557 34.5259C62.2332 34.4532 61.3733 33.4781 61.4454 32.3421C61.4814 31.7922 61.7234 31.2891 62.1302 30.926C62.537 30.5629 63.0674 30.3813 63.608 30.4176C64.7306 30.4903 65.5905 31.4654 65.5184 32.6014C65.4823 33.1513 65.2403 33.6544 64.8336 34.0175C64.4577 34.3495 63.9839 34.5311 63.4845 34.5311V34.5259ZM63.4742 30.843C63.0828 30.843 62.7069 30.983 62.4083 31.2476C62.0839 31.5329 61.8934 31.9323 61.8676 32.3628C61.811 33.255 62.4907 34.0279 63.3763 34.085C63.8037 34.1109 64.2208 33.9708 64.5452 33.6804C64.8696 33.3951 65.0601 32.9957 65.0859 32.5651C65.1425 31.6729 64.4628 30.9001 63.5771 30.843C63.5411 30.843 63.5102 30.843 63.4742 30.843Z" fill="black"/>
<path id="Vector_9" d="M63.1239 32.9902C63.0776 32.9902 63.0261 32.9747 62.99 32.9435C62.8973 32.8657 62.8819 32.7309 62.9591 32.6375L63.6852 31.7401C63.7624 31.6468 63.8963 31.6312 63.989 31.709C64.0816 31.7868 64.0971 31.9217 64.0199 32.015L63.2938 32.9124C63.2526 32.9643 63.1908 32.9902 63.1239 32.9902Z" fill="black"/>
<path id="Vector_10" d="M97.4895 69.8502C96.1559 63.0758 94.9149 59.424 94.9149 59.424L81.6661 45.7714C78.5302 42.5399 73.8084 40.6621 68.8188 40.6621H47.0738C41.5951 40.6621 36.4768 42.9237 33.4027 46.6999C27.5944 53.8426 18.7121 65.3322 17.8213 69.8502C16.4876 76.6246 18.2693 85.3909 28.2432 84.8981C33.7786 84.6232 38.6549 80.4475 42.3314 74.6172H72.9794C76.6559 80.4475 81.5322 84.6232 87.0676 84.8981C97.0415 85.3909 98.8232 76.6246 97.4895 69.8502Z" fill="black"/>
<path id="Vector_11" d="M46.0493 70.0623C45.9308 70.0623 45.833 69.9638 45.833 69.8445V61.628C43.2893 61.5139 41.2554 59.3924 41.2554 56.804C41.2554 54.2156 43.2893 52.0941 45.833 51.9799V49.7599C45.833 49.6405 45.9308 49.542 46.0493 49.542C46.1677 49.542 46.2655 49.6405 46.2655 49.7599V52.1926C46.2655 52.3119 46.1677 52.4105 46.0493 52.4105C43.6446 52.4105 41.6879 54.3816 41.6879 56.804C41.6879 59.2264 43.6446 61.1975 46.0493 61.1975C46.1677 61.1975 46.2655 61.2961 46.2655 61.4154V69.8445C46.2655 69.9638 46.1677 70.0623 46.0493 70.0623Z" fill="white"/>
<path id="Vector_12" d="M69.2617 70.0623C69.1432 70.0623 69.0454 69.9638 69.0454 69.8445V61.4154C69.0454 61.2961 69.1432 61.1975 69.2617 61.1975C71.6663 61.1975 73.623 59.2264 73.623 56.804C73.623 54.3816 71.6663 52.4105 69.2617 52.4105C69.1432 52.4105 69.0454 52.3119 69.0454 52.1926V49.7599C69.0454 49.6405 69.1432 49.542 69.2617 49.542C69.3801 49.542 69.4779 49.6405 69.4779 49.7599V51.9799C72.0216 52.0941 74.0556 54.2156 74.0556 56.804C74.0556 59.3924 72.0216 61.5139 69.4779 61.628V69.8445C69.4779 69.9638 69.3801 70.0623 69.2617 70.0623Z" fill="white"/>
<path id="Vector_13" d="M60.7656 36.04H54.2622V41.4191H60.7656V36.04Z" fill="white"/>
<path id="Vector_14" d="M60.7656 41.2376C60.6472 41.2376 60.5493 41.1391 60.5493 41.0198V36.258H54.4784V41.0198C54.4784 41.1391 54.3806 41.2376 54.2622 41.2376C54.1437 41.2376 54.0459 41.1391 54.0459 41.0198V36.0401C54.0459 35.9208 54.1437 35.8223 54.2622 35.8223H60.7656C60.884 35.8223 60.9819 35.9208 60.9819 36.0401V41.0198C60.9819 41.1391 60.884 41.2376 60.7656 41.2376Z" fill="black"/>
<path id="Vector_15" d="M60.7656 36.8289L54.2622 36.6162V39.5833C55.0912 40.2005 56.1159 40.5948 57.3929 40.6362C58.7574 40.6829 59.8645 40.3043 60.7656 39.6663V36.8289Z" fill="black"/>
<path id="Vector_16" d="M57.4391 23.5342C54.0818 23.5342 51.3579 26.2056 51.3579 29.5046C51.3579 32.8036 52.4289 38.8155 57.4391 38.8155C62.4493 38.8155 63.5203 32.8036 63.5203 29.5046C63.5203 26.2056 60.7964 23.5342 57.4391 23.5342Z" fill="white"/>
<path id="Vector_17" d="M57.4393 39.0283C52.7947 39.0283 51.1418 33.8982 51.1418 29.5047C51.1418 26.0915 53.9636 23.3164 57.4393 23.3164C60.915 23.3164 63.7368 26.0915 63.7368 29.5047C63.7368 33.8982 62.089 39.0283 57.4393 39.0283ZM57.4393 23.7521C54.2056 23.7521 51.5744 26.3353 51.5744 29.5047C51.5744 30.4332 51.7392 38.5977 57.4393 38.5977C63.1395 38.5977 63.3042 30.4384 63.3042 29.5047C63.3042 26.3301 60.673 23.7521 57.4393 23.7521Z" fill="black"/>
<path id="Vector_18" d="M59.5298 32.3155C59.7858 32.3155 59.9933 32.1065 59.9933 31.8487C59.9933 31.5908 59.7858 31.3818 59.5298 31.3818C59.2739 31.3818 59.0664 31.5908 59.0664 31.8487C59.0664 32.1065 59.2739 32.3155 59.5298 32.3155Z" fill="black"/>
<path id="Vector_19" d="M55.3538 32.3155C55.6098 32.3155 55.8172 32.1065 55.8172 31.8487C55.8172 31.5908 55.6098 31.3818 55.3538 31.3818C55.0979 31.3818 54.8904 31.5908 54.8904 31.8487C54.8904 32.1065 55.0979 32.3155 55.3538 32.3155Z" fill="black"/>
<path id="Vector_20" d="M65.3638 40.6572H49.5815C50.4827 42.3742 52.6865 45.1649 57.4855 45.1649C62.2846 45.1649 64.473 42.3742 65.3638 40.6572Z" fill="white"/>
<path id="Vector_21" d="M111.784 34.4474H109.343C109.343 34.4474 109.333 34.4474 109.328 34.4371C109.178 33.8094 108.941 33.2181 108.627 32.6734L110.342 30.9461L108.102 28.6897L106.429 30.3755C105.878 30.028 105.27 29.7583 104.626 29.5871V27.2373H101.46V29.5404C100.79 29.696 100.157 29.9554 99.5853 30.3029L97.9839 28.6897L95.744 30.9461L97.3351 32.5489C96.985 33.1299 96.7224 33.7679 96.5627 34.4474H94.3022V37.6375H96.5936C96.7636 38.3015 97.0313 38.9239 97.3866 39.4842L95.744 41.1388L97.9839 43.3953L99.6626 41.7043C100.214 42.0259 100.821 42.2696 101.46 42.4201V44.8477H104.626V42.3734C105.244 42.2074 105.821 41.9584 106.351 41.6316L108.102 43.3953L110.342 41.1388L108.586 39.37C108.9 38.8409 109.142 38.2652 109.302 37.6479C109.302 37.6427 109.307 37.6375 109.317 37.6375H111.784V34.4474ZM104.946 38.8461C101.722 40.7135 98.4113 37.3782 100.26 34.1258C100.471 33.7575 100.775 33.4463 101.146 33.2336C104.369 31.3663 107.68 34.7016 105.831 37.9539C105.62 38.3222 105.311 38.6335 104.946 38.8461Z" fill="#FF636B"/>
<path id="Vector_22" d="M104.631 45.0607H101.465C101.346 45.0607 101.248 44.9622 101.248 44.8429V42.5865C100.708 42.4464 100.193 42.2389 99.7037 41.9692L98.1383 43.5461C98.056 43.6291 97.9169 43.6291 97.8345 43.5461L95.5946 41.2897C95.5535 41.2482 95.5329 41.1911 95.5329 41.1341C95.5329 41.077 95.5535 41.0199 95.5946 40.9784L97.1137 39.4482C96.815 38.9451 96.5884 38.4056 96.4288 37.8506H94.3022C94.1838 37.8506 94.0859 37.752 94.0859 37.6327V34.4426C94.0859 34.3233 94.1838 34.2248 94.3022 34.2248H96.3928C96.5421 33.649 96.7687 33.094 97.0622 32.5805L95.5895 31.0969C95.5483 31.0554 95.5277 30.9984 95.5277 30.9413C95.5277 30.8843 95.5483 30.8272 95.5895 30.7857L97.8294 28.5293C97.9118 28.4463 98.0508 28.4463 98.1332 28.5293L99.6162 30.0232C100.126 29.7327 100.672 29.5097 101.238 29.3644V27.2325C101.238 27.1132 101.336 27.0146 101.454 27.0146H104.621C104.74 27.0146 104.837 27.1132 104.837 27.2325V29.4163C105.383 29.5771 105.903 29.8053 106.392 30.0958L107.948 28.5293C108.03 28.4463 108.169 28.4463 108.251 28.5293L110.491 30.7857C110.532 30.8272 110.553 30.8843 110.553 30.9413C110.553 30.9984 110.532 31.0554 110.491 31.0969L108.895 32.7049C109.158 33.1873 109.358 33.6957 109.497 34.2248H111.779C111.897 34.2248 111.995 34.3233 111.995 34.4426V37.6327C111.995 37.752 111.897 37.8506 111.779 37.8506H109.467C109.322 38.3641 109.116 38.8569 108.854 39.3289L110.496 40.9836C110.579 41.0666 110.579 41.2067 110.496 41.2897L108.257 43.5461C108.215 43.5876 108.159 43.6083 108.102 43.6083C108.045 43.6083 107.989 43.5876 107.948 43.5461L106.315 41.9017C105.852 42.1715 105.352 42.3842 104.837 42.5346V44.8429C104.837 44.9622 104.74 45.0607 104.621 45.0607H104.631ZM101.681 44.625H104.415V42.3686C104.415 42.27 104.482 42.1819 104.575 42.1559C105.162 42.0003 105.723 41.7565 106.243 41.4401C106.331 41.3882 106.439 41.4038 106.506 41.4712L108.102 43.0792L110.033 41.1341L108.426 39.5157C108.354 39.443 108.344 39.3341 108.396 39.2511C108.704 38.7272 108.936 38.1722 109.091 37.586C109.116 37.4927 109.214 37.4097 109.312 37.4097H111.562V34.6553H109.338C109.235 34.6553 109.137 34.5723 109.111 34.4738C108.967 33.8772 108.741 33.3015 108.437 32.7672C108.385 32.6842 108.401 32.5753 108.473 32.5026L110.033 30.9309L108.102 28.9858L106.583 30.516C106.511 30.5886 106.403 30.599 106.315 30.5471C105.775 30.2047 105.188 29.9506 104.575 29.7846C104.482 29.7586 104.415 29.6705 104.415 29.5719V27.44H101.681V29.5252C101.681 29.629 101.614 29.712 101.516 29.7379C100.873 29.8883 100.265 30.1373 99.7037 30.4745C99.6213 30.5263 99.508 30.5108 99.4411 30.4433L97.9942 28.9858L96.0632 30.9309L97.505 32.3833C97.5771 32.456 97.5874 32.5649 97.5359 32.6479C97.196 33.2133 96.9437 33.8306 96.7893 34.4841C96.7687 34.5827 96.6811 34.6501 96.5781 34.6501H94.5339V37.4045H96.609C96.7069 37.4045 96.7944 37.4719 96.8202 37.5653C96.9798 38.1929 97.2372 38.7947 97.5874 39.3549C97.6389 39.443 97.6286 39.552 97.5565 39.6246L96.0684 41.1237L97.9993 43.0689L99.5286 41.5283C99.5956 41.4608 99.7037 41.4453 99.7912 41.492C100.332 41.8084 100.919 42.0418 101.527 42.1819C101.624 42.2026 101.691 42.2908 101.691 42.3945V44.6042L101.681 44.625ZM103.035 39.5987C102.114 39.5987 101.233 39.2459 100.548 38.556C99.369 37.3682 99.1836 35.5838 100.074 34.0173C100.306 33.6127 100.641 33.2755 101.037 33.0473C102.592 32.1447 104.364 32.3315 105.543 33.5245C106.722 34.7124 106.907 36.4967 106.017 38.0633C105.785 38.4679 105.45 38.805 105.054 39.0333C104.4 39.4119 103.705 39.5987 103.035 39.5987ZM103.056 32.9176C102.459 32.9176 101.841 33.0836 101.254 33.4208C100.919 33.6127 100.641 33.8928 100.45 34.23C99.6574 35.6201 99.817 37.197 100.852 38.2448C101.892 39.2926 103.452 39.4534 104.837 38.6494C105.172 38.4575 105.45 38.1774 105.641 37.8402C106.434 36.4501 106.274 34.8732 105.239 33.8254C104.642 33.2237 103.864 32.9124 103.056 32.9124V32.9176Z" fill="black"/>
<path id="Vector_23" d="M21.3537 10.7326H19.6957C19.5824 10.2969 19.4228 9.89747 19.2117 9.524L20.3754 8.3517L18.8564 6.82149L17.7184 7.96785C17.3425 7.72924 16.9306 7.54769 16.4929 7.43358V5.83594H14.3405V7.40246C13.8874 7.5062 13.4549 7.68256 13.0687 7.92117L11.9822 6.82668L10.4632 8.35689L11.5445 9.44619C11.3077 9.84041 11.1275 10.2761 11.0193 10.7326H9.48486V12.9008H11.0399C11.1532 13.3521 11.3386 13.7723 11.5754 14.1561L10.4581 15.2817L11.9771 16.8119L13.1202 15.6604C13.4961 15.8782 13.908 16.0442 14.3405 16.148V17.7975H16.4929V16.1169C16.91 16.0079 17.3065 15.8368 17.6669 15.6137L18.8564 16.8119L20.3754 15.2817L19.1808 14.0783C19.3971 13.7204 19.5618 13.3262 19.67 12.9112C19.6803 12.906 21.3537 12.906 21.3537 12.906V10.7378V10.7326ZM16.7092 13.7204C14.5208 14.9861 12.2706 12.7193 13.527 10.5147C13.6712 10.2606 13.8771 10.0531 14.1294 9.90785C16.3178 8.64218 18.568 10.909 17.3116 13.1135C17.1675 13.3677 16.9615 13.5752 16.7092 13.7204Z" fill="black"/>
<path id="Vector_24" d="M87.7473 43.8053L59.607 71.0481C59.2259 70.794 58.7419 70.6384 58.2167 70.6384C57.6915 70.6384 57.2075 70.794 56.8264 71.0533L29.3709 43.5459L18.5525 47.7216L55.9819 75.4832H60.4463L97.8757 47.7216L87.7421 43.8104L87.7473 43.8053Z" fill="white"/>
<path id="Vector_25" d="M60.4462 75.6904H55.9819C55.8635 75.6904 55.7656 75.5918 55.7656 75.4725V72.521C55.7656 71.3591 56.8624 70.415 58.2166 70.415C59.5709 70.415 60.6677 71.3591 60.6677 72.521V75.4725C60.6677 75.5918 60.5698 75.6904 60.4514 75.6904H60.4462ZM56.1982 75.2598H60.23V72.5262C60.23 71.6029 59.3237 70.8508 58.2115 70.8508C57.0993 70.8508 56.193 71.6029 56.193 72.5262V75.2598H56.1982Z" fill="black"/>
<path id="Vector_26" d="M55.9819 75.6912C55.9356 75.6912 55.8944 75.6756 55.8532 75.6497L18.4238 47.8881C18.362 47.8414 18.3259 47.7636 18.3362 47.6858C18.3465 47.608 18.398 47.5406 18.4752 47.5094L29.2937 43.3338C29.3709 43.3027 29.4636 43.3234 29.5254 43.3805L56.9809 70.8879C57.0633 70.9709 57.0633 71.111 56.9809 71.1939C56.8985 71.2769 56.7595 71.2821 56.6771 71.1939L29.3246 43.7851L19.0056 47.7688L56.1158 75.2918C56.2136 75.3644 56.2342 75.4993 56.1622 75.5978C56.121 75.6549 56.054 75.686 55.9871 75.686L55.9819 75.6912Z" fill="black"/>
<path id="Vector_27" d="M60.4463 75.6903C60.3794 75.6903 60.3125 75.6592 60.2713 75.6021C60.1992 75.5036 60.2198 75.3687 60.3176 75.2961L97.4278 47.7731L87.7937 44.0539L59.7512 71.1983C59.6637 71.2812 59.5298 71.2813 59.4474 71.1931C59.365 71.1049 59.365 70.97 59.4525 70.887L87.5929 43.6441C87.6546 43.5871 87.7422 43.5663 87.8194 43.5975L97.953 47.5086C98.0251 47.5345 98.0766 47.6019 98.0921 47.6849C98.1024 47.7627 98.0715 47.8405 98.0045 47.8872L60.5751 75.6488C60.539 75.6799 60.4927 75.6903 60.4463 75.6903Z" fill="black"/>
<path id="Vector_28" d="M96.6143 48.0437L59.1694 74.2544C58.6132 74.6434 57.81 74.6434 57.259 74.2544L19.8141 48.0437C18.2848 46.9752 16.014 48.1215 16.4002 49.771L24.3093 83.2281C24.4741 83.918 24.9581 84.5197 25.6584 84.8932L56.0438 101.248C57.362 101.959 59.0509 101.959 60.3691 101.248L90.7545 84.8932C91.4548 84.5145 91.9439 83.9128 92.1036 83.2281L100.013 49.771C100.404 48.1215 98.1333 46.9752 96.5988 48.0437H96.6143Z" fill="#FF636B"/>
<path id="Vector_29" d="M58.2168 102C57.429 102 56.6412 101.813 55.9512 101.445L25.5658 85.0898C24.814 84.6852 24.2836 84.0264 24.1086 83.2795L16.1994 49.8224C16.0192 49.0703 16.3282 48.3337 17.0181 47.8617C17.7493 47.3585 18.9388 47.1614 19.9429 47.8668L57.3878 74.0775C57.8718 74.4146 58.5721 74.4146 59.0561 74.0775L96.501 47.8668C97.5051 47.1614 98.6946 47.3585 99.4258 47.8617C100.116 48.3337 100.42 49.0703 100.244 49.8224L92.3353 83.2795C92.1603 84.0264 91.6247 84.6852 90.8781 85.0898L60.4927 101.445C59.8028 101.813 59.0149 102 58.2271 102H58.2168ZM18.4908 47.8461C18.0171 47.8461 17.5743 47.9965 17.255 48.2196C16.7092 48.593 16.4775 49.1429 16.6165 49.7187L24.5257 83.1757C24.675 83.7982 25.1281 84.3584 25.7666 84.7007L56.152 101.056C57.4032 101.73 59.0252 101.73 60.2765 101.056L90.6618 84.7007C91.3055 84.3532 91.7535 83.7982 91.9028 83.1757L99.8119 49.7187C99.951 49.1377 99.7141 48.593 99.1734 48.2196C98.5813 47.815 97.5669 47.6438 96.7379 48.2196L59.293 74.4302C58.6699 74.8659 57.7585 74.8659 57.1355 74.4302L19.6906 48.2196C19.3095 47.955 18.8924 47.8461 18.4908 47.8461Z" fill="black"/>
<path id="Vector_30" d="M36.1113 54.1334C36.0649 54.1334 36.0135 54.1179 35.9774 54.0868L27.2495 46.97C27.1569 46.8922 27.1414 46.7573 27.2186 46.6639C27.2959 46.5706 27.4298 46.555 27.5224 46.6328L36.2503 53.7496C36.343 53.8274 36.3585 53.9623 36.2812 54.0556C36.24 54.1075 36.1782 54.1386 36.1113 54.1386V54.1334Z" fill="black"/>
<path id="Vector_31" d="M41.5335 60.2641C41.4871 60.2641 41.4459 60.2485 41.4047 60.2226L37.6252 57.4371C37.5274 57.3644 37.5068 57.2296 37.5789 57.131C37.651 57.0325 37.7849 57.0117 37.8827 57.0843L41.6622 59.8698C41.76 59.9425 41.7806 60.0773 41.7085 60.1759C41.6674 60.2329 41.6004 60.2641 41.5335 60.2641Z" fill="black"/>
<path id="Vector_32" d="M84.4467 52.8728C84.3849 52.8728 84.3231 52.8469 84.2819 52.795C84.2046 52.7016 84.2201 52.5668 84.3128 52.489L90.2601 47.5508C90.3528 47.473 90.4867 47.4886 90.5639 47.5819C90.6411 47.6753 90.6257 47.8102 90.533 47.888L84.5857 52.8261C84.5445 52.8572 84.4981 52.878 84.4467 52.878V52.8728Z" fill="black"/>
<path id="Vector_33" d="M78.3242 56.7315C78.2624 56.7315 78.2058 56.7055 78.1595 56.6589C78.0822 56.5655 78.0925 56.4306 78.1801 56.3528L81.3005 53.6296C81.3931 53.5518 81.527 53.5621 81.6043 53.6503C81.6815 53.7437 81.6712 53.8785 81.5837 53.9564L78.4633 56.6796C78.4221 56.7159 78.3706 56.7315 78.3242 56.7315Z" fill="black"/>
<path id="Vector_34" d="M58.2168 98.9344C58.0983 98.9344 58.0005 98.8358 58.0005 98.7165V76.9513C58.0005 76.832 58.0983 76.7334 58.2168 76.7334C58.3352 76.7334 58.433 76.832 58.433 76.9513V98.7165C58.433 98.8358 58.3352 98.9344 58.2168 98.9344Z" fill="black"/>
<path id="Vector_35" d="M57.3415 23.1398C50.802 23.4095 50.3489 30.2202 50.3489 30.2202L51.0389 35.231C51.0389 35.231 49.3396 41.8965 52.3004 41.9795C57.084 42.1144 52.2592 29.7015 52.2592 29.7015C55.6628 29.7015 56.9398 27.5489 57.3672 26.4699C57.4445 26.2676 57.7174 26.2521 57.8204 26.4388C58.4074 27.5281 60.0499 29.8156 63.4793 29.8156C63.0262 25.5518 60.5391 23.0049 57.3415 23.1346V23.1398Z" fill="black"/>
<path id="Vector_36" d="M23.8562 73.8749C23.8974 72.2876 22.5432 71.6392 22.5432 71.6392C22.5432 71.6392 23.3928 71.3021 23.5576 69.9534C23.7223 68.6047 21.9304 66.8307 21.9304 66.8307C21.9304 66.8307 23.6708 66.4365 23.779 64.2683C23.8459 62.9663 23.1765 61.8407 22.6307 61.1456C23.1971 61.0626 24.0004 60.7047 24.3505 59.382C24.9221 57.2345 22.8264 54.6824 20.7101 53.7176C18.5989 52.7528 17.1623 52.924 17.1623 52.924L16.8688 51.7725C16.8688 51.7725 15.4373 54.2623 15.7668 56.472C15.9522 57.7221 16.7091 58.6714 17.3322 59.2627C16.8842 59.6414 15.8801 60.6062 15.7205 61.8459C15.5145 63.4539 16.9666 65.0671 16.9666 65.0671C16.9666 65.0671 15.6999 65.2383 15.4424 67.3495C15.1798 69.4917 16.9975 70.3217 16.9975 70.3217C16.9975 70.3217 16.4002 71.3021 16.4208 72.381C16.4568 74.2328 17.6617 75.4466 20.087 75.9861C22.4196 76.5048 23.815 75.3221 23.8511 73.8749H23.8562Z" fill="white"/>
<path id="Vector_37" d="M92.6647 73.5069C92.6235 71.9196 93.8284 71.6395 93.8284 71.6395C93.8284 71.6395 92.4433 70.8874 92.7574 68.8229C93.0149 67.1371 94.4412 66.831 94.4412 66.831C94.4412 66.831 92.4845 66.4368 92.5926 64.2686C92.7059 62.0641 94.4309 61.4727 94.4309 61.4727C93.8645 61.3897 92.536 60.7517 92.4485 59.1022C92.3249 56.8821 93.5144 55.6424 95.6255 54.6776C97.7367 53.7128 98.9158 54.0603 98.9158 54.0603L99.4977 51.7676C99.4977 51.7676 100.955 54.2574 100.955 56.4931C100.955 57.9351 100.157 58.8843 99.5338 59.4705C99.9817 59.8491 100.955 60.6739 101.042 62.5983C101.115 64.2219 99.5543 65.8196 99.5543 65.8196C99.5543 65.8196 101.068 66.1723 101.042 68.6154C101.022 70.7733 99.4977 71.0586 99.4977 71.0586C99.4977 71.0586 100.399 71.8159 100.069 73.1853C99.6367 74.9852 98.7665 76.0382 96.2846 75.9812C94.0087 75.9241 92.7008 74.9437 92.6647 73.5017V73.5069Z" fill="white"/>
<path id="Vector_38" d="M96.4907 76.2092C96.4238 76.2092 96.3517 76.2092 96.2796 76.2092C93.9573 76.1521 92.4898 75.1199 92.4486 73.517C92.4177 72.3707 92.9944 71.8312 93.4012 71.5978C92.9738 71.2191 92.3044 70.3529 92.5465 68.7967C92.7164 67.6711 93.3652 67.1109 93.844 66.8464C93.221 66.5403 92.2993 65.8193 92.3765 64.2684C92.4538 62.6967 93.3034 61.8927 93.8646 61.5347C93.2055 61.2391 92.3096 60.5336 92.2324 59.1279C92.1139 56.9908 93.1026 55.6058 95.5381 54.4958C97.2013 53.7385 98.3135 53.7644 98.7615 53.8215L99.2919 51.7259C99.3125 51.6429 99.3846 51.5754 99.4721 51.5651C99.5545 51.5547 99.642 51.5962 99.6884 51.6688C99.7502 51.7725 101.176 54.2364 101.176 56.5032C101.176 57.9141 100.471 58.8582 99.8583 59.4703C100.358 59.9112 101.182 60.8085 101.259 62.5981C101.321 63.9364 100.363 65.2228 99.9201 65.7415C100.409 65.9957 101.279 66.7167 101.259 68.6256C101.243 70.2855 100.373 70.9287 99.8789 71.1621C100.152 71.52 100.528 72.2254 100.281 73.2473C99.7759 75.3429 98.6688 76.2092 96.4907 76.2092ZM98.3238 54.2261C97.8038 54.2261 96.913 54.335 95.7132 54.8848C93.4682 55.9067 92.5516 57.1672 92.6597 59.0968C92.7473 60.6633 94.0191 61.1976 94.4568 61.265C94.5546 61.2806 94.6319 61.3584 94.6422 61.4621C94.6525 61.5607 94.5907 61.654 94.498 61.6904C94.4362 61.7111 92.9069 62.2713 92.8039 64.2891C92.7061 66.2447 94.4053 66.6078 94.4826 66.6233C94.5855 66.6441 94.6576 66.7323 94.6576 66.836C94.6576 66.9397 94.5855 67.0279 94.4877 67.0487C94.4362 67.059 93.2055 67.3547 92.9738 68.8642C92.6855 70.7575 93.9213 71.4474 93.9316 71.4526C94.0088 71.4941 94.0552 71.5822 94.0449 71.6756C94.0346 71.7638 93.9676 71.8364 93.8801 71.8572C93.8389 71.8675 92.8503 72.1269 92.8863 73.5067C92.9223 74.8761 94.1942 75.7216 96.2951 75.7735C98.7255 75.8305 99.4618 74.8138 99.8686 73.1436C100.162 71.9194 99.3794 71.2399 99.3691 71.2347C99.3073 71.1828 99.2764 71.0946 99.297 71.0117C99.3176 70.9287 99.3846 70.8664 99.467 70.8508C99.5185 70.8405 100.811 70.5604 100.832 68.6204C100.857 66.4003 99.5648 66.0527 99.5082 66.0372C99.4309 66.0164 99.3743 65.9594 99.3537 65.8868C99.3331 65.8089 99.3537 65.7311 99.4052 65.6741C99.4206 65.6585 100.898 64.1231 100.832 62.6137C100.749 60.7722 99.8377 60.0097 99.4 59.6414C99.3537 59.5999 99.3228 59.5429 99.3228 59.4806C99.3228 59.4184 99.3434 59.3561 99.3897 59.3146C99.9716 58.7648 100.744 57.8674 100.744 56.4928C100.744 54.9159 99.9819 53.1834 99.5699 52.3639L99.1271 54.1171C99.1117 54.1742 99.0756 54.2209 99.0241 54.252C98.9726 54.2831 98.9109 54.2883 98.8594 54.2727C98.8594 54.2727 98.674 54.2261 98.329 54.2261H98.3238Z" fill="black"/>
<path id="Vector_39" d="M21.1579 76.3288C20.8026 76.3288 20.4319 76.2873 20.0457 76.1991C17.5381 75.6441 16.2456 74.3577 16.2096 72.3866C16.1941 71.5359 16.5288 70.7578 16.709 70.4051C16.2147 70.099 15.0098 69.1498 15.2312 67.3187C15.4217 65.7366 16.1632 65.1609 16.6061 64.9586C16.1993 64.4295 15.3445 63.1379 15.5144 61.8152C15.6638 60.6429 16.5185 59.7092 17.0231 59.2475C16.4258 58.6354 15.7461 57.7018 15.5659 56.4983C15.2261 54.2367 16.6369 51.7625 16.6936 51.6587C16.7348 51.5809 16.8223 51.5394 16.9099 51.555C16.9974 51.5654 17.0695 51.6328 17.0901 51.7158L17.3372 52.6962C17.8007 52.6806 19.0828 52.7377 20.8078 53.5209C23.058 54.5428 25.1537 57.2297 24.5667 59.4395C24.2475 60.6532 23.5523 61.1097 23.0116 61.2861C23.5369 62.0278 24.0672 63.0808 24.0054 64.2842C23.9179 65.9804 22.8726 66.6755 22.3217 66.9245C22.8211 67.4743 23.9231 68.8386 23.784 69.9849C23.6707 70.9082 23.2588 71.401 22.9602 71.6448C23.3927 71.956 24.1136 72.6667 24.0775 73.8908C24.0569 74.617 23.7377 75.2602 23.1661 75.7115C22.6409 76.1265 21.9509 76.3392 21.1631 76.3392L21.1579 76.3288ZM16.812 52.3849C16.4258 53.2097 15.7616 54.9111 15.9882 56.4413C16.1684 57.6343 16.8996 58.5473 17.4866 59.1023C17.5329 59.1438 17.5535 59.206 17.5535 59.2683C17.5535 59.3305 17.5226 59.3876 17.4763 59.4291C17.0643 59.7766 16.0911 60.7051 15.9367 61.8774C15.7461 63.3661 17.1107 64.9067 17.1261 64.9223C17.1776 64.9845 17.1982 65.0675 17.1673 65.1453C17.1416 65.2231 17.0746 65.275 16.9922 65.2854C16.9511 65.2906 15.8852 65.4773 15.6535 67.381C15.4166 69.3365 17.018 70.099 17.0849 70.1302C17.1416 70.1561 17.1828 70.2028 17.2034 70.265C17.224 70.3221 17.2137 70.3895 17.1828 70.4414C17.1776 70.4518 16.6164 71.3855 16.637 72.3866C16.673 74.1554 17.8161 75.2654 20.1384 75.7841C21.2609 76.0331 22.2393 75.8879 22.8984 75.3692C23.3669 75.0009 23.6295 74.4718 23.645 73.8805C23.681 72.4592 22.507 71.8678 22.4555 71.8471C22.3783 71.8108 22.332 71.7278 22.332 71.6448C22.332 71.5566 22.3886 71.484 22.471 71.4529C22.4967 71.4425 23.2073 71.1365 23.3515 69.9434C23.5008 68.7141 21.8016 67.0231 21.7861 67.0023C21.7295 66.9453 21.7089 66.8623 21.7295 66.7896C21.7501 66.7118 21.8119 66.6548 21.8891 66.6392C21.9509 66.6237 23.4699 66.245 23.5729 64.2791C23.6347 63.0549 23.0065 61.9863 22.471 61.3016C22.4246 61.2394 22.4092 61.1564 22.4401 61.0838C22.471 61.0112 22.5328 60.9593 22.61 60.9489C23.1404 60.8711 23.8355 60.5339 24.1496 59.3461C24.68 57.3439 22.7233 54.8903 20.6327 53.9359C18.6091 53.0126 17.2137 53.1578 17.1982 53.1578C17.0952 53.1682 16.9922 53.1008 16.9665 52.997L16.8172 52.4005L16.812 52.3849Z" fill="black"/>
<path id="Vector_40" d="M22.5483 61.499C22.5483 61.499 22.5123 61.499 22.4917 61.4886C20.3908 60.8972 17.2807 59.4708 17.2498 59.4604C17.1417 59.4085 17.0953 59.284 17.1417 59.1699C17.1932 59.061 17.3167 59.0143 17.43 59.061C17.4609 59.0766 20.5401 60.4875 22.6101 61.0684C22.7234 61.0995 22.7903 61.2188 22.7594 61.3382C22.7337 61.4367 22.6462 61.499 22.5535 61.499H22.5483Z" fill="black"/>
<path id="Vector_41" d="M21.9354 67.0495C20.4319 66.9976 17.018 65.3325 16.8738 65.2651C16.7656 65.2132 16.7245 65.0835 16.7759 64.9746C16.8274 64.8657 16.9562 64.819 17.0643 64.876C17.1003 64.8916 20.5349 66.5722 21.9457 66.6189C22.0642 66.6189 22.1568 66.7227 22.1568 66.842C22.1568 66.9613 22.059 67.0546 21.9406 67.0546L21.9354 67.0495Z" fill="black"/>
<path id="Vector_42" d="M21.8584 71.8784C18.7535 71.8784 16.9512 70.5556 16.874 70.4986C16.7762 70.426 16.7607 70.2911 16.8277 70.1926C16.8997 70.094 17.0336 70.0732 17.1315 70.1459C17.1521 70.1614 19.1654 71.6346 22.5381 71.4219C22.6565 71.4115 22.7595 71.5049 22.7647 71.6242C22.7698 71.7435 22.6823 71.8472 22.5639 71.8524C22.3218 71.868 22.0901 71.8732 21.8584 71.8732V71.8784Z" fill="black"/>
<path id="Vector_43" d="M93.8286 71.8573C93.7101 71.8573 93.6123 71.7639 93.6123 71.6446C93.6123 71.5253 93.705 71.4268 93.8234 71.4268C93.8595 71.4268 97.536 71.3749 99.4412 70.8562C99.5545 70.8251 99.6729 70.8925 99.7038 71.0118C99.7347 71.1259 99.6677 71.2452 99.5493 71.2764C97.5926 71.8054 93.9779 71.8573 93.8234 71.8573H93.8286Z" fill="black"/>
<path id="Vector_44" d="M94.4412 67.0494C94.3331 67.0494 94.2352 66.9664 94.2249 66.8522C94.2146 66.7329 94.3022 66.624 94.4206 66.6136C94.4515 66.6136 97.7264 66.2765 99.4823 65.6229C99.5955 65.5814 99.7191 65.6385 99.7603 65.7526C99.8015 65.8667 99.7449 65.9912 99.6316 66.0327C97.8242 66.707 94.6008 67.039 94.4618 67.0494C94.4567 67.0494 94.4464 67.0494 94.4412 67.0494Z" fill="black"/>
<path id="Vector_45" d="M94.4309 61.6963C94.3382 61.6963 94.2507 61.6341 94.2249 61.5407C94.194 61.4266 94.2558 61.3073 94.3743 61.271C94.4155 61.2606 98.3237 60.1142 99.4153 59.305C99.5132 59.2324 99.647 59.2532 99.7191 59.3517C99.7912 59.4503 99.7706 59.5851 99.6728 59.6578C98.5245 60.5085 94.6626 61.6444 94.4978 61.6911C94.4773 61.6963 94.4566 61.7015 94.4361 61.7015L94.4309 61.6963Z" fill="black"/>
<path id="Vector_46" d="M40.0632 0.781191L28.8543 6.66919C27.8104 7.21756 27.4054 8.51462 27.9498 9.56625L34.9446 23.0792C35.489 24.1309 36.7765 24.5388 37.8205 23.9904L49.0293 18.1025C50.0733 17.5541 50.4783 16.257 49.9339 15.2054L42.939 1.69241C42.3947 0.64078 41.1071 0.232813 40.0632 0.781191Z" fill="white"/>
<path id="Vector_47" d="M36.4458 24.7738C35.9309 24.7738 35.4263 24.4885 35.174 23.9958L27.3318 8.84929C26.9662 8.14384 27.2391 7.2724 27.9394 6.90412L40.7712 0.166015C41.111 -0.0103477 41.4972 -0.0466577 41.8628 0.0674594C42.2284 0.181577 42.527 0.435747 42.7021 0.778098L50.5443 15.9246C50.7194 16.2669 50.7554 16.6559 50.6422 17.0242C50.5289 17.3925 50.2766 17.6934 49.9367 17.8697L37.1049 24.6078C36.8938 24.7168 36.6673 24.7686 36.4458 24.7686V24.7738ZM41.4354 0.435747C41.2758 0.435747 41.1213 0.472057 40.972 0.549864L28.1402 7.28796C27.651 7.54732 27.4605 8.15422 27.7128 8.647L35.555 23.7935C35.8073 24.2862 36.4149 24.4782 36.9041 24.2188L49.7359 17.4807C49.9728 17.3562 50.1478 17.1487 50.2302 16.8894C50.3126 16.63 50.2869 16.3603 50.1633 16.1217L42.3211 0.980397C42.1975 0.741788 41.9915 0.565425 41.7341 0.482431C41.6362 0.451308 41.5332 0.435747 41.4303 0.435747H41.4354Z" fill="black"/>
<path id="Vector_48" d="M35.1587 16.3917C35.9311 15.9871 36.8785 16.288 37.2802 17.0661C37.6818 17.8441 37.3831 18.7986 36.6108 19.2032C35.8384 19.6078 34.8909 19.3069 34.4893 18.5288C34.0877 17.7508 34.3863 16.7963 35.1587 16.3917Z" fill="#02AFED"/>
<path id="Vector_49" d="M32.0588 10.4054C32.8312 10.0008 33.7787 10.3017 34.1803 11.0797C34.5819 11.8578 34.2833 12.8123 33.5109 13.2169C32.7385 13.6214 31.7911 13.3206 31.3895 12.5425C30.9878 11.7645 31.2865 10.81 32.0588 10.4054Z" fill="#02AFED"/>
<path id="Vector_50" d="M38.9999 16.3815C38.9226 16.3815 38.8454 16.34 38.8093 16.2622C38.7527 16.1532 38.7939 16.0235 38.902 15.9665L43.3921 13.6115C43.5002 13.5545 43.629 13.596 43.6856 13.7049C43.7423 13.8138 43.7011 13.9435 43.5929 14.0006L39.1028 16.3555C39.0719 16.3711 39.0359 16.3815 39.005 16.3815H38.9999Z" fill="black"/>
<path id="Vector_51" d="M35.9054 10.3951C35.8281 10.3951 35.7509 10.3536 35.7149 10.2758C35.6582 10.1669 35.6994 10.0372 35.8075 9.98016L40.2976 7.6252C40.4058 7.56814 40.5345 7.60964 40.5911 7.71857C40.6478 7.8275 40.6066 7.95717 40.4985 8.01423L36.0084 10.3692C35.9775 10.3848 35.9414 10.3951 35.9105 10.3951H35.9054Z" fill="black"/>
<path id="Vector_52" d="M21.1281 27.3778L4.22925 23.3379L0.218946 40.3613L17.1178 44.4012L21.1281 27.3778Z" fill="white"/>
<path id="Vector_53" d="M19.0726 31.4288C18.7585 32.7567 17.4403 33.5763 16.1221 33.2599C14.8039 32.9435 13.9904 31.6155 14.3045 30.2876C14.6186 28.9597 15.9368 28.1402 17.2549 28.4566C18.5731 28.773 19.3867 30.1009 19.0726 31.4288Z" fill="#02AFED"/>
<path id="Vector_54" d="M18.8564 36.9895C18.2333 36.4967 17.4249 36.3048 16.6319 36.2892C15.5094 36.2685 14.4023 36.7716 13.2901 36.6316C12.0646 36.4812 11.3643 35.3711 10.8339 34.3648C10.2778 33.3118 9.74231 32.3159 8.76911 31.5949C7.95554 30.9932 6.98234 30.6197 5.97825 30.5471C4.58282 30.4433 3.21829 30.9724 2.20904 31.9009L0.216309 40.356L17.1108 44.3967L18.8564 36.9895Z" fill="#FF636B"/>
<path id="Vector_55" d="M17.1108 44.6147C17.1108 44.6147 17.0799 44.6147 17.0593 44.6095L0.16486 40.5687C0.0464289 40.5428 -0.0205105 40.4235 0.00523541 40.3094L4.01645 23.2903C4.0422 23.171 4.16063 23.1036 4.27391 23.1295L21.1684 27.1703C21.2868 27.1963 21.3538 27.3156 21.328 27.4297L17.3168 44.4487C17.2911 44.5473 17.2035 44.6147 17.1057 44.6147H17.1108ZM0.473812 40.1952L16.9512 44.1323L20.8594 27.5334L4.38205 23.5964L0.473812 40.1952Z" fill="black"/>
<path id="Vector_56" d="M86.8258 18.8529L82.3914 11.7784C81.5411 10.4219 79.7602 10.0166 78.4136 10.8732L71.3909 15.3403C70.0443 16.1969 69.642 17.9909 70.4923 19.3473L74.9267 26.4219C75.777 27.7784 77.5579 28.1836 78.9045 27.3271L85.9272 22.86C87.2738 22.0034 87.6761 20.2094 86.8258 18.8529Z" fill="black"/>
<path id="Vector_57" d="M76.2852 8.84953L76.6508 4.88137C76.7126 4.19667 75.9711 3.7402 75.3944 4.10848L71.0073 6.89917L66.6202 9.68985C66.0435 10.0581 66.1362 10.9296 66.7747 11.163L70.4873 12.5376L76.2852 8.84953Z" fill="#FF636B"/>
<path id="Vector_58" d="M78.6538 22.1599C77.9278 22.1599 77.2275 21.9005 76.6714 21.4129C76.0586 20.8787 75.6879 20.1369 75.6312 19.3225C75.5746 18.5081 75.832 17.7197 76.3624 17.1024C76.8928 16.4852 77.6291 16.1117 78.4375 16.0546C79.246 15.9976 80.0286 16.2569 80.6414 16.7912C81.9081 17.8961 82.0471 19.8257 80.9503 21.1017C80.42 21.719 79.6836 22.0925 78.8752 22.1495C78.798 22.1547 78.7259 22.1599 78.6538 22.1599ZM78.6589 16.48C78.5972 16.48 78.5302 16.48 78.4684 16.4852C77.7733 16.537 77.1451 16.8534 76.6868 17.3825C76.2337 17.9116 76.0071 18.5859 76.0586 19.2862C76.1101 19.9865 76.4242 20.6193 76.9494 21.081C77.4746 21.5374 78.144 21.7605 78.8392 21.7138C79.5343 21.6619 80.1625 21.3455 80.6208 20.8164C81.5579 19.7219 81.4395 18.062 80.353 17.118C79.8742 16.703 79.2768 16.48 78.6538 16.48H78.6589Z" fill="white"/>
<path id="Vector_59" d="M96.815 4.72559L110.023 9.04129L106.949 18.6427L97.953 23.2644L91.5371 21.1221L96.815 4.72559Z" fill="white"/>
<path id="Vector_60" d="M96.815 4.72559L110.023 9.04129L106.949 18.6427L97.953 23.2644L91.5371 21.1221L96.815 4.72559Z" fill="white"/>
<path id="Vector_61" d="M97.9529 23.482C97.9529 23.482 97.9066 23.482 97.886 23.4717L91.465 21.3242C91.3517 21.2879 91.2899 21.1634 91.3259 21.0493L96.609 4.65271C96.6245 4.59565 96.6657 4.55416 96.7171 4.52822C96.7686 4.50229 96.8253 4.4971 96.8819 4.51266L110.09 8.82836C110.203 8.86467 110.265 8.98916 110.229 9.10328L107.155 18.7047C107.139 18.7617 107.098 18.8032 107.046 18.8292L98.0508 23.4509C98.0199 23.4665 97.989 23.4769 97.9529 23.4769V23.482ZM91.8048 20.9818L97.9375 23.0308L106.774 18.492L109.755 9.18109L96.9592 4.99506L91.81 20.9767L91.8048 20.9818Z" fill="black"/>
<path id="Vector_62" d="M97.9531 23.4826C97.9016 23.4826 97.8553 23.4671 97.8141 23.4307C97.7471 23.3737 97.7214 23.2803 97.7471 23.1973L99.951 16.3555C99.987 16.2414 100.111 16.1791 100.224 16.2154L107.016 18.4355C107.098 18.4615 107.155 18.5393 107.165 18.6274C107.17 18.7156 107.124 18.7986 107.047 18.8401L98.0509 23.4619C98.02 23.4774 97.984 23.4878 97.9531 23.4878V23.4826ZM100.296 16.6978L98.3187 22.8342L106.387 18.6897L100.296 16.6978Z" fill="black"/>
<path id="Vector_63" d="M60.0601 35.0855C58.675 35.0855 57.5525 33.9495 57.5525 32.5593C57.5525 31.1692 58.6802 30.0332 60.0601 30.0332C61.4401 30.0332 62.5678 31.1692 62.5678 32.5593C62.5678 33.9495 61.4401 35.0855 60.0601 35.0855ZM60.0601 30.4637C58.917 30.4637 57.9799 31.4026 57.9799 32.5593C57.9799 33.7161 58.9119 34.6549 60.0601 34.6549C61.2084 34.6549 62.1404 33.7161 62.1404 32.5593C62.1404 31.4026 61.2084 30.4637 60.0601 30.4637Z" fill="#FF636B"/>
<path id="Vector_64" d="M54.8285 35.0855C53.4433 35.0855 52.3208 33.9495 52.3208 32.5593C52.3208 31.1692 53.4485 30.0332 54.8285 30.0332C56.2084 30.0332 57.3361 31.1692 57.3361 32.5593C57.3361 33.9495 56.2084 35.0855 54.8285 35.0855ZM54.8285 30.4637C53.6802 30.4637 52.7482 31.4026 52.7482 32.5593C52.7482 33.7161 53.6802 34.6549 54.8285 34.6549C55.9767 34.6549 56.9036 33.7161 56.9036 32.5593C56.9036 31.4026 55.9716 30.4637 54.8285 30.4637Z" fill="#FF636B"/>
<path id="Vector_65" d="M60.0601 30.464H54.8286C54.7101 30.464 54.6123 30.3655 54.6123 30.2462C54.6123 30.1269 54.7101 30.0283 54.8286 30.0283H60.0601C60.1786 30.0283 60.2764 30.1269 60.2764 30.2462C60.2764 30.3655 60.1786 30.464 60.0601 30.464Z" fill="#FF636B"/>
<path id="Vector_66" d="M57.6452 34.2452C57.5371 34.2452 57.4392 34.1622 57.4289 34.0481L57.1715 31.1847C57.1612 31.0654 57.2487 30.9617 57.3671 30.9461C57.4804 30.9358 57.5937 31.0239 57.604 31.1433L57.8615 34.0066C57.8718 34.1259 57.7842 34.2296 57.6658 34.2452C57.6606 34.2452 57.6504 34.2452 57.6452 34.2452Z" fill="black"/>
<path id="Vector_67" d="M57.4701 24.613C60.5442 24.613 63.0364 22.1026 63.0364 19.0057C63.0364 15.9089 60.5442 13.3984 57.4701 13.3984C54.3959 13.3984 51.9038 15.9089 51.9038 19.0057C51.9038 22.1026 54.3959 24.613 57.4701 24.613Z" fill="black"/>
<path id="Vector_68" d="M58.2166 23.8242C55.0293 23.8242 52.4341 21.2098 52.4341 17.999C52.4341 14.7881 55.0293 12.1738 58.2166 12.1738C61.404 12.1738 63.9992 14.7881 63.9992 17.999C63.9992 21.2098 61.404 23.8242 58.2166 23.8242ZM58.2166 12.6044C55.2661 12.6044 52.8666 15.0216 52.8666 17.9938C52.8666 20.966 55.2661 23.3832 58.2166 23.3832C61.1671 23.3832 63.5666 20.966 63.5666 17.9938C63.5666 15.0216 61.1671 12.6044 58.2166 12.6044Z" fill="black"/>
<path id="Vector_69" d="M60.5905 23.7521H53.9943C53.8759 23.7521 53.7781 23.6536 53.7781 23.5343C53.7781 23.415 53.8759 23.3164 53.9943 23.3164H60.5905C60.7089 23.3164 60.8067 23.415 60.8067 23.5343C60.8067 23.6536 60.7089 23.7521 60.5905 23.7521Z" fill="#FF636B"/>
<path id="Vector_70" d="M57.4907 35.3762C56.9758 35.3762 56.6051 35.0235 56.4609 34.79C56.3991 34.6863 56.43 34.5514 56.5278 34.4892C56.6308 34.4269 56.7595 34.4581 56.8265 34.5566C56.8419 34.5826 57.1715 35.0909 57.7482 34.8938C57.8615 34.8575 57.985 34.9145 58.0211 35.0287C58.0571 35.1428 58.0005 35.2673 57.8872 35.3036C57.7482 35.3503 57.6091 35.371 57.4856 35.371L57.4907 35.3762Z" fill="black"/>
<path id="Vector_71" d="M84.6423 36.0354C84.5857 36.0354 84.5342 36.0146 84.4878 35.9731L81.491 32.9542C81.4086 32.8712 81.4086 32.7312 81.491 32.6482C81.5734 32.5652 81.7124 32.5652 81.7948 32.6482L84.7916 35.6671C84.874 35.7501 84.874 35.8901 84.7916 35.9731C84.7504 36.0146 84.6938 36.0354 84.6371 36.0354H84.6423Z" fill="black"/>
<path id="Vector_72" d="M81.6455 36.0354C81.5888 36.0354 81.5373 36.0146 81.491 35.9731C81.4086 35.8901 81.4086 35.7501 81.491 35.6671L84.4878 32.6482C84.5702 32.5652 84.7092 32.5652 84.7916 32.6482C84.874 32.7312 84.874 32.8712 84.7916 32.9542L81.7948 35.9731C81.7536 36.0146 81.697 36.0354 81.6403 36.0354H81.6455Z" fill="black"/>
<path id="Vector_73" d="M33.9022 36.7925C32.3008 36.7925 30.998 35.4802 30.998 33.867C30.998 32.2538 32.3008 30.9414 33.9022 30.9414C35.5036 30.9414 36.8063 32.2538 36.8063 33.867C36.8063 35.4802 35.5036 36.7925 33.9022 36.7925ZM33.9022 31.3771C32.5377 31.3771 31.4306 32.4924 31.4306 33.867C31.4306 35.2415 32.5377 36.3568 33.9022 36.3568C35.2667 36.3568 36.3738 35.2415 36.3738 33.867C36.3738 32.4924 35.2667 31.3771 33.9022 31.3771Z" fill="black"/>
</g>
<defs>
<clipPath id="clip0_2304_1959">
<rect width="112" height="102" fill="white"/>
</clipPath>
</defs>
</svg>
