<svg width="99" height="94" viewBox="0 0 99 94" fill="none" xmlns="http://www.w3.org/2000/svg">
<g id="AZroXM">
<path id="Vector" d="M87.2689 35.3339C88.7258 34.3788 90.1333 34.1268 91.4677 35.3673C92.0524 35.9131 92.4228 36.6206 92.2983 37.4337C92.1868 38.1713 91.9167 38.883 91.7023 39.6658C92.3128 39.8105 93.0111 39.981 93.7137 40.1365C95.0268 40.4301 96.3506 40.6871 97.6552 41.0131C98.4992 41.2247 98.681 42.2039 98.0168 42.8939C97.1618 43.7823 96.279 44.6448 95.409 45.5202C92.8528 48.0948 90.2665 50.6413 87.7594 53.2634C87.0073 54.0504 86.2618 54.1128 85.3193 53.8667C84.1733 53.5666 83.008 53.3398 81.8491 53.0786C81.1058 52.9102 80.356 52.7634 79.6213 52.5648C78.863 52.3597 78.0382 52.6744 77.7852 53.3925C77.7209 53.578 77.9051 53.8821 78.0293 54.1C78.7423 55.3382 79.5389 56.531 80.177 57.8058C81.0164 59.4819 81.5193 61.2829 81.8981 63.1292C82.3517 65.3357 82.4133 67.5615 82.205 69.77C81.8549 73.4537 80.6758 76.8913 78.6078 79.9728C77.9221 80.9928 77.1335 81.9481 76.3428 82.8904C76.0471 83.244 75.9849 83.5524 76.1369 83.9558C77.1795 86.7448 78.2178 89.5359 79.2604 92.3249C79.5515 93.1035 79.1122 93.8 78.2853 93.802C75.9846 93.8122 73.6838 93.7987 71.3831 93.8025C70.8946 93.8024 70.5669 93.5823 70.3957 93.138C69.8647 91.7575 69.3209 90.3792 68.8286 88.9836C68.668 88.5264 68.4088 88.5479 68.0896 88.6837C64.7024 90.1106 61.1526 90.5196 57.5302 90.2491C55.403 90.089 53.3294 89.5666 51.3352 88.7767C50.5619 88.4702 50.5148 88.4832 50.2318 89.2552C49.7645 90.5276 49.2801 91.7957 48.8063 93.0659C48.622 93.5576 48.292 93.8012 47.7543 93.8011C45.5071 93.7941 43.2578 93.7655 41.0128 93.8189C40.0916 93.8403 39.6141 93.0421 39.9506 92.1795C41.0245 89.4212 42.0342 86.6392 43.0674 83.8659C43.1939 83.523 43.1575 83.2361 42.8962 82.9319C42.2323 82.1618 41.5813 81.3744 40.986 80.5482C40.6883 80.1362 40.3756 79.9852 39.8786 79.9851C31.3354 79.9959 22.7922 79.9896 14.2468 79.9875C12.8737 79.9872 11.4984 79.9372 10.1273 79.9973C8.06864 80.0874 6.6702 78.2926 6.77559 76.5651C6.8143 75.9396 6.76518 75.3077 6.78889 74.68C6.80398 74.2897 6.67335 74.1344 6.27061 74.1429C5.3623 74.1642 4.45186 74.1489 3.54141 74.1487C1.43132 74.1482 0.013506 72.7373 0.0140158 70.6215C0.0165983 51.0099 0.0256065 31.4027 0.0196197 11.7933C0.0197559 11.2282 0.225514 10.7947 0.57051 10.3872C2.6512 7.93111 4.72975 5.47289 6.8083 3.01466C7.48972 2.20819 8.17757 1.40819 8.844 0.590935C9.16114 0.200635 9.51894 0.0152382 10.0352 0.0153625C25.1786 0.0297948 40.322 0.044227 55.4654 0.0133669C57.0678 0.00943937 58.8283 1.45706 58.6822 3.2795C58.6629 3.51243 58.6714 3.74752 58.682 3.98045C58.714 4.58005 58.5339 5.41036 58.8509 5.7167C59.1785 6.03383 59.9905 5.85501 60.5903 5.87241C61.1066 5.88763 61.625 5.8554 62.1413 5.88357C63.4394 5.95074 64.4954 6.46862 65.0864 7.68303C65.2834 8.08639 65.3947 8.56307 65.416 9.01384C65.4629 10.0362 65.4433 11.0606 65.4238 12.0829C65.4173 12.4712 65.5372 12.6955 65.9013 12.8746C68.898 14.3527 71.0118 16.6739 71.9236 19.8985C73.1907 24.3849 72.1765 28.3812 68.7995 31.6371C67.9532 32.4521 66.8691 33.0213 65.8706 33.6659C65.5664 33.8621 65.4164 34.0454 65.4163 34.4228C65.4283 37.8715 65.4318 41.3181 65.4138 44.7667C65.4115 45.3146 65.6857 45.4138 66.1334 45.5541C68.4704 46.2858 70.6702 47.3152 72.6643 48.765C73.4653 49.3475 73.9816 49.2376 74.4553 48.3449C74.5517 48.1615 74.5453 47.8833 74.4983 47.6676C74.1259 45.9594 73.73 44.2554 73.3448 42.5493C73.1993 41.9066 72.9767 41.2638 72.9533 40.6146C72.9405 40.2458 73.1763 39.7821 73.4463 39.5061C75.8804 37.0113 78.3446 34.5467 80.8023 32.0757C81.848 31.0234 82.8936 29.9711 83.9414 28.921C84.2757 28.5868 84.6335 28.2505 85.154 28.4339C85.6703 28.6152 85.8758 29.025 85.9871 29.5707C86.3722 31.4558 86.8152 33.3302 87.2646 35.3339L87.2689 35.3339ZM37.3034 71.9008C37.1858 71.1524 37.0103 70.4687 36.9826 69.7785C36.8782 67.199 36.881 64.6346 37.5329 62.094C38.0818 59.9482 38.8535 57.9102 39.9615 56.0017C42.5139 51.6025 46.1329 48.407 50.7756 46.3937C52.4253 45.6781 54.1456 45.1803 55.9194 44.8982C56.5664 44.7948 56.6435 44.7732 56.6437 44.109C56.6466 40.9126 56.6388 37.7163 56.6546 34.5199C56.6547 34.0605 56.4941 33.8297 56.0785 33.6226C52.51 31.8424 50.3899 28.9216 49.7439 25.0047C49.4744 23.372 49.5776 21.6962 50.0707 20.0593C51.0591 16.7856 53.0819 14.4201 56.0942 12.9024C56.5184 12.689 56.662 12.4539 56.66 12.0032C56.6478 9.22093 56.657 6.43654 56.6534 3.65429C56.6537 2.52846 56.2168 2.08405 55.1028 2.08379C40.6214 2.0803 26.1378 2.07681 11.6564 2.07332C10.9173 2.07314 10.8616 2.13136 10.8593 2.86466C10.8588 4.9287 10.8626 6.99489 10.8492 9.05893C10.847 9.44715 10.8383 9.86124 10.7118 10.2192C10.1974 11.6577 9.1582 12.3972 7.6308 12.4012C6.07983 12.4073 4.52671 12.4026 2.97574 12.4043C2.20454 12.4042 2.2024 12.4063 2.20221 13.1806C2.1976 32.3393 2.19298 51.4979 2.18837 70.6566C2.18812 71.6702 2.47725 71.9723 3.49266 71.9747C14.5508 71.9816 25.609 71.9843 36.6672 71.9826C36.8707 71.9827 37.0742 71.9331 37.3077 71.9008L37.3034 71.9008ZM44.3117 67.2935C44.265 65.7406 44.5675 64.0304 45.1527 62.359C46.1645 59.4713 47.8896 57.1057 50.2872 55.2493C52.3505 53.6538 54.6751 52.6579 57.2672 52.2704C59.3967 51.9538 61.4939 52.0535 63.561 52.5911C65.0241 52.971 66.4121 53.5817 67.6844 54.421C68.0292 54.6476 68.2713 54.6325 68.5648 54.3263C69.5569 53.2978 70.5683 52.2843 71.5883 51.2817C71.9247 50.9518 71.8862 50.7792 71.5006 50.5052C68.3007 48.2204 64.7213 47.0118 60.8375 46.711C58.419 46.525 56.0325 46.8479 53.7166 47.5505C50.5544 48.5095 47.7541 50.1285 45.3564 52.4336C41.9881 55.6744 39.9584 59.638 39.1861 64.2383C38.8643 66.1491 38.8532 68.0773 39.1076 70.0249C39.3899 72.1947 39.9121 74.2847 40.867 76.2282C44.4299 83.4845 50.2751 87.4673 58.2526 88.2499C60.7182 88.4921 63.1583 88.1174 65.5235 87.4062C68.0301 86.652 70.3333 85.4641 72.3795 83.7996C77.3611 79.7461 79.9374 74.4626 80.2538 68.0549C80.3571 65.9866 80.0191 63.9591 79.4862 61.9575C78.8613 59.6151 77.8271 57.4796 76.4565 55.4929C76.1738 55.0809 75.9896 55.1283 75.6811 55.4452C74.7361 56.422 73.7911 57.3988 72.8012 58.3282C72.3748 58.7292 72.3533 59.0333 72.6617 59.5144C73.9165 61.4752 74.6122 63.6558 74.8216 65.9572C75.0396 68.3491 74.7884 70.7129 73.8774 72.9708C71.5881 78.6426 67.3821 81.9048 61.4201 82.7876C59.0122 83.1429 56.5894 82.8317 54.2738 81.962C48.4925 79.7887 44.2223 74.1089 44.3139 67.2935L44.3117 67.2935ZM70.7206 60.3852C69.4221 61.7135 68.205 62.9447 67.0158 64.2018C66.9129 64.3097 66.9279 64.603 66.9857 64.7777C67.5315 66.4191 67.5847 68.0453 67.1109 69.7362C65.9681 73.8143 61.4538 76.313 57.3132 75.0416C53.269 73.7983 50.7744 69.2836 52.11 65.1472C53.5249 60.7628 58.0627 58.4928 62.3532 60.0619C62.5267 60.1244 62.848 60.0404 62.9852 59.9046C64.0887 58.8351 65.16 57.7332 66.2528 56.6508C66.5442 56.3618 66.5507 56.1807 66.1716 55.9627C63.0744 54.187 59.7797 53.7311 56.3391 54.5908C54.0039 55.1747 51.9707 56.3583 50.2565 58.0876C48.3002 60.0628 47.0914 62.435 46.5744 65.1545C46.1905 67.1732 46.3464 69.1747 46.9158 71.1548C47.8233 74.3168 49.65 76.7932 52.3681 78.5883C54.9833 80.3144 57.8494 81.0182 60.9857 80.676C62.6567 80.4952 64.2378 80.0664 65.6925 79.258C69.8276 76.9642 72.2106 73.4751 72.7087 68.7066C72.9728 66.1724 72.4828 63.7955 71.3994 61.5242C71.2281 61.164 70.9926 60.8361 70.7206 60.3852ZM51.6809 23.2496C51.7375 28.5078 55.8217 32.6606 60.9994 32.664C66.1879 32.6652 70.3341 28.6072 70.3439 23.2929C70.3538 17.9915 66.2781 13.9013 61.0468 13.8763C55.8241 13.8513 51.7571 18.0216 51.6809 23.2496ZM24.4079 77.9389C25.2112 77.9391 26.0124 77.9393 26.8158 77.9395C30.7746 77.9404 34.7313 77.9414 38.6901 77.9423C39.2685 77.9425 39.3221 77.8411 39.1016 77.3191C38.7483 76.48 38.3543 75.6539 38.0932 74.7846C37.9241 74.2217 37.6328 74.1461 37.1336 74.146C27.9863 74.1567 18.8412 74.1502 9.69388 74.148C9.58677 74.148 9.47966 74.1566 9.37255 74.1479C9.01909 74.1177 8.89694 74.2988 8.899 74.6309C8.90528 75.2413 8.89228 75.8517 8.89856 76.4621C8.91329 77.5706 9.28595 77.9352 10.3913 77.9355C15.0635 77.9366 19.7336 77.9377 24.4058 77.9389L24.4079 77.9389ZM59.9653 66.1261C60.188 66.3979 60.3314 66.687 60.5649 66.8208C60.7555 66.9287 61.0747 66.9158 61.2933 66.836C61.5118 66.7563 61.6896 66.5428 61.8654 66.366C71.1156 57.0617 80.3637 47.7575 89.6075 38.4489C89.8196 38.2354 90.0082 37.9961 90.1903 37.7545C90.4603 37.3987 90.259 37.0881 90.0234 36.8443C89.7793 36.5898 89.458 36.4431 89.1109 36.6845C88.9373 36.8053 88.7745 36.9497 88.6245 37.1007C82.6163 43.1425 76.6101 49.1865 70.6019 55.2284C67.2656 58.5857 63.9272 61.9429 60.5953 65.3067C60.3767 65.5267 60.2117 65.8005 59.9653 66.124L59.9653 66.1261ZM60.9089 61.8754C58.2698 61.2816 55.6517 62.4694 54.4557 64.9084C53.3262 67.2116 53.8782 70.1924 55.8979 71.8945C57.9755 73.6442 61.1824 73.6795 63.2736 71.9222C64.8977 70.5573 65.8688 67.6999 65.1087 66.1964C64.9373 66.3301 64.7616 66.44 64.6159 66.5823C64.0931 67.0977 63.5895 67.6303 63.0646 68.1413C62.2739 68.9111 61.2991 69.2128 60.2623 68.9343C58.071 68.3493 57.3561 65.7416 58.8925 64.0618C59.4111 63.4947 59.9724 62.9686 60.5038 62.4145C60.6431 62.27 60.746 62.0932 60.9089 61.8732L60.9089 61.8754ZM76.3795 46.3675C76.6087 46.1735 76.7373 46.0786 76.8487 45.9665C79.6214 43.1806 82.3941 40.399 85.1497 37.598C85.319 37.4255 85.4326 37.087 85.4005 36.8475C85.3107 36.1423 85.1459 35.4477 84.994 34.7532C84.7779 33.7654 84.5489 32.7818 84.3049 31.7055C84.0971 31.8349 83.9343 31.8995 83.8207 32.0138C81.0116 34.8342 78.2024 37.6568 75.4126 40.4966C75.2733 40.6389 75.209 40.943 75.2411 41.15C75.3694 41.9589 75.5363 42.7612 75.7139 43.5614C75.9129 44.4608 76.1376 45.3538 76.3773 46.3654L76.3795 46.3675ZM80.5579 50.6109C82.2802 50.9996 83.8653 51.3623 85.4526 51.7099C85.8275 51.792 86.1767 51.8481 86.5238 51.4945C89.2644 48.7043 92.0285 45.9378 94.7819 43.1584C94.9084 43.029 94.9941 42.8586 95.1527 42.6301C94.5443 42.4876 94.0324 42.3602 93.5182 42.2479C92.3765 41.9975 91.2305 41.7643 90.093 41.503C89.731 41.421 89.4953 41.5374 89.2446 41.7897C86.5191 44.5454 83.7849 47.2903 81.055 50.0417C80.9072 50.1904 80.7786 50.3565 80.5558 50.6131L80.5579 50.6109ZM63.367 39.7539C63.3674 38.2636 63.3699 36.7732 63.3681 35.2829C63.3683 34.6078 63.3319 34.6294 62.6742 34.6529C61.5881 34.6937 60.4998 34.6934 59.4137 34.6565C58.6832 34.6326 58.6725 34.6002 58.6723 35.3551C58.6717 38.1913 58.671 41.0274 58.6703 43.8657C58.6701 44.5753 58.7301 44.6077 59.4327 44.6402C60.551 44.6922 61.6692 44.755 62.7831 44.861C63.2758 44.9086 63.368 44.6821 63.3659 44.2767C63.3599 42.7691 63.3645 41.2615 63.367 39.7517L63.367 39.7539ZM44.7429 91.7493C45.3662 91.7494 45.9918 91.7776 46.6109 91.7346C46.8165 91.7196 47.1229 91.5687 47.1915 91.4026C47.6588 90.2489 48.0661 89.0714 48.512 87.909C48.6149 87.6416 48.5742 87.4971 48.3322 87.3331C47.3169 86.6448 46.3124 85.9393 45.3121 85.2295C44.978 84.9922 44.813 85.0892 44.6823 85.445C43.9791 87.3665 43.2782 89.2902 42.5451 91.2009C42.3714 91.656 42.5364 91.7509 42.9241 91.751C43.5304 91.7512 44.1345 91.7513 44.7407 91.7515L44.7429 91.7493ZM74.4084 91.7564C75.0146 91.7566 75.6187 91.7567 76.225 91.7569C76.5977 91.757 76.8334 91.6621 76.6214 91.2135C76.5144 90.9891 76.4545 90.7433 76.3667 90.5103C75.7437 88.8236 75.1229 87.139 74.4956 85.4544C74.3864 85.161 74.2301 85.0035 73.898 85.2385C72.8824 85.9587 71.8475 86.6529 70.8362 87.3773C70.7162 87.4636 70.5983 87.7159 70.639 87.8345C71.0479 88.9928 71.5018 90.1338 71.915 91.2878C72.0498 91.6653 72.2854 91.7667 72.6453 91.7603C73.2323 91.7475 73.8214 91.7563 74.4084 91.7564ZM58.6806 9.95473C58.6805 10.4745 58.6803 10.9943 58.6802 11.5141C58.6801 11.8527 58.8279 11.9541 59.1835 11.9477C60.4196 11.92 61.66 11.9548 62.896 11.9335C63.0503 11.9314 63.3331 11.746 63.3331 11.6424C63.3376 10.6784 63.3336 9.70998 63.2438 8.75235C63.2032 8.30804 62.8113 8.04698 62.3614 8.03824C61.2753 8.01641 60.1892 8.0334 59.1009 8.02883C58.7732 8.02875 58.6682 8.19695 58.6745 8.50106C58.683 8.98418 58.6764 9.46945 58.6785 9.95257L58.6806 9.95473ZM3.54398 10.1442C3.58252 10.2024 3.62107 10.2607 3.65961 10.3189C3.83099 10.3319 4.00236 10.3535 4.17374 10.3535C5.24057 10.3581 6.30954 10.3584 7.37637 10.3543C8.35536 10.3502 8.81819 9.89527 8.82271 8.91609C8.82947 7.53791 8.82766 6.15757 8.82371 4.77939C8.82375 4.61116 8.78952 4.44293 8.77242 4.27469C8.71673 4.24664 8.6589 4.21859 8.6032 4.19054C6.87824 6.13985 5.21754 8.14741 3.54398 10.142L3.54398 10.1442Z" fill="#005DA5"/>
<path id="Vector_2" d="M43.2847 26.5753C42.9483 26.9549 42.7233 27.2266 42.4769 27.481C42.0205 27.9532 41.3714 28.0156 40.9494 27.6359C40.5339 27.2627 40.5063 26.5747 40.9198 26.0895C41.8712 24.9725 42.8269 23.862 43.7998 22.7666C44.3398 22.1585 44.9567 22.1651 45.4986 22.7778C46.4473 23.8478 47.3832 24.9307 48.3062 26.0223C48.7731 26.5745 48.7515 27.2625 48.2973 27.6506C47.8323 28.0474 47.1982 27.9372 46.7014 27.3763C46.3801 27.0139 46.0546 26.6515 45.637 26.1834C45.5168 26.9447 45.4032 27.5184 45.3366 28.0964C45.0897 30.2423 44.528 32.304 43.6642 34.2773C41.9495 38.1957 39.2645 41.1477 35.2047 42.663C33.4008 43.3354 31.5262 43.5722 29.5961 43.4208C27.801 43.2802 25.9972 43.2301 24.2533 43.7991C21.826 44.5944 19.8612 46.0411 18.3783 48.1414C17.0518 50.0175 16.1409 52.0856 15.729 54.3437C15.388 56.22 15.1904 58.1222 14.92 60.0115C14.8514 60.486 15.0334 60.7556 15.4554 60.9735C16.7213 61.6252 17.3444 62.7426 17.3055 64.125C17.2666 65.583 16.5123 66.672 15.1518 67.2562C12.9087 68.2175 10.2634 66.4591 10.4247 63.8624C10.5065 62.5446 11.1086 61.5785 12.2485 60.9771C12.7048 60.7378 12.8891 60.451 12.9107 59.942C12.9602 58.7968 13.0012 57.645 13.1621 56.5149C13.7887 52.1239 15.1714 48.063 18.4219 44.8739C20.3075 43.026 22.585 41.8835 25.1644 41.4182C26.3855 41.1985 27.6237 41.1557 28.8876 41.2833C33.8253 41.7805 37.7117 39.9245 40.4848 35.7733C41.7384 33.8972 42.5208 31.814 42.937 29.5947C43.0957 28.7536 43.218 27.9061 43.3467 27.0606C43.3639 26.9506 43.3168 26.832 43.2762 26.5689L43.2847 26.5753ZM15.204 64.0598C15.2085 63.305 14.6195 62.6707 13.889 62.6425C13.1799 62.6165 12.4664 63.3151 12.4641 64.0376C12.4639 64.7817 13.0679 65.3728 13.8391 65.3816C14.6274 65.3904 15.1974 64.8384 15.2018 64.0598L15.204 64.0598Z" fill="#005DA5"/>
<path id="Vector_3" d="M16.7464 28.4367C16.3587 28.1994 16.0503 28.0699 15.8168 27.8542C15.2664 27.345 14.7417 26.8057 14.2277 26.2599C13.9749 25.9924 13.7843 25.9794 13.525 26.2533C12.985 26.8226 12.4301 27.381 11.8622 27.9222C11.5194 28.25 11.1231 28.4009 10.6497 28.157C10.1678 27.9089 9.99004 27.5034 10.0994 27.0009C10.1487 26.7744 10.3052 26.548 10.468 26.3733C10.9802 25.8256 11.5116 25.2952 12.0537 24.7755C12.3236 24.5168 12.3087 24.3162 12.0474 24.0638C11.5205 23.5547 11.0044 23.0348 10.499 22.5041C9.96353 21.9432 9.93368 21.3587 10.3965 20.8973C10.8101 20.4854 11.4613 20.5222 11.9732 21.012C12.4893 21.506 12.9969 22.0108 13.4874 22.5307C13.7765 22.837 14.0078 22.822 14.2907 22.5244C14.8071 21.981 15.3364 21.4484 15.8742 20.9266C16.4291 20.3876 16.9369 20.3661 17.4166 20.8364C17.8471 21.2571 17.8298 21.9084 17.3477 22.413C16.8313 22.9564 16.302 23.489 15.762 24.0086C15.4685 24.2911 15.4513 24.5219 15.7533 24.8153C16.3294 25.3762 16.8948 25.95 17.4366 26.5432C17.7472 26.8841 17.8756 27.3241 17.5863 27.723C17.3892 27.9969 17.0635 28.1758 16.7485 28.4367L16.7464 28.4367Z" fill="#005DA5"/>
</g>
</svg>
