<svg width="79" height="85" viewBox="0 0 79 85" fill="none" xmlns="http://www.w3.org/2000/svg">
<g id="X8HYun">
<path id="Vector" d="M68.0168 25.0474C70.3024 25.4787 72.4296 25.8552 74.5426 26.2935C75.1044 26.4101 75.6414 26.6909 76.1643 26.947C77.4867 27.5969 78.1345 28.5733 78.1253 30.1567C78.0701 39.9362 78.0642 49.7174 78.12 59.4969C78.1284 61.1315 77.4202 62.0934 76.08 62.7515C73.8239 63.8596 71.3796 64.1273 68.923 64.335C68.6624 64.3579 68.4 64.3649 68.0073 64.386C68.0072 64.7073 68.0071 65.0179 68.007 65.3269C68.0058 70.349 68.0082 75.3711 68.0034 80.3933C68.001 83.313 66.3364 84.9755 63.4185 84.9748C44.1129 84.9701 24.8073 84.9654 5.50172 84.9608C2.67359 84.9601 0.994016 83.3127 0.994694 80.5007C0.992405 60.7634 1.00244 41.0279 0.994871 21.2907C0.995032 20.6199 1.20823 20.1363 1.68028 19.665C7.98962 13.3664 14.2902 7.05538 20.5748 0.730234C21.0927 0.207844 21.6298 0.00497013 22.3589 0.00514577C36.0699 0.0261015 49.7791 0.0223433 63.49 0.029177C66.3446 0.0298648 68.0188 1.70902 68.0217 4.57579C68.0254 11.0966 68.0185 17.6157 68.017 24.1365L68.0168 25.0492L68.0168 25.0474ZM3.15545 21.8667C3.13776 22.2232 3.11304 22.4827 3.11298 22.7405C3.10835 41.9481 3.10196 61.1576 3.09909 80.3653C3.09866 82.1747 3.78528 82.8456 5.61317 82.8461C24.8606 82.8507 44.1081 82.8553 63.3556 82.86C65.1817 82.8604 65.8916 82.1421 65.892 80.2921C65.895 75.2982 65.8944 70.3061 65.8956 65.3122C65.8957 65.0263 65.8958 64.7385 65.8958 64.4437C64.5417 64.2863 63.2615 64.1871 61.9989 63.9821C60.1746 63.6868 58.3521 63.3069 56.8556 62.1202C56.4048 61.7618 56.0773 61.6946 55.5384 61.8957C49.8464 64.018 43.6306 62.1118 40.1011 57.1559C39.7437 56.6544 39.3757 56.5025 38.7998 56.5077C36.1055 56.53 33.4095 56.5223 30.7134 56.5128C29.7555 56.509 29.2889 56.1524 29.2838 55.4639C29.2769 54.7684 29.7348 54.4084 30.6946 54.4051C32.9803 54.3968 35.2643 54.4044 37.5501 54.4015C37.8547 54.4015 38.1576 54.3751 38.346 54.3663C38.0313 52.4933 37.7341 50.7157 37.4228 48.8638C37.3929 48.8621 37.252 48.8444 37.1129 48.8443C34.9152 48.842 32.7193 48.8433 30.5216 48.8392C29.8049 48.8391 29.2978 48.5388 29.305 47.7692C29.3122 46.9978 29.8212 46.719 30.5415 46.7245C31.5382 46.7335 32.5331 46.7267 33.5298 46.7269C34.9862 46.7273 36.4443 46.7276 37.8759 46.728C39.2529 39.9692 46.6487 33.8544 55.7769 36.9599C55.7774 34.8222 55.7779 32.7127 55.7784 30.6032C55.7789 28.2554 56.274 27.5071 58.4455 26.6197C58.9315 26.4221 59.4264 26.2086 59.9389 26.1152C61.8901 25.7591 63.8484 25.4471 65.9071 25.1034L65.9073 24.3355C65.9089 17.7864 65.9104 11.2356 65.912 4.68649C65.9124 2.8471 65.2047 2.14789 63.3486 2.14744C50.166 2.14427 36.9815 2.14109 23.7989 2.13791L22.7986 2.13767C22.7984 3.12798 22.7982 4.00531 22.798 4.88264C22.7969 9.20044 22.8082 13.5182 22.7896 17.836C22.7801 20.3392 21.2601 21.8622 18.8053 21.8757C17.3401 21.8842 15.875 21.875 14.4116 21.8747C10.6942 21.8738 6.97677 21.8729 3.15369 21.872L3.15545 21.8667ZM62.0641 49.4276C62.062 43.2457 57.0568 38.24 50.8845 38.2491C44.7264 38.2564 39.7152 43.288 39.7225 49.4575C39.7299 55.6165 44.7686 60.6557 50.9126 60.6501C57.0602 60.6445 62.0661 55.606 62.0641 49.4276ZM4.86235 19.7523L5.57378 19.7525C9.90931 19.7535 14.2431 19.7546 18.5786 19.7556C20.1529 19.756 20.6866 19.2265 20.6905 17.6396C20.6969 13.2653 20.6961 8.88925 20.6937 4.51496C20.6937 4.29783 20.655 4.0807 20.6392 3.92182C15.3832 9.19689 10.1413 14.4578 4.86411 19.7523L4.86235 19.7523ZM57.8859 32.053C57.8858 32.6938 57.8856 33.241 57.8855 33.7882C57.885 35.9983 57.8779 36.0213 60.035 36.6908C63.1869 37.6678 66.4358 37.8115 69.6726 37.4416C71.5358 37.2285 73.3603 36.6358 75.1848 36.1543C75.4912 36.0732 75.9174 35.6955 75.9404 35.4254C76.027 34.3345 75.9762 33.2312 75.9764 32.1085C67.8226 34.036 64.7902 34.0317 57.8842 32.0548L57.8859 32.053ZM75.9811 56.732C75.0882 57.0107 74.3503 57.2877 73.5895 57.4675C69.9018 58.3458 66.1808 58.4013 62.4371 57.8938C62.0215 57.8372 61.4457 57.7082 61.1956 57.9165C60.2022 58.7477 59.3074 59.6989 58.3122 60.6678C58.7665 60.8603 59.1821 61.0722 59.6187 61.2153C63.401 62.4466 67.2734 62.5076 71.1547 61.9436C72.553 61.741 73.9161 61.2347 75.2651 60.7813C75.5663 60.6808 75.9186 60.2254 75.9468 59.9095C76.0334 58.8945 75.979 57.8671 75.9793 56.7338L75.9811 56.732ZM75.9855 38.2534C70.1545 40.1955 64.4137 40.1376 58.4778 38.4963C60.2843 39.833 61.6275 41.3568 62.6432 43.177C62.7611 43.3888 63.1643 43.5319 63.4443 43.5443C65.2246 43.6277 67.0103 43.7606 68.7889 43.6974C70.983 43.6203 73.1685 43.3207 75.1727 42.3256C75.5091 42.158 75.916 41.7521 75.9478 41.422C76.0484 40.4088 75.9852 39.3778 75.9855 38.2516L75.9855 38.2534ZM76.0616 29.2806C75.4278 28.968 74.9119 28.6202 74.3431 28.4506C69.4268 26.9771 64.4961 26.976 59.5791 28.4417C58.9944 28.6163 58.4678 28.9798 57.8707 29.278C60.4006 32.0589 73.3279 32.1167 76.0616 29.2824L76.0616 29.2806ZM75.9773 50.566C75.1161 50.8359 74.3799 51.1058 73.6244 51.298C70.6746 52.0422 67.6721 52.1262 64.6521 51.9878C64.4038 51.9772 63.9794 52.0636 63.9247 52.2118C63.4948 53.375 63.1335 54.5647 62.6753 55.9856C65.0614 55.9862 67.3753 56.1527 69.6505 55.9361C71.5137 55.7583 73.34 55.1497 75.1645 54.6612C75.4832 54.5765 75.9148 54.1565 75.9413 53.8599C76.0348 52.7938 75.9787 51.7152 75.979 50.5678L75.9773 50.566ZM64.2933 49.8871C65.8095 49.8875 67.3275 49.9549 68.8384 49.8723C71.0027 49.7528 73.1582 49.4867 75.1395 48.511C75.4812 48.3417 75.9127 47.9516 75.9445 47.6268C76.0469 46.5871 75.9838 45.5297 75.984 44.3594C71.9669 45.9489 67.8743 45.9991 63.7872 45.7669C63.9559 47.1385 64.1123 48.4148 64.2933 49.8871Z" fill="#005DA5"/>
<path id="Vector_2" d="M17.1096 64.3226C19.0132 64.323 20.9169 64.3147 22.8205 64.3275C24.2592 64.3367 24.9828 65.0465 24.9877 66.4975C25.0009 70.314 25 74.1322 24.985 77.9487C24.9793 79.3803 24.2483 80.1339 22.8219 80.1406C19.0147 80.1609 15.2075 80.1599 11.4003 80.1378C9.9721 80.1304 9.22915 79.3853 9.22069 77.9484C9.20048 74.1319 9.19964 70.3137 9.22345 66.4972C9.23261 65.0127 9.97767 64.3279 11.4868 64.323C13.3605 64.3164 15.2359 64.3221 17.1096 64.3243L17.1096 64.3226ZM22.8189 77.9923L22.8217 66.5005L11.393 66.4978L11.3902 77.9895L22.8189 77.9923Z" fill="#005DA5"/>
<path id="Vector_3" d="M24.9983 52.2183C24.9978 54.0983 25.0079 55.9765 24.9934 57.8565C24.9824 59.4046 24.2655 60.1123 22.7212 60.1137C18.972 60.1181 15.2229 60.119 11.4738 60.111C9.98754 60.1071 9.23402 59.3955 9.22557 57.9074C9.20536 54.0892 9.20452 50.2727 9.22833 46.4545C9.23748 45.0229 10.0019 44.2816 11.4213 44.2767C15.2003 44.2635 18.9776 44.2679 22.7567 44.2794C24.2394 44.2833 24.9806 45.0196 24.9943 46.4918C25.0097 48.4001 24.9969 50.3101 24.9965 52.2183L24.9983 52.2183ZM11.3943 46.4373L11.3916 57.9415L22.8362 57.9442L22.8389 46.4401L11.3943 46.4373Z" fill="#005DA5"/>
<path id="Vector_4" d="M17.1953 24.2799C19.069 24.2804 20.9444 24.2702 22.8181 24.2848C24.2815 24.2975 24.9945 24.9914 24.9994 26.439C25.0126 30.2554 25.0117 34.0719 24.9967 37.8884C24.991 39.3465 24.2847 40.0683 22.8425 40.075C19.0352 40.09 15.228 40.089 11.4208 40.0722C9.97323 40.0666 9.23908 39.3585 9.23062 37.9146C9.20865 34.0981 9.20957 30.2816 9.23338 26.4652C9.24254 24.9735 9.97175 24.2906 11.4844 24.2803C13.3881 24.2684 15.2917 24.2777 17.1953 24.2782L17.1953 24.2799ZM22.8545 26.4402L11.3923 26.4374L11.3896 37.901L22.85 37.9037L22.8528 26.4402L22.8545 26.4402Z" fill="#005DA5"/>
<path id="Vector_5" d="M41.7067 28.7942C38.051 28.7933 34.3934 28.7977 30.7376 28.7827C30.3995 28.7826 29.9734 28.7684 29.7462 28.5742C29.5015 28.364 29.3026 27.9156 29.3467 27.6085C29.3908 27.3049 29.7132 26.9572 30.0055 26.7984C30.2873 26.6449 30.6853 26.682 31.034 26.6804C38.1712 26.6768 45.3085 26.6803 52.4475 26.682C52.6236 26.682 52.7979 26.6785 52.974 26.6856C53.6696 26.7194 54.1996 26.9896 54.187 27.7716C54.1745 28.5536 53.6532 28.8006 52.94 28.7986C49.1962 28.7924 45.4506 28.7933 41.7067 28.7942Z" fill="#005DA5"/>
<path id="Vector_6" d="M48.3096 16.7406C48.1194 16.9735 47.9291 17.4148 47.6191 17.5295C47.3057 17.6441 46.8584 17.4746 46.4992 17.3474C46.3442 17.2926 46.258 17.0314 46.1506 16.8583C45.8039 16.2969 45.5611 15.3754 45.0944 15.2429C44.1101 14.9637 43.0095 15.0764 41.9564 15.0815C41.8015 15.0814 41.6042 15.3479 41.5055 15.5333C41.2166 16.0751 40.984 16.6488 40.6968 17.1924C40.3744 17.8031 39.8531 18.0378 39.2316 17.7057C38.654 17.3985 38.5291 16.8724 38.8146 16.274C39.995 13.7853 41.1579 11.2878 42.3735 8.81671C42.8316 7.88477 43.8107 7.84617 44.2948 8.74656C45.6008 11.1723 46.8505 13.6281 48.1161 16.075C48.1953 16.2269 48.2164 16.4105 48.3114 16.7423L48.3096 16.7406ZM43.3942 11.5407C43.144 12.0967 42.9749 12.4709 42.7652 12.9369L44.0912 12.9372C43.8677 12.4888 43.6794 12.1163 43.3925 11.5407L43.3942 11.5407Z" fill="#005DA5"/>
<path id="Vector_7" d="M53.7651 11.349C54.4943 10.3942 55.1373 9.45168 55.8965 8.61514C56.1502 8.33629 56.7525 8.15108 57.1011 8.25178C57.4022 8.33835 57.6891 8.86976 57.7542 9.24401C57.8017 9.51587 57.5145 9.87945 57.3137 10.1583C56.595 11.1502 55.8516 12.1244 55.1047 13.1181C55.8723 14.1315 56.6029 15.0832 57.3176 16.0472C57.8263 16.734 57.8051 17.3571 57.2908 17.7542C56.7571 18.1671 56.2006 18.0328 55.6496 17.3319C55.0388 16.5533 54.4473 15.7605 53.7818 14.8866C53.1952 15.6578 52.6721 16.3497 52.1436 17.0362C51.587 17.7563 50.9477 17.9468 50.4424 17.4966C49.8297 16.951 49.9918 16.3702 50.4428 15.7913C50.9836 15.0977 51.4786 14.3688 52.037 13.6911C52.3681 13.2887 52.4087 12.9974 52.0513 12.5684C51.3577 11.7368 50.7363 10.8452 50.0761 9.98533C49.6396 9.41505 49.5534 8.83603 50.154 8.36309C50.7599 7.88662 51.3022 8.11799 51.7371 8.68827C52.3919 9.54634 53.0486 10.4044 53.7686 11.3472L53.7651 11.349Z" fill="#005DA5"/>
<path id="Vector_8" d="M37.8393 66.7581C40.2096 66.7587 42.5799 66.7557 44.9501 66.7616C45.9081 66.7636 46.3852 67.1114 46.3956 67.784C46.406 68.4583 45.9093 68.8677 44.9848 68.8693C40.2143 68.877 35.4439 68.8758 30.6751 68.8658C29.7453 68.8639 29.2682 68.463 29.2825 67.7728C29.2967 67.0861 29.7476 66.7614 30.7267 66.7581C33.097 66.7534 35.4673 66.7593 37.8375 66.7599L37.8393 66.7581Z" fill="#005DA5"/>
<path id="Vector_9" d="M36.2805 10.2361C36.28 12.1461 36.2796 13.9308 36.2792 15.7137C36.2791 15.9767 36.3002 16.2415 36.2966 16.5045C36.2858 17.373 35.9176 17.8584 35.2485 17.83C34.4067 17.7963 34.2008 17.2172 34.1887 16.5005C34.1627 14.9471 34.1366 13.3954 34.1141 11.842C34.1072 11.3477 34.1143 10.8535 34.1145 10.2339C33.4541 10.2337 32.8519 10.2406 32.2514 10.2316C31.5787 10.2209 31.0945 9.9295 31.0806 9.20751C31.0649 8.44139 31.544 8.12023 32.2695 8.1204C34.1696 8.12086 36.0697 8.12132 37.9698 8.12178C38.6847 8.12195 39.1953 8.40451 39.1969 9.17416C39.1985 9.94381 38.6842 10.2332 37.9745 10.2365C37.4234 10.2399 36.8739 10.2363 36.2822 10.2361L36.2805 10.2361Z" fill="#005DA5"/>
<path id="Vector_10" d="M36.5617 34.3814C38.4653 34.3818 40.3671 34.3911 42.2707 34.3792C42.9998 34.3741 43.565 34.5631 43.6212 35.4034C43.6685 36.1077 43.1771 36.496 42.2491 36.4957C38.3838 36.5001 34.5202 36.4939 30.6548 36.4982C29.9258 36.4981 29.3623 36.2949 29.3026 35.4652C29.2517 34.7662 29.7467 34.385 30.6782 34.3835C32.64 34.3787 34.6017 34.3844 36.5634 34.3849L36.5617 34.3814Z" fill="#005DA5"/>
<path id="Vector_11" d="M36.4406 76.5235C34.5088 76.5231 32.5752 76.512 30.6434 76.5274C29.9109 76.5326 29.3509 76.3382 29.2895 75.505C29.2386 74.8148 29.7511 74.4107 30.6668 74.4091C34.5322 74.4048 38.3958 74.411 42.2611 74.4084C42.9813 74.4086 43.5554 74.6047 43.6098 75.4432C43.6554 76.151 43.1781 76.5199 42.2359 76.5214C40.3041 76.5262 38.3706 76.5205 36.4388 76.52L36.4406 76.5235Z" fill="#005DA5"/>
<path id="Vector_12" d="M45.9217 54.5798C46.1261 54.1791 46.2248 53.902 46.3904 53.6726C48.7632 50.3686 51.1431 47.0699 53.5282 43.7765C54.018 43.1006 54.6643 42.933 55.1643 43.3533C55.7541 43.8477 55.6659 44.4178 55.2555 44.9861C52.858 48.3078 50.4746 51.64 48.0348 54.9298C47.8005 55.244 47.193 55.4521 46.7862 55.4114C46.4763 55.3813 46.214 54.88 45.9217 54.5798Z" fill="#005DA5"/>
<path id="Vector_13" d="M57.8576 53.3313C57.8607 55.0366 56.4692 56.429 54.7892 56.4057C53.1322 56.3823 51.7959 55.0174 51.7928 53.3458C51.7897 51.6388 53.1759 50.2516 54.8629 50.2732C56.5182 50.2948 57.8545 51.6596 57.8576 53.3313ZM53.7669 53.1626C53.7704 53.3003 53.7739 53.438 53.7773 53.5757C54.1436 53.8106 54.4957 54.2096 54.8796 54.2415C55.4237 54.2893 55.8605 53.8357 55.7022 53.2796C55.6019 52.9301 55.1336 52.4604 54.8236 52.4568C54.475 52.4514 54.1209 52.9068 53.7686 53.1626L53.7669 53.1626Z" fill="#005DA5"/>
<path id="Vector_14" d="M49.9357 44.5352C49.9247 46.1963 48.5666 47.5622 46.9148 47.5742C45.2384 47.5861 43.837 46.1665 43.8568 44.4772C43.8765 42.8055 45.224 41.4554 46.8846 41.4488C48.5787 41.4404 49.9466 42.8264 49.9357 44.5369L49.9357 44.5352ZM47.1465 43.4436C47.0109 43.4365 46.8753 43.4294 46.7397 43.4205C46.4861 43.777 46.0352 44.1353 46.0386 44.4883C46.0421 44.8096 46.491 45.311 46.8308 45.4012C47.3573 45.5425 47.847 45.1472 47.7855 44.5717C47.7433 44.1763 47.3718 43.8178 47.1465 43.4436Z" fill="#005DA5"/>
<path id="Vector_15" d="M43.3947 11.5407C43.6816 12.1145 43.8682 12.4887 44.0935 12.9372L42.7675 12.9368" fill="white"/>
<path id="Vector_16" d="M15.8803 72.5497C17.2154 71.4238 18.4201 70.4038 19.6301 69.3926C20.3435 68.7961 20.9739 68.7627 21.3823 69.3242C21.8717 69.9969 21.574 70.5228 21.0156 70.9905C19.6224 72.157 18.2415 73.3394 16.8483 74.5041C16.0874 75.1412 15.6331 75.1287 14.943 74.4542C14.2916 73.8203 13.6472 73.1794 13.0204 72.5208C12.4976 71.9717 12.4643 71.2885 12.9416 70.895C13.4858 70.4485 14.03 70.5369 14.5 71.033C14.9613 71.5186 15.4014 72.0218 15.8785 72.548L15.8803 72.5497Z" fill="#005DA5"/>
<path id="Vector_17" d="M15.8903 52.2923C17.2483 51.147 18.4619 50.134 19.6613 49.1052C20.2197 48.6269 20.7815 48.4329 21.3589 49.0262C21.8149 49.4941 21.695 50.1472 21.0539 50.6942C19.629 51.9137 18.1864 53.1119 16.7562 54.3279C16.168 54.8273 15.6009 54.8448 15.0463 54.2939C14.3597 53.6141 13.6731 52.9308 12.9971 52.2387C12.5199 51.7496 12.4215 51.1811 12.9182 50.6799C13.4114 50.1822 13.9854 50.253 14.4678 50.7438C14.9397 51.2241 15.3798 51.7344 15.8886 52.2923L15.8903 52.2923Z" fill="#005DA5"/>
<path id="Vector_18" d="M15.9322 32.7527C17.2637 31.6285 18.4843 30.5838 19.7208 29.5585C20.4042 28.992 21.0804 29.0345 21.4553 29.6436C21.7845 30.1786 21.6576 30.6658 21.2014 31.0558C19.6867 32.3493 18.1649 33.6358 16.636 34.9153C16.134 35.3353 15.6075 35.3175 15.1374 34.862C14.4015 34.1469 13.6797 33.4194 12.9649 32.6831C12.5107 32.2152 12.4545 31.6715 12.9019 31.1915C13.388 30.6708 13.9551 30.731 14.4498 31.2077C14.9339 31.6739 15.3829 32.1788 15.9286 32.7544L15.9322 32.7527Z" fill="#005DA5"/>
</g>
</svg>
