<svg width="122" height="102" viewBox="0 0 122 102" fill="none" xmlns="http://www.w3.org/2000/svg">
<g id="_Layer_" clip-path="url(#clip0_2304_1861)">
<path id="Vector" d="M26.455 75.7427C26.1026 71.9873 22.7641 69.2231 18.9865 69.574C15.2152 69.9249 12.4392 73.2494 12.7916 77.011C13.144 80.7664 16.4826 83.5306 20.2601 83.1797C24.0315 82.8288 26.8075 79.5043 26.455 75.7427Z" fill="#02AFED"/>
<path id="Vector_2" d="M29.2991 69.7094C29.1507 69.5493 29.0023 69.3892 28.8539 69.2292C26.5046 66.6989 23.9821 64.3533 20.3406 64.1686C15.6728 63.9346 11.6603 65.0243 7.49947 62.1185C1.72498 58.086 0.309177 49.664 1.3293 43.1505C2.38033 36.4092 5.90437 29.9818 10.9122 25.346C12.4146 23.9547 14.0653 22.7234 15.8521 21.7137C30.0657 13.7103 46.7153 19.6267 55.68 32.2782C57.4111 34.7161 58.8825 37.3388 60.1129 40.0599C60.2241 40.3 60.3292 40.5401 60.4343 40.7864C62.2025 44.9297 63.2165 49.4485 62.8393 53.9366C62.4437 58.6524 60.49 63.2082 57.4358 66.8343C52.8669 72.252 44.471 76.7216 37.2375 75.0716C33.7629 74.2775 31.599 72.172 29.3053 69.7217L29.2991 69.7094Z" fill="#02AFED"/>
<path id="Vector_3" d="M98.055 34.1934H34.2883V95.4315H98.055V34.1934Z" fill="white"/>
<path id="Vector_4" d="M98.0549 95.6899H34.2882C34.146 95.6899 34.0286 95.5729 34.0286 95.4313V34.1931C34.0286 34.0515 34.146 33.9346 34.2882 33.9346H98.0549C98.1971 33.9346 98.3146 34.0515 98.3146 34.1931V95.4313C98.3146 95.5729 98.1971 95.6899 98.0549 95.6899ZM34.5479 95.1727H97.7952V34.4517H34.5479V95.1727Z" fill="black"/>
<path id="Vector_5" d="M98.0549 40.3677H34.2882C34.146 40.3677 34.0286 40.2508 34.0286 40.1092C34.0286 39.9676 34.146 39.8506 34.2882 39.8506H98.0549C98.1971 39.8506 98.3146 39.9676 98.3146 40.1092C98.3146 40.2508 98.1971 40.3677 98.0549 40.3677Z" fill="black"/>
<path id="Vector_6" d="M38.5975 36.9507C38.5975 37.5109 38.14 37.9727 37.5712 37.9727C37.0024 37.9727 36.5449 37.5171 36.5449 36.9507C36.5449 36.3843 37.0024 35.9287 37.5712 35.9287C38.14 35.9287 38.5975 36.3843 38.5975 36.9507Z" fill="black"/>
<path id="Vector_7" d="M46.1713 36.9507C46.1713 37.5109 45.7137 37.9727 45.145 37.9727C44.5762 37.9727 44.1187 37.5171 44.1187 36.9507C44.1187 36.3843 44.5762 35.9287 45.145 35.9287C45.7137 35.9287 46.1713 36.3843 46.1713 36.9507Z" fill="#02AFED"/>
<path id="Vector_8" d="M42.3876 36.9507C42.3876 37.5109 41.9301 37.9727 41.3613 37.9727C40.7925 37.9727 40.335 37.5171 40.335 36.9507C40.335 36.3843 40.7925 35.9287 41.3613 35.9287C41.9301 35.9287 42.3876 36.3843 42.3876 36.9507Z" fill="#FF636B"/>
<path id="Vector_9" d="M37.6083 53.4198C35.1662 55.907 32.0996 59.6809 29.5153 58.4804C27.778 57.6677 26.8136 50.1507 26.727 47.2633C26.6466 44.6037 27.0052 40.4974 26.0469 36.6373C25.0886 32.7772 18.6526 32.0631 18.6526 32.0631C18.6526 32.0631 16.7546 26.1344 13.8302 26.4545C10.9059 26.7747 12.6926 31.1396 12.6926 31.1396C12.6926 31.1396 8.32777 24.977 6.19479 25.3279C4.87791 25.5495 4.5997 26.7254 4.58115 27.5873C3.6414 27.1441 2.45436 26.8609 1.731 27.7289C0.401753 29.3296 2.99842 31.3551 2.99842 31.3551C2.99842 31.3551 1.33532 30.5609 0.463579 32.2354C-0.408159 33.91 1.8361 35.9293 1.8361 35.9293C1.55789 36.2618 1.8361 37.9178 3.38174 38.2934C5.16849 38.7243 11.6911 40.245 11.6911 40.245C11.6911 40.245 11.4932 55.1805 11.6292 60.8014C12.13 82.3797 31.9698 85.7288 46.9995 72.1908L37.6144 53.4136L37.6083 53.4198Z" fill="white"/>
<path id="Vector_10" d="M28.5014 80.5321C26.0902 80.5321 23.7718 80.0888 21.6326 79.1715C15.2275 76.4258 11.5798 69.9061 11.3696 60.813C11.246 55.6108 11.4067 42.2821 11.4314 40.4536C10.3124 40.1951 4.90885 38.933 3.31994 38.5451C2.14526 38.2619 1.71867 37.3446 1.59502 36.9629C1.47137 36.5935 1.44664 36.2365 1.52083 35.9841C1.02004 35.4854 -0.599785 33.7 0.228675 32.1117C0.723278 31.1636 1.48373 30.8865 2.14526 30.8988C1.70012 30.4125 1.18697 29.7045 1.1066 28.9411C1.05095 28.4301 1.19315 27.9622 1.53319 27.5559C2.13908 26.8233 3.10974 26.7001 4.34624 27.1927C4.47608 25.986 5.1067 25.2349 6.15155 25.0625C7.84556 24.7793 10.6092 27.9807 12.0311 29.8091C11.8518 28.9472 11.7777 27.8699 12.2352 27.1126C12.5567 26.577 13.0822 26.2692 13.7993 26.1892C16.6557 25.8752 18.5104 30.8434 18.8443 31.8223C19.8953 31.9639 25.3854 32.8874 26.3004 36.5689C27.03 39.5179 27.0052 42.6022 26.9805 45.0771C26.9743 45.8652 26.9681 46.6039 26.9805 47.2504C27.0856 50.7411 28.1676 57.5624 29.6205 58.2458C31.7101 59.2185 34.2388 56.5651 36.4645 54.2256C36.7922 53.887 37.1075 53.5546 37.4166 53.2406C37.4723 53.179 37.5588 53.1544 37.6392 53.1667C37.7196 53.179 37.7938 53.2344 37.8309 53.3083L47.216 72.0855C47.2654 72.1901 47.2469 72.3133 47.1603 72.3933C41.2745 77.7001 34.5788 80.5383 28.489 80.5383L28.5014 80.5321ZM2.10817 31.4221C1.64448 31.4221 1.07568 31.6068 0.692366 32.3518C-0.0804515 33.8293 1.9907 35.7132 2.00925 35.7316C2.11435 35.824 2.12671 35.9841 2.03398 36.0887C1.9907 36.1503 1.9536 36.4581 2.11435 36.8706C2.24418 37.2154 2.59659 37.831 3.44359 38.0342C5.20562 38.4651 11.6849 39.9734 11.7529 39.9857C11.8704 40.0104 11.9569 40.1212 11.9508 40.2382C11.9508 40.3859 11.7591 55.2291 11.8889 60.7884C12.093 69.6721 15.6294 76.0256 21.8366 78.6852C29.0207 81.7634 38.7521 79.1838 46.6781 72.1224L37.5465 53.8501C37.3239 54.084 37.089 54.3241 36.854 54.5704C34.5047 57.0391 31.84 59.8341 29.4102 58.7013C27.4071 57.7656 26.5354 49.5098 26.4735 47.2565C26.455 46.6039 26.4612 45.859 26.4735 45.0648C26.4983 42.6146 26.523 39.5733 25.8058 36.6859C24.9032 33.0474 18.6959 32.3148 18.6341 32.3025C18.5352 32.2902 18.4486 32.2225 18.4177 32.124C18.3992 32.0686 16.5382 26.3985 13.8674 26.694C13.3109 26.7555 12.9214 26.9772 12.6865 27.365C11.9569 28.584 12.9276 30.9973 12.94 31.022C12.9894 31.1451 12.94 31.2805 12.8225 31.3483C12.705 31.4098 12.5628 31.379 12.4886 31.2682C11.3016 29.5875 7.87029 25.2965 6.24428 25.5674C5.34163 25.7151 4.87176 26.3923 4.84703 27.5805C4.84703 27.6667 4.79757 27.7467 4.72338 27.796C4.64919 27.8452 4.55645 27.8452 4.47608 27.8083C3.29521 27.2542 2.44202 27.2788 1.93506 27.8822C1.68775 28.1838 1.58265 28.5101 1.62593 28.8795C1.74958 30.0185 3.14683 31.1266 3.1592 31.1389C3.2643 31.219 3.28903 31.3667 3.22102 31.4775C3.15301 31.5884 3.01082 31.6315 2.88717 31.576C2.86244 31.5637 2.52858 31.416 2.10817 31.416V31.4221Z" fill="black"/>
<path id="Vector_11" d="M110.024 32.2353C110.321 31.0224 111.607 27.1747 109.963 26.596C108.46 26.0727 107.644 28.1104 107.483 28.6153C107.23 29.4156 106.76 30.7454 106.476 31.7674C108.225 25.5432 109.425 21.443 107.248 20.8397C105.74 20.421 104.763 21.8309 104.38 22.9636C104.763 21.2522 105.4 19.0235 103.316 18.6788C100.893 18.2786 100.009 23.1052 99.8046 24.4966C100.176 21.443 99.9654 19.0297 98.3085 18.9743C96.5774 18.9189 96.0024 20.9874 95.7489 22.1202C95.4954 23.2468 94.1291 32.2353 94.1291 32.2353C94.1291 32.2353 90.5927 25.1677 87.9094 27.0146C85.2324 28.8615 89.0347 33.4173 90.129 35.4366C91.1862 37.3882 92.6453 40.3618 93.01 42.1471C93.2635 43.3846 92.9111 58.0985 89.9991 59.4529C87.421 60.6534 84.3545 56.8734 81.9062 54.3923L70.0481 70.8423C85.0717 84.3804 107.384 83.3522 107.885 61.7739C108.17 49.6026 107.706 44.9422 107.755 44.0372C107.755 44.0372 109.734 33.4481 110.024 32.2353Z" fill="white"/>
<path id="Vector_12" d="M90.9946 80.0281C84.0887 80.0281 76.3111 76.839 69.8751 71.0397C69.7762 70.9535 69.7638 70.8057 69.838 70.6949L81.6961 54.2449C81.7394 54.1833 81.8135 54.1464 81.8877 54.1402C81.9619 54.1402 82.0361 54.1648 82.0918 54.2141C82.4009 54.5281 82.7162 54.8605 83.0439 55.1991C85.2758 57.5386 87.8044 60.192 89.8879 59.2193C92.5588 57.9757 93.072 43.7543 92.7505 42.1967C92.33 40.1528 90.4629 36.6005 89.8941 35.5539C89.6963 35.1845 89.4057 34.7351 89.0719 34.2118C87.6004 31.9155 85.3685 28.4432 87.755 26.7933C88.2496 26.4547 88.7998 26.3562 89.3872 26.5101C91.3037 26.9965 93.1956 30.0254 93.9746 31.4168C94.3146 29.2066 95.2729 22.9948 95.4831 22.0528C95.6748 21.2094 96.2621 18.636 98.3024 18.7099C98.7846 18.7283 99.1803 18.913 99.4894 19.2701C99.8975 19.7442 100.126 20.5076 100.194 21.5849C100.565 20.4522 101.109 19.344 101.882 18.7776C102.333 18.4513 102.828 18.3282 103.354 18.4144C103.959 18.5129 104.411 18.7776 104.689 19.1901C105.078 19.7688 105.085 20.5568 104.961 21.3756C105.536 20.7169 106.327 20.3167 107.31 20.5876C107.768 20.7107 108.114 20.9816 108.337 21.3818C108.93 22.4222 108.67 24.38 108.015 27.0519C108.225 26.7994 108.473 26.5655 108.769 26.4177C109.171 26.2146 109.604 26.1961 110.043 26.35C111.718 26.9349 110.871 30.0685 110.414 31.7492C110.358 31.9585 110.309 32.1432 110.272 32.291C109.981 33.4853 108.021 43.9759 108.003 44.0806C107.997 44.2591 108.015 44.7209 108.046 45.4227C108.145 47.7498 108.355 52.5826 108.139 61.7804C107.947 70.0115 104.491 75.9771 98.4137 78.5813C96.1509 79.5479 93.6346 80.0219 90.9884 80.0219L90.9946 80.0281ZM70.3944 70.8057C79.118 78.5752 90.2774 81.5118 98.2158 78.1134C104.102 75.5954 107.44 69.7899 107.626 61.7742C107.836 52.595 107.632 47.7683 107.533 45.4473C107.502 44.7085 107.483 44.2591 107.496 44.0252C107.582 43.5573 109.48 33.3807 109.771 32.174C109.808 32.0263 109.858 31.8354 109.919 31.6199C110.272 30.3148 111.1 27.2673 109.876 26.8425C109.567 26.7317 109.283 26.7502 109.004 26.8856C108.343 27.2119 107.891 28.1785 107.731 28.6956C107.644 28.9604 107.539 29.2805 107.428 29.6253C107.187 30.3456 106.921 31.1582 106.729 31.8416C106.692 31.977 106.55 32.0571 106.408 32.0201C106.272 31.9832 106.191 31.8416 106.228 31.7L106.321 31.3798C107.638 26.7071 108.677 23.0132 107.898 21.6403C107.737 21.3633 107.508 21.1786 107.181 21.0924C105.493 20.6307 104.707 22.7978 104.621 23.0502C104.578 23.1795 104.442 23.2533 104.306 23.2164C104.176 23.1795 104.095 23.044 104.12 22.9086L104.182 22.6254C104.442 21.4864 104.738 20.1997 104.256 19.4856C104.058 19.1901 103.731 19.0115 103.267 18.9315C102.877 18.8699 102.525 18.9561 102.191 19.2024C100.788 20.2244 100.2 23.5427 100.058 24.5339C100.04 24.6755 99.9098 24.774 99.7676 24.7555C99.6254 24.737 99.5265 24.6078 99.5451 24.4662C99.848 21.942 99.6996 20.3044 99.1061 19.6087C98.8959 19.3686 98.6301 19.2393 98.2962 19.2332C98.2777 19.2332 98.2591 19.2332 98.2344 19.2332C96.8248 19.2332 96.2807 20.9077 95.9963 22.176C95.749 23.2841 94.395 32.1863 94.3765 32.2725C94.3579 32.3833 94.2714 32.4695 94.1601 32.488C94.0488 32.5065 93.9375 32.4511 93.888 32.3464C93.8633 32.2972 91.4769 27.5813 89.2635 27.0149C88.8184 26.9041 88.4227 26.9718 88.0517 27.2242C86.0733 28.5848 88.0579 31.6815 89.5108 33.9348C89.8508 34.4642 90.1476 34.9198 90.3516 35.3077C91.0874 36.6621 92.837 40.0358 93.2574 42.0921C93.4924 43.2372 93.2574 58.2158 90.1043 59.681C87.6808 60.8138 85.0161 58.0126 82.6606 55.5501C82.4133 55.2915 82.1721 55.0329 81.931 54.7867L70.3882 70.7996L70.3944 70.8057Z" fill="black"/>
<path id="Vector_13" d="M96.6515 11.9189C96.6206 10.6876 96.3857 9.44399 95.922 8.21886C94.3887 4.13713 90.5803 1.47139 86.4256 0.474046C83.1612 -0.307822 79.6681 -0.123129 76.4903 0.960405C74.4067 1.6684 72.3851 2.68421 70.8518 4.27873C69.1763 6.03332 68.0573 8.28658 67.2288 10.5398C66.3262 12.9901 65.7759 15.5512 65.269 18.1061C64.7991 20.4948 64.2921 23.179 62.2952 24.8105C59.1668 27.3777 54.5546 24.4103 51.5375 30.3882C50.7153 32.0135 50.9131 34.3222 50.7338 35.2887C49.9425 39.5429 52.23 43.1752 56.5021 43.957C57.9612 44.2279 60.7743 43.6554 60.8361 43.6677C65.2195 44.8743 69.3927 44.0371 72.5149 40.5833C74.5613 38.3177 75.6742 35.4242 76.6634 32.5984C77.1703 31.1455 77.6093 29.5202 78.7778 28.4366C80.0205 27.2854 81.7578 26.6143 83.3281 26.0418C86.2463 24.9829 89.1459 23.887 91.6251 21.9785C94.84 19.4975 96.7504 15.7851 96.6453 11.9127L96.6515 11.9189Z" fill="black"/>
<path id="Vector_14" d="M41.8682 95.6894C41.8682 95.6894 41.8249 95.6894 41.8064 95.6833C41.6704 95.6463 41.5838 95.5047 41.6209 95.3693L43.2346 89.0466C43.2655 88.9296 43.3644 88.8496 43.488 88.8496H75.0808C75.1612 88.8496 75.2292 88.8865 75.2786 88.942C75.3157 88.985 76.1875 90.0932 76.8366 95.4001C76.8552 95.5417 76.7501 95.6709 76.6079 95.6894C76.4719 95.7079 76.3359 95.6032 76.3173 95.4616C75.7918 91.1829 75.1303 89.7238 74.9324 89.3606H43.6859L42.1217 95.4924C42.0908 95.6094 41.9857 95.6894 41.8682 95.6894Z" fill="black"/>
<path id="Vector_15" d="M74.951 87.8342C74.9016 87.8342 74.8459 87.8157 74.8026 87.785L68.9354 83.5739C68.8179 83.4878 68.7932 83.3277 68.8798 83.2107C68.9663 83.0937 69.1271 83.0691 69.2445 83.1492L75.1118 87.3602C75.2292 87.4463 75.254 87.6064 75.1674 87.7234C75.1179 87.7911 75.0376 87.8281 74.9572 87.8281L74.951 87.8342Z" fill="black"/>
<path id="Vector_16" d="M85.9373 56.1833C79.5446 49.2142 69.2074 47.8351 63.1114 47.5211H54.3507C50.9565 47.4288 39.9701 48.2414 33.5774 55.2105L41.3983 63.2755C41.0088 64.1189 40.7924 65.0609 40.7924 66.052C40.7924 68.3176 41.9238 70.3123 43.6549 71.519L43.488 89.1018L75.3404 89.2495C75.3404 89.2495 75.223 76.8135 75.0066 66.1505L85.9435 56.1833H85.9373Z" fill="#F49B00"/>
<path id="Vector_17" d="M119.978 93.2394L96.361 101.741L87.6746 74.2591L109.017 66.582L119.978 93.2394Z" fill="white"/>
<path id="Vector_18" d="M96.3609 102C96.3238 102 96.2806 101.994 96.2435 101.976C96.1816 101.945 96.1322 101.89 96.1136 101.822L87.4272 74.3395C87.3839 74.2102 87.4581 74.0686 87.5879 74.0194L108.93 66.3423C109.06 66.293 109.208 66.3608 109.258 66.49L120.219 93.1536C120.244 93.2213 120.244 93.289 120.219 93.3568C120.188 93.4183 120.139 93.4737 120.071 93.4922L96.4537 101.988C96.4537 101.988 96.398 102 96.3671 102H96.3609ZM87.996 74.4195L96.5279 101.409L119.638 93.092L108.874 66.9087L87.996 74.4195Z" fill="black"/>
<path id="Vector_19" d="M82.5678 72.6281C82.4317 72.6281 82.3143 72.5234 82.3081 72.3818C81.9248 64.9633 83.0685 60.4014 85.6961 58.8068C87.9713 57.4278 90.4505 58.8499 90.5556 58.9115C90.6792 58.9854 90.7225 59.1393 90.6483 59.2624C90.5741 59.3856 90.4196 59.4286 90.2959 59.3548C90.2712 59.3425 87.9713 58.0311 85.962 59.2501C84.2741 60.2721 82.3637 63.3749 82.8212 72.351C82.8274 72.4926 82.7161 72.6158 82.5739 72.6219C82.5739 72.6219 82.5677 72.6219 82.5616 72.6219L82.5678 72.6281Z" fill="black"/>
<path id="Vector_20" d="M100.621 64.3046C100.621 64.3046 100.559 64.3046 100.528 64.2861C93.9314 61.8174 90.4815 59.324 90.2651 56.8861C90.1044 55.0576 91.8417 54.011 91.9159 53.9679C92.0395 53.894 92.2003 53.9371 92.2683 54.0602C92.3425 54.1834 92.2992 54.3434 92.1755 54.4112C92.1632 54.4173 90.6423 55.3408 90.7783 56.843C90.9143 58.3698 92.7443 60.82 100.701 63.7997C100.837 63.849 100.905 63.9967 100.856 64.1322C100.819 64.2368 100.72 64.2984 100.615 64.2984L100.621 64.3046Z" fill="black"/>
<path id="Vector_21" d="M92.0455 71.1619C91.9466 71.1619 91.8539 71.1065 91.8106 71.008C88.6389 63.848 87.8229 59.2184 89.387 57.2483C90.2773 56.1217 91.5942 56.3433 91.6498 56.3556C91.792 56.3803 91.8848 56.5157 91.86 56.6573C91.8353 56.7989 91.6993 56.8912 91.5571 56.8666C91.5138 56.8605 90.4813 56.6942 89.7889 57.5746C88.8059 58.8244 88.4411 62.1304 92.2866 70.8048C92.3423 70.9341 92.2866 71.088 92.1568 71.1434C92.1259 71.1557 92.0888 71.168 92.0517 71.168L92.0455 71.1619Z" fill="black"/>
<path id="Vector_22" d="M105.443 95.4617L80.6327 99.3095L77.7578 73.12L100.182 69.6416L105.443 95.4617Z" fill="#FF636B"/>
<path id="Vector_23" d="M91.6005 89.8037C89.01 89.8037 86.7287 87.9199 86.3144 85.2911C86.0919 83.8874 86.4381 82.4776 87.2789 81.3263C88.1197 80.1751 89.3624 79.424 90.7782 79.2023C92.1878 78.9807 93.6036 79.3255 94.7598 80.1627C95.9159 81 96.6702 82.2375 96.8927 83.6473C97.3441 86.5531 95.3409 89.2804 92.429 89.736C92.1507 89.7791 91.8725 89.7976 91.6005 89.7976V89.8037ZM91.6129 79.6579C91.3656 79.6579 91.1121 79.6764 90.8586 79.7133C89.585 79.9103 88.4598 80.5937 87.6993 81.628C86.9389 82.6684 86.6297 83.9366 86.8276 85.211C87.2356 87.8337 89.7148 89.6313 92.3486 89.225C94.9823 88.8187 96.7876 86.35 96.3796 83.7273C96.1818 82.4591 95.4955 81.3386 94.4568 80.5814C93.6222 79.9719 92.633 79.6518 91.6129 79.6518V79.6579Z" fill="white"/>
<path id="Vector_24" d="M121.74 72.5292L106.908 83.4446L96.0889 67.3763L109.493 57.5137L121.74 72.5292Z" fill="white"/>
<path id="Vector_25" d="M56.1128 27.0819C55.9953 27.0819 55.884 27.0018 55.8593 26.8787C55.8284 26.7371 55.9149 26.6017 56.0571 26.5709C61.1206 25.4689 63.6307 23.388 64.181 14.535C64.4283 10.5395 67.1486 6.0453 70.9447 3.34877C73.6279 1.44643 78.0484 -0.486694 83.8971 1.12629C84.0331 1.16323 84.1135 1.30483 84.0764 1.44643C84.0393 1.58187 83.8971 1.66191 83.7549 1.62497C78.104 0.0673859 73.8319 1.93279 71.2414 3.77357C67.569 6.3839 64.9352 10.7242 64.6941 14.572C64.1253 23.702 61.3741 25.9491 56.1622 27.0819C56.1437 27.0819 56.1251 27.0819 56.1066 27.0819H56.1128Z" fill="black"/>
<path id="Vector_26" d="M104.831 80.3538L106.908 83.4443L121.74 72.529L119.385 69.6416L104.831 80.3538Z" fill="#02AFED"/>
<path id="Vector_27" d="M106.908 83.7031C106.908 83.7031 106.877 83.7031 106.865 83.7031C106.797 83.6908 106.735 83.6538 106.692 83.5922L95.8725 67.5239C95.7983 67.4069 95.823 67.253 95.9343 67.173L109.338 57.3104C109.449 57.2303 109.604 57.2488 109.69 57.3535L121.938 72.369C121.981 72.4244 122.006 72.4922 121.994 72.566C121.988 72.6338 121.95 72.7015 121.889 72.7384L107.057 83.6538C107.013 83.6846 106.958 83.7031 106.902 83.7031H106.908ZM96.4413 67.4377L106.97 83.0751L121.369 72.4799L109.449 57.8645L96.4413 67.4316V67.4377Z" fill="black"/>
<path id="Vector_28" d="M63.1113 47.5275H63.0557L62.4374 43.5011C58.9566 42.3684 60.7248 37.591 60.7248 37.591C56.9535 37.6217 57.5656 34.365 57.6892 32.5611C57.7139 32.1918 57.3183 31.9455 57.003 32.1302C54.6598 33.5154 51.2532 32.3272 51.0121 33.9402C50.1465 39.6472 48.3969 45.2619 54.5547 45.7667V47.5336H54.3445C52.805 47.4905 49.7137 47.6321 46.1897 48.4448C46.573 48.9804 51.519 55.6417 59.8655 55.5555C66.4746 55.4877 70.3572 50.8827 71.841 48.6787C68.6076 47.9399 65.5225 47.6444 63.1113 47.5213V47.5275Z" fill="white"/>
<path id="Vector_29" d="M75.3341 89.5082L43.4817 89.3604C43.4137 89.3604 43.3457 89.3296 43.2962 89.2865C43.2468 89.2373 43.222 89.1696 43.222 89.1018L43.389 71.6545C41.596 70.3493 40.5264 68.2684 40.5264 66.0521C40.5264 65.1102 40.7119 64.1929 41.0829 63.331L33.3856 55.3892C33.2929 55.2906 33.2867 55.1367 33.3856 55.0382C40.7861 46.9733 53.8065 47.2565 54.3568 47.275C54.499 47.275 54.6103 47.3981 54.6103 47.5397C54.6103 47.6813 54.4742 47.7859 54.3444 47.7921C53.8127 47.7736 41.2065 47.5027 33.9359 55.2106L41.5898 63.1032C41.664 63.1771 41.6826 63.294 41.6393 63.3925C41.2498 64.236 41.0581 65.1287 41.0581 66.0583C41.0581 68.1515 42.0844 70.1154 43.8094 71.3159C43.8774 71.3651 43.9207 71.4452 43.9207 71.5314L43.7537 88.8494L75.0806 88.9972C75.0621 87.1441 74.9508 75.8532 74.753 66.1629C74.753 66.0891 74.7839 66.0152 74.8395 65.9659L85.5848 56.171C80.8304 51.1227 73.2753 48.3031 63.1112 47.7859C62.9691 47.7798 62.8578 47.6567 62.8639 47.5151C62.8701 47.3735 63 47.2626 63.136 47.2688C73.5659 47.7983 81.3065 50.741 86.1412 56.011C86.2401 56.1156 86.2278 56.2818 86.1227 56.3742L75.2723 66.2614C75.4825 76.7828 75.6 89.1265 75.6 89.2496C75.6 89.3173 75.5752 89.385 75.5258 89.4343C75.4763 89.4836 75.4083 89.5082 75.3403 89.5082H75.3341Z" fill="black"/>
<path id="Vector_30" d="M41.3365 63.6697C41.2995 63.6697 41.2685 63.6636 41.2314 63.6513C41.1016 63.5959 41.0398 63.442 41.0954 63.3127C41.8064 61.6751 43.1666 60.3391 44.8297 59.6619C44.9595 59.6065 45.1141 59.6681 45.1697 59.8035C45.2254 59.9328 45.1635 60.0867 45.0275 60.1421C43.4943 60.7762 42.233 62.0075 41.5715 63.522C41.5282 63.6205 41.4355 63.6759 41.3365 63.6759V63.6697Z" fill="white"/>
<path id="Vector_31" d="M44.9286 60.1481C44.7864 60.1481 44.6689 60.0311 44.6689 59.8895V56.8113C44.6689 56.6697 44.7864 56.5527 44.9286 56.5527C45.0708 56.5527 45.1883 56.6697 45.1883 56.8113V59.8895C45.1883 60.0311 45.0708 60.1481 44.9286 60.1481Z" fill="white"/>
<path id="Vector_32" d="M75.0932 66.4406C74.951 66.4406 74.8335 66.3236 74.8335 66.182V56.7996C74.8335 56.658 74.951 56.541 75.0932 56.541C75.2354 56.541 75.3528 56.658 75.3528 56.7996V66.182C75.3528 66.3236 75.2354 66.4406 75.0932 66.4406Z" fill="white"/>
<path id="Vector_33" d="M54.5608 48.6669C54.4186 48.6669 54.3011 48.5499 54.3011 48.4083V45.995C52.6813 45.8226 51.5375 45.287 50.808 44.3512C49.3242 42.4489 49.8682 39.2229 50.4494 35.8122C50.5174 35.3936 50.5916 34.9749 50.6596 34.5501C50.7338 34.0884 50.8327 33.6205 50.9564 33.1588L51.216 32.1737C51.2531 32.0383 51.3953 31.9521 51.5313 31.989C51.6674 32.026 51.7539 32.1676 51.7168 32.303L51.4571 33.2881C51.3397 33.7375 51.2469 34.1869 51.1727 34.6363C51.1047 35.0611 51.0306 35.4859 50.9625 35.9045C50.3999 39.2044 49.8744 42.3196 51.2222 44.0434C51.8899 44.9053 52.9966 45.3855 54.5917 45.5148C54.7277 45.5271 54.8328 45.6379 54.8328 45.7733V48.4206C54.8328 48.5622 54.7153 48.6792 54.5731 48.6792L54.5608 48.6669Z" fill="black"/>
<path id="Vector_34" d="M63.1113 48.1434C62.9877 48.1434 62.8764 48.0511 62.8578 47.9218L62.1901 43.5322C62.1716 43.3906 62.2643 43.2613 62.4065 43.2367C62.5487 43.2183 62.6785 43.3106 62.7033 43.4522L63.371 47.8417C63.3895 47.9833 63.2968 48.1126 63.1546 48.1373C63.1422 48.1373 63.1298 48.1373 63.1175 48.1373L63.1113 48.1434Z" fill="black"/>
<path id="Vector_35" d="M62.6415 38.2558C62.6415 39.5425 61.5967 40.583 60.3045 40.583C59.0124 40.583 57.9675 39.5425 57.9675 38.2558C57.9675 36.9691 59.0124 35.9287 60.3045 35.9287C61.5967 35.9287 62.6415 36.9691 62.6415 38.2558Z" fill="white"/>
<path id="Vector_36" d="M59.8718 38.9335C59.8223 38.9335 59.7667 38.915 59.7234 38.8842C59.6059 38.8042 59.5812 38.638 59.6616 38.5271L60.5147 37.3328C60.6013 37.2158 60.762 37.1912 60.8733 37.2712C60.9908 37.3513 61.0155 37.5175 60.9352 37.6283L60.082 38.8226C60.0325 38.8904 59.9521 38.9335 59.8718 38.9335Z" fill="black"/>
<path id="Vector_37" d="M62.2643 40.8852C62.2643 41.7286 61.578 42.412 60.731 42.412C59.884 42.412 59.1978 41.7286 59.1978 40.8852C59.1978 40.0418 59.884 39.3584 60.731 39.3584C61.578 39.3584 62.2643 40.0418 62.2643 40.8852Z" fill="#FF636B"/>
<path id="Vector_38" d="M54.5609 46.0254C54.4187 46.0254 54.3013 45.9084 54.3013 45.7668C54.3013 45.6252 54.4187 45.5083 54.5609 45.5083C56.2488 45.5083 57.5595 45.0281 57.5718 45.0219C57.7017 44.9727 57.8562 45.0404 57.9057 45.1758C57.9551 45.3113 57.8871 45.459 57.7511 45.5083C57.6955 45.5267 56.3415 46.0254 54.5548 46.0254H54.5609Z" fill="black"/>
<path id="Vector_39" d="M52.3598 39.7956C52.3598 39.7956 52.3104 39.7956 52.2857 39.7833C52.1496 39.7402 52.0754 39.5986 52.1125 39.457L53.1636 36.1018C53.2069 35.9663 53.349 35.8925 53.4912 35.9294C53.6273 35.9725 53.7015 36.1141 53.6644 36.2557L52.6133 39.611C52.5762 39.7218 52.4773 39.7895 52.366 39.7895L52.3598 39.7956Z" fill="black"/>
<path id="Vector_40" d="M55.89 37.5847C56.1803 37.5847 56.4155 37.3504 56.4155 37.0614C56.4155 36.7724 56.1803 36.5381 55.89 36.5381C55.5998 36.5381 55.3645 36.7724 55.3645 37.0614C55.3645 37.3504 55.5998 37.5847 55.89 37.5847Z" fill="black"/>
<path id="Vector_41" d="M52.094 36.7909C52.094 37.0802 51.8591 37.3142 51.5685 37.3142C51.2779 37.3142 51.043 37.0802 51.043 36.7909C51.043 36.5015 51.2779 36.2676 51.5685 36.2676C51.8591 36.2676 52.094 36.5015 52.094 36.7909Z" fill="black"/>
<path id="Vector_42" d="M53.0896 41.556C52.5208 41.556 52.0014 41.1805 51.8407 40.6141C51.8221 40.5464 51.8283 40.4786 51.8654 40.4171C51.8963 40.3555 51.9582 40.3124 52.02 40.294L54.0169 39.7337C54.085 39.7152 54.153 39.7214 54.2148 39.7583C54.2766 39.7891 54.3199 39.8507 54.3384 39.9123C54.5301 40.5956 54.1282 41.3098 53.442 41.5068C53.3245 41.5376 53.207 41.556 53.0957 41.556H53.0896ZM52.4528 40.7126C52.6382 40.9712 52.9721 41.1066 53.2998 41.0143C53.6274 40.9219 53.8438 40.6387 53.8686 40.3186L52.4528 40.7126Z" fill="black"/>
<path id="Vector_43" d="M54.5608 47.9583C54.5608 47.9583 55.5871 48.851 56.6319 48.1245C57.6706 47.4042 57.9117 45.1387 57.9117 45.1387L54.5608 45.7605V47.9583Z" fill="black"/>
<path id="Vector_44" d="M102.432 39.888C102.284 39.888 102.173 39.771 102.173 39.6232C102.21 37.5731 101.604 35.9232 100.386 34.7227C98.0427 32.414 94.1662 32.4941 94.1291 32.4941C93.9807 32.4941 93.8695 32.3833 93.8633 32.2417C93.8633 32.1001 93.9746 31.9831 94.1168 31.9769C94.2837 31.9769 98.2529 31.8907 100.751 34.3533C102.08 35.6585 102.729 37.4377 102.692 39.6294C102.692 39.771 102.574 39.8818 102.432 39.8818V39.888Z" fill="black"/>
<path id="Vector_45" d="M102.432 32.4936C102.432 32.4936 102.395 32.4936 102.377 32.4936C102.234 32.4628 102.148 32.3274 102.179 32.1858L104.12 22.9142C104.151 22.7726 104.287 22.6864 104.429 22.7172C104.571 22.7479 104.658 22.8834 104.627 23.025L102.686 32.2966C102.661 32.4197 102.55 32.4998 102.432 32.4998V32.4936Z" fill="black"/>
<path id="Vector_46" d="M98.8649 31.7981C98.8649 31.7981 98.8402 31.7981 98.8278 31.7981C98.6856 31.7796 98.5867 31.6503 98.6053 31.5087L99.545 24.4719C99.5635 24.3303 99.6996 24.2318 99.8356 24.2503C99.9778 24.2687 100.077 24.398 100.058 24.5396L99.1246 31.5764C99.106 31.7057 98.9948 31.7981 98.8711 31.7981H98.8649Z" fill="black"/>
<path id="Vector_47" d="M13.6757 35.4238C13.6757 35.4238 13.6201 35.4238 13.5892 35.4115L2.20095 31.3852C2.06494 31.336 1.99693 31.1882 2.04639 31.0528C2.09585 30.9173 2.24423 30.8496 2.38024 30.8989L13.7685 34.9252C13.9045 34.9744 13.9725 35.1222 13.923 35.2576C13.8859 35.3623 13.787 35.43 13.6819 35.43L13.6757 35.4238Z" fill="black"/>
<path id="Vector_48" d="M13.614 33.7622C13.5645 33.7622 13.515 33.7499 13.4718 33.7191L4.43908 27.8027C4.32161 27.7227 4.28451 27.5626 4.36489 27.4457C4.44526 27.3287 4.606 27.2918 4.72347 27.3718L13.7562 33.2881C13.8736 33.3682 13.9107 33.5282 13.8304 33.6452C13.7809 33.7191 13.7005 33.7622 13.614 33.7622Z" fill="black"/>
<path id="Vector_49" d="M23.9017 39.7277C23.7843 39.7277 23.673 39.6476 23.6483 39.5245C23.6359 39.4814 22.6158 35.0118 18.5786 34.3038C14.5537 33.602 12.9525 36.2985 12.8845 36.4155C12.8288 36.514 12.7052 36.5694 12.5939 36.5386C12.5321 36.5202 6.603 34.9934 4.60605 34.6855C2.67709 34.3839 2.09594 35.9476 2.07121 36.0153C2.02174 36.1508 1.87336 36.2185 1.74353 36.1754C1.60751 36.1261 1.53951 35.9846 1.58278 35.8491C1.58897 35.8306 2.31851 33.8113 4.68642 34.1746C6.54118 34.4578 11.5181 35.726 12.5444 35.9907C13.0019 35.3504 14.8814 33.1341 18.6651 33.7929C23.0486 34.5624 24.1429 39.3644 24.149 39.4137C24.18 39.5553 24.0934 39.6907 23.9512 39.7215C23.9327 39.7215 23.9141 39.7215 23.8956 39.7215L23.9017 39.7277Z" fill="black"/>
<path id="Vector_50" d="M32.5386 19.5469H6.19482V36.6372H32.5386V19.5469Z" fill="#FF636B"/>
<path id="Vector_51" d="M32.5449 36.8955H6.19497C6.05277 36.8955 5.9353 36.7785 5.9353 36.637V19.5467C5.9353 19.4051 6.05277 19.2881 6.19497 19.2881H32.5388C32.681 19.2881 32.7984 19.4051 32.7984 19.5467V36.637C32.7984 36.7785 32.681 36.8955 32.5388 36.8955H32.5449ZM6.45464 36.3784H32.2791V19.8052H6.45464V36.3784Z" fill="black"/>
<path id="Vector_52" d="M32.5449 23.9728H6.19497C6.05277 23.9728 5.9353 23.8559 5.9353 23.7143V19.5525C5.9353 19.4109 6.05277 19.2939 6.19497 19.2939H32.5388C32.681 19.2939 32.7984 19.4109 32.7984 19.5525V23.7143C32.7984 23.8559 32.681 23.9728 32.5388 23.9728H32.5449ZM6.45464 23.4557H32.2791V19.8049H6.45464V23.4557Z" fill="black"/>
<path id="Vector_53" d="M19.3698 36.8951C19.2276 36.8951 19.1101 36.7781 19.1101 36.6365V19.7371C19.1101 19.5955 19.2276 19.4785 19.3698 19.4785C19.512 19.4785 19.6294 19.5955 19.6294 19.7371V36.6365C19.6294 36.7781 19.512 36.8951 19.3698 36.8951Z" fill="black"/>
<path id="Vector_54" d="M19.3698 19.7624C19.3389 19.7624 19.3018 19.7563 19.2709 19.744C18.9617 19.6208 11.6973 16.6534 11.3016 13.7045C11.1965 12.9349 11.5427 12.2454 12.3341 11.6482C13.1501 11.0264 13.9786 10.8602 14.8009 11.1434C17.7932 12.19 19.5491 19.1468 19.6233 19.4423C19.648 19.5346 19.6171 19.6332 19.5429 19.7009C19.4934 19.744 19.4316 19.7624 19.376 19.7624H19.3698ZM14.0219 11.5251C13.5706 11.5251 13.1192 11.7036 12.6494 12.0607C12.0126 12.5471 11.7405 13.0642 11.8147 13.6368C12.1177 15.8839 17.3357 18.3403 18.9741 19.0606C18.5104 17.4353 16.9153 12.4363 14.6216 11.6298C14.4176 11.5621 14.2197 11.5251 14.0157 11.5251H14.0219Z" fill="black"/>
<path id="Vector_55" d="M20.1798 19.8054C20.1118 19.8054 20.0499 19.7808 19.9943 19.7316C19.8954 19.633 19.8954 19.4668 19.9943 19.3683C21.6636 17.6999 25.8739 12.9102 25.3051 10.8478C25.1814 10.3984 24.8228 10.1029 24.217 9.94896C23.5307 9.77658 22.931 9.88739 22.3869 10.2999C19.8768 12.1776 19.6233 19.4422 19.6233 19.5161C19.6233 19.6577 19.5182 19.7685 19.3575 19.7685C19.2153 19.7685 19.104 19.6454 19.104 19.5038C19.1164 19.1959 19.3699 11.919 22.0716 9.89355C22.7393 9.39488 23.506 9.24712 24.3406 9.45644C25.132 9.6596 25.6204 10.0844 25.7997 10.7185C26.5663 13.4889 20.6125 19.4853 20.3591 19.7377C20.3096 19.787 20.2416 19.8116 20.1736 19.8116L20.1798 19.8054Z" fill="black"/>
</g>
<defs>
<clipPath id="clip0_2304_1861">
<rect width="122" height="102" fill="white"/>
</clipPath>
</defs>
</svg>
