<svg width="125" height="126" viewBox="0 0 125 126" fill="none" xmlns="http://www.w3.org/2000/svg">
<g id="_Layer_" clip-path="url(#clip0_1981_3572)">
<path id="Vector" d="M42.2452 5.97191C33.9251 8.13057 25.8493 12.0279 20.0357 18.3443C12.0484 27.0251 10.0516 38.6163 16.0758 48.8301C21.1479 57.4353 28.2421 57.6495 37.211 58.9808C51.7281 61.1394 50.3505 74.5869 54.6643 85.4096C59.2857 96.9924 71.7343 102.855 83.7406 102.654C112.105 102.183 129.141 72.6593 124.132 46.7638C120.45 27.7349 107.888 15.2995 92.0902 8.79413C76.798 2.49875 58.4769 1.7596 42.2494 5.97191H42.2452Z" fill="#02AFED"/>
<path id="Vector_2" d="M111.679 45.5925L110.576 48.8599L107.681 47.8898L108.785 44.6224L105.503 43.5221L104.4 46.7895L101.51 45.8193L102.614 42.5519L99.3318 41.4516L98.2281 44.719L95.334 43.7489L96.4377 40.4815L93.156 39.3812L92.0522 42.6485L89.1623 41.6784L90.266 38.411L86.9843 37.3107L85.8806 40.5781L82.9865 39.6079L84.0902 36.3406L80.8085 35.2402L79.7047 38.5076L67.5679 74.4824L101.716 85.9351L113.857 49.9603L114.961 46.6929L111.679 45.5925Z" fill="white"/>
<path id="Vector_3" d="M101.72 86.271C101.683 86.271 101.645 86.2668 101.611 86.2542L67.4626 74.8015C67.2857 74.7427 67.1888 74.5496 67.2478 74.3732L80.4884 35.131C80.5178 35.047 80.5768 34.9756 80.6569 34.9378C80.7369 34.9 80.8296 34.8916 80.9138 34.921L84.1956 36.0213C84.3725 36.0801 84.4694 36.2733 84.4104 36.4497L83.4162 39.3979L85.6658 40.1538L86.66 37.2014C86.6895 37.1175 86.7485 37.0461 86.8285 37.0083C86.9086 36.9705 87.0012 36.9621 87.0855 36.9915L90.3672 38.0918C90.5441 38.1506 90.641 38.3438 90.582 38.5202L89.5878 41.4684L91.8374 42.2243L92.8316 39.2719C92.8611 39.1879 92.9201 39.1165 93.0001 39.0787C93.0802 39.0409 93.1729 39.0325 93.2571 39.0619L96.5388 40.1622C96.7158 40.221 96.8127 40.4142 96.7537 40.5906L95.7595 43.5388L98.0091 44.2948L99.0033 41.3424C99.0328 41.2584 99.0918 41.187 99.1718 41.1492C99.2518 41.1114 99.3445 41.103 99.4288 41.1324L102.71 42.2327C102.887 42.2915 102.984 42.4847 102.925 42.6611L101.931 45.6093L104.181 46.3652L105.175 43.4128C105.204 43.3288 105.263 43.2574 105.343 43.2196C105.423 43.1776 105.516 43.1734 105.6 43.2028L108.882 44.3032C109.059 44.362 109.156 44.5552 109.097 44.7315L108.103 47.6797L110.352 48.4357L111.347 45.4833C111.376 45.3993 111.435 45.3279 111.515 45.2901C111.595 45.2523 111.688 45.2439 111.772 45.2733L115.054 46.3736C115.231 46.4324 115.328 46.6256 115.269 46.802L102.028 86.0442C101.999 86.1282 101.94 86.1996 101.86 86.2374C101.813 86.2584 101.763 86.271 101.712 86.271H101.72ZM67.9976 74.2682L101.506 85.5066L114.531 46.9028L111.894 46.0167L110.9 48.9691C110.871 49.0531 110.812 49.1244 110.732 49.1622C110.651 49.2 110.559 49.2084 110.475 49.179L107.58 48.2089C107.403 48.1501 107.307 47.9569 107.366 47.7805L108.36 44.8323L105.723 43.9462L104.728 46.8986C104.699 46.9826 104.64 47.054 104.56 47.0918C104.48 47.1296 104.387 47.138 104.303 47.1086L101.409 46.1384C101.232 46.0797 101.135 45.8865 101.194 45.7101L102.188 42.7619L99.5509 41.8757L98.5567 44.8281C98.5272 44.9121 98.4683 44.9835 98.3882 45.0213C98.3082 45.0633 98.2155 45.0675 98.1313 45.0381L95.2371 44.068C95.0602 44.0092 94.9633 43.816 95.0223 43.6396L96.0165 40.6914L93.3793 39.8053L92.3851 42.7577C92.3556 42.8417 92.2966 42.9131 92.2166 42.9509C92.1365 42.9929 92.0439 42.9971 91.9596 42.9677L89.0655 41.9975C88.8885 41.9387 88.7916 41.7455 88.8506 41.5692L89.8448 38.621L87.2077 37.7348L86.2134 40.6872C86.184 40.7712 86.125 40.8426 86.0449 40.8804C85.9649 40.9182 85.8722 40.9266 85.788 40.8972L82.8938 39.9271C82.7169 39.8683 82.62 39.6751 82.679 39.4987L83.6732 36.5505L81.036 35.6643L68.0103 74.2682H67.9976Z" fill="black"/>
<path id="Vector_4" d="M77.3541 65.2722C77.274 65.1882 77.1982 65.0916 77.1266 64.9782C77.0507 64.8648 77.0002 64.7682 76.9707 64.68C76.9117 64.4575 76.9033 64.2601 76.9538 64.0879C77.0044 63.9157 77.0339 63.8023 77.055 63.7519C77.135 63.5083 77.2487 63.3067 77.392 63.1388C77.6658 62.8742 78.6137 62.4878 80.2398 61.9754C80.7622 61.8032 81.4025 61.5219 82.1523 61.1397C82.9022 60.7533 83.4836 60.4131 83.8964 60.115C84.8443 59.3716 85.6278 58.5989 86.2471 57.8009C86.6389 57.3053 87.0012 56.625 87.3424 55.7598L87.414 55.5499C87.5362 55.1929 87.612 54.8485 87.65 54.5125C87.6837 54.0968 87.6247 53.7314 87.4688 53.408C87.3172 53.0846 87.0223 52.8536 86.5841 52.7066C86.0912 52.5597 85.611 52.5807 85.1434 52.7696C84.6758 52.9586 84.2671 53.24 83.9091 53.6264C83.551 54.0086 83.294 54.4159 83.1423 54.8485C82.957 55.3651 82.6958 55.7262 82.3588 55.9278C82.0175 56.1294 81.6384 56.1588 81.2087 56.0118C80.4673 55.764 80.105 55.3819 80.1176 54.8695C80.1302 54.3571 80.185 53.9582 80.2819 53.6726C80.4631 53.135 80.8085 52.5597 81.314 51.9465C81.9544 51.1737 82.7716 50.5396 83.7743 50.044C84.9749 49.4435 86.2387 49.3637 87.5615 49.8088C88.6484 50.1742 89.4656 50.7706 90.0049 51.5937C90.5441 52.4169 90.7842 53.4038 90.7168 54.5503C90.6705 55.2601 90.5357 55.953 90.304 56.6292C90.127 57.1499 89.8953 57.6623 89.6089 58.1663C88.9559 59.3296 88.1386 60.3795 87.1571 61.3161C86.1755 62.2526 85.1518 63.0086 84.0902 63.5797L83.1128 64.1089L84.7769 64.6968L86.4241 65.2932L86.681 65.6544C86.9549 66.1038 87.0223 66.5405 86.879 66.9689C86.858 67.0277 86.8327 67.0907 86.8032 67.1453C86.5841 67.6241 86.1755 67.9012 85.5773 67.981C85.4762 67.9936 85.3582 67.9936 85.2319 67.9726C85.1013 67.9516 84.9033 67.9096 84.6294 67.8382C84.3598 67.7668 83.968 67.6492 83.4541 67.4813C82.9443 67.3133 82.2492 67.0907 81.3772 66.8051C80.4841 66.5153 79.7848 66.2843 79.2708 66.1122C78.7569 65.94 78.3735 65.8056 78.125 65.7132C77.8764 65.6208 77.6995 65.541 77.5984 65.478C77.4973 65.415 77.4172 65.3478 77.3541 65.2806V65.2722Z" fill="#FF636B"/>
<path id="Vector_5" d="M93.7289 70.9251C93.4635 70.7865 93.1939 70.6143 92.9116 70.396C92.6294 70.1818 92.3808 69.9634 92.1618 69.745C91.8879 69.4384 91.6268 69.052 91.3824 68.5859C91.1381 68.1155 90.9906 67.7165 90.9401 67.3806C90.9106 67.0614 90.9401 66.7758 91.0243 66.5238C91.0917 66.3222 91.1971 66.1416 91.3403 65.9779C91.6647 65.6125 92.0817 65.4613 92.583 65.5243C92.6926 65.5411 92.7979 65.5663 92.8906 65.5999C93.0633 65.6587 93.215 65.7427 93.3413 65.8519C93.5225 66.0283 93.7289 66.3558 93.9564 66.8262C94.1249 67.1832 94.2723 67.4436 94.3903 67.6116C94.5083 67.7753 94.6389 67.9097 94.7821 68.0021C94.9674 68.1113 95.157 68.1995 95.3466 68.2625C95.7805 68.4095 96.2439 68.4305 96.7368 68.3213C97.453 68.1533 98.0554 67.8341 98.5525 67.3638C99.0454 66.8934 99.3824 66.3852 99.5677 65.8477C99.6267 65.6755 99.6731 65.4907 99.7068 65.3017C99.8205 64.3652 99.6731 63.7142 99.2729 63.3572C98.8684 63.0003 98.5356 62.7777 98.2744 62.6895C97.8321 62.5425 97.3224 62.5341 96.7536 62.6727C96.6188 62.7063 96.4714 62.7441 96.3197 62.7903C96.1681 62.8365 96.0543 62.8743 95.9743 62.9079C95.6373 63.0171 95.3255 63.0213 95.0391 62.9289C94.9337 62.8953 94.8284 62.8449 94.7273 62.7819C94.3608 62.5509 94.1249 62.2653 94.0196 61.9209C93.9185 61.5766 93.9101 61.2742 93.9985 61.0138C94.0491 60.8668 94.1207 60.7198 94.2176 60.5812C94.2892 60.4888 94.4198 60.3754 94.6094 60.241C94.7989 60.1066 95.0306 59.9681 95.3003 59.8295C95.5488 59.6993 95.9027 59.5061 96.3619 59.2415C96.821 58.9811 97.2802 58.7123 97.731 58.4394C98.1775 58.1748 98.5778 57.9396 98.9232 57.7296C99.2686 57.5238 99.4835 57.3978 99.5635 57.3558L99.8163 57.2088L97.6257 56.5453C96.939 56.3437 96.4461 56.1967 96.147 56.1001C95.8479 56.0035 95.6246 55.9321 95.4772 55.8817L95.1107 55.7599C94.9127 55.6843 94.7737 55.6171 94.6852 55.5542C94.6009 55.4912 94.5209 55.4198 94.4535 55.34C94.3103 55.1552 94.2134 54.92 94.1628 54.6344C94.1081 54.3446 94.1165 54.0969 94.1881 53.8911C94.2976 53.5593 94.5083 53.2989 94.8158 53.1099C95.1233 52.9167 95.4519 52.8327 95.8058 52.8537C95.9364 52.8705 96.404 52.9923 97.2044 53.2275C98.009 53.4627 98.9611 53.7525 100.069 54.0927C101.164 54.4328 101.91 54.6638 102.298 54.7898C102.685 54.9158 102.959 55.004 103.115 55.0586C103.427 55.1636 103.671 55.2518 103.844 55.319C104.092 55.4114 104.265 55.4954 104.358 55.5626C104.699 55.8229 104.897 56.1085 104.964 56.4193C105.032 56.7301 105.023 57.0031 104.943 57.2382C104.901 57.36 104.842 57.4818 104.762 57.5994C104.699 57.7044 104.56 57.8388 104.341 58.0026C104.126 58.1664 103.776 58.3974 103.3 58.6955C102.82 58.9937 102.154 59.3969 101.295 59.9009L100.482 60.367L100.912 60.7282C101.779 61.4548 102.352 62.3619 102.622 63.4538C102.892 64.5458 102.837 65.6797 102.449 66.8556C101.935 68.2667 101.076 69.3922 99.8753 70.2322C98.6746 71.0721 97.3392 71.4795 95.8605 71.4585C95.5572 71.4333 95.2413 71.3829 94.9085 71.3073C94.5757 71.2317 94.3229 71.1603 94.1502 71.1015C93.9859 71.0469 93.8384 70.9881 93.7163 70.9251H93.7289Z" fill="#FF636B"/>
<path id="Vector_6" d="M27.6903 100.59C32.8187 99.4535 36.0521 94.3878 34.9124 89.2752C33.7726 84.1627 28.6913 80.9392 23.5629 82.0755C18.4345 83.2117 15.2011 88.2774 16.3408 93.3899C17.4806 98.5025 22.5619 101.726 27.6903 100.59Z" fill="#02AFED"/>
<path id="Vector_7" d="M40.8761 35.6387C45.8387 36.1889 44.9666 46.2178 44.9034 49.8716C44.8697 51.7908 44.7434 56.7759 44.6928 58.712L36.8571 55.8562L34.7971 47.4105C35.4964 37.9234 36.7813 35.1809 40.8761 35.6387Z" fill="white"/>
<path id="Vector_8" d="M44.7012 59.0481C44.6591 59.0481 44.6212 59.0397 44.5833 59.0271L36.7476 56.1713C36.6423 56.1335 36.5622 56.0453 36.5327 55.9319L34.4727 47.4863C34.4643 47.4527 34.4601 47.4149 34.4643 47.3813C34.9698 40.5357 35.7787 37.4783 37.4427 36.1008C38.3063 35.3869 39.41 35.1307 40.9182 35.2987C45.7123 35.832 45.4342 44.1685 45.2826 48.6454C45.2657 49.1031 45.2531 49.5189 45.2489 49.8717C45.2152 51.7826 45.093 56.692 45.0382 58.7163C45.0382 58.8255 44.9793 58.9263 44.8908 58.9893C44.836 59.0271 44.7686 59.0481 44.7012 59.0481ZM37.1478 55.6043L44.3684 58.2333C44.4232 56.0033 44.5327 51.6398 44.5664 49.8633C44.5706 49.5063 44.5875 49.0905 44.6001 48.6286C44.7307 44.6724 45.0088 36.4368 40.8382 35.9748C39.528 35.8278 38.5843 36.0378 37.8724 36.6258C36.3937 37.8521 35.627 40.8675 35.1425 47.3813L37.1478 55.6001V55.6043Z" fill="black"/>
<path id="Vector_9" d="M37.451 65.1038L36.065 55.562C34.5611 45.2223 41.7522 35.6301 52.1197 34.1308C62.4915 32.6315 72.1133 39.8004 73.6173 50.136L75.0033 59.6777L37.4468 65.1038H37.451Z" fill="#FF636B"/>
<path id="Vector_10" d="M38.5886 52.7984C38.5043 52.7984 38.4243 52.769 38.3611 52.7144C38.2853 52.6472 38.2431 52.5549 38.2474 52.4541C38.34 48.5945 39.8061 44.861 42.3758 41.938C44.9793 38.9814 48.5601 37.0411 52.4569 36.4783C53.211 36.3691 53.9735 36.3103 54.7318 36.3061C61.885 36.2515 68.4231 40.9678 70.6306 47.7756C70.6601 47.8722 70.6474 47.973 70.5969 48.057C70.5421 48.1409 70.4579 48.1997 70.3568 48.2123L38.6307 52.7942C38.6307 52.7942 38.6012 52.7942 38.5844 52.7942L38.5886 52.7984ZM54.7402 36.9781C54.0156 36.9823 53.2826 37.0411 52.558 37.1461C44.9751 38.2422 39.309 44.483 38.9425 52.0677L69.8597 47.6034C67.6227 41.2786 61.4637 36.9277 54.7402 36.9823V36.9781Z" fill="white"/>
<path id="Vector_11" d="M38.0375 69.1212L75.594 63.6992L73.9813 52.5976L36.4249 58.0195L38.0375 69.1212Z" fill="white"/>
<path id="Vector_12" d="M38.0367 69.4631C37.9651 69.4631 37.8893 69.4421 37.8303 69.3959C37.7587 69.3413 37.7123 69.2615 37.6997 69.1733L36.0862 58.0692C36.0609 57.8844 36.1873 57.7123 36.3727 57.6871L73.9291 52.261C74.1145 52.2358 74.2872 52.3618 74.3125 52.5466L75.926 63.6507C75.9386 63.7389 75.9175 63.8312 75.8628 63.9026C75.808 63.974 75.728 64.0202 75.6395 64.0328L38.0831 69.4589C38.0831 69.4589 38.0536 69.4589 38.0367 69.4589V69.4631ZM36.8066 58.3086L38.3232 68.7407L75.2056 63.4113L73.689 52.9792L36.8066 58.3086Z" fill="black"/>
<path id="Vector_13" d="M51.4457 112.675C59.9259 112.099 66.8306 106.388 69.3077 98.7734C69.5646 101.184 69.7416 103.549 69.8553 105.808C70.3777 116.101 62.5589 124.921 52.2419 125.618C41.6216 126.336 32.4969 118.189 32.0545 107.589L31.7849 101.167C35.2267 108.437 42.8812 113.258 51.4457 112.675Z" fill="black"/>
<path id="Vector_14" d="M51.353 112.38C60.1534 111.784 67.2055 105.497 69.1434 97.3496C69.4888 100.252 69.7163 103.107 69.8511 105.808C70.3735 116.101 62.5547 124.921 52.2377 125.618C41.6174 126.336 32.4927 118.189 32.0503 107.589L31.7344 100.042C34.7928 107.744 42.5821 112.977 51.353 112.38Z" fill="black"/>
<path id="Vector_15" d="M66.9656 4.35938L68.3516 13.9011C69.8555 24.2409 62.6644 33.833 52.2969 35.3323C41.9251 36.8316 32.3033 29.6627 30.7993 19.3272L29.4133 9.78541L66.9698 4.35938H66.9656Z" fill="#FF636B"/>
<path id="Vector_16" d="M66.3795 0.34075L28.823 5.7627L30.4357 16.8643L67.9921 11.4424L66.3795 0.34075Z" fill="white"/>
<path id="Vector_17" d="M30.4413 17.2023C30.3696 17.2023 30.2938 17.1813 30.2348 17.1351C30.1632 17.0805 30.1169 17.0007 30.1042 16.9125L28.4908 5.80849C28.4655 5.6237 28.5919 5.45151 28.7772 5.42631L66.3295 0.000275724C66.5148 -0.0249226 66.6875 0.101069 66.7128 0.285857L68.3263 11.3899C68.3389 11.4781 68.3179 11.5705 68.2631 11.6419C68.2083 11.7133 68.1283 11.7595 68.0398 11.7721L30.4834 17.1981C30.4834 17.1981 30.4539 17.1981 30.437 17.1981L30.4413 17.2023ZM29.2069 6.04787L30.7235 16.48L67.6059 11.1505L66.0893 0.718428L29.2069 6.04787Z" fill="black"/>
<path id="Vector_18" d="M3.55545 27.575C5.74607 26.4369 9.34374 26.8821 11.5554 29.6413C11.5554 29.6413 10.0178 23.4089 14.399 22.1406C20.36 20.4145 21.4974 26.5167 21.4974 26.5167C21.4806 24.1606 23.9703 21.7458 26.6328 22.2078C30.6475 22.9049 31.8692 27.2432 31.9576 38.5783C33.3057 40.254 38.1504 54.9362 40.4716 57.6576C42.1061 59.5769 47.035 61.4626 49.3688 62.4201C64.3661 68.5685 69.0128 89.2563 69.8553 105.803C70.3777 116.097 62.5589 124.916 52.2419 125.613C41.6216 126.331 32.4969 118.184 32.0545 107.584L31.4858 94.0776C31.3974 91.9861 30.7023 89.9702 29.4848 88.2652C26.3379 83.8638 20.0988 75.0696 17.8197 71.3487C13.805 64.7845 5.49752 48.3594 3.45013 44.1345C0.998327 39.078 -2.1233 30.5232 3.55545 27.5708V27.575Z" fill="white"/>
<path id="Vector_19" d="M51.0751 126C46.2768 126.038 41.7102 124.32 38.1041 121.099C34.2031 117.614 31.9325 112.822 31.7134 107.601L31.1447 94.0951C31.0604 92.0666 30.3906 90.118 29.2068 88.4633C25.8114 83.7176 19.7787 75.2048 17.5292 71.5258C13.565 65.0498 5.24484 48.6163 3.14269 44.2822C0.160084 38.1338 -2.21589 30.188 3.39967 27.2734C5.47654 26.194 8.72456 26.4628 11.0416 28.5963C10.8225 26.6602 10.8562 22.8175 14.3022 21.8179C16.1516 21.2804 17.7524 21.4148 19.0584 22.2169C20.2969 22.9812 21.0131 24.1824 21.4049 25.1147C21.6913 24.321 22.2137 23.5734 22.9172 22.9812C24.0168 22.0531 25.3901 21.6499 26.6918 21.8767C28.8572 22.2505 30.2558 23.6574 31.0899 26.3032C31.8693 28.7769 32.2442 32.5314 32.2948 38.4656C32.9182 39.3518 34.0304 42.1866 35.429 45.7395C37.211 50.2752 39.4353 55.9197 40.7286 57.44C42.1736 59.1366 46.3653 60.8375 48.8718 61.8539C49.0951 61.9463 49.3057 62.0302 49.4995 62.11C65.9165 68.8422 69.5142 92.3648 70.1967 105.787C70.4536 110.856 68.739 115.736 65.3689 119.533C61.9945 123.329 57.3436 125.61 52.2673 125.954C51.8713 125.979 51.4753 125.996 51.0793 126H51.0751ZM3.55554 27.5757L3.71141 27.8739C-1.41969 30.5407 0.901524 38.1086 3.75354 43.9882C5.85148 48.314 14.1548 64.7139 18.1063 71.173C20.3433 74.831 26.3675 83.3312 29.7587 88.0685C31.0183 89.8282 31.7345 91.9029 31.8229 94.0615L32.3916 107.568C32.6023 112.603 34.7929 117.227 38.5591 120.591C42.3253 123.955 47.1741 125.618 52.2209 125.274C62.2683 124.593 70.0281 115.866 69.5184 105.817C68.8444 92.5538 65.3141 69.321 49.2425 62.7316C49.0488 62.6518 48.8423 62.5678 48.6191 62.4754C46.0577 61.4381 41.7692 59.6994 40.2147 57.8725C38.8455 56.264 36.6971 50.8002 34.7971 45.9789C33.4785 42.6233 32.2316 39.4567 31.6923 38.7848C31.646 38.726 31.6165 38.6504 31.6165 38.5748C31.528 27.223 30.2558 23.1744 26.5739 22.5361C25.4701 22.3429 24.299 22.6915 23.3554 23.4894C22.3948 24.3 21.8261 25.4297 21.8346 26.5048C21.8346 26.6812 21.704 26.8282 21.527 26.845C21.3501 26.8576 21.1942 26.7442 21.1605 26.572C21.1563 26.5468 20.6508 23.9808 18.7003 22.7839C17.5671 22.0867 16.1516 21.9817 14.4918 22.4605C10.477 23.6238 11.8672 29.495 11.8841 29.5538C11.922 29.7092 11.8462 29.8688 11.703 29.936C11.5597 30.0074 11.387 29.9696 11.2901 29.8436C9.19638 27.2314 5.7925 26.7862 3.71141 27.8655L3.55554 27.5673V27.5757Z" fill="black"/>
<path id="Vector_20" d="M51.5723 111.171C59.7028 110.621 66.4011 105.401 69.2152 98.2988C69.5227 100.852 69.7291 103.372 69.8555 105.804C70.3779 116.097 62.5591 124.917 52.2421 125.614C41.6218 126.332 32.4971 118.185 32.0547 107.584L31.7219 99.6259C35.2311 106.925 42.9488 111.755 51.5765 111.167L51.5723 111.171Z" fill="black"/>
<path id="Vector_21" d="M23.7092 36.0716C23.5534 36.0716 23.4143 35.9666 23.3764 35.8112L21.1648 26.597C21.1226 26.4164 21.2322 26.2316 21.4175 26.1896C21.5987 26.1476 21.784 26.2568 21.8262 26.4416L24.0378 35.6558C24.08 35.8364 23.9704 36.0212 23.7851 36.0632C23.7598 36.0674 23.7345 36.0716 23.7092 36.0716Z" fill="black"/>
<path id="Vector_22" d="M18.8773 43.5258C18.7551 43.5258 18.6371 43.4628 18.5739 43.3494L11.2522 29.8053C11.1638 29.6415 11.2269 29.4357 11.3912 29.3476C11.5555 29.2594 11.762 29.3224 11.8504 29.4861L19.1721 43.0302C19.2606 43.194 19.1974 43.3998 19.0331 43.488C18.9826 43.5132 18.9278 43.53 18.8773 43.53V43.5258Z" fill="black"/>
<path id="Vector_23" d="M27.6313 75.0108C27.4838 75.0108 27.3448 74.9142 27.3027 74.7672C27.2564 74.6034 22.5297 58.3043 20.9415 53.5082C20.8741 53.2982 20.7982 53.0798 20.7224 52.8489C19.4333 49.0019 17.2806 42.5595 19.4586 38.5152C20.2927 36.9697 21.6913 35.924 23.6208 35.4074C26.9699 34.5087 30.1884 35.6174 32.2274 38.3808C32.3369 38.532 32.3074 38.742 32.1558 38.8554C32.0041 38.9646 31.7935 38.9352 31.6797 38.784C29.784 36.218 26.9109 35.2268 23.7935 36.0626C22.0536 36.5287 20.794 37.4653 20.0526 38.8386C18.0136 42.6225 20.1116 48.8927 21.3628 52.6347C21.4386 52.8657 21.5144 53.0882 21.5818 53.2982C23.17 58.1069 27.9009 74.4186 27.9515 74.5824C28.002 74.763 27.9009 74.9478 27.7198 75.0024C27.6903 75.0108 27.6566 75.015 27.6271 75.015L27.6313 75.0108Z" fill="black"/>
<path id="Vector_24" d="M49.6766 32.107C46.3527 32.1322 43.1173 31.0948 40.3917 29.1C37.0889 26.6851 34.9067 23.1406 34.2453 19.1214C34.2285 19.0206 34.258 18.9156 34.3296 18.8358C34.4012 18.7602 34.5023 18.7182 34.6076 18.7266C35.8588 18.8316 37.3164 19.3314 39.0057 19.9068C42.2832 21.0281 45.9988 22.2964 49.5923 21.1877C56.3116 19.113 62.1757 24.5769 62.4243 24.8078C62.5422 24.9212 62.5633 25.106 62.4706 25.2404C60.023 28.8732 56.1347 31.3174 51.804 31.9432C51.092 32.044 50.3843 32.0986 49.6766 32.107ZM34.991 19.4574C36.4949 27.1303 43.8967 32.4051 51.7029 31.2754C55.7471 30.6916 59.3869 28.449 61.7376 25.1102C60.6339 24.1653 55.4438 20.0874 49.7903 21.8344C45.9862 23.0104 41.9925 21.6455 38.7824 20.5493C37.3375 20.058 36.0652 19.6212 34.991 19.4574Z" fill="white"/>
<path id="Vector_25" d="M83.2687 23.023C83.1803 23.023 83.096 22.9894 83.0286 22.9264C82.8938 22.7962 82.8938 22.5821 83.0286 22.4477L87.0054 18.4201C87.136 18.2857 87.3509 18.2857 87.4857 18.4201C87.6205 18.5545 87.6205 18.7645 87.4857 18.8989L83.5088 22.9264C83.4414 22.9936 83.3572 23.0272 83.2687 23.0272V23.023Z" fill="black"/>
<path id="Vector_26" d="M87.275 22.9893C87.1866 22.9893 87.1023 22.9557 87.0349 22.8927L82.9949 18.9282C82.8601 18.798 82.8601 18.5838 82.9949 18.4494C83.1255 18.315 83.3403 18.315 83.4752 18.4494L87.5152 22.414C87.65 22.5442 87.65 22.7583 87.5152 22.8927C87.4478 22.9599 87.3635 22.9935 87.275 22.9935V22.9893Z" fill="black"/>
</g>
<defs>
<clipPath id="clip0_1981_3572">
<rect width="125" height="126" fill="white"/>
</clipPath>
</defs>
</svg>
