<svg width="120" height="118" viewBox="0 0 120 118" fill="none" xmlns="http://www.w3.org/2000/svg">
<g id="_Layer_" clip-path="url(#clip0_1981_3599)">
<path id="Vector" d="M119.76 84.0365C120.888 79.0872 117.786 74.1614 112.831 73.0342C107.876 71.907 102.944 75.0054 101.816 79.9547C100.687 84.9039 103.789 89.8298 108.744 90.9569C113.699 92.0841 118.631 88.9857 119.76 84.0365Z" fill="#02AFED"/>
<path id="Vector_2" d="M92.2744 85.5683C111.871 65.9946 111.871 34.2593 92.2744 14.6856C72.6777 -4.88811 40.905 -4.88811 21.3083 14.6856C1.71151 34.2593 1.71151 65.9946 21.3083 85.5683C40.905 105.142 72.6777 105.142 92.2744 85.5683Z" fill="#02AFED"/>
<path id="Vector_3" d="M57.2582 23.5205C42.9077 23.632 31.3629 35.3464 31.4744 49.6799C31.586 64.0135 43.3142 75.5448 57.6647 75.4333C72.0191 75.3219 83.56 63.6075 83.4484 49.2739L57.4614 49.4769L57.2582 23.5205Z" fill="#FF636B"/>
<path id="Vector_4" d="M57.6687 75.7793C43.1469 75.8947 31.2393 64.1842 31.1277 49.6835C31.0162 35.1828 42.7364 23.2853 57.2582 23.1738C57.4495 23.1738 57.6089 23.3251 57.6089 23.5201L57.8081 49.1302L83.4484 48.9312C83.6397 48.9312 83.7991 49.0825 83.7991 49.2775C83.9147 63.7822 72.1904 75.6758 57.6726 75.7872L57.6687 75.7793ZM56.9155 23.8704C42.9396 24.1689 31.7136 35.6724 31.8251 49.6756C31.9367 63.7981 43.5294 75.1941 57.6647 75.0827C71.6843 74.9712 83.026 63.5832 83.1017 49.6198L57.4654 49.8189C57.2741 49.8189 57.1147 49.6676 57.1147 49.4726L56.9155 23.8664V23.8704Z" fill="black"/>
<path id="Vector_5" d="M63.8457 17.1834L64.0489 43.1398L90.0359 42.9368C89.9243 28.5993 78.1961 17.072 63.8457 17.1834Z" fill="white"/>
<path id="Vector_6" d="M90.0399 43.2829L64.053 43.4859C63.8617 43.4859 63.7023 43.3346 63.7023 43.1396L63.499 17.1832C63.499 16.9921 63.6505 16.8329 63.8457 16.8329C78.3675 16.7174 90.2751 28.4279 90.3866 42.9326C90.3866 43.1236 90.2352 43.2829 90.0399 43.2829ZM64.3957 42.7893L89.6853 42.5903C89.3904 28.7463 78.0607 17.6051 64.1964 17.5295L64.3957 42.7893Z" fill="black"/>
<path id="Vector_7" d="M96.4918 70.1118C88.143 61.9002 72.1786 67.2937 72.1786 67.2937C72.1786 67.2937 64.3478 65.5224 56.6167 64.5312C48.5468 63.4963 46.2594 69.2998 46.2594 69.2998C46.2594 69.2998 28.3024 49.3936 20.4039 50.4445C16.8013 50.9221 15.7373 53.8159 15.7373 53.8159C8.20544 49.3618 2.06038 58.3456 7.44428 63.5958C10.4132 66.4936 12.88 69.0132 12.88 69.0132C5.34013 67.8868 2.41505 78.9325 8.27318 81.8899C13.1271 84.3419 37.9026 97.0753 46.2753 101.378C48.1045 102.318 50.101 102.879 52.1494 103.026L69.2177 104.252C71.6446 104.427 73.8364 105.765 75.0957 107.838C81.4201 118.243 95.4039 120.834 105.044 113.387C113.891 106.553 115.577 93.883 108.842 84.9628C104.534 79.2588 99.8951 73.4554 96.4918 70.1078V70.1118Z" fill="white"/>
<path id="Vector_8" d="M108.842 84.9659C107.578 83.2902 106.283 81.6104 105.004 79.9824C107.849 88.62 105.131 98.4676 97.5358 104.335C90.5658 109.72 81.4957 110.254 74.2029 106.655C74.5376 107.018 74.8365 107.412 75.0995 107.841C81.4239 118.246 95.4077 120.838 105.048 113.39C113.895 106.556 115.58 93.8861 108.846 84.9659H108.842Z" fill="black"/>
<path id="Vector_9" d="M92.7058 118C91.3947 118.012 90.0717 117.897 88.7645 117.654C82.9542 116.579 77.8652 113.069 74.8007 108.025C73.6011 106.047 71.505 104.769 69.1936 104.602L52.1253 103.376C50.0172 103.225 47.9967 102.66 46.1158 101.693C38.4364 97.744 12.9994 84.6723 8.11363 82.2044C4.81793 80.5406 4.30784 76.6756 5.22442 73.7898C6.03738 71.2423 8.26905 68.4958 11.9672 68.5873C11.0387 67.644 9.22946 65.8249 7.20104 63.8466C4.20422 60.921 4.71831 57.1396 6.46777 54.8628C8.23717 52.5581 11.7162 51.2287 15.5817 53.3263C16.0121 52.4865 17.3392 50.5002 20.3599 50.0982C27.836 49.1031 43.5812 65.8647 46.1795 68.6908C46.9646 67.2818 49.8219 63.3093 56.6644 64.185C63.8695 65.1084 71.2499 66.7285 72.1625 66.9315C72.8001 66.7285 76.586 65.5702 81.1809 65.2756C87.8719 64.8457 93.2478 66.4339 96.7348 69.8611C99.6758 72.7509 103.84 77.7622 109.121 84.7519C112.432 89.1383 113.859 94.5557 113.13 100.001C112.404 105.446 109.607 110.298 105.255 113.662C101.636 116.46 97.213 117.961 92.7058 117.996V118ZM11.756 69.2839C8.55199 69.3078 6.61124 71.7438 5.88993 74.0007C5.05704 76.6159 5.4954 80.1067 8.42845 81.5874C13.3142 84.0553 38.7552 97.1271 46.4346 101.076C48.2279 101.999 50.1607 102.54 52.1731 102.684L69.2414 103.91C71.776 104.093 74.0754 105.494 75.3945 107.663C78.3594 112.539 83.277 115.931 88.8921 116.97C94.5071 118.008 100.317 116.603 104.833 113.116C113.48 106.437 115.154 93.9029 108.567 85.1778C103.31 78.212 99.1657 73.2285 96.2486 70.3626C88.1468 62.3938 72.4494 67.5723 72.29 67.6241C72.2303 67.644 72.1625 67.648 72.1027 67.632C72.023 67.6161 64.2002 65.8528 56.5727 64.8776C48.8814 63.8904 46.6737 69.2043 46.586 69.4312C46.5422 69.5426 46.4425 69.6222 46.323 69.6461C46.2074 69.666 46.0839 69.6262 46.0042 69.5387C45.8248 69.3396 28.0791 49.7798 20.4516 50.7948C17.0961 51.2406 16.0759 53.9155 16.0639 53.9433C16.0281 54.0388 15.9524 54.1145 15.8527 54.1503C15.7571 54.1861 15.6495 54.1742 15.5578 54.1224C11.6763 51.8297 8.53207 53.3184 7.01374 55.2927C5.44758 57.3346 4.98929 60.726 7.68324 63.357C10.6203 66.223 13.099 68.7585 13.1229 68.7824C13.2265 68.8898 13.2505 69.0491 13.1827 69.1844C13.115 69.3158 12.9675 69.3914 12.8201 69.3675C12.4494 69.3118 12.0908 69.2879 11.7481 69.2919L11.756 69.2839Z" fill="black"/>
<path id="Vector_10" d="M73.6531 83.8164C73.6172 83.8164 73.5853 83.8124 73.5495 83.8005C73.4219 83.7607 60.6337 79.8599 56.788 78.8409L56.258 78.7016C53.1536 77.8896 47.953 76.5322 46.2035 73.332C45.5301 72.102 45.4384 70.7089 45.9326 69.1963C45.9923 69.0132 46.1876 68.9137 46.3709 68.9734C46.5542 69.0331 46.6539 69.2281 46.5941 69.4112C46.1557 70.7526 46.2275 71.9269 46.8133 72.9976C48.4193 75.9352 53.4365 77.2447 56.4334 78.0289L56.9674 78.1682C60.825 79.1912 73.6252 83.096 73.7527 83.1358C73.936 83.1915 74.0396 83.3865 73.9838 83.5696C73.94 83.7169 73.8005 83.8124 73.6531 83.8164Z" fill="black"/>
<path id="Vector_11" d="M37.5758 97.2582C37.4802 97.2582 37.3805 97.2184 37.3128 97.1427L12.617 69.2478C12.4895 69.1045 12.5054 68.8856 12.6489 68.7582C12.7923 68.6309 13.0115 68.6468 13.139 68.7901L37.8348 96.685C37.9624 96.8283 37.9464 97.0472 37.803 97.1746C37.7392 97.2343 37.6555 97.2621 37.5758 97.2621V97.2582Z" fill="black"/>
<path id="Vector_12" d="M43.2066 94.4358C43.107 94.4358 43.0073 94.396 42.9396 94.3124C42.7085 94.0378 19.7063 66.7439 16.2233 62.3058C12.5809 57.6686 15.4343 53.6563 15.4622 53.6165C15.5738 53.4612 15.7929 53.4294 15.9484 53.5408C16.1038 53.6523 16.1357 53.8712 16.0241 54.0265C15.9125 54.1817 13.4656 57.6686 16.7693 61.8799C20.2483 66.3101 43.2385 93.596 43.4736 93.8706C43.5971 94.0179 43.5772 94.2368 43.4298 94.3602C43.366 94.4159 43.2863 94.4398 43.2106 94.4398L43.2066 94.4358Z" fill="black"/>
<path id="Vector_13" d="M99.5004 53.5369C99.4007 53.5369 99.3051 53.4971 99.2373 53.4174C99.1098 53.2742 99.1258 53.0552 99.2692 52.9279L110.264 43.3032C110.408 43.1758 110.627 43.1917 110.754 43.335C110.882 43.4783 110.866 43.6972 110.722 43.8246L99.7275 53.4493C99.6638 53.505 99.5801 53.5329 99.5004 53.5369Z" fill="black"/>
<path id="Vector_14" d="M114.022 45.4964C111.272 45.5163 109.017 43.2992 108.993 40.5527C108.969 37.8062 111.193 35.5533 113.942 35.5294C116.692 35.5095 118.948 37.7266 118.972 40.4731C118.992 43.2196 116.772 45.4765 114.022 45.4964ZM113.95 36.222C111.583 36.2419 109.67 38.1804 109.69 40.5448C109.71 42.9092 111.651 44.8198 114.018 44.7999C116.385 44.78 118.298 42.8415 118.278 40.4771C118.258 38.1127 116.318 36.2021 113.95 36.222Z" fill="black"/>
<path id="Vector_15" d="M23.2213 19.6C23.2213 19.6 23.2054 19.6 23.2014 19.6L4.62673 18.6168C4.43544 18.6049 4.28799 18.4417 4.29596 18.2506C4.30792 18.0595 4.47529 17.9123 4.66259 17.9202L23.2372 18.9034C23.4285 18.9153 23.576 19.0785 23.568 19.2696C23.56 19.4527 23.4046 19.596 23.2253 19.6H23.2213Z" fill="black"/>
<path id="Vector_16" d="M27.8879 24.4834C27.0829 24.4913 26.2859 24.3003 25.5526 23.9181C23.1097 22.6524 22.1573 19.6352 23.4285 17.1952C24.6998 14.7552 27.7165 13.8039 30.1594 15.0736C31.343 15.6866 32.2157 16.7255 32.6142 17.9953C33.0127 19.265 32.8972 20.6144 32.2835 21.7966C31.6698 22.9788 30.6296 23.8505 29.3584 24.2485C28.8762 24.3998 28.382 24.4794 27.8879 24.4834ZM24.0462 17.5176C23.5162 18.5326 23.4166 19.6949 23.7633 20.7895C24.11 21.8802 24.8592 22.7758 25.8754 23.3052C27.9755 24.3958 30.5738 23.5758 31.6658 21.4781C32.1958 20.4631 32.2954 19.3008 31.9487 18.2062C31.602 17.1156 30.8528 16.22 29.8366 15.6906C27.7364 14.5999 25.1381 15.4199 24.0462 17.5176Z" fill="black"/>
<path id="Vector_17" d="M0.526061 16.1286C-0.65752 18.4015 0.227177 21.1997 2.50268 22.3819C4.77819 23.5641 7.57973 22.6804 8.76331 20.4076C9.94689 18.1348 9.06219 15.3365 6.78669 14.1544C4.51118 12.9722 1.70964 13.8558 0.526061 16.1286Z" fill="#FF636B"/>
<path id="Vector_18" d="M36.5276 28.6232C36.4359 28.6232 36.3443 28.5874 36.2765 28.5197L30.7691 22.9431C30.6336 22.8078 30.6376 22.5849 30.7691 22.4535C30.9046 22.3182 31.1277 22.3222 31.2592 22.4535L36.7667 28.0301C36.9022 28.1655 36.8982 28.3884 36.7667 28.5197C36.6989 28.5874 36.6113 28.6192 36.5236 28.6192L36.5276 28.6232Z" fill="black"/>
</g>
<defs>
<clipPath id="clip0_1981_3599">
<rect width="120" height="118" fill="white"/>
</clipPath>
</defs>
</svg>
